<?xml version="1.0" encoding="UTF-8" standalone="no"?>
<!-- Created with Inkscape (http://www.inkscape.org/) -->

<svg
   xmlns:dc="http://purl.org/dc/elements/1.1/"
   xmlns:cc="http://creativecommons.org/ns#"
   xmlns:rdf="http://www.w3.org/1999/02/22-rdf-syntax-ns#"
   xmlns:svg="http://www.w3.org/2000/svg"
   xmlns="http://www.w3.org/2000/svg"
   xmlns:sodipodi="http://sodipodi.sourceforge.net/DTD/sodipodi-0.dtd"
   xmlns:inkscape="http://www.inkscape.org/namespaces/inkscape"
   width="164.83759mm"
   height="126.6677mm"
   viewBox="0 0 584.07018 448.82256"
   id="svg2"
   version="1.1"
   inkscape:version="0.91 r13725"
   sodipodi:docname="Logo.svg">
  <defs
     id="defs4">
    <inkscape:perspective
       sodipodi:type="inkscape:persp3d"
       inkscape:vp_x="466.62024 : 1110.5014 : 1"
       inkscape:vp_y="-585.60218 : 523.17539 : 0"
       inkscape:vp_z="731.27891 : 1164.9153 : 1"
       inkscape:persp3d-origin="611.13447 : 605.8781 : 1"
       id="perspective3342" />
  </defs>
  <sodipodi:namedview
     id="base"
     pagecolor="#ffffff"
     bordercolor="#666666"
     borderopacity="1.0"
     inkscape:pageopacity="0.0"
     inkscape:pageshadow="2"
     inkscape:zoom="0.70710678"
     inkscape:cx="796.03257"
     inkscape:cy="115.90628"
     inkscape:document-units="px"
     inkscape:current-layer="layer1"
     showgrid="false"
     inkscape:window-width="1301"
     inkscape:window-height="744"
     inkscape:window-x="65"
     inkscape:window-y="24"
     inkscape:window-maximized="1"
     fit-margin-top="0"
     fit-margin-left="0"
     fit-margin-right="0"
     fit-margin-bottom="0" />
  <metadata
     id="metadata7">
    <rdf:RDF>
      <cc:Work
         rdf:about="">
        <dc:format>image/svg+xml</dc:format>
        <dc:type
           rdf:resource="http://purl.org/dc/dcmitype/StillImage" />
        <dc:title />
      </cc:Work>
    </rdf:RDF>
  </metadata>
  <g
     inkscape:label="Layer 1"
     inkscape:groupmode="layer"
     id="layer1"
     transform="translate(-91.5445,-163.71975)">
    <path
       style="opacity:1;fill:#ffffff;fill-opacity:1"
       d="m 368.60528,389.70224 a 130.15429,21.216317 0 0 0 -127.25974,16.80962 121.94152,17.109932 0 0 1 117.67789,-12.70348 121.94152,17.109932 0 0 1 121.94148,17.10999 121.94152,17.109932 0 0 1 -121.94148,17.11 A 121.94152,17.109932 0 0 1 241.9,415.65306 130.15429,21.216317 0 0 0 368.60528,432.13451 130.15429,21.216317 0 0 0 498.75904,410.91837 130.15429,21.216317 0 0 0 368.60528,389.70224 Z"
       id="path4180"
       inkscape:connector-curvature="0" />
    <path
       style="opacity:1;fill:#ffffff;fill-opacity:1"
       d="m 528.1963,416.68645 c -19.55479,0.0146 -36.17636,15.41211 -39.18494,36.73289 l 0.003,0 A 125.24474,138.24827 0 0 1 364.98836,573.53206 125.24474,138.24827 0 0 1 241.19296,455.38309 127.98232,130.03551 0 0 0 369.09449,583.1126 127.98232,130.03551 0 0 0 497.06484,453.41934 l -0.003,0 c 4.08027,-16.33775 15.96252,-27.15089 29.76451,-27.15103 17.38794,-6.8e-4 31.48388,17.46567 31.48346,39.01158 -0.01,21.1684 -13.64166,38.46459 -30.71992,38.97719 0.20194,0.0127 0.40397,0.0237 0.60606,0.0331 21.92287,-3.9e-4 39.69462,-19.61111 39.6944,-43.80185 2.1e-4,-24.19075 -17.77154,-43.80147 -39.6944,-43.80186 z"
       id="path4188"
       inkscape:connector-curvature="0" />
    <path
       style="opacity:1;fill:#ffffff;fill-opacity:1"
       d="m 191.36621,560.93842 a 206.00361,34.49363 0 0 0 -27.31777,17.10999 206.00361,34.49363 0 0 0 206.00411,34.49391 206.00361,34.49363 0 0 0 206.00278,-34.49391 206.00361,34.49363 0 0 0 -19.5263,-14.56666 194.50574,29.702848 0 0 1 8.98771,8.81701 194.50574,29.702848 0 0 1 -194.50614,29.70365 194.50574,29.702848 0 0 1 -194.50614,-29.70365 194.50574,29.702848 0 0 1 14.86175,-11.36034 z"
       id="path4232"
       inkscape:connector-curvature="0" />
    <path
       style="opacity:1;fill:#ffffff;fill-opacity:1"
       d="m 142.34138,434.23438 -50.79688,58.90429 51.40625,44.33203 0.14453,-0.16797 -38.82226,-44.18164 38.33398,-58.6582 -0.26562,-0.22851 z"
       id="rect4242"
       inkscape:connector-curvature="0" />
    <path
       id="path4247"
       d="m 624.68379,434.23438 50.93091,58.90429 -51.5419,44.33203 -0.14491,-0.16797 38.92471,-44.18164 -38.43514,-58.6582 0.26633,-0.22851 z"
       style="opacity:1;fill:#ffffff;fill-opacity:1"
       inkscape:connector-curvature="0" />
    <path
       style="fill:#ffffff;fill-opacity:1;fill-rule:evenodd;stroke:none;stroke-width:1px;stroke-linecap:butt;stroke-linejoin:miter;stroke-opacity:1"
       d="m 381.83767,418.79453 c 0,0 -56.56855,-91.92389 2.82842,-130.10765 59.39697,-38.18377 41.0122,-107.48023 -4.24264,-121.62237 -45.25483,-14.14213 108.76037,15.00124 -15.55635,117.37973 -24.04163,19.79899 -28.28427,43.84062 -21.2132,70.71068 7.07107,26.87005 38.18377,63.63961 38.18377,63.63961 z"
       id="path4147"
       inkscape:connector-curvature="0"
       sodipodi:nodetypes="cssssc" />
  </g>
</svg>
