<?xml version="1.0" encoding="UTF-8" standalone="no"?>
<!-- Created with Inkscape (http://www.inkscape.org/) -->

<svg
   xmlns:dc="http://purl.org/dc/elements/1.1/"
   xmlns:cc="http://creativecommons.org/ns#"
   xmlns:rdf="http://www.w3.org/1999/02/22-rdf-syntax-ns#"
   xmlns:svg="http://www.w3.org/2000/svg"
   xmlns="http://www.w3.org/2000/svg"
   xmlns:sodipodi="http://sodipodi.sourceforge.net/DTD/sodipodi-0.dtd"
   xmlns:inkscape="http://www.inkscape.org/namespaces/inkscape"
   width="102.3716mm"
   height="116.10058mm"
   viewBox="0 0 362.73401 411.38"
   id="svg3476"
   version="1.1"
   inkscape:version="0.91 r13725"
   sodipodi:docname="backend.svg">
  <defs
     id="defs3478" />
  <sodipodi:namedview
     id="base"
     pagecolor="#ffffff"
     bordercolor="#666666"
     borderopacity="1.0"
     inkscape:pageopacity="0.0"
     inkscape:pageshadow="2"
     inkscape:zoom="1"
     inkscape:cx="490.31073"
     inkscape:cy="225.10562"
     inkscape:document-units="px"
     inkscape:current-layer="layer1"
     showgrid="false"
     fit-margin-top="0"
     fit-margin-left="0"
     fit-margin-right="0"
     fit-margin-bottom="0"
     inkscape:window-width="1301"
     inkscape:window-height="744"
     inkscape:window-x="65"
     inkscape:window-y="24"
     inkscape:window-maximized="1" />
  <metadata
     id="metadata3481">
    <rdf:RDF>
      <cc:Work
         rdf:about="">
        <dc:format>image/svg+xml</dc:format>
        <dc:type
           rdf:resource="http://purl.org/dc/dcmitype/StillImage" />
        <dc:title></dc:title>
      </cc:Work>
    </rdf:RDF>
  </metadata>
  <g
     inkscape:label="Calque 1"
     inkscape:groupmode="layer"
     id="layer1"
     transform="translate(-193.633,-376.9822)">
    <g
       id="g3013"
       transform="translate(119,276.3622)">
      <polygon
         id="polygon2989"
         points="107.644,470.877 74.633,100.62 437.367,100.62 404.321,470.819 255.778,512 "
         style="fill:#e9a53c;fill-opacity:1" />
      <polygon
         id="polygon2991"
         points="256,480.523 376.03,447.246 404.27,130.894 256,130.894 "
         style="fill:#f2c33c;fill-opacity:1" />
    </g>
    <path
       style="opacity:1;fill:#ebebeb;fill-opacity:1;stroke:none;stroke-width:13.125;stroke-miterlimit:4;stroke-dasharray:none;stroke-opacity:1"
       d="m 285.51166,437.09098 0,268.8474 147.37005,0 35.44617,-31.16465 0,-64.68979 -21.50779,-38.56926 19.02613,-33.60592 0,-71.65171 -29.45527,-29.16607 z m 46.32446,47.97892 85.67411,0 2.01151,5.17014 0,47.66872 -7.65342,10.03007 -80.0322,0 z m 0,108.36618 78.02715,0 12.14014,16.64786 0,41.87816 -2.57376,5.99736 -87.59353,0 z"
       id="rect4140"
       inkscape:connector-curvature="0"
       sodipodi:nodetypes="cccccccccccccccccccccccc" />
    <path
       style="opacity:1;fill:#ffffff;fill-opacity:1;stroke:none;stroke-width:13.125;stroke-miterlimit:4;stroke-dasharray:none;stroke-opacity:1"
       d="m 374.99452,437.09157 0,47.97852 42.51562,0 2.01172,5.16992 0,47.66797 -7.65429,10.03125 -36.87305,0 0,45.49609 34.86914,0 12.14063,16.64844 0,41.87891 -2.57422,5.99609 -44.43555,0 0,47.98047 57.88672,0 35.44726,-31.16601 0,-64.68946 -21.50781,-38.56836 19.02539,-33.60742 0,-71.65039 -29.45508,-29.16602 -61.39648,0 z"
       id="path4172"
       inkscape:connector-curvature="0" />
    <path
       style="opacity:1;fill:#ebebeb;fill-opacity:1;stroke:none;stroke-width:13.125;stroke-miterlimit:4;stroke-dasharray:none;stroke-opacity:1"
       d="m 285.5121,437.09157 0,268.84766 89.48242,0 0,-47.98047 -43.1582,0 0,-64.52344 43.1582,0 0,-45.49609 -43.1582,0 0,-62.86914 43.1582,0 0,-47.97852 -89.48242,0 z"
       id="path4177"
       inkscape:connector-curvature="0" />
  </g>
</svg>
