<?xml version="1.0" encoding="UTF-8" standalone="no"?>
<!-- Created with Inkscape (http://www.inkscape.org/) -->

<svg
   xmlns:dc="http://purl.org/dc/elements/1.1/"
   xmlns:cc="http://creativecommons.org/ns#"
   xmlns:rdf="http://www.w3.org/1999/02/22-rdf-syntax-ns#"
   xmlns:svg="http://www.w3.org/2000/svg"
   xmlns="http://www.w3.org/2000/svg"
   xmlns:sodipodi="http://sodipodi.sourceforge.net/DTD/sodipodi-0.dtd"
   xmlns:inkscape="http://www.inkscape.org/namespaces/inkscape"
   width="102.3716mm"
   height="116.10058mm"
   viewBox="0 0 362.73401 411.38"
   id="svg3476"
   version="1.1"
   inkscape:version="0.91 r13725"
   sodipodi:docname="date.svg">
  <defs
     id="defs3478" />
  <sodipodi:namedview
     id="base"
     pagecolor="#ffffff"
     bordercolor="#666666"
     borderopacity="1.0"
     inkscape:pageopacity="0.0"
     inkscape:pageshadow="2"
     inkscape:zoom="0.70710678"
     inkscape:cx="219.67014"
     inkscape:cy="158.21553"
     inkscape:document-units="px"
     inkscape:current-layer="layer1"
     showgrid="false"
     fit-margin-top="0"
     fit-margin-left="0"
     fit-margin-right="0"
     fit-margin-bottom="0"
     inkscape:window-width="1301"
     inkscape:window-height="744"
     inkscape:window-x="65"
     inkscape:window-y="24"
     inkscape:window-maximized="1" />
  <metadata
     id="metadata3481">
    <rdf:RDF>
      <cc:Work
         rdf:about="">
        <dc:format>image/svg+xml</dc:format>
        <dc:type
           rdf:resource="http://purl.org/dc/dcmitype/StillImage" />
        <dc:title></dc:title>
      </cc:Work>
    </rdf:RDF>
  </metadata>
  <g
     inkscape:label="Calque 1"
     inkscape:groupmode="layer"
     id="layer1"
     transform="translate(-193.633,-376.9822)">
    <g
       id="g3013"
       transform="translate(119,276.3622)">
      <polygon
         id="polygon2989"
         points="107.644,470.877 74.633,100.62 437.367,100.62 404.321,470.819 255.778,512 "
         style="fill:#264de4" />
      <polygon
         id="polygon2991"
         points="256,480.523 376.03,447.246 404.27,130.894 256,130.894 "
         style="fill:#2965f1" />
    </g>
    <path
       sodipodi:nodetypes="cccccccccccccccc"
       inkscape:connector-curvature="0"
       id="path4163"
       d="m 287.11024,445.26168 0,267.72653 59.77251,0 84.77865,0 55.50265,-53.81409 0,-145.8685 -51.84317,-68.04394 -88.43813,0 z m 52.98383,52.0897 64.2975,0 33.35976,39.89709 0,83.64589 -29.09913,36.69751 -68.55813,0 z"
       style="opacity:1;fill:#ebebeb;fill-opacity:1;stroke:none;stroke-width:13.125;stroke-miterlimit:4;stroke-dasharray:none;stroke-opacity:1" />
    <path
       style="opacity:1;fill:#ebebeb;fill-opacity:1;stroke:none;stroke-width:13.125;stroke-miterlimit:4;stroke-dasharray:none;stroke-opacity:1"
       d="m 287.10956,445.2615 0,267.72656 59.77344,0 28.11133,0 0,-55.39648 -34.90039,0 0,-160.24024 34.90039,0 0,-52.08984 -28.11133,0 -59.77344,0 z"
       id="rect4141"
       inkscape:connector-curvature="0" />
    <path
       style="opacity:1;fill:#ffffff;fill-opacity:1;stroke:none;stroke-width:13.125;stroke-miterlimit:4;stroke-dasharray:none;stroke-opacity:1"
       d="m 374.99433,445.2615 0,52.08984 29.39648,0 33.36133,39.89648 0,83.64649 -29.09961,36.69727 -33.6582,0 0,55.39648 56.66797,0 55.50195,-53.81445 0,-145.86719 -51.84375,-68.04492 -60.32617,0 z"
       id="path4158"
       inkscape:connector-curvature="0" />
  </g>
</svg>
