<?xml version="1.0" encoding="UTF-8" standalone="no"?>
<svg
   xmlns:dc="http://purl.org/dc/elements/1.1/"
   xmlns:cc="http://creativecommons.org/ns#"
   xmlns:rdf="http://www.w3.org/1999/02/22-rdf-syntax-ns#"
   xmlns:svg="http://www.w3.org/2000/svg"
   xmlns="http://www.w3.org/2000/svg"
   xmlns:sodipodi="http://sodipodi.sourceforge.net/DTD/sodipodi-0.dtd"
   xmlns:inkscape="http://www.inkscape.org/namespaces/inkscape"
   viewBox="0 0 362.73401 411.38"
   id="svg2"
   version="1.1"
   inkscape:version="0.91 r13725"
   sodipodi:docname="HTML5.svg"
   width="362.73401"
   height="411.38">
  <metadata
     id="metadata30">
    <rdf:RDF>
      <cc:Work
         rdf:about="">
        <dc:format>image/svg+xml</dc:format>
        <dc:type
           rdf:resource="http://purl.org/dc/dcmitype/StillImage" />
        <dc:title>HTML5 Logo</dc:title>
      </cc:Work>
    </rdf:RDF>
  </metadata>
  <defs
     id="defs28" />
  <sodipodi:namedview
     pagecolor="#ffffff"
     bordercolor="#666666"
     borderopacity="1"
     objecttolerance="10"
     gridtolerance="10"
     guidetolerance="10"
     inkscape:pageopacity="0"
     inkscape:pageshadow="2"
     inkscape:window-width="1301"
     inkscape:window-height="744"
     id="namedview26"
     showgrid="false"
     fit-margin-top="0"
     fit-margin-left="0"
     fit-margin-right="0"
     fit-margin-bottom="0"
     inkscape:zoom="1.3037281"
     inkscape:cx="60.13153"
     inkscape:cy="203.57508"
     inkscape:window-x="65"
     inkscape:window-y="24"
     inkscape:window-maximized="1"
     inkscape:current-layer="svg2" />
  <title
     id="title4">HTML5 Logo</title>
  <polygon
     points="404.321,470.819 255.778,512 107.644,470.877 74.633,100.62 437.367,100.62 "
     id="polygon6"
     style="fill:#e44d26"
     transform="translate(-74.633,-100.62)" />
  <polygon
     points="256,130.894 256,480.523 376.03,447.246 404.27,130.894 "
     id="polygon8"
     style="fill:#f16529"
     transform="translate(-74.633,-100.62)" />
  <polygon
     points="256,221.716 256,176.305 255.843,176.305 142.132,176.305 143.219,188.488 154.38,313.627 256,313.627 256,268.217 195.91,268.217 191.76,221.716 "
     id="polygon10"
     style="fill:#ebebeb"
     transform="translate(-74.633,-100.62)" />
  <path
     style="fill:#ebebeb"
     d="M 67.498047 75.685547 L 68.585938 87.867188 L 79.746094 213.00781 L 181.36719 213.00781 L 237.12891 213.00781 L 231.85742 271.90039 L 181.21094 285.57031 L 181.21094 285.57422 L 181.16797 285.58594 L 130.59375 271.92969 L 127.36133 235.71289 L 102.78516 235.71289 L 81.775391 235.71289 L 88.138672 307.01367 L 181.1582 332.83789 L 181.36719 332.7793 L 181.36719 332.77148 L 274.30469 307.01367 L 274.98633 299.3418 L 285.6582 179.79102 L 286.76562 167.59766 L 274.5293 167.59766 L 181.36719 167.59766 L 121.27734 167.59766 L 117.12695 121.0957 L 181.21094 121.0957 L 181.36719 121.0957 L 290.75195 121.0957 L 290.89844 121.0957 L 291.80859 110.88867 L 293.87891 87.867188 L 294.96484 75.685547 L 181.36719 75.685547 L 181.21094 75.685547 L 67.498047 75.685547 z "
     id="polygon4139" />
  <polygon
     points="201.994,336.333 177.419,336.333 156.409,336.333 162.771,407.634 255.791,433.457 256,433.399 256,386.153 255.801,386.206 205.227,372.55 "
     id="polygon12"
     style="fill:#ebebeb"
     transform="translate(-74.633,-100.62)" />
  <polygon
     points="306.49,372.521 255.843,386.191 255.843,433.435 348.937,407.634 349.62,399.962 360.291,280.411 361.399,268.217 349.162,268.217 255.843,268.217 255.843,313.627 311.761,313.627 "
     id="polygon22"
     style="fill:#ffffff"
     transform="translate(-74.633,-100.62)" />
  <polygon
     points="255.843,221.716 365.385,221.716 365.385,221.716 365.531,221.716 366.442,211.509 368.511,188.488 369.597,176.305 255.843,176.305 255.843,204.509 255.843,221.605 "
     id="polygon24"
     style="fill:#ffffff"
     transform="translate(-74.633,-100.62)" />
</svg>
