<?xml version="1.0" encoding="UTF-8" standalone="no"?>
<!-- Created with Inkscape (http://www.inkscape.org/) -->

<svg
   xmlns:dc="http://purl.org/dc/elements/1.1/"
   xmlns:cc="http://creativecommons.org/ns#"
   xmlns:rdf="http://www.w3.org/1999/02/22-rdf-syntax-ns#"
   xmlns:svg="http://www.w3.org/2000/svg"
   xmlns="http://www.w3.org/2000/svg"
   xmlns:xlink="http://www.w3.org/1999/xlink"
   xmlns:sodipodi="http://sodipodi.sourceforge.net/DTD/sodipodi-0.dtd"
   xmlns:inkscape="http://www.inkscape.org/namespaces/inkscape"
   width="616.14014mm"
   height="124.58095mm"
   viewBox="0 0 2183.1737 441.42855"
   id="svg2"
   version="1.1"
   inkscape:version="0.91 r13725"
   sodipodi:docname="Cabstraction.svg">
  <defs
     id="defs4">
    <linearGradient
       inkscape:collect="always"
       id="linearGradient4138">
      <stop
         style="stop-color:#ac00ff;stop-opacity:1"
         offset="0"
         id="stop4140" />
      <stop
         style="stop-color:#0097ff;stop-opacity:1"
         offset="1"
         id="stop4142" />
    </linearGradient>
    <linearGradient
       inkscape:collect="always"
       xlink:href="#linearGradient4138"
       id="linearGradient4144"
       x1="157.85713"
       y1="470.93365"
       x2="599.28571"
       y2="470.93365"
       gradientUnits="userSpaceOnUse"
       gradientTransform="translate(15.873184,27.840279)" />
  </defs>
  <sodipodi:namedview
     id="base"
     pagecolor="#ffffff"
     bordercolor="#666666"
     borderopacity="1.0"
     inkscape:pageopacity="0.0"
     inkscape:pageshadow="2"
     inkscape:zoom="0.24748737"
     inkscape:cx="995.35002"
     inkscape:cy="-497.82374"
     inkscape:document-units="px"
     inkscape:current-layer="layer1"
     showgrid="false"
     fit-margin-top="0"
     fit-margin-left="0"
     fit-margin-right="0"
     fit-margin-bottom="0"
     inkscape:window-width="1301"
     inkscape:window-height="744"
     inkscape:window-x="65"
     inkscape:window-y="24"
     inkscape:window-maximized="1" />
  <metadata
     id="metadata7">
    <rdf:RDF>
      <cc:Work
         rdf:about="">
        <dc:format>image/svg+xml</dc:format>
        <dc:type
           rdf:resource="http://purl.org/dc/dcmitype/StillImage" />
        <dc:title></dc:title>
      </cc:Work>
    </rdf:RDF>
  </metadata>
  <g
     inkscape:label="Layer 1"
     inkscape:groupmode="layer"
     id="layer1"
     transform="translate(688.34546,-278.05965)">
    <path
       style="opacity:1;fill:url(#linearGradient4144);fill-opacity:1;stroke:#000000;stroke-width:10;stroke-miterlimit:4;stroke-dasharray:none;stroke-opacity:1"
       d="M 610.15886,498.77393 A 215.71428,215.71428 0 0 1 394.44458,714.4882 215.71428,215.71428 0 0 1 178.7303,498.77393 215.71428,215.71428 0 0 1 394.44458,283.05965 215.71428,215.71428 0 0 1 610.15886,498.77393 Z"
       id="path4136"
       inkscape:connector-curvature="0" />
    <g
       transform="translate(8.2312207,368.55355)"
       style="font-style:normal;font-weight:normal;font-size:40px;line-height:125%;font-family:sans-serif;letter-spacing:0px;word-spacing:0px;fill:#000000;fill-opacity:1;stroke:none;stroke-width:1px;stroke-linecap:butt;stroke-linejoin:miter;stroke-opacity:1"
       id="flowRoot4146">
      <path
         d="m 241.78234,155.01537 q -10.98,0 -16.83,-8.19 -5.85,-8.19 -5.85,-25.29 0,-8.73 1.62,-14.76 1.71,-6.03 4.68,-9.809997 2.97,-3.78 7.02,-5.4 4.05,-1.71 8.82,-1.71 3.96,0 7.38,1.08 3.42,0.99 5.58,2.52 l -2.43,6.749997 q -2.16,-1.439997 -4.68,-2.339997 -2.43,-0.9 -5.67,-0.9 -7.2,0 -10.44,6.029997 -3.24,5.94 -3.24,18.54 0,12.69 3.42,19.53 3.42,6.84 11.16,6.84 3.69,0 5.94,-0.9 2.34,-0.9 4.5,-2.34 l 2.25,6.39 q -2.07,1.62 -5.49,2.79 -3.33,1.17 -7.74,1.17 z"
         style="font-style:normal;font-variant:normal;font-weight:normal;font-stretch:normal;font-size:90px;font-family:'Ubuntu Condensed';-inkscape-font-specification:'Ubuntu Condensed, '"
         id="path4293"
         inkscape:connector-curvature="0" />
      <path
         d="m 281.47797,92.195373 q 6.3,-1.53 12.33,-1.53 4.68,0 8.46,1.17 3.87,1.08 6.57,3.51 2.79,2.34 4.23,6.119997 1.53,3.78 1.53,9.09 0,5.4 -1.53,9.27 -1.53,3.78 -4.32,6.21 -2.79,2.34 -6.75,3.42 -3.87,1.08 -8.64,1.08 l -3.78,0 0,23.13 -8.1,0 0,-61.469997 z m 8.1,31.229997 3.24,0 q 3.06,0 5.49,-0.63 2.52,-0.72 4.23,-2.25 1.71,-1.53 2.61,-3.96 0.9,-2.43 0.9,-6.03 0,-3.6 -0.9,-6.03 -0.9,-2.52 -2.52,-3.96 -1.53,-1.529997 -3.78,-2.159997 -2.25,-0.63 -4.95,-0.63 -2.34,0 -4.32,0.27 l 0,25.379997 z"
         style="font-style:normal;font-variant:normal;font-weight:normal;font-stretch:normal;font-size:90px;font-family:'Ubuntu Condensed';-inkscape-font-specification:'Ubuntu Condensed, '"
         id="path4295"
         inkscape:connector-curvature="0" />
      <path
         d="m 344.96172,113.43537 q -2.88,-1.26 -6.48,-1.26 -3.33,0 -6.21,1.17 l 0,40.32 -7.74,0 0,-45.18 q 2.61,-1.26 5.94,-2.07 3.42,-0.9 7.47,-0.9 2.16,0 4.32,0.27 2.16,0.27 4.05,0.99 l -1.35,6.66 z"
         style="font-style:normal;font-variant:normal;font-weight:normal;font-stretch:normal;font-size:90px;font-family:'Ubuntu Condensed';-inkscape-font-specification:'Ubuntu Condensed, '"
         id="path4297"
         inkscape:connector-curvature="0" />
      <path
         d="m 383.51406,130.08537 q 0,5.58 -0.99,10.17 -0.99,4.5 -3.06,7.74 -1.98,3.24 -5.13,5.04 -3.06,1.8 -7.29,1.8 -4.23,0 -7.38,-1.8 -3.15,-1.8 -5.22,-5.04 -1.98,-3.24 -2.97,-7.74 -0.99,-4.59 -0.99,-10.17 0,-5.49 0.99,-10.08 0.99,-4.59 2.97,-7.83 2.07,-3.33 5.22,-5.13 3.15,-1.8 7.38,-1.8 4.23,0 7.29,1.8 3.15,1.8 5.13,5.13 2.07,3.24 3.06,7.83 0.99,4.59 0.99,10.08 z m -8.1,0 q 0,-3.96 -0.45,-7.2 -0.45,-3.33 -1.44,-5.67 -0.99,-2.43 -2.61,-3.69 -1.62,-1.35 -3.87,-1.35 -2.34,0 -3.96,1.35 -1.53,1.26 -2.61,3.69 -0.99,2.34 -1.44,5.67 -0.45,3.24 -0.45,7.2 0,3.96 0.45,7.29 0.45,3.24 1.44,5.58 1.08,2.34 2.61,3.69 1.62,1.26 3.96,1.26 2.25,0 3.87,-1.26 1.62,-1.35 2.61,-3.69 0.99,-2.34 1.44,-5.58 0.45,-3.33 0.45,-7.29 z"
         style="font-style:normal;font-variant:normal;font-weight:normal;font-stretch:normal;font-size:90px;font-family:'Ubuntu Condensed';-inkscape-font-specification:'Ubuntu Condensed, '"
         id="path4299"
         inkscape:connector-curvature="0" />
      <path
         d="m 422.92422,152.31537 q 0,5.04 -1.35,8.46 -1.26,3.51 -3.51,5.67 -2.25,2.16 -5.31,3.15 -2.97,0.99 -6.39,0.99 -2.88,0 -5.76,-0.63 -2.88,-0.63 -5.31,-1.89 l 1.62,-6.48 q 1.62,0.9 3.96,1.62 2.34,0.72 4.86,0.72 4.41,0 6.93,-2.52 2.52,-2.52 2.52,-8.64 l 0,-2.25 q -1.44,0.63 -3.06,1.08 -1.62,0.36 -3.69,0.36 -8.46,0 -12.42,-5.76 -3.87,-5.85 -3.87,-16.47 0,-5.67 0.99,-10.17 1.08,-4.59 3.24,-7.74 2.25,-3.24 5.76,-4.86 3.51,-1.71 8.55,-1.71 3.33,0 6.48,0.72 3.24,0.63 5.76,1.71 l 0,44.64 z m -7.74,-39.6 q -1.26,-0.36 -2.43,-0.45 -1.17,-0.18 -2.16,-0.18 -5.4,0 -7.92,4.14 -2.43,4.14 -2.43,13.5 0,8.46 2.43,11.97 2.43,3.42 6.93,3.42 1.53,0 2.88,-0.36 1.44,-0.36 2.7,-0.99 l 0,-31.05 z"
         style="font-style:normal;font-variant:normal;font-weight:normal;font-stretch:normal;font-size:90px;font-family:'Ubuntu Condensed';-inkscape-font-specification:'Ubuntu Condensed, '"
         id="path4301"
         inkscape:connector-curvature="0" />
      <path
         d="m 457.28594,113.43537 q -2.88,-1.26 -6.48,-1.26 -3.33,0 -6.21,1.17 l 0,40.32 -7.74,0 0,-45.18 q 2.61,-1.26 5.94,-2.07 3.42,-0.9 7.47,-0.9 2.16,0 4.32,0.27 2.16,0.27 4.05,0.99 l -1.35,6.66 z"
         style="font-style:normal;font-variant:normal;font-weight:normal;font-stretch:normal;font-size:90px;font-family:'Ubuntu Condensed';-inkscape-font-specification:'Ubuntu Condensed, '"
         id="path4303"
         inkscape:connector-curvature="0" />
      <path
         d="m 465.70094,107.40537 q 2.34,-0.99 4.95,-1.53 2.61,-0.63 5.67,-0.63 6.3,0 10.26,3.96 3.96,3.87 3.96,12.15 l 0,31.32 q -3.24,0.9 -6.66,1.44 -3.33,0.54 -6.57,0.54 -3.24,0 -6.12,-0.81 -2.79,-0.81 -4.95,-2.61 -2.07,-1.8 -3.33,-4.5 -1.26,-2.79 -1.26,-6.75 0,-3.69 1.08,-6.39 1.17,-2.79 3.15,-4.59 1.98,-1.89 4.68,-2.79 2.7,-0.99 5.85,-0.99 2.97,0 6.57,0.72 l 0,-4.32 q 0,-5.22 -2.07,-7.29 -1.98,-2.07 -5.76,-2.07 -2.07,0 -3.96,0.45 -1.8,0.36 -3.87,1.26 l -1.62,-6.57 z m 3.69,32.49 q 0,4.14 2.16,6.12 2.16,1.98 6.12,1.98 2.43,0 5.31,-0.63 l 0,-15.03 q -2.7,-0.72 -5.31,-0.72 -1.71,0 -3.24,0.45 -1.53,0.36 -2.7,1.35 -1.08,0.9 -1.71,2.52 -0.63,1.53 -0.63,3.96 z"
         style="font-style:normal;font-variant:normal;font-weight:normal;font-stretch:normal;font-size:90px;font-family:'Ubuntu Condensed';-inkscape-font-specification:'Ubuntu Condensed, '"
         id="path4305"
         inkscape:connector-curvature="0" />
      <path
         d="m 504.00437,107.76537 q 3.15001,-0.99 6.84001,-1.62 3.68999,-0.72 6.75,-0.72 3.14999,0 5.66999,0.81 2.61,0.81 4.59,2.7 2.34001,-1.53 5.04,-2.52 2.70001,-0.99 5.94001,-0.99 3.24,0 5.85,0.99 2.69999,0.9 4.58999,3.15 1.89,2.25 2.97,6.12 1.08001,3.78 1.08001,9.45 l 0,28.53 -7.74,0 0,-27.9 q 0,-7.02 -1.62,-10.26 -1.62,-3.24 -6.12,-3.24 -1.71001,0 -3.51,0.63 -1.71001,0.63 -3.24,1.71 0.72,2.07 1.08,4.68 0.35999,2.61 0.35999,5.85 l 0,28.53 -7.74,0 0,-27.9 q 0,-7.02 -1.61999,-10.26 -1.62,-3.24 -6.12,-3.24 -2.34,0 -5.31001,0.9 l 0,40.5 -7.74,0 0,-45.9 z"
         style="font-style:normal;font-variant:normal;font-weight:normal;font-stretch:normal;font-size:90px;font-family:'Ubuntu Condensed';-inkscape-font-specification:'Ubuntu Condensed, '"
         id="path4307"
         inkscape:connector-curvature="0" />
    </g>
    <path
       style="opacity:1;fill:#c423ff;fill-opacity:1;stroke:#000000;stroke-width:10;stroke-miterlimit:4;stroke-dasharray:none;stroke-opacity:1"
       d="m -272.74118,381.59625 301.025451,0 0,234.35539 -301.025451,0 z"
       id="rect4154"
       inkscape:connector-curvature="0" />
    <path
       style="opacity:1;fill:#c423ff;fill-opacity:1;stroke:#000000;stroke-width:10;stroke-miterlimit:4;stroke-dasharray:none;stroke-opacity:1"
       d="m 770.51361,381.59625 301.02549,0 0,234.35539 -301.02549,0 z"
       id="rect4156"
       inkscape:connector-curvature="0" />
    <g
       transform="translate(7.1602766,51.744209)"
       style="font-style:normal;font-weight:normal;font-size:40px;line-height:125%;font-family:sans-serif;letter-spacing:0px;word-spacing:0px;fill:#000000;fill-opacity:1;stroke:none;stroke-width:1px;stroke-linecap:butt;stroke-linejoin:miter;stroke-opacity:1"
       id="flowRoot4158">
      <path
         d="m -686.80586,458.93973 q 3.24,0 4.98,-1.8 1.8,-1.8 1.8,-4.86 0,-1.62 -0.54,-2.88 -0.54,-1.26 -1.44,-2.28 -0.84,-1.02 -1.98,-1.86 -1.14,-0.84 -2.34,-1.68 -1.38,-0.96 -2.88,-2.04 -1.5,-1.08 -2.76,-2.52 -1.2,-1.44 -1.98,-3.36 -0.78,-1.92 -0.78,-4.5 0,-2.52 0.84,-4.56 0.9,-2.04 2.4,-3.48 1.56,-1.44 3.66,-2.22 2.16,-0.78 4.62,-0.78 2.4,0 4.44,0.6 2.04,0.6 3.42,1.44 l -1.68,4.26 q -1.26,-0.84 -2.76,-1.26 -1.44,-0.48 -3.06,-0.48 -2.94,0 -4.74,1.62 -1.74,1.56 -1.74,4.62 0,1.68 0.54,2.94 0.6,1.26 1.5,2.28 0.96,1.02 2.16,1.86 1.26,0.84 2.64,1.74 1.38,0.9 2.82,1.98 1.44,1.08 2.58,2.52 1.2,1.38 1.92,3.3 0.78,1.86 0.78,4.44 0,2.34 -0.72,4.44 -0.72,2.1 -2.28,3.72 -1.5,1.56 -3.84,2.52 -2.28,0.9 -5.4,0.9 -2.88,0 -5.04,-0.66 -2.16,-0.66 -3.84,-1.74 l 1.68,-4.32 q 1.56,0.96 3.18,1.56 1.68,0.54 3.84,0.54 z"
         style="font-style:normal;font-variant:normal;font-weight:normal;font-stretch:normal;font-size:60px;font-family:'Ubuntu Condensed';-inkscape-font-specification:'Ubuntu Condensed, '"
         id="path4270"
         inkscape:connector-curvature="0" />
      <path
         d="m -661.04242,456.11973 q 1.74,-6 3.18,-12.06 1.44,-6.06 2.76,-12.9 l 5.1,0 q -0.9,4.38 -1.98,8.64 -1.02,4.26 -2.16,8.22 -1.08,3.96 -2.22,7.5 -1.08,3.48 -2.04,6.36 -1.14,3.36 -2.22,5.64 -1.02,2.34 -2.28,3.72 -1.2,1.44 -2.64,2.04 -1.44,0.66 -3.42,0.66 -1.08,0 -2.16,-0.3 -1.08,-0.24 -1.8,-0.54 l 0.96,-4.2 q 1.56,0.66 2.94,0.66 1.74,0 2.82,-1.26 1.08,-1.26 2.1,-3.78 l 0.6,-1.5 q -1.14,-3.12 -2.34,-6.9 -1.14,-3.84 -2.28,-7.98 -1.08,-4.14 -2.1,-8.46 -1.02,-4.38 -1.86,-8.52 l 5.46,0 q 0.48,2.82 1.14,6.18 0.66,3.36 1.38,6.72 0.78,3.36 1.56,6.54 0.78,3.12 1.5,5.52 z"
         style="font-style:normal;font-variant:normal;font-weight:normal;font-stretch:normal;font-size:60px;font-family:'Ubuntu Condensed';-inkscape-font-specification:'Ubuntu Condensed, '"
         id="path4272"
         inkscape:connector-curvature="0" />
      <path
         d="m -640.13336,458.99973 q 2.28,0 3.42,-1.26 1.2,-1.32 1.2,-3.42 0,-1.32 -0.48,-2.22 -0.48,-0.96 -1.26,-1.68 -0.78,-0.72 -1.8,-1.26 -1.02,-0.6 -2.04,-1.26 -1.02,-0.6 -1.98,-1.38 -0.96,-0.84 -1.74,-1.86 -0.72,-1.08 -1.2,-2.4 -0.42,-1.38 -0.42,-3.18 0,-3.9 2.4,-6.3 2.46,-2.4 6.6,-2.4 1.74,0 3.3,0.48 1.56,0.42 2.58,0.96 l -1.14,4.14 q -1.08,-0.6 -2.16,-0.9 -1.08,-0.3 -2.34,-0.3 -1.92,0 -3.06,1.14 -1.14,1.08 -1.14,3.18 0,1.2 0.42,2.1 0.42,0.84 1.08,1.56 0.72,0.66 1.56,1.26 0.9,0.6 1.86,1.14 1.14,0.66 2.22,1.44 1.14,0.78 1.98,1.86 0.9,1.02 1.44,2.46 0.54,1.38 0.54,3.36 0,4.14 -2.46,6.66 -2.4,2.52 -7.08,2.52 -2.4,0 -4.32,-0.66 -1.92,-0.66 -2.88,-1.2 l 1.08,-4.26 q 0.9,0.48 2.4,1.08 1.56,0.6 3.42,0.6 z"
         style="font-style:normal;font-variant:normal;font-weight:normal;font-stretch:normal;font-size:60px;font-family:'Ubuntu Condensed';-inkscape-font-specification:'Ubuntu Condensed, '"
         id="path4274"
         inkscape:connector-curvature="0" />
      <path
         d="m -619.20555,431.15973 7.92,0 0,4.44 -7.92,0 0,17.34 q 0,3.24 1.14,4.56 1.2,1.26 3.18,1.26 1.02,0 1.92,-0.3 0.96,-0.3 1.62,-0.72 l 1.02,4.14 q -2.46,1.44 -5.22,1.44 -4.44,0 -6.66,-2.46 -2.16,-2.52 -2.16,-8.28 l 0,-29.88 5.16,-0.9 0,9.36 z"
         style="font-style:normal;font-variant:normal;font-weight:normal;font-stretch:normal;font-size:60px;font-family:'Ubuntu Condensed';-inkscape-font-specification:'Ubuntu Condensed, '"
         id="path4276"
         inkscape:connector-curvature="0" />
      <path
         d="m -601.59836,448.43973 q 0.06,2.28 0.42,4.2 0.36,1.86 1.14,3.3 0.84,1.38 2.16,2.16 1.38,0.78 3.48,0.78 1.74,0 3.18,-0.48 1.5,-0.54 2.16,-0.9 l 0.96,4.14 q -0.78,0.54 -2.64,1.14 -1.8,0.66 -4.32,0.66 -3.3,0 -5.58,-1.2 -2.22,-1.2 -3.66,-3.36 -1.38,-2.16 -1.98,-5.16 -0.6,-3 -0.6,-6.6 0,-8.7 2.88,-12.72 2.88,-4.02 7.62,-4.02 5.34,0 7.56,4.02 2.22,4.02 2.22,11.28 0,0.66 0,1.38 0,0.66 -0.06,1.38 l -14.94,0 z m 5.22,-13.68 q -2.58,0 -3.78,2.58 -1.14,2.58 -1.38,6.9 l 9.54,0 q 0,-4.38 -0.9,-6.9 -0.9,-2.58 -3.48,-2.58 z"
         style="font-style:normal;font-variant:normal;font-weight:normal;font-stretch:normal;font-size:60px;font-family:'Ubuntu Condensed';-inkscape-font-specification:'Ubuntu Condensed, '"
         id="path4278"
         inkscape:connector-curvature="0" />
      <path
         d="m -579.00555,432.05973 q 2.1,-0.66 4.56,-1.08 2.46,-0.48 4.5,-0.48 2.1,0 3.78,0.54 1.74,0.54 3.06,1.8 1.56,-1.02 3.36,-1.68 1.8,-0.66 3.96,-0.66 2.16,0 3.9,0.66 1.8,0.6 3.06,2.1 1.26,1.5 1.98,4.08 0.72,2.52 0.72,6.3 l 0,19.02 -5.16,0 0,-18.6 q 0,-4.68 -1.08,-6.84 -1.08,-2.16 -4.08,-2.16 -1.14,0 -2.34,0.42 -1.14,0.42 -2.16,1.14 0.48,1.38 0.72,3.12 0.24,1.74 0.24,3.9 l 0,19.02 -5.16,0 0,-18.6 q 0,-4.68 -1.08,-6.84 -1.08,-2.16 -4.08,-2.16 -1.56,0 -3.54,0.6 l 0,27 -5.16,0 0,-30.6 z"
         style="font-style:normal;font-variant:normal;font-weight:normal;font-stretch:normal;font-size:60px;font-family:'Ubuntu Condensed';-inkscape-font-specification:'Ubuntu Condensed, '"
         id="path4280"
         inkscape:connector-curvature="0" />
      <path
         d="m -498.87086,441.83973 q 0,5.82 -1.26,9.9 -1.2,4.02 -3.54,6.54 -2.28,2.52 -5.58,3.66 -3.24,1.14 -7.26,1.14 -4.08,0 -8.64,-1.08 l 0,-40.32 q 2.28,-0.48 4.44,-0.78 2.16,-0.3 4.14,-0.3 4.08,0 7.32,1.14 3.3,1.14 5.58,3.66 2.34,2.52 3.54,6.6 1.26,4.02 1.26,9.84 z m -5.76,0 q 0,-4.44 -0.66,-7.56 -0.66,-3.12 -2.04,-5.1 -1.38,-1.98 -3.66,-2.88 -2.22,-0.9 -5.34,-0.9 -0.84,0 -1.68,0.06 -0.84,0.06 -1.74,0.18 l 0,32.4 q 0.9,0.12 1.74,0.18 0.84,0.06 1.62,0.06 3.18,0 5.4,-0.9 2.22,-0.9 3.6,-2.82 1.44,-1.98 2.1,-5.1 0.66,-3.12 0.66,-7.62 z"
         style="font-style:normal;font-variant:normal;font-weight:normal;font-stretch:normal;font-size:60px;font-family:'Ubuntu Condensed';-inkscape-font-specification:'Ubuntu Condensed, '"
         id="path4282"
         inkscape:connector-curvature="0" />
      <path
         d="m -490.75211,431.81973 q 1.56,-0.66 3.3,-1.02 1.74,-0.42 3.78,-0.42 4.2,0 6.84,2.64 2.64,2.58 2.64,8.1 l 0,20.88 q -2.16,0.6 -4.44,0.96 -2.22,0.36 -4.38,0.36 -2.16,0 -4.08,-0.54 -1.86,-0.54 -3.3,-1.74 -1.38,-1.2 -2.22,-3 -0.84,-1.86 -0.84,-4.5 0,-2.46 0.72,-4.26 0.78,-1.86 2.1,-3.06 1.32,-1.26 3.12,-1.86 1.8,-0.66 3.9,-0.66 1.98,0 4.38,0.48 l 0,-2.88 q 0,-3.48 -1.38,-4.86 -1.32,-1.38 -3.84,-1.38 -1.38,0 -2.64,0.3 -1.2,0.24 -2.58,0.84 l -1.08,-4.38 z m 2.46,21.66 q 0,2.76 1.44,4.08 1.44,1.32 4.08,1.32 1.62,0 3.54,-0.42 l 0,-10.02 q -1.8,-0.48 -3.54,-0.48 -1.14,0 -2.16,0.3 -1.02,0.24 -1.8,0.9 -0.72,0.6 -1.14,1.68 -0.42,1.02 -0.42,2.64 z"
         style="font-style:normal;font-variant:normal;font-weight:normal;font-stretch:normal;font-size:60px;font-family:'Ubuntu Condensed';-inkscape-font-specification:'Ubuntu Condensed, '"
         id="path4284"
         inkscape:connector-curvature="0" />
      <path
         d="m -460.41648,431.15973 7.92,0 0,4.44 -7.92,0 0,17.34 q 0,3.24 1.14,4.56 1.2,1.26 3.18,1.26 1.02,0 1.92,-0.3 0.96,-0.3 1.62,-0.72 l 1.02,4.14 q -2.46,1.44 -5.22,1.44 -4.44,0 -6.66,-2.46 -2.16,-2.52 -2.16,-8.28 l 0,-29.88 5.16,-0.9 0,9.36 z"
         style="font-style:normal;font-variant:normal;font-weight:normal;font-stretch:normal;font-size:60px;font-family:'Ubuntu Condensed';-inkscape-font-specification:'Ubuntu Condensed, '"
         id="path4286"
         inkscape:connector-curvature="0" />
      <path
         d="m -445.51773,431.81973 q 1.56,-0.66 3.3,-1.02 1.74,-0.42 3.78,-0.42 4.2,0 6.84,2.64 2.64,2.58 2.64,8.1 l 0,20.88 q -2.16,0.6 -4.44,0.96 -2.22,0.36 -4.38,0.36 -2.16,0 -4.08,-0.54 -1.86,-0.54 -3.3,-1.74 -1.38,-1.2 -2.22,-3 -0.84,-1.86 -0.84,-4.5 0,-2.46 0.72,-4.26 0.78,-1.86 2.1,-3.06 1.32,-1.26 3.12,-1.86 1.8,-0.66 3.9,-0.66 1.98,0 4.38,0.48 l 0,-2.88 q 0,-3.48 -1.38,-4.86 -1.32,-1.38 -3.84,-1.38 -1.38,0 -2.64,0.3 -1.2,0.24 -2.58,0.84 l -1.08,-4.38 z m 2.46,21.66 q 0,2.76 1.44,4.08 1.44,1.32 4.08,1.32 1.62,0 3.54,-0.42 l 0,-10.02 q -1.8,-0.48 -3.54,-0.48 -1.14,0 -2.16,0.3 -1.02,0.24 -1.8,0.9 -0.72,0.6 -1.14,1.68 -0.42,1.02 -0.42,2.64 z"
         style="font-style:normal;font-variant:normal;font-weight:normal;font-stretch:normal;font-size:60px;font-family:'Ubuntu Condensed';-inkscape-font-specification:'Ubuntu Condensed, '"
         id="path4288"
         inkscape:connector-curvature="0" />
    </g>
    <g
       transform="translate(1923.7858,51.744209)"
       style="font-style:normal;font-weight:normal;font-size:40px;line-height:125%;font-family:sans-serif;letter-spacing:0px;word-spacing:0px;fill:#000000;fill-opacity:1;stroke:none;stroke-width:1px;stroke-linecap:butt;stroke-linejoin:miter;stroke-opacity:1"
       id="flowRoot4166">
      <path
         d="m -686.80586,458.93973 q 3.24,0 4.98,-1.8 1.8,-1.8 1.8,-4.86 0,-1.62 -0.54,-2.88 -0.54,-1.26 -1.44,-2.28 -0.84,-1.02 -1.98,-1.86 -1.14,-0.84 -2.34,-1.68 -1.38,-0.96 -2.88,-2.04 -1.5,-1.08 -2.76,-2.52 -1.2,-1.44 -1.98,-3.36 -0.78,-1.92 -0.78,-4.5 0,-2.52 0.84,-4.56 0.9,-2.04 2.4,-3.48 1.56,-1.44 3.66,-2.22 2.16,-0.78 4.62,-0.78 2.4,0 4.44,0.6 2.04,0.6 3.42,1.44 l -1.68,4.26 q -1.26,-0.84 -2.76,-1.26 -1.44,-0.48 -3.06,-0.48 -2.94,0 -4.74,1.62 -1.74,1.56 -1.74,4.62 0,1.68 0.54,2.94 0.6,1.26 1.5,2.28 0.96,1.02 2.16,1.86 1.26,0.84 2.64,1.74 1.38,0.9 2.82,1.98 1.44,1.08 2.58,2.52 1.2,1.38 1.92,3.3 0.78,1.86 0.78,4.44 0,2.34 -0.72,4.44 -0.72,2.1 -2.28,3.72 -1.5,1.56 -3.84,2.52 -2.28,0.9 -5.4,0.9 -2.88,0 -5.04,-0.66 -2.16,-0.66 -3.84,-1.74 l 1.68,-4.32 q 1.56,0.96 3.18,1.56 1.68,0.54 3.84,0.54 z"
         style="font-style:normal;font-variant:normal;font-weight:normal;font-stretch:normal;font-size:60px;font-family:'Ubuntu Condensed';-inkscape-font-specification:'Ubuntu Condensed, '"
         id="path4249"
         inkscape:connector-curvature="0" />
      <path
         d="m -661.04242,456.11973 q 1.74,-6 3.18,-12.06 1.44,-6.06 2.76,-12.9 l 5.1,0 q -0.9,4.38 -1.98,8.64 -1.02,4.26 -2.16,8.22 -1.08,3.96 -2.22,7.5 -1.08,3.48 -2.04,6.36 -1.14,3.36 -2.22,5.64 -1.02,2.34 -2.28,3.72 -1.2,1.44 -2.64,2.04 -1.44,0.66 -3.42,0.66 -1.08,0 -2.16,-0.3 -1.08,-0.24 -1.8,-0.54 l 0.96,-4.2 q 1.56,0.66 2.94,0.66 1.74,0 2.82,-1.26 1.08,-1.26 2.1,-3.78 l 0.6,-1.5 q -1.14,-3.12 -2.34,-6.9 -1.14,-3.84 -2.28,-7.98 -1.08,-4.14 -2.1,-8.46 -1.02,-4.38 -1.86,-8.52 l 5.46,0 q 0.48,2.82 1.14,6.18 0.66,3.36 1.38,6.72 0.78,3.36 1.56,6.54 0.78,3.12 1.5,5.52 z"
         style="font-style:normal;font-variant:normal;font-weight:normal;font-stretch:normal;font-size:60px;font-family:'Ubuntu Condensed';-inkscape-font-specification:'Ubuntu Condensed, '"
         id="path4251"
         inkscape:connector-curvature="0" />
      <path
         d="m -640.13336,458.99973 q 2.28,0 3.42,-1.26 1.2,-1.32 1.2,-3.42 0,-1.32 -0.48,-2.22 -0.48,-0.96 -1.26,-1.68 -0.78,-0.72 -1.8,-1.26 -1.02,-0.6 -2.04,-1.26 -1.02,-0.6 -1.98,-1.38 -0.96,-0.84 -1.74,-1.86 -0.72,-1.08 -1.2,-2.4 -0.42,-1.38 -0.42,-3.18 0,-3.9 2.4,-6.3 2.46,-2.4 6.6,-2.4 1.74,0 3.3,0.48 1.56,0.42 2.58,0.96 l -1.14,4.14 q -1.08,-0.6 -2.16,-0.9 -1.08,-0.3 -2.34,-0.3 -1.92,0 -3.06,1.14 -1.14,1.08 -1.14,3.18 0,1.2 0.42,2.1 0.42,0.84 1.08,1.56 0.72,0.66 1.56,1.26 0.9,0.6 1.86,1.14 1.14,0.66 2.22,1.44 1.14,0.78 1.98,1.86 0.9,1.02 1.44,2.46 0.54,1.38 0.54,3.36 0,4.14 -2.46,6.66 -2.4,2.52 -7.08,2.52 -2.4,0 -4.32,-0.66 -1.92,-0.66 -2.88,-1.2 l 1.08,-4.26 q 0.9,0.48 2.4,1.08 1.56,0.6 3.42,0.6 z"
         style="font-style:normal;font-variant:normal;font-weight:normal;font-stretch:normal;font-size:60px;font-family:'Ubuntu Condensed';-inkscape-font-specification:'Ubuntu Condensed, '"
         id="path4253"
         inkscape:connector-curvature="0" />
      <path
         d="m -619.20555,431.15973 7.92,0 0,4.44 -7.92,0 0,17.34 q 0,3.24 1.14,4.56 1.2,1.26 3.18,1.26 1.02,0 1.92,-0.3 0.96,-0.3 1.62,-0.72 l 1.02,4.14 q -2.46,1.44 -5.22,1.44 -4.44,0 -6.66,-2.46 -2.16,-2.52 -2.16,-8.28 l 0,-29.88 5.16,-0.9 0,9.36 z"
         style="font-style:normal;font-variant:normal;font-weight:normal;font-stretch:normal;font-size:60px;font-family:'Ubuntu Condensed';-inkscape-font-specification:'Ubuntu Condensed, '"
         id="path4255"
         inkscape:connector-curvature="0" />
      <path
         d="m -601.59836,448.43973 q 0.06,2.28 0.42,4.2 0.36,1.86 1.14,3.3 0.84,1.38 2.16,2.16 1.38,0.78 3.48,0.78 1.74,0 3.18,-0.48 1.5,-0.54 2.16,-0.9 l 0.96,4.14 q -0.78,0.54 -2.64,1.14 -1.8,0.66 -4.32,0.66 -3.3,0 -5.58,-1.2 -2.22,-1.2 -3.66,-3.36 -1.38,-2.16 -1.98,-5.16 -0.6,-3 -0.6,-6.6 0,-8.7 2.88,-12.72 2.88,-4.02 7.62,-4.02 5.34,0 7.56,4.02 2.22,4.02 2.22,11.28 0,0.66 0,1.38 0,0.66 -0.06,1.38 l -14.94,0 z m 5.22,-13.68 q -2.58,0 -3.78,2.58 -1.14,2.58 -1.38,6.9 l 9.54,0 q 0,-4.38 -0.9,-6.9 -0.9,-2.58 -3.48,-2.58 z"
         style="font-style:normal;font-variant:normal;font-weight:normal;font-stretch:normal;font-size:60px;font-family:'Ubuntu Condensed';-inkscape-font-specification:'Ubuntu Condensed, '"
         id="path4257"
         inkscape:connector-curvature="0" />
      <path
         d="m -579.00555,432.05973 q 2.1,-0.66 4.56,-1.08 2.46,-0.48 4.5,-0.48 2.1,0 3.78,0.54 1.74,0.54 3.06,1.8 1.56,-1.02 3.36,-1.68 1.8,-0.66 3.96,-0.66 2.16,0 3.9,0.66 1.8,0.6 3.06,2.1 1.26,1.5 1.98,4.08 0.72,2.52 0.72,6.3 l 0,19.02 -5.16,0 0,-18.6 q 0,-4.68 -1.08,-6.84 -1.08,-2.16 -4.08,-2.16 -1.14,0 -2.34,0.42 -1.14,0.42 -2.16,1.14 0.48,1.38 0.72,3.12 0.24,1.74 0.24,3.9 l 0,19.02 -5.16,0 0,-18.6 q 0,-4.68 -1.08,-6.84 -1.08,-2.16 -4.08,-2.16 -1.56,0 -3.54,0.6 l 0,27 -5.16,0 0,-30.6 z"
         style="font-style:normal;font-variant:normal;font-weight:normal;font-stretch:normal;font-size:60px;font-family:'Ubuntu Condensed';-inkscape-font-specification:'Ubuntu Condensed, '"
         id="path4259"
         inkscape:connector-curvature="0" />
      <path
         d="m -498.87086,441.83973 q 0,5.82 -1.26,9.9 -1.2,4.02 -3.54,6.54 -2.28,2.52 -5.58,3.66 -3.24,1.14 -7.26,1.14 -4.08,0 -8.64,-1.08 l 0,-40.32 q 2.28,-0.48 4.44,-0.78 2.16,-0.3 4.14,-0.3 4.08,0 7.32,1.14 3.3,1.14 5.58,3.66 2.34,2.52 3.54,6.6 1.26,4.02 1.26,9.84 z m -5.76,0 q 0,-4.44 -0.66,-7.56 -0.66,-3.12 -2.04,-5.1 -1.38,-1.98 -3.66,-2.88 -2.22,-0.9 -5.34,-0.9 -0.84,0 -1.68,0.06 -0.84,0.06 -1.74,0.18 l 0,32.4 q 0.9,0.12 1.74,0.18 0.84,0.06 1.62,0.06 3.18,0 5.4,-0.9 2.22,-0.9 3.6,-2.82 1.44,-1.98 2.1,-5.1 0.66,-3.12 0.66,-7.62 z"
         style="font-style:normal;font-variant:normal;font-weight:normal;font-stretch:normal;font-size:60px;font-family:'Ubuntu Condensed';-inkscape-font-specification:'Ubuntu Condensed, '"
         id="path4261"
         inkscape:connector-curvature="0" />
      <path
         d="m -490.75211,431.81973 q 1.56,-0.66 3.3,-1.02 1.74,-0.42 3.78,-0.42 4.2,0 6.84,2.64 2.64,2.58 2.64,8.1 l 0,20.88 q -2.16,0.6 -4.44,0.96 -2.22,0.36 -4.38,0.36 -2.16,0 -4.08,-0.54 -1.86,-0.54 -3.3,-1.74 -1.38,-1.2 -2.22,-3 -0.84,-1.86 -0.84,-4.5 0,-2.46 0.72,-4.26 0.78,-1.86 2.1,-3.06 1.32,-1.26 3.12,-1.86 1.8,-0.66 3.9,-0.66 1.98,0 4.38,0.48 l 0,-2.88 q 0,-3.48 -1.38,-4.86 -1.32,-1.38 -3.84,-1.38 -1.38,0 -2.64,0.3 -1.2,0.24 -2.58,0.84 l -1.08,-4.38 z m 2.46,21.66 q 0,2.76 1.44,4.08 1.44,1.32 4.08,1.32 1.62,0 3.54,-0.42 l 0,-10.02 q -1.8,-0.48 -3.54,-0.48 -1.14,0 -2.16,0.3 -1.02,0.24 -1.8,0.9 -0.72,0.6 -1.14,1.68 -0.42,1.02 -0.42,2.64 z"
         style="font-style:normal;font-variant:normal;font-weight:normal;font-stretch:normal;font-size:60px;font-family:'Ubuntu Condensed';-inkscape-font-specification:'Ubuntu Condensed, '"
         id="path4263"
         inkscape:connector-curvature="0" />
      <path
         d="m -460.41648,431.15973 7.92,0 0,4.44 -7.92,0 0,17.34 q 0,3.24 1.14,4.56 1.2,1.26 3.18,1.26 1.02,0 1.92,-0.3 0.96,-0.3 1.62,-0.72 l 1.02,4.14 q -2.46,1.44 -5.22,1.44 -4.44,0 -6.66,-2.46 -2.16,-2.52 -2.16,-8.28 l 0,-29.88 5.16,-0.9 0,9.36 z"
         style="font-style:normal;font-variant:normal;font-weight:normal;font-stretch:normal;font-size:60px;font-family:'Ubuntu Condensed';-inkscape-font-specification:'Ubuntu Condensed, '"
         id="path4265"
         inkscape:connector-curvature="0" />
      <path
         d="m -445.51773,431.81973 q 1.56,-0.66 3.3,-1.02 1.74,-0.42 3.78,-0.42 4.2,0 6.84,2.64 2.64,2.58 2.64,8.1 l 0,20.88 q -2.16,0.6 -4.44,0.96 -2.22,0.36 -4.38,0.36 -2.16,0 -4.08,-0.54 -1.86,-0.54 -3.3,-1.74 -1.38,-1.2 -2.22,-3 -0.84,-1.86 -0.84,-4.5 0,-2.46 0.72,-4.26 0.78,-1.86 2.1,-3.06 1.32,-1.26 3.12,-1.86 1.8,-0.66 3.9,-0.66 1.98,0 4.38,0.48 l 0,-2.88 q 0,-3.48 -1.38,-4.86 -1.32,-1.38 -3.84,-1.38 -1.38,0 -2.64,0.3 -1.2,0.24 -2.58,0.84 l -1.08,-4.38 z m 2.46,21.66 q 0,2.76 1.44,4.08 1.44,1.32 4.08,1.32 1.62,0 3.54,-0.42 l 0,-10.02 q -1.8,-0.48 -3.54,-0.48 -1.14,0 -2.16,0.3 -1.02,0.24 -1.8,0.9 -0.72,0.6 -1.14,1.68 -0.42,1.02 -0.42,2.64 z"
         style="font-style:normal;font-variant:normal;font-weight:normal;font-stretch:normal;font-size:60px;font-family:'Ubuntu Condensed';-inkscape-font-specification:'Ubuntu Condensed, '"
         id="path4267"
         inkscape:connector-curvature="0" />
    </g>
    <path
       inkscape:connector-curvature="0"
       id="path4182"
       d="m -295.78775,498.77498 -50.44336,-50.44336 0,33.77539 -55.55078,0 0,33.33398 55.55078,0 0,33.77539 50.44336,-50.4414 z"
       style="opacity:1;fill:#d16fff;fill-opacity:1;stroke:#000000;stroke-width:3.79409456;stroke-miterlimit:4;stroke-dasharray:none;stroke-opacity:1" />
    <path
       style="opacity:1;fill:#d16fff;fill-opacity:1;stroke:#000000;stroke-width:3.79409456;stroke-miterlimit:4;stroke-dasharray:none;stroke-opacity:1"
       d="m 155.64082,498.77498 -50.44336,-50.44336 0,33.77539 -55.550779,0 0,33.33398 55.550779,0 0,33.77539 50.44336,-50.4414 z"
       id="path4184"
       inkscape:connector-curvature="0" />
    <path
       inkscape:connector-curvature="0"
       id="path4186"
       d="m 735.64082,498.77498 -50.44336,-50.44336 0,33.77539 -55.55078,0 0,33.33398 55.55078,0 0,33.77539 50.44336,-50.4414 z"
       style="opacity:1;fill:#d16fff;fill-opacity:1;stroke:#000000;stroke-width:3.79409456;stroke-miterlimit:4;stroke-dasharray:none;stroke-opacity:1" />
    <path
       style="opacity:1;fill:#d16fff;fill-opacity:1;stroke:#000000;stroke-width:3.79409456;stroke-miterlimit:4;stroke-dasharray:none;stroke-opacity:1"
       d="m 1207.0694,498.77498 -50.4434,-50.44336 0,33.77539 -55.5507,0 0,33.33398 55.5507,0 0,33.77539 50.4434,-50.4414 z"
       id="path4188"
       inkscape:connector-curvature="0" />
    <g
       transform="translate(453.19069,57.624221)"
       style="font-style:normal;font-weight:normal;font-size:40px;line-height:125%;font-family:sans-serif;letter-spacing:0px;word-spacing:0px;fill:#000000;fill-opacity:1;stroke:none;stroke-width:1px;stroke-linecap:butt;stroke-linejoin:miter;stroke-opacity:1"
       id="flowRoot4190">
      <path
         d="m -678.58586,463.55973 q -7.32,0 -11.22,-5.46 -3.9,-5.46 -3.9,-16.86 0,-5.82 1.08,-9.84 1.14,-4.02 3.12,-6.54 1.98,-2.52 4.68,-3.6 2.7,-1.14 5.88,-1.14 2.64,0 4.92,0.72 2.28,0.66 3.72,1.68 l -1.62,4.5 q -1.44,-0.96 -3.12,-1.56 -1.62,-0.6 -3.78,-0.6 -4.8,0 -6.96,4.02 -2.16,3.96 -2.16,12.36 0,8.46 2.28,13.02 2.28,4.56 7.44,4.56 2.46,0 3.96,-0.6 1.56,-0.6 3,-1.56 l 1.5,4.26 q -1.38,1.08 -3.66,1.86 -2.22,0.78 -5.16,0.78 z"
         style="font-style:normal;font-variant:normal;font-weight:normal;font-stretch:normal;font-size:60px;font-family:'Ubuntu Condensed';-inkscape-font-specification:'Ubuntu Condensed, '"
         id="path4228"
         inkscape:connector-curvature="0" />
      <path
         d="m -644.5668,446.93973 q 0,3.72 -0.66,6.78 -0.66,3 -2.04,5.16 -1.32,2.16 -3.42,3.36 -2.04,1.2 -4.86,1.2 -2.82,0 -4.92,-1.2 -2.1,-1.2 -3.48,-3.36 -1.32,-2.16 -1.98,-5.16 -0.66,-3.06 -0.66,-6.78 0,-3.66 0.66,-6.72 0.66,-3.06 1.98,-5.22 1.38,-2.22 3.48,-3.42 2.1,-1.2 4.92,-1.2 2.82,0 4.86,1.2 2.1,1.2 3.42,3.42 1.38,2.16 2.04,5.22 0.66,3.06 0.66,6.72 z m -5.4,0 q 0,-2.64 -0.3,-4.8 -0.3,-2.22 -0.96,-3.78 -0.66,-1.62 -1.74,-2.46 -1.08,-0.9 -2.58,-0.9 -1.56,0 -2.64,0.9 -1.02,0.84 -1.74,2.46 -0.66,1.56 -0.96,3.78 -0.3,2.16 -0.3,4.8 0,2.64 0.3,4.86 0.3,2.16 0.96,3.72 0.72,1.56 1.74,2.46 1.08,0.84 2.64,0.84 1.5,0 2.58,-0.84 1.08,-0.9 1.74,-2.46 0.66,-1.56 0.96,-3.72 0.3,-2.22 0.3,-4.86 z"
         style="font-style:normal;font-variant:normal;font-weight:normal;font-stretch:normal;font-size:60px;font-family:'Ubuntu Condensed';-inkscape-font-specification:'Ubuntu Condensed, '"
         id="path4230"
         inkscape:connector-curvature="0" />
      <path
         d="m -637.01336,432.05973 q 2.22,-0.66 4.8,-1.08 2.58,-0.48 4.74,-0.48 2.34,0 4.26,0.66 1.92,0.6 3.24,2.1 1.38,1.5 2.1,4.08 0.78,2.52 0.78,6.3 l 0,19.02 -5.16,0 0,-18.6 q 0,-4.68 -1.2,-6.84 -1.2,-2.16 -4.5,-2.16 -1.74,0 -3.9,0.6 l 0,27 -5.16,0 0,-30.6 z"
         style="font-style:normal;font-variant:normal;font-weight:normal;font-stretch:normal;font-size:60px;font-family:'Ubuntu Condensed';-inkscape-font-specification:'Ubuntu Condensed, '"
         id="path4232"
         inkscape:connector-curvature="0" />
      <path
         d="m -601.56836,456.59973 q 0.72,-2.4 1.5,-5.64 0.84,-3.24 1.62,-6.66 0.78,-3.48 1.44,-6.9 0.72,-3.42 1.2,-6.24 l 5.16,0 q -0.78,3.96 -1.86,8.34 -1.02,4.38 -2.16,8.64 -1.08,4.2 -2.22,7.98 -1.14,3.78 -2.1,6.54 l -5.34,0 q -0.96,-2.76 -2.1,-6.54 -1.14,-3.78 -2.28,-7.98 -1.08,-4.26 -2.16,-8.64 -1.02,-4.38 -1.8,-8.34 l 5.46,0 q 0.48,2.82 1.14,6.24 0.72,3.42 1.44,6.9 0.78,3.42 1.56,6.66 0.78,3.24 1.5,5.64 z"
         style="font-style:normal;font-variant:normal;font-weight:normal;font-stretch:normal;font-size:60px;font-family:'Ubuntu Condensed';-inkscape-font-specification:'Ubuntu Condensed, '"
         id="path4234"
         inkscape:connector-curvature="0" />
      <path
         d="m -582.14523,448.43973 q 0.06,2.28 0.42,4.2 0.36,1.86 1.14,3.3 0.84,1.38 2.16,2.16 1.38,0.78 3.48,0.78 1.74,0 3.18,-0.48 1.5,-0.54 2.16,-0.9 l 0.96,4.14 q -0.78,0.54 -2.64,1.14 -1.8,0.66 -4.32,0.66 -3.3,0 -5.58,-1.2 -2.22,-1.2 -3.66,-3.36 -1.38,-2.16 -1.98,-5.16 -0.6,-3 -0.6,-6.6 0,-8.7 2.88,-12.72 2.88,-4.02 7.62,-4.02 5.34,0 7.56,4.02 2.22,4.02 2.22,11.28 0,0.66 0,1.38 0,0.66 -0.06,1.38 l -14.94,0 z m 5.22,-13.68 q -2.58,0 -3.78,2.58 -1.14,2.58 -1.38,6.9 l 9.54,0 q 0,-4.38 -0.9,-6.9 -0.9,-2.58 -3.48,-2.58 z"
         style="font-style:normal;font-variant:normal;font-weight:normal;font-stretch:normal;font-size:60px;font-family:'Ubuntu Condensed';-inkscape-font-specification:'Ubuntu Condensed, '"
         id="path4236"
         inkscape:connector-curvature="0" />
      <path
         d="m -545.93242,435.83973 q -1.92,-0.84 -4.32,-0.84 -2.22,0 -4.14,0.78 l 0,26.88 -5.16,0 0,-30.12 q 1.74,-0.84 3.96,-1.38 2.28,-0.6 4.98,-0.6 1.44,0 2.88,0.18 1.44,0.18 2.7,0.66 l -0.9,4.44 z"
         style="font-style:normal;font-variant:normal;font-weight:normal;font-stretch:normal;font-size:60px;font-family:'Ubuntu Condensed';-inkscape-font-specification:'Ubuntu Condensed, '"
         id="path4238"
         inkscape:connector-curvature="0" />
      <path
         d="m -535.48492,458.99973 q 2.28,0 3.42,-1.26 1.2,-1.32 1.2,-3.42 0,-1.32 -0.48,-2.22 -0.48,-0.96 -1.26,-1.68 -0.78,-0.72 -1.8,-1.26 -1.02,-0.6 -2.04,-1.26 -1.02,-0.6 -1.98,-1.38 -0.96,-0.84 -1.74,-1.86 -0.72,-1.08 -1.2,-2.4 -0.42,-1.38 -0.42,-3.18 0,-3.9 2.4,-6.3 2.46,-2.4 6.6,-2.4 1.74,0 3.3,0.48 1.56,0.42 2.58,0.96 l -1.14,4.14 q -1.08,-0.6 -2.16,-0.9 -1.08,-0.3 -2.34,-0.3 -1.92,0 -3.06,1.14 -1.14,1.08 -1.14,3.18 0,1.2 0.42,2.1 0.42,0.84 1.08,1.56 0.72,0.66 1.56,1.26 0.9,0.6 1.86,1.14 1.14,0.66 2.22,1.44 1.14,0.78 1.98,1.86 0.9,1.02 1.44,2.46 0.54,1.38 0.54,3.36 0,4.14 -2.46,6.66 -2.4,2.52 -7.08,2.52 -2.4,0 -4.32,-0.66 -1.92,-0.66 -2.88,-1.2 l 1.08,-4.26 q 0.9,0.48 2.4,1.08 1.56,0.6 3.42,0.6 z"
         style="font-style:normal;font-variant:normal;font-weight:normal;font-stretch:normal;font-size:60px;font-family:'Ubuntu Condensed';-inkscape-font-specification:'Ubuntu Condensed, '"
         id="path4240"
         inkscape:connector-curvature="0" />
      <path
         d="m -514.19711,462.65973 -5.16,0 0,-31.5 5.16,0 0,31.5 z m -2.58,-37.08 q -1.38,0 -2.4,-0.9 -0.96,-0.96 -0.96,-2.52 0,-1.56 0.96,-2.46 1.02,-0.96 2.4,-0.96 1.38,0 2.34,0.96 1.02,0.9 1.02,2.46 0,1.56 -1.02,2.52 -0.96,0.9 -2.34,0.9 z"
         style="font-style:normal;font-variant:normal;font-weight:normal;font-stretch:normal;font-size:60px;font-family:'Ubuntu Condensed';-inkscape-font-specification:'Ubuntu Condensed, '"
         id="path4242"
         inkscape:connector-curvature="0" />
      <path
         d="m -484.60586,446.93973 q 0,3.72 -0.66,6.78 -0.66,3 -2.04,5.16 -1.32,2.16 -3.42,3.36 -2.04,1.2 -4.86,1.2 -2.82,0 -4.92,-1.2 -2.1,-1.2 -3.48,-3.36 -1.32,-2.16 -1.98,-5.16 -0.66,-3.06 -0.66,-6.78 0,-3.66 0.66,-6.72 0.66,-3.06 1.98,-5.22 1.38,-2.22 3.48,-3.42 2.1,-1.2 4.92,-1.2 2.82,0 4.86,1.2 2.1,1.2 3.42,3.42 1.38,2.16 2.04,5.22 0.66,3.06 0.66,6.72 z m -5.4,0 q 0,-2.64 -0.3,-4.8 -0.3,-2.22 -0.96,-3.78 -0.66,-1.62 -1.74,-2.46 -1.08,-0.9 -2.58,-0.9 -1.56,0 -2.64,0.9 -1.02,0.84 -1.74,2.46 -0.66,1.56 -0.96,3.78 -0.3,2.16 -0.3,4.8 0,2.64 0.3,4.86 0.3,2.16 0.96,3.72 0.72,1.56 1.74,2.46 1.08,0.84 2.64,0.84 1.5,0 2.58,-0.84 1.08,-0.9 1.74,-2.46 0.66,-1.56 0.96,-3.72 0.3,-2.22 0.3,-4.86 z"
         style="font-style:normal;font-variant:normal;font-weight:normal;font-stretch:normal;font-size:60px;font-family:'Ubuntu Condensed';-inkscape-font-specification:'Ubuntu Condensed, '"
         id="path4244"
         inkscape:connector-curvature="0" />
      <path
         d="m -477.05242,432.05973 q 2.22,-0.66 4.8,-1.08 2.58,-0.48 4.74,-0.48 2.34,0 4.26,0.66 1.92,0.6 3.24,2.1 1.38,1.5 2.1,4.08 0.78,2.52 0.78,6.3 l 0,19.02 -5.16,0 0,-18.6 q 0,-4.68 -1.2,-6.84 -1.2,-2.16 -4.5,-2.16 -1.74,0 -3.9,0.6 l 0,27 -5.16,0 0,-30.6 z"
         style="font-style:normal;font-variant:normal;font-weight:normal;font-stretch:normal;font-size:60px;font-family:'Ubuntu Condensed';-inkscape-font-specification:'Ubuntu Condensed, '"
         id="path4246"
         inkscape:connector-curvature="0" />
    </g>
    <g
       transform="translate(1496.4455,57.624221)"
       style="font-style:normal;font-weight:normal;font-size:40px;line-height:125%;font-family:sans-serif;letter-spacing:0px;word-spacing:0px;fill:#000000;fill-opacity:1;stroke:none;stroke-width:1px;stroke-linecap:butt;stroke-linejoin:miter;stroke-opacity:1"
       id="flowRoot4198">
      <path
         d="m -678.58586,463.55973 q -7.32,0 -11.22,-5.46 -3.9,-5.46 -3.9,-16.86 0,-5.82 1.08,-9.84 1.14,-4.02 3.12,-6.54 1.98,-2.52 4.68,-3.6 2.7,-1.14 5.88,-1.14 2.64,0 4.92,0.72 2.28,0.66 3.72,1.68 l -1.62,4.5 q -1.44,-0.96 -3.12,-1.56 -1.62,-0.6 -3.78,-0.6 -4.8,0 -6.96,4.02 -2.16,3.96 -2.16,12.36 0,8.46 2.28,13.02 2.28,4.56 7.44,4.56 2.46,0 3.96,-0.6 1.56,-0.6 3,-1.56 l 1.5,4.26 q -1.38,1.08 -3.66,1.86 -2.22,0.78 -5.16,0.78 z"
         style="font-style:normal;font-variant:normal;font-weight:normal;font-stretch:normal;font-size:60px;font-family:'Ubuntu Condensed';-inkscape-font-specification:'Ubuntu Condensed, '"
         id="path4207"
         inkscape:connector-curvature="0" />
      <path
         d="m -644.5668,446.93973 q 0,3.72 -0.66,6.78 -0.66,3 -2.04,5.16 -1.32,2.16 -3.42,3.36 -2.04,1.2 -4.86,1.2 -2.82,0 -4.92,-1.2 -2.1,-1.2 -3.48,-3.36 -1.32,-2.16 -1.98,-5.16 -0.66,-3.06 -0.66,-6.78 0,-3.66 0.66,-6.72 0.66,-3.06 1.98,-5.22 1.38,-2.22 3.48,-3.42 2.1,-1.2 4.92,-1.2 2.82,0 4.86,1.2 2.1,1.2 3.42,3.42 1.38,2.16 2.04,5.22 0.66,3.06 0.66,6.72 z m -5.4,0 q 0,-2.64 -0.3,-4.8 -0.3,-2.22 -0.96,-3.78 -0.66,-1.62 -1.74,-2.46 -1.08,-0.9 -2.58,-0.9 -1.56,0 -2.64,0.9 -1.02,0.84 -1.74,2.46 -0.66,1.56 -0.96,3.78 -0.3,2.16 -0.3,4.8 0,2.64 0.3,4.86 0.3,2.16 0.96,3.72 0.72,1.56 1.74,2.46 1.08,0.84 2.64,0.84 1.5,0 2.58,-0.84 1.08,-0.9 1.74,-2.46 0.66,-1.56 0.96,-3.72 0.3,-2.22 0.3,-4.86 z"
         style="font-style:normal;font-variant:normal;font-weight:normal;font-stretch:normal;font-size:60px;font-family:'Ubuntu Condensed';-inkscape-font-specification:'Ubuntu Condensed, '"
         id="path4209"
         inkscape:connector-curvature="0" />
      <path
         d="m -637.01336,432.05973 q 2.22,-0.66 4.8,-1.08 2.58,-0.48 4.74,-0.48 2.34,0 4.26,0.66 1.92,0.6 3.24,2.1 1.38,1.5 2.1,4.08 0.78,2.52 0.78,6.3 l 0,19.02 -5.16,0 0,-18.6 q 0,-4.68 -1.2,-6.84 -1.2,-2.16 -4.5,-2.16 -1.74,0 -3.9,0.6 l 0,27 -5.16,0 0,-30.6 z"
         style="font-style:normal;font-variant:normal;font-weight:normal;font-stretch:normal;font-size:60px;font-family:'Ubuntu Condensed';-inkscape-font-specification:'Ubuntu Condensed, '"
         id="path4211"
         inkscape:connector-curvature="0" />
      <path
         d="m -601.56836,456.59973 q 0.72,-2.4 1.5,-5.64 0.84,-3.24 1.62,-6.66 0.78,-3.48 1.44,-6.9 0.72,-3.42 1.2,-6.24 l 5.16,0 q -0.78,3.96 -1.86,8.34 -1.02,4.38 -2.16,8.64 -1.08,4.2 -2.22,7.98 -1.14,3.78 -2.1,6.54 l -5.34,0 q -0.96,-2.76 -2.1,-6.54 -1.14,-3.78 -2.28,-7.98 -1.08,-4.26 -2.16,-8.64 -1.02,-4.38 -1.8,-8.34 l 5.46,0 q 0.48,2.82 1.14,6.24 0.72,3.42 1.44,6.9 0.78,3.42 1.56,6.66 0.78,3.24 1.5,5.64 z"
         style="font-style:normal;font-variant:normal;font-weight:normal;font-stretch:normal;font-size:60px;font-family:'Ubuntu Condensed';-inkscape-font-specification:'Ubuntu Condensed, '"
         id="path4213"
         inkscape:connector-curvature="0" />
      <path
         d="m -582.14523,448.43973 q 0.06,2.28 0.42,4.2 0.36,1.86 1.14,3.3 0.84,1.38 2.16,2.16 1.38,0.78 3.48,0.78 1.74,0 3.18,-0.48 1.5,-0.54 2.16,-0.9 l 0.96,4.14 q -0.78,0.54 -2.64,1.14 -1.8,0.66 -4.32,0.66 -3.3,0 -5.58,-1.2 -2.22,-1.2 -3.66,-3.36 -1.38,-2.16 -1.98,-5.16 -0.6,-3 -0.6,-6.6 0,-8.7 2.88,-12.72 2.88,-4.02 7.62,-4.02 5.34,0 7.56,4.02 2.22,4.02 2.22,11.28 0,0.66 0,1.38 0,0.66 -0.06,1.38 l -14.94,0 z m 5.22,-13.68 q -2.58,0 -3.78,2.58 -1.14,2.58 -1.38,6.9 l 9.54,0 q 0,-4.38 -0.9,-6.9 -0.9,-2.58 -3.48,-2.58 z"
         style="font-style:normal;font-variant:normal;font-weight:normal;font-stretch:normal;font-size:60px;font-family:'Ubuntu Condensed';-inkscape-font-specification:'Ubuntu Condensed, '"
         id="path4215"
         inkscape:connector-curvature="0" />
      <path
         d="m -545.93242,435.83973 q -1.92,-0.84 -4.32,-0.84 -2.22,0 -4.14,0.78 l 0,26.88 -5.16,0 0,-30.12 q 1.74,-0.84 3.96,-1.38 2.28,-0.6 4.98,-0.6 1.44,0 2.88,0.18 1.44,0.18 2.7,0.66 l -0.9,4.44 z"
         style="font-style:normal;font-variant:normal;font-weight:normal;font-stretch:normal;font-size:60px;font-family:'Ubuntu Condensed';-inkscape-font-specification:'Ubuntu Condensed, '"
         id="path4217"
         inkscape:connector-curvature="0" />
      <path
         d="m -535.48492,458.99973 q 2.28,0 3.42,-1.26 1.2,-1.32 1.2,-3.42 0,-1.32 -0.48,-2.22 -0.48,-0.96 -1.26,-1.68 -0.78,-0.72 -1.8,-1.26 -1.02,-0.6 -2.04,-1.26 -1.02,-0.6 -1.98,-1.38 -0.96,-0.84 -1.74,-1.86 -0.72,-1.08 -1.2,-2.4 -0.42,-1.38 -0.42,-3.18 0,-3.9 2.4,-6.3 2.46,-2.4 6.6,-2.4 1.74,0 3.3,0.48 1.56,0.42 2.58,0.96 l -1.14,4.14 q -1.08,-0.6 -2.16,-0.9 -1.08,-0.3 -2.34,-0.3 -1.92,0 -3.06,1.14 -1.14,1.08 -1.14,3.18 0,1.2 0.42,2.1 0.42,0.84 1.08,1.56 0.72,0.66 1.56,1.26 0.9,0.6 1.86,1.14 1.14,0.66 2.22,1.44 1.14,0.78 1.98,1.86 0.9,1.02 1.44,2.46 0.54,1.38 0.54,3.36 0,4.14 -2.46,6.66 -2.4,2.52 -7.08,2.52 -2.4,0 -4.32,-0.66 -1.92,-0.66 -2.88,-1.2 l 1.08,-4.26 q 0.9,0.48 2.4,1.08 1.56,0.6 3.42,0.6 z"
         style="font-style:normal;font-variant:normal;font-weight:normal;font-stretch:normal;font-size:60px;font-family:'Ubuntu Condensed';-inkscape-font-specification:'Ubuntu Condensed, '"
         id="path4219"
         inkscape:connector-curvature="0" />
      <path
         d="m -514.19711,462.65973 -5.16,0 0,-31.5 5.16,0 0,31.5 z m -2.58,-37.08 q -1.38,0 -2.4,-0.9 -0.96,-0.96 -0.96,-2.52 0,-1.56 0.96,-2.46 1.02,-0.96 2.4,-0.96 1.38,0 2.34,0.96 1.02,0.9 1.02,2.46 0,1.56 -1.02,2.52 -0.96,0.9 -2.34,0.9 z"
         style="font-style:normal;font-variant:normal;font-weight:normal;font-stretch:normal;font-size:60px;font-family:'Ubuntu Condensed';-inkscape-font-specification:'Ubuntu Condensed, '"
         id="path4221"
         inkscape:connector-curvature="0" />
      <path
         d="m -484.60586,446.93973 q 0,3.72 -0.66,6.78 -0.66,3 -2.04,5.16 -1.32,2.16 -3.42,3.36 -2.04,1.2 -4.86,1.2 -2.82,0 -4.92,-1.2 -2.1,-1.2 -3.48,-3.36 -1.32,-2.16 -1.98,-5.16 -0.66,-3.06 -0.66,-6.78 0,-3.66 0.66,-6.72 0.66,-3.06 1.98,-5.22 1.38,-2.22 3.48,-3.42 2.1,-1.2 4.92,-1.2 2.82,0 4.86,1.2 2.1,1.2 3.42,3.42 1.38,2.16 2.04,5.22 0.66,3.06 0.66,6.72 z m -5.4,0 q 0,-2.64 -0.3,-4.8 -0.3,-2.22 -0.96,-3.78 -0.66,-1.62 -1.74,-2.46 -1.08,-0.9 -2.58,-0.9 -1.56,0 -2.64,0.9 -1.02,0.84 -1.74,2.46 -0.66,1.56 -0.96,3.78 -0.3,2.16 -0.3,4.8 0,2.64 0.3,4.86 0.3,2.16 0.96,3.72 0.72,1.56 1.74,2.46 1.08,0.84 2.64,0.84 1.5,0 2.58,-0.84 1.08,-0.9 1.74,-2.46 0.66,-1.56 0.96,-3.72 0.3,-2.22 0.3,-4.86 z"
         style="font-style:normal;font-variant:normal;font-weight:normal;font-stretch:normal;font-size:60px;font-family:'Ubuntu Condensed';-inkscape-font-specification:'Ubuntu Condensed, '"
         id="path4223"
         inkscape:connector-curvature="0" />
      <path
         d="m -477.05242,432.05973 q 2.22,-0.66 4.8,-1.08 2.58,-0.48 4.74,-0.48 2.34,0 4.26,0.66 1.92,0.6 3.24,2.1 1.38,1.5 2.1,4.08 0.78,2.52 0.78,6.3 l 0,19.02 -5.16,0 0,-18.6 q 0,-4.68 -1.2,-6.84 -1.2,-2.16 -4.5,-2.16 -1.74,0 -3.9,0.6 l 0,27 -5.16,0 0,-30.6 z"
         style="font-style:normal;font-variant:normal;font-weight:normal;font-stretch:normal;font-size:60px;font-family:'Ubuntu Condensed';-inkscape-font-specification:'Ubuntu Condensed, '"
         id="path4225"
         inkscape:connector-curvature="0" />
    </g>
  </g>
</svg>
