<?xml version="1.0" encoding="UTF-8" standalone="no"?>
<!-- Created with Inkscape (http://www.inkscape.org/) -->

<svg
   xmlns:dc="http://purl.org/dc/elements/1.1/"
   xmlns:cc="http://creativecommons.org/ns#"
   xmlns:rdf="http://www.w3.org/1999/02/22-rdf-syntax-ns#"
   xmlns:svg="http://www.w3.org/2000/svg"
   xmlns="http://www.w3.org/2000/svg"
   xmlns:xlink="http://www.w3.org/1999/xlink"
   xmlns:sodipodi="http://sodipodi.sourceforge.net/DTD/sodipodi-0.dtd"
   xmlns:inkscape="http://www.inkscape.org/namespaces/inkscape"
   width="372.3848mm"
   height="372.3848mm"
   viewBox="0 0 1319.4737 1319.4737"
   id="svg2"
   version="1.1"
   inkscape:version="0.91 r13725"
   sodipodi:docname="strictlyconforming.svg">
  <defs
     id="defs4">
    <linearGradient
       inkscape:collect="always"
       id="linearGradient4211">
      <stop
         style="stop-color:#d50007;stop-opacity:1"
         offset="0"
         id="stop4213" />
      <stop
         style="stop-color:#ff6f6f;stop-opacity:1"
         offset="1"
         id="stop4215" />
    </linearGradient>
    <linearGradient
       inkscape:collect="always"
       id="linearGradient4148">
      <stop
         style="stop-color:#239fff;stop-opacity:1"
         offset="0"
         id="stop4150" />
      <stop
         style="stop-color:#233bff;stop-opacity:1"
         offset="1"
         id="stop4152" />
    </linearGradient>
    <linearGradient
       inkscape:collect="always"
       id="linearGradient4138">
      <stop
         style="stop-color:#ffa123;stop-opacity:1"
         offset="0"
         id="stop4140" />
      <stop
         style="stop-color:#ff5f23;stop-opacity:1"
         offset="1"
         id="stop4142" />
    </linearGradient>
    <linearGradient
       inkscape:collect="always"
       xlink:href="#linearGradient4138"
       id="linearGradient4144"
       x1="169.28571"
       y1="493.79077"
       x2="685"
       y2="493.79077"
       gradientUnits="userSpaceOnUse"
       gradientTransform="translate(-45.714286,-5.7142857)" />
    <linearGradient
       inkscape:collect="always"
       xlink:href="#linearGradient4148"
       id="linearGradient4154"
       x1="-222.14282"
       y1="413.79077"
       x2="693.57141"
       y2="413.79077"
       gradientUnits="userSpaceOnUse"
       gradientTransform="translate(22.857143,-28.571429)" />
    <linearGradient
       inkscape:collect="always"
       xlink:href="#linearGradient4211"
       id="linearGradient4217"
       x1="-902.14288"
       y1="109.50506"
       x2="-332.14288"
       y2="109.50506"
       gradientUnits="userSpaceOnUse"
       gradientTransform="matrix(2.3383459,0,0,2.3383459,1538.8078,37.730087)" />
  </defs>
  <sodipodi:namedview
     id="base"
     pagecolor="#ffffff"
     bordercolor="#666666"
     borderopacity="1.0"
     inkscape:pageopacity="0.0"
     inkscape:pageshadow="2"
     inkscape:zoom="0.35"
     inkscape:cx="737.4495"
     inkscape:cy="534.55588"
     inkscape:document-units="px"
     inkscape:current-layer="layer1"
     showgrid="false"
     fit-margin-top="0"
     fit-margin-left="0"
     fit-margin-right="0"
     fit-margin-bottom="0"
     inkscape:window-width="1301"
     inkscape:window-height="744"
     inkscape:window-x="65"
     inkscape:window-y="24"
     inkscape:window-maximized="1" />
  <metadata
     id="metadata7">
    <rdf:RDF>
      <cc:Work
         rdf:about="">
        <dc:format>image/svg+xml</dc:format>
        <dc:type
           rdf:resource="http://purl.org/dc/dcmitype/StillImage" />
        <dc:title></dc:title>
      </cc:Work>
    </rdf:RDF>
  </metadata>
  <g
     inkscape:label="Layer 1"
     inkscape:groupmode="layer"
     id="layer1"
     transform="translate(564.02258,365.94608)">
    <g
       id="g4482">
      <path
         id="path4209"
         d="M 750.45111,293.79078 A 654.73685,654.73685 0 0 1 95.714266,948.52766 654.73685,654.73685 0 0 1 -559.02258,293.79078 654.73685,654.73685 0 0 1 95.714266,-360.94608 654.73685,654.73685 0 0 1 750.45111,293.79078 Z"
         style="opacity:1;fill:url(#linearGradient4217);fill-opacity:1;stroke:#000000;stroke-width:10;stroke-miterlimit:4;stroke-dasharray:none;stroke-opacity:1"
         inkscape:connector-curvature="0" />
      <g
         id="flowRoot4219"
         style="font-style:normal;font-weight:normal;font-size:40px;line-height:125%;font-family:sans-serif;letter-spacing:0px;word-spacing:0px;fill:#000000;fill-opacity:1;stroke:none;stroke-width:1px;stroke-linecap:butt;stroke-linejoin:miter;stroke-opacity:1"
         transform="translate(542.8083,42.857137)">
        <path
           id="path4286"
           style="font-style:normal;font-variant:normal;font-weight:normal;font-stretch:normal;font-size:80px;font-family:'Ubuntu Condensed';-inkscape-font-specification:'Ubuntu Condensed, ';text-align:center;text-anchor:middle"
           d="m -815.3152,-191.03755 q -7.76,0 -11.68,-4.4 -3.84,-4.4 -3.84,-13.92 l 0,-38.32 7.2,0 0,37.68 q 0,6.32 1.84,9.52 1.84,3.12 6.64,3.12 4.96,0 6.72,-3.2 1.84,-3.28 1.84,-9.44 l 0,-37.68 7.2,0 0,38.32 q 0,9.36 -4,13.84 -4,4.48 -11.92,4.48 z"
           inkscape:connector-curvature="0" />
        <path
           id="path4288"
           style="font-style:normal;font-variant:normal;font-weight:normal;font-stretch:normal;font-size:80px;font-family:'Ubuntu Condensed';-inkscape-font-specification:'Ubuntu Condensed, ';text-align:center;text-anchor:middle"
           d="m -786.92895,-233.03755 q 2.96,-0.88 6.4,-1.44 3.44,-0.64 6.32,-0.64 3.12,0 5.68,0.88 2.56,0.8 4.32,2.8 1.84,2 2.8,5.44 1.04,3.36 1.04,8.4 l 0,25.36 -6.88,0 0,-24.8 q 0,-6.24 -1.6,-9.12 -1.6,-2.88 -6,-2.88 -2.32,0 -5.2,0.8 l 0,36 -6.88,0 0,-40.8 z"
           inkscape:connector-curvature="0" />
        <path
           id="path4290"
           style="font-style:normal;font-variant:normal;font-weight:normal;font-stretch:normal;font-size:80px;font-family:'Ubuntu Condensed';-inkscape-font-specification:'Ubuntu Condensed, ';text-align:center;text-anchor:middle"
           d="m -730.2552,-227.91755 q -2.32,-1.28 -4.96,-1.28 -2,0 -3.52,0.8 -1.52,0.8 -2.64,2.64 -1.04,1.84 -1.6,4.88 -0.56,3.04 -0.56,7.52 0,8.64 2.24,12.4 2.32,3.68 6.96,3.68 0.88,0 1.92,-0.08 1.04,-0.16 2.16,-0.48 l 0,-30.08 z m 0,-25.2 6.88,-1.2 0,60.96 q -2.24,0.96 -5.12,1.52 -2.88,0.64 -5.84,0.64 -8.64,0 -12.56,-5.52 -3.84,-5.52 -3.84,-16.64 0,-5.04 0.8,-9.04 0.88,-4.08 2.64,-6.88 1.84,-2.88 4.64,-4.4 2.8,-1.6 6.64,-1.6 1.84,0 3.12,0.4 1.36,0.32 2.64,0.96 l 0,-19.2 z"
           inkscape:connector-curvature="0" />
        <path
           id="path4292"
           style="font-style:normal;font-variant:normal;font-weight:normal;font-stretch:normal;font-size:80px;font-family:'Ubuntu Condensed';-inkscape-font-specification:'Ubuntu Condensed, ';text-align:center;text-anchor:middle"
           d="m -706.27145,-211.19755 q 0.08,3.04 0.56,5.6 0.48,2.48 1.52,4.4 1.12,1.84 2.88,2.88 1.84,1.04 4.64,1.04 2.32,0 4.24,-0.64 2,-0.72 2.88,-1.2 l 1.28,5.52 q -1.04,0.72 -3.52,1.52 -2.4,0.88 -5.76,0.88 -4.4,0 -7.44,-1.6 -2.96,-1.6 -4.88,-4.48 -1.84,-2.88 -2.64,-6.88 -0.8,-4 -0.8,-8.8 0,-11.6 3.84,-16.96 3.84,-5.36 10.16,-5.36 7.12,0 10.08,5.36 2.96,5.36 2.96,15.04 0,0.88 0,1.84 0,0.88 -0.08,1.84 l -19.92,0 z m 6.96,-18.24 q -3.44,0 -5.04,3.44 -1.52,3.44 -1.84,9.2 l 12.72,0 q 0,-5.84 -1.2,-9.2 -1.2,-3.44 -4.64,-3.44 z"
           inkscape:connector-curvature="0" />
        <path
           id="path4294"
           style="font-style:normal;font-variant:normal;font-weight:normal;font-stretch:normal;font-size:80px;font-family:'Ubuntu Condensed';-inkscape-font-specification:'Ubuntu Condensed, ';text-align:center;text-anchor:middle"
           d="m -663.9077,-254.31755 q 1.84,0 3.36,0.32 1.52,0.32 2.64,0.8 l -1.28,5.44 q -2.08,-0.72 -4.08,-0.72 -2.88,0 -4.48,1.92 -1.52,1.84 -1.52,6.48 l 0,5.84 10.8,0 0,5.92 -10.8,0 0,36.08 -6.88,0 0,-47.84 q 0,-6.8 3.04,-10.48 3.04,-3.76 9.2,-3.76 z m 18.32,62.08 -6.88,0 0,-42 6.88,0 0,42 z m -3.44,-49.44 q -1.84,0 -3.2,-1.2 -1.28,-1.28 -1.28,-3.36 0,-2.08 1.28,-3.28 1.36,-1.28 3.2,-1.28 1.84,0 3.12,1.28 1.36,1.2 1.36,3.28 0,2.08 -1.36,3.36 -1.28,1.2 -3.12,1.2 z"
           inkscape:connector-curvature="0" />
        <path
           id="path4296"
           style="font-style:normal;font-variant:normal;font-weight:normal;font-stretch:normal;font-size:80px;font-family:'Ubuntu Condensed';-inkscape-font-specification:'Ubuntu Condensed, ';text-align:center;text-anchor:middle"
           d="m -633.17895,-233.03755 q 2.96,-0.88 6.4,-1.44 3.44,-0.64 6.32,-0.64 3.12,0 5.68,0.88 2.56,0.8 4.32,2.8 1.84,2 2.8,5.44 1.04,3.36 1.04,8.4 l 0,25.36 -6.88,0 0,-24.8 q 0,-6.24 -1.6,-9.12 -1.6,-2.88 -6,-2.88 -2.32,0 -5.2,0.8 l 0,36 -6.88,0 0,-40.8 z"
           inkscape:connector-curvature="0" />
        <path
           id="path4298"
           style="font-style:normal;font-variant:normal;font-weight:normal;font-stretch:normal;font-size:80px;font-family:'Ubuntu Condensed';-inkscape-font-specification:'Ubuntu Condensed, ';text-align:center;text-anchor:middle"
           d="m -589.8652,-211.19755 q 0.08,3.04 0.56,5.6 0.48,2.48 1.52,4.4 1.12,1.84 2.88,2.88 1.84,1.04 4.64,1.04 2.32,0 4.24,-0.64 2,-0.72 2.88,-1.2 l 1.28,5.52 q -1.04,0.72 -3.52,1.52 -2.4,0.88 -5.76,0.88 -4.4,0 -7.44,-1.6 -2.96,-1.6 -4.88,-4.48 -1.84,-2.88 -2.64,-6.88 -0.8,-4 -0.8,-8.8 0,-11.6 3.84,-16.96 3.84,-5.36 10.16,-5.36 7.12,0 10.08,5.36 2.96,5.36 2.96,15.04 0,0.88 0,1.84 0,0.88 -0.08,1.84 l -19.92,0 z m 6.96,-18.24 q -3.44,0 -5.04,3.44 -1.52,3.44 -1.84,9.2 l 12.72,0 q 0,-5.84 -1.2,-9.2 -1.2,-3.44 -4.64,-3.44 z"
           inkscape:connector-curvature="0" />
        <path
           id="path4300"
           style="font-style:normal;font-variant:normal;font-weight:normal;font-stretch:normal;font-size:80px;font-family:'Ubuntu Condensed';-inkscape-font-specification:'Ubuntu Condensed, ';text-align:center;text-anchor:middle"
           d="m -541.66145,-227.91755 q -2.32,-1.28 -4.96,-1.28 -2,0 -3.52,0.8 -1.52,0.8 -2.64,2.64 -1.04,1.84 -1.6,4.88 -0.56,3.04 -0.56,7.52 0,8.64 2.24,12.4 2.32,3.68 6.96,3.68 0.88,0 1.92,-0.08 1.04,-0.16 2.16,-0.48 l 0,-30.08 z m 0,-25.2 6.88,-1.2 0,60.96 q -2.24,0.96 -5.12,1.52 -2.88,0.64 -5.84,0.64 -8.64,0 -12.56,-5.52 -3.84,-5.52 -3.84,-16.64 0,-5.04 0.8,-9.04 0.88,-4.08 2.64,-6.88 1.84,-2.88 4.64,-4.4 2.8,-1.6 6.64,-1.6 1.84,0 3.12,0.4 1.36,0.32 2.64,0.96 l 0,-19.2 z"
           inkscape:connector-curvature="0" />
        <path
           id="path4302"
           style="font-style:normal;font-variant:normal;font-weight:normal;font-stretch:normal;font-size:80px;font-family:'Ubuntu Condensed';-inkscape-font-specification:'Ubuntu Condensed, ';text-align:center;text-anchor:middle"
           d="m -800.6552,-124.07755 4.96,0 q 9.92,0 9.92,-8.96 0,-2.8 -0.88,-4.56 -0.8,-1.84 -2.16,-2.8 -1.36,-1.04 -3.2,-1.44 -1.76,-0.4 -3.76,-0.4 -1.2,0 -2.48,0.08 -1.2,0.08 -2.4,0.24 l 0,17.84 z m 0,5.76 0,20 q 1.52,0.24 2.96,0.4 1.52,0.16 2.96,0.16 2.24,0 4.24,-0.48 2,-0.48 3.44,-1.6 1.52,-1.12 2.32,-3.04 0.88,-2 0.88,-4.88 0,-4.96 -2.72,-7.76 -2.64,-2.8 -8.32,-2.8 l -5.76,0 z m -7.2,-28.56 q 2.8,-0.64 5.68,-0.96 2.96,-0.4 5.84,-0.4 3.6,0 6.8,0.72 3.28,0.64 5.76,2.32 2.48,1.6 3.92,4.32 1.52,2.64 1.52,6.64 0,4.96 -2.08,8.16 -2.08,3.12 -5.36,4.64 4.08,1.6 6.72,4.88 2.64,3.28 2.64,9.04 0,4.32 -1.44,7.28 -1.36,2.96 -3.92,4.88 -2.56,1.84 -6.16,2.72 -3.52,0.8 -7.76,0.8 -2.8,0 -5.84,-0.32 -3.04,-0.32 -6.32,-0.96 l 0,-53.76 z"
           inkscape:connector-curvature="0" />
        <path
           id="path4304"
           style="font-style:normal;font-variant:normal;font-weight:normal;font-stretch:normal;font-size:80px;font-family:'Ubuntu Condensed';-inkscape-font-specification:'Ubuntu Condensed, ';text-align:center;text-anchor:middle"
           d="m -761.89645,-111.19755 q 0.08,3.04 0.56,5.6 0.48,2.48 1.52,4.4 1.12,1.84 2.88,2.88 1.84,1.04 4.64,1.04 2.32,0 4.24,-0.64 2,-0.72 2.88,-1.2 l 1.28,5.52 q -1.04,0.72 -3.52,1.52 -2.4,0.88 -5.76,0.88 -4.4,0 -7.44,-1.6 -2.96,-1.6 -4.88,-4.48 -1.84,-2.88 -2.64,-6.88 -0.8,-4 -0.8,-8.8 0,-11.6 3.84,-16.96 3.84,-5.36 10.16,-5.36 7.12,0 10.08,5.36 2.96,5.36 2.96,15.04 0,0.88 0,1.84 0,0.88 -0.08,1.84 l -19.92,0 z m 6.96,-18.24 q -3.44,0 -5.04,3.44 -1.52,3.44 -1.84,9.2 l 12.72,0 q 0,-5.84 -1.2,-9.2 -1.2,-3.44 -4.64,-3.44 z"
           inkscape:connector-curvature="0" />
        <path
           id="path4306"
           style="font-style:normal;font-variant:normal;font-weight:normal;font-stretch:normal;font-size:80px;font-family:'Ubuntu Condensed';-inkscape-font-specification:'Ubuntu Condensed, ';text-align:center;text-anchor:middle"
           d="m -731.7727,-92.23755 0,-60.88 6.88,-1.2 0,20.32 q 1.52,-0.48 3.28,-0.8 1.84,-0.32 3.68,-0.32 2.64,0 4.96,0.88 2.32,0.8 4,2.8 1.76,2 2.72,5.44 1.04,3.36 1.04,8.4 l 0,25.36 -6.88,0 0,-24.8 q 0,-6.24 -1.6,-9.12 -1.6,-2.88 -6,-2.88 -2.32,0 -5.2,0.8 l 0,36 -6.88,0 z"
           inkscape:connector-curvature="0" />
        <path
           id="path4308"
           style="font-style:normal;font-variant:normal;font-weight:normal;font-stretch:normal;font-size:80px;font-family:'Ubuntu Condensed';-inkscape-font-specification:'Ubuntu Condensed, ';text-align:center;text-anchor:middle"
           d="m -692.53895,-133.35755 q 2.08,-0.88 4.4,-1.36 2.32,-0.56 5.04,-0.56 5.6,0 9.12,3.52 3.52,3.44 3.52,10.8 l 0,27.84 q -2.88,0.8 -5.92,1.28 -2.96,0.48 -5.84,0.48 -2.88,0 -5.44,-0.72 -2.48,-0.72 -4.4,-2.32 -1.84,-1.6 -2.96,-4 -1.12,-2.48 -1.12,-6 0,-3.28 0.96,-5.68 1.04,-2.48 2.8,-4.08 1.76,-1.68 4.16,-2.48 2.4,-0.88 5.2,-0.88 2.64,0 5.84,0.64 l 0,-3.84 q 0,-4.64 -1.84,-6.48 -1.76,-1.84 -5.12,-1.84 -1.84,0 -3.52,0.4 -1.6,0.32 -3.44,1.12 l -1.44,-5.84 z m 3.28,28.88 q 0,3.68 1.92,5.44 1.92,1.76 5.44,1.76 2.16,0 4.72,-0.56 l 0,-13.36 q -2.4,-0.64 -4.72,-0.64 -1.52,0 -2.88,0.4 -1.36,0.32 -2.4,1.2 -0.96,0.8 -1.52,2.24 -0.56,1.36 -0.56,3.52 z"
           inkscape:connector-curvature="0" />
        <path
           id="path4310"
           style="font-style:normal;font-variant:normal;font-weight:normal;font-stretch:normal;font-size:80px;font-family:'Ubuntu Condensed';-inkscape-font-specification:'Ubuntu Condensed, ';text-align:center;text-anchor:middle"
           d="m -649.5127,-100.31755 q 0.96,-3.2 2,-7.52 1.12,-4.32 2.16,-8.88 1.04,-4.64 1.92,-9.2 0.96,-4.56 1.6,-8.32 l 6.88,0 q -1.04,5.28 -2.48,11.12 -1.36,5.84 -2.88,11.52 -1.44,5.6 -2.96,10.64 -1.52,5.04 -2.8,8.72 l -7.12,0 q -1.28,-3.68 -2.8,-8.72 -1.52,-5.04 -3.04,-10.64 -1.44,-5.68 -2.88,-11.52 -1.36,-5.84 -2.4,-11.12 l 7.28,0 q 0.64,3.76 1.52,8.32 0.96,4.56 1.92,9.2 1.04,4.56 2.08,8.88 1.04,4.32 2,7.52 z"
           inkscape:connector-curvature="0" />
        <path
           id="path4312"
           style="font-style:normal;font-variant:normal;font-weight:normal;font-stretch:normal;font-size:80px;font-family:'Ubuntu Condensed';-inkscape-font-specification:'Ubuntu Condensed, ';text-align:center;text-anchor:middle"
           d="m -620.67395,-92.23755 -6.88,0 0,-42 6.88,0 0,42 z m -3.44,-49.44 q -1.84,0 -3.2,-1.2 -1.28,-1.28 -1.28,-3.36 0,-2.08 1.28,-3.28 1.36,-1.28 3.2,-1.28 1.84,0 3.12,1.28 1.36,1.2 1.36,3.28 0,2.08 -1.36,3.36 -1.28,1.2 -3.12,1.2 z"
           inkscape:connector-curvature="0" />
        <path
           id="path4314"
           style="font-style:normal;font-variant:normal;font-weight:normal;font-stretch:normal;font-size:80px;font-family:'Ubuntu Condensed';-inkscape-font-specification:'Ubuntu Condensed, ';text-align:center;text-anchor:middle"
           d="m -581.21895,-113.19755 q 0,4.96 -0.88,9.04 -0.88,4 -2.72,6.88 -1.76,2.88 -4.56,4.48 -2.72,1.6 -6.48,1.6 -3.76,0 -6.56,-1.6 -2.8,-1.6 -4.64,-4.48 -1.76,-2.88 -2.64,-6.88 -0.88,-4.08 -0.88,-9.04 0,-4.88 0.88,-8.96 0.88,-4.08 2.64,-6.96 1.84,-2.96 4.64,-4.56 2.8,-1.6 6.56,-1.6 3.76,0 6.48,1.6 2.8,1.6 4.56,4.56 1.84,2.88 2.72,6.96 0.88,4.08 0.88,8.96 z m -7.2,0 q 0,-3.52 -0.4,-6.4 -0.4,-2.96 -1.28,-5.04 -0.88,-2.16 -2.32,-3.28 -1.44,-1.2 -3.44,-1.2 -2.08,0 -3.52,1.2 -1.36,1.12 -2.32,3.28 -0.88,2.08 -1.28,5.04 -0.4,2.88 -0.4,6.4 0,3.52 0.4,6.48 0.4,2.88 1.28,4.96 0.96,2.08 2.32,3.28 1.44,1.12 3.52,1.12 2,0 3.44,-1.12 1.44,-1.2 2.32,-3.28 0.88,-2.08 1.28,-4.96 0.4,-2.96 0.4,-6.48 z"
           inkscape:connector-curvature="0" />
        <path
           id="path4316"
           style="font-style:normal;font-variant:normal;font-weight:normal;font-stretch:normal;font-size:80px;font-family:'Ubuntu Condensed';-inkscape-font-specification:'Ubuntu Condensed, ';text-align:center;text-anchor:middle"
           d="m -552.9877,-127.99755 q -2.56,-1.12 -5.76,-1.12 -2.96,0 -5.52,1.04 l 0,35.84 -6.88,0 0,-40.16 q 2.32,-1.12 5.28,-1.84 3.04,-0.8 6.64,-0.8 1.92,0 3.84,0.24 1.92,0.24 3.6,0.88 l -1.2,5.92 z"
           inkscape:connector-curvature="0" />
      </g>
    </g>
    <g
       id="g4423">
      <path
         id="path4146"
         d="M 712.29309,385.21933 A 453.72165,453.72165 0 0 1 258.57144,838.94098 453.72165,453.72165 0 0 1 -195.15021,385.21933 453.72165,453.72165 0 0 1 258.57144,-68.502319 453.72165,453.72165 0 0 1 712.29309,385.21933 Z"
         style="opacity:1;fill:url(#linearGradient4154);fill-opacity:1;stroke:#000000;stroke-width:8.27096748;stroke-miterlimit:4;stroke-dasharray:none;stroke-opacity:1"
         inkscape:connector-curvature="0" />
      <g
         id="flowRoot4181"
         style="font-style:normal;font-weight:normal;font-size:40px;line-height:125%;font-family:sans-serif;letter-spacing:0px;word-spacing:0px;fill:#000000;fill-opacity:1;stroke:none;stroke-width:1px;stroke-linecap:butt;stroke-linejoin:miter;stroke-opacity:1"
         transform="translate(941.37976,242.85714)">
        <path
           inkscape:connector-curvature="0"
           id="path4320"
           style="font-style:normal;font-variant:normal;font-weight:normal;font-stretch:normal;font-size:80px;font-family:'Ubuntu Condensed';-inkscape-font-specification:'Ubuntu Condensed, ';text-align:center;text-anchor:middle"
           d="m -833.51832,-191.03755 q -7.76,0 -11.68,-4.4 -3.84,-4.4 -3.84,-13.92 l 0,-38.32 7.2,0 0,37.68 q 0,6.32 1.84,9.52 1.84,3.12 6.64,3.12 4.96,0 6.72,-3.2 1.84,-3.28 1.84,-9.44 l 0,-37.68 7.2,0 0,38.32 q 0,9.36 -4,13.84 -4,4.48 -11.92,4.48 z" />
        <path
           inkscape:connector-curvature="0"
           id="path4322"
           style="font-style:normal;font-variant:normal;font-weight:normal;font-stretch:normal;font-size:80px;font-family:'Ubuntu Condensed';-inkscape-font-specification:'Ubuntu Condensed, ';text-align:center;text-anchor:middle"
           d="m -805.13207,-233.03755 q 2.96,-0.88 6.4,-1.44 3.44,-0.64 6.32,-0.64 3.12,0 5.68,0.88 2.56,0.8 4.32,2.8 1.84,2 2.8,5.44 1.04,3.36 1.04,8.4 l 0,25.36 -6.88,0 0,-24.8 q 0,-6.24 -1.6,-9.12 -1.6,-2.88 -6,-2.88 -2.32,0 -5.2,0.8 l 0,36 -6.88,0 0,-40.8 z" />
        <path
           inkscape:connector-curvature="0"
           id="path4324"
           style="font-style:normal;font-variant:normal;font-weight:normal;font-stretch:normal;font-size:80px;font-family:'Ubuntu Condensed';-inkscape-font-specification:'Ubuntu Condensed, ';text-align:center;text-anchor:middle"
           d="m -760.69832,-197.11755 q 3.04,0 4.56,-1.68 1.6,-1.76 1.6,-4.56 0,-1.76 -0.64,-2.96 -0.64,-1.28 -1.68,-2.24 -1.04,-0.96 -2.4,-1.68 -1.36,-0.8 -2.72,-1.68 -1.36,-0.8 -2.64,-1.84 -1.28,-1.12 -2.32,-2.48 -0.96,-1.44 -1.6,-3.2 -0.56,-1.84 -0.56,-4.24 0,-5.2 3.2,-8.4 3.28,-3.2 8.8,-3.2 2.32,0 4.4,0.64 2.08,0.56 3.44,1.28 l -1.52,5.52 q -1.44,-0.8 -2.88,-1.2 -1.44,-0.4 -3.12,-0.4 -2.56,0 -4.08,1.52 -1.52,1.44 -1.52,4.24 0,1.6 0.56,2.8 0.56,1.12 1.44,2.08 0.96,0.88 2.08,1.68 1.2,0.8 2.48,1.52 1.52,0.88 2.96,1.92 1.52,1.04 2.64,2.48 1.2,1.36 1.92,3.28 0.72,1.84 0.72,4.48 0,5.52 -3.28,8.88 -3.2,3.36 -9.44,3.36 -3.2,0 -5.76,-0.88 -2.56,-0.88 -3.84,-1.6 l 1.44,-5.68 q 1.2,0.64 3.2,1.44 2.08,0.8 4.56,0.8 z" />
        <path
           inkscape:connector-curvature="0"
           id="path4326"
           style="font-style:normal;font-variant:normal;font-weight:normal;font-stretch:normal;font-size:80px;font-family:'Ubuntu Condensed';-inkscape-font-specification:'Ubuntu Condensed, ';text-align:center;text-anchor:middle"
           d="m -732.39457,-198.55755 q 2.32,1.28 4.96,1.28 2,0 3.52,-0.8 1.52,-0.8 2.56,-2.64 1.12,-1.84 1.68,-4.88 0.56,-3.04 0.56,-7.52 0,-8.64 -2.24,-12.32 -2.16,-3.76 -6.96,-3.76 -0.88,0 -1.92,0.16 -1.04,0.08 -2.16,0.4 l 0,30.08 z m 0,21.12 -6.88,0 0,-55.68 q 2.24,-0.96 5.04,-1.52 2.88,-0.64 5.84,-0.64 4.4,0 7.52,1.52 3.2,1.52 5.12,4.4 2,2.8 2.88,6.96 0.96,4.08 0.96,9.36 0,10.64 -3.44,16.24 -3.36,5.6 -11.04,5.6 -1.84,0 -3.28,-0.4 -1.44,-0.32 -2.72,-0.96 l 0,15.12 z" />
        <path
           inkscape:connector-curvature="0"
           id="path4328"
           style="font-style:normal;font-variant:normal;font-weight:normal;font-stretch:normal;font-size:80px;font-family:'Ubuntu Condensed';-inkscape-font-specification:'Ubuntu Condensed, ';text-align:center;text-anchor:middle"
           d="m -697.13082,-211.19755 q 0.08,3.04 0.56,5.6 0.48,2.48 1.52,4.4 1.12,1.84 2.88,2.88 1.84,1.04 4.64,1.04 2.32,0 4.24,-0.64 2,-0.72 2.88,-1.2 l 1.28,5.52 q -1.04,0.72 -3.52,1.52 -2.4,0.88 -5.76,0.88 -4.4,0 -7.44,-1.6 -2.96,-1.6 -4.88,-4.48 -1.84,-2.88 -2.64,-6.88 -0.8,-4 -0.8,-8.8 0,-11.6 3.84,-16.96 3.84,-5.36 10.16,-5.36 7.12,0 10.08,5.36 2.96,5.36 2.96,15.04 0,0.88 0,1.84 0,0.88 -0.08,1.84 l -19.92,0 z m 6.96,-18.24 q -3.44,0 -5.04,3.44 -1.52,3.44 -1.84,9.2 l 12.72,0 q 0,-5.84 -1.2,-9.2 -1.2,-3.44 -4.64,-3.44 z" />
        <path
           inkscape:connector-curvature="0"
           id="path4330"
           style="font-style:normal;font-variant:normal;font-weight:normal;font-stretch:normal;font-size:80px;font-family:'Ubuntu Condensed';-inkscape-font-specification:'Ubuntu Condensed, ';text-align:center;text-anchor:middle"
           d="m -654.20707,-191.19755 q -4.32,0 -7.2,-1.68 -2.88,-1.68 -4.72,-4.56 -1.76,-2.96 -2.56,-6.96 -0.72,-4 -0.72,-8.72 0,-10.4 3.76,-16.24 3.84,-5.92 11.52,-5.92 2.32,0 4.16,0.56 1.84,0.56 3.44,1.44 l -1.76,5.68 q -2.48,-1.6 -5.52,-1.6 -4.32,0 -6.4,3.92 -2,3.92 -2,12.16 0,3.44 0.4,6.4 0.4,2.88 1.36,4.96 1.04,2.08 2.64,3.28 1.68,1.2 4.24,1.2 1.76,0 3.12,-0.4 1.44,-0.48 2.72,-1.2 l 1.52,5.36 q -1.28,0.88 -3.44,1.6 -2.08,0.72 -4.56,0.72 z" />
        <path
           inkscape:connector-curvature="0"
           id="path4332"
           style="font-style:normal;font-variant:normal;font-weight:normal;font-stretch:normal;font-size:80px;font-family:'Ubuntu Condensed';-inkscape-font-specification:'Ubuntu Condensed, ';text-align:center;text-anchor:middle"
           d="m -631.84582,-192.23755 -6.88,0 0,-42 6.88,0 0,42 z m -3.44,-49.44 q -1.84,0 -3.2,-1.2 -1.28,-1.28 -1.28,-3.36 0,-2.08 1.28,-3.28 1.36,-1.28 3.2,-1.28 1.84,0 3.12,1.28 1.36,1.2 1.36,3.28 0,2.08 -1.36,3.36 -1.28,1.2 -3.12,1.2 z" />
        <path
           inkscape:connector-curvature="0"
           id="path4334"
           style="font-style:normal;font-variant:normal;font-weight:normal;font-stretch:normal;font-size:80px;font-family:'Ubuntu Condensed';-inkscape-font-specification:'Ubuntu Condensed, ';text-align:center;text-anchor:middle"
           d="m -607.11082,-254.31755 q 1.84,0 3.36,0.32 1.52,0.32 2.64,0.8 l -1.28,5.44 q -2.08,-0.72 -4.08,-0.72 -2.88,0 -4.48,1.92 -1.52,1.84 -1.52,6.48 l 0,5.84 10.8,0 0,5.92 -10.8,0 0,36.08 -6.88,0 0,-47.84 q 0,-6.8 3.04,-10.48 3.04,-3.76 9.2,-3.76 z m 18.32,62.08 -6.88,0 0,-42 6.88,0 0,42 z m -3.44,-49.44 q -1.84,0 -3.2,-1.2 -1.28,-1.28 -1.28,-3.36 0,-2.08 1.28,-3.28 1.36,-1.28 3.2,-1.28 1.84,0 3.12,1.28 1.36,1.2 1.36,3.28 0,2.08 -1.36,3.36 -1.28,1.2 -3.12,1.2 z" />
        <path
           inkscape:connector-curvature="0"
           id="path4336"
           style="font-style:normal;font-variant:normal;font-weight:normal;font-stretch:normal;font-size:80px;font-family:'Ubuntu Condensed';-inkscape-font-specification:'Ubuntu Condensed, ';text-align:center;text-anchor:middle"
           d="m -571.66207,-211.19755 q 0.08,3.04 0.56,5.6 0.48,2.48 1.52,4.4 1.12,1.84 2.88,2.88 1.84,1.04 4.64,1.04 2.32,0 4.24,-0.64 2,-0.72 2.88,-1.2 l 1.28,5.52 q -1.04,0.72 -3.52,1.52 -2.4,0.88 -5.76,0.88 -4.4,0 -7.44,-1.6 -2.96,-1.6 -4.88,-4.48 -1.84,-2.88 -2.64,-6.88 -0.8,-4 -0.8,-8.8 0,-11.6 3.84,-16.96 3.84,-5.36 10.16,-5.36 7.12,0 10.08,5.36 2.96,5.36 2.96,15.04 0,0.88 0,1.84 0,0.88 -0.08,1.84 l -19.92,0 z m 6.96,-18.24 q -3.44,0 -5.04,3.44 -1.52,3.44 -1.84,9.2 l 12.72,0 q 0,-5.84 -1.2,-9.2 -1.2,-3.44 -4.64,-3.44 z" />
        <path
           inkscape:connector-curvature="0"
           id="path4338"
           style="font-style:normal;font-variant:normal;font-weight:normal;font-stretch:normal;font-size:80px;font-family:'Ubuntu Condensed';-inkscape-font-specification:'Ubuntu Condensed, ';text-align:center;text-anchor:middle"
           d="m -523.45832,-227.91755 q -2.32,-1.28 -4.96,-1.28 -2,0 -3.52,0.8 -1.52,0.8 -2.64,2.64 -1.04,1.84 -1.6,4.88 -0.56,3.04 -0.56,7.52 0,8.64 2.24,12.4 2.32,3.68 6.96,3.68 0.88,0 1.92,-0.08 1.04,-0.16 2.16,-0.48 l 0,-30.08 z m 0,-25.2 6.88,-1.2 0,60.96 q -2.24,0.96 -5.12,1.52 -2.88,0.64 -5.84,0.64 -8.64,0 -12.56,-5.52 -3.84,-5.52 -3.84,-16.64 0,-5.04 0.8,-9.04 0.88,-4.08 2.64,-6.88 1.84,-2.88 4.64,-4.4 2.8,-1.6 6.64,-1.6 1.84,0 3.12,0.4 1.36,0.32 2.64,0.96 l 0,-19.2 z" />
        <path
           inkscape:connector-curvature="0"
           id="path4340"
           style="font-style:normal;font-variant:normal;font-weight:normal;font-stretch:normal;font-size:80px;font-family:'Ubuntu Condensed';-inkscape-font-specification:'Ubuntu Condensed, ';text-align:center;text-anchor:middle"
           d="m -800.6552,-124.07755 4.96,0 q 9.92,0 9.92,-8.96 0,-2.8 -0.88,-4.56 -0.8,-1.84 -2.16,-2.8 -1.36,-1.04 -3.2,-1.44 -1.76,-0.4 -3.76,-0.4 -1.2,0 -2.48,0.08 -1.2,0.08 -2.4,0.24 l 0,17.84 z m 0,5.76 0,20 q 1.52,0.24 2.96,0.4 1.52,0.16 2.96,0.16 2.24,0 4.24,-0.48 2,-0.48 3.44,-1.6 1.52,-1.12 2.32,-3.04 0.88,-2 0.88,-4.88 0,-4.96 -2.72,-7.76 -2.64,-2.8 -8.32,-2.8 l -5.76,0 z m -7.2,-28.56 q 2.8,-0.64 5.68,-0.96 2.96,-0.4 5.84,-0.4 3.6,0 6.8,0.72 3.28,0.64 5.76,2.32 2.48,1.6 3.92,4.32 1.52,2.64 1.52,6.64 0,4.96 -2.08,8.16 -2.08,3.12 -5.36,4.64 4.08,1.6 6.72,4.88 2.64,3.28 2.64,9.04 0,4.32 -1.44,7.28 -1.36,2.96 -3.92,4.88 -2.56,1.84 -6.16,2.72 -3.52,0.8 -7.76,0.8 -2.8,0 -5.84,-0.32 -3.04,-0.32 -6.32,-0.96 l 0,-53.76 z" />
        <path
           inkscape:connector-curvature="0"
           id="path4342"
           style="font-style:normal;font-variant:normal;font-weight:normal;font-stretch:normal;font-size:80px;font-family:'Ubuntu Condensed';-inkscape-font-specification:'Ubuntu Condensed, ';text-align:center;text-anchor:middle"
           d="m -761.89645,-111.19755 q 0.08,3.04 0.56,5.6 0.48,2.48 1.52,4.4 1.12,1.84 2.88,2.88 1.84,1.04 4.64,1.04 2.32,0 4.24,-0.64 2,-0.72 2.88,-1.2 l 1.28,5.52 q -1.04,0.72 -3.52,1.52 -2.4,0.88 -5.76,0.88 -4.4,0 -7.44,-1.6 -2.96,-1.6 -4.88,-4.48 -1.84,-2.88 -2.64,-6.88 -0.8,-4 -0.8,-8.8 0,-11.6 3.84,-16.96 3.84,-5.36 10.16,-5.36 7.12,0 10.08,5.36 2.96,5.36 2.96,15.04 0,0.88 0,1.84 0,0.88 -0.08,1.84 l -19.92,0 z m 6.96,-18.24 q -3.44,0 -5.04,3.44 -1.52,3.44 -1.84,9.2 l 12.72,0 q 0,-5.84 -1.2,-9.2 -1.2,-3.44 -4.64,-3.44 z" />
        <path
           inkscape:connector-curvature="0"
           id="path4344"
           style="font-style:normal;font-variant:normal;font-weight:normal;font-stretch:normal;font-size:80px;font-family:'Ubuntu Condensed';-inkscape-font-specification:'Ubuntu Condensed, ';text-align:center;text-anchor:middle"
           d="m -731.7727,-92.23755 0,-60.88 6.88,-1.2 0,20.32 q 1.52,-0.48 3.28,-0.8 1.84,-0.32 3.68,-0.32 2.64,0 4.96,0.88 2.32,0.8 4,2.8 1.76,2 2.72,5.44 1.04,3.36 1.04,8.4 l 0,25.36 -6.88,0 0,-24.8 q 0,-6.24 -1.6,-9.12 -1.6,-2.88 -6,-2.88 -2.32,0 -5.2,0.8 l 0,36 -6.88,0 z" />
        <path
           inkscape:connector-curvature="0"
           id="path4346"
           style="font-style:normal;font-variant:normal;font-weight:normal;font-stretch:normal;font-size:80px;font-family:'Ubuntu Condensed';-inkscape-font-specification:'Ubuntu Condensed, ';text-align:center;text-anchor:middle"
           d="m -692.53895,-133.35755 q 2.08,-0.88 4.4,-1.36 2.32,-0.56 5.04,-0.56 5.6,0 9.12,3.52 3.52,3.44 3.52,10.8 l 0,27.84 q -2.88,0.8 -5.92,1.28 -2.96,0.48 -5.84,0.48 -2.88,0 -5.44,-0.72 -2.48,-0.72 -4.4,-2.32 -1.84,-1.6 -2.96,-4 -1.12,-2.48 -1.12,-6 0,-3.28 0.96,-5.68 1.04,-2.48 2.8,-4.08 1.76,-1.68 4.16,-2.48 2.4,-0.88 5.2,-0.88 2.64,0 5.84,0.64 l 0,-3.84 q 0,-4.64 -1.84,-6.48 -1.76,-1.84 -5.12,-1.84 -1.84,0 -3.52,0.4 -1.6,0.32 -3.44,1.12 l -1.44,-5.84 z m 3.28,28.88 q 0,3.68 1.92,5.44 1.92,1.76 5.44,1.76 2.16,0 4.72,-0.56 l 0,-13.36 q -2.4,-0.64 -4.72,-0.64 -1.52,0 -2.88,0.4 -1.36,0.32 -2.4,1.2 -0.96,0.8 -1.52,2.24 -0.56,1.36 -0.56,3.52 z" />
        <path
           inkscape:connector-curvature="0"
           id="path4348"
           style="font-style:normal;font-variant:normal;font-weight:normal;font-stretch:normal;font-size:80px;font-family:'Ubuntu Condensed';-inkscape-font-specification:'Ubuntu Condensed, ';text-align:center;text-anchor:middle"
           d="m -649.5127,-100.31755 q 0.96,-3.2 2,-7.52 1.12,-4.32 2.16,-8.88 1.04,-4.64 1.92,-9.2 0.96,-4.56 1.6,-8.32 l 6.88,0 q -1.04,5.28 -2.48,11.12 -1.36,5.84 -2.88,11.52 -1.44,5.6 -2.96,10.64 -1.52,5.04 -2.8,8.72 l -7.12,0 q -1.28,-3.68 -2.8,-8.72 -1.52,-5.04 -3.04,-10.64 -1.44,-5.68 -2.88,-11.52 -1.36,-5.84 -2.4,-11.12 l 7.28,0 q 0.64,3.76 1.52,8.32 0.96,4.56 1.92,9.2 1.04,4.56 2.08,8.88 1.04,4.32 2,7.52 z" />
        <path
           inkscape:connector-curvature="0"
           id="path4350"
           style="font-style:normal;font-variant:normal;font-weight:normal;font-stretch:normal;font-size:80px;font-family:'Ubuntu Condensed';-inkscape-font-specification:'Ubuntu Condensed, ';text-align:center;text-anchor:middle"
           d="m -620.67395,-92.23755 -6.88,0 0,-42 6.88,0 0,42 z m -3.44,-49.44 q -1.84,0 -3.2,-1.2 -1.28,-1.28 -1.28,-3.36 0,-2.08 1.28,-3.28 1.36,-1.28 3.2,-1.28 1.84,0 3.12,1.28 1.36,1.2 1.36,3.28 0,2.08 -1.36,3.36 -1.28,1.2 -3.12,1.2 z" />
        <path
           inkscape:connector-curvature="0"
           id="path4352"
           style="font-style:normal;font-variant:normal;font-weight:normal;font-stretch:normal;font-size:80px;font-family:'Ubuntu Condensed';-inkscape-font-specification:'Ubuntu Condensed, ';text-align:center;text-anchor:middle"
           d="m -581.21895,-113.19755 q 0,4.96 -0.88,9.04 -0.88,4 -2.72,6.88 -1.76,2.88 -4.56,4.48 -2.72,1.6 -6.48,1.6 -3.76,0 -6.56,-1.6 -2.8,-1.6 -4.64,-4.48 -1.76,-2.88 -2.64,-6.88 -0.88,-4.08 -0.88,-9.04 0,-4.88 0.88,-8.96 0.88,-4.08 2.64,-6.96 1.84,-2.96 4.64,-4.56 2.8,-1.6 6.56,-1.6 3.76,0 6.48,1.6 2.8,1.6 4.56,4.56 1.84,2.88 2.72,6.96 0.88,4.08 0.88,8.96 z m -7.2,0 q 0,-3.52 -0.4,-6.4 -0.4,-2.96 -1.28,-5.04 -0.88,-2.16 -2.32,-3.28 -1.44,-1.2 -3.44,-1.2 -2.08,0 -3.52,1.2 -1.36,1.12 -2.32,3.28 -0.88,2.08 -1.28,5.04 -0.4,2.88 -0.4,6.4 0,3.52 0.4,6.48 0.4,2.88 1.28,4.96 0.96,2.08 2.32,3.28 1.44,1.12 3.52,1.12 2,0 3.44,-1.12 1.44,-1.2 2.32,-3.28 0.88,-2.08 1.28,-4.96 0.4,-2.96 0.4,-6.48 z" />
        <path
           inkscape:connector-curvature="0"
           id="path4354"
           style="font-style:normal;font-variant:normal;font-weight:normal;font-stretch:normal;font-size:80px;font-family:'Ubuntu Condensed';-inkscape-font-specification:'Ubuntu Condensed, ';text-align:center;text-anchor:middle"
           d="m -552.9877,-127.99755 q -2.56,-1.12 -5.76,-1.12 -2.96,0 -5.52,1.04 l 0,35.84 -6.88,0 0,-40.16 q 2.32,-1.12 5.28,-1.84 3.04,-0.8 6.64,-0.8 1.92,0 3.84,0.24 1.92,0.24 3.6,0.88 l -1.2,5.92 z" />
      </g>
    </g>
    <g
       id="g4475">
      <path
         id="path4136"
         d="M 634.28571,488.07648 A 252.85715,252.85715 0 0 1 381.42856,740.93362 252.85715,252.85715 0 0 1 128.57141,488.07648 252.85715,252.85715 0 0 1 381.42856,235.21933 252.85715,252.85715 0 0 1 634.28571,488.07648 Z"
         style="opacity:1;fill:url(#linearGradient4144);fill-opacity:1;stroke:#000000;stroke-width:10;stroke-miterlimit:4;stroke-dasharray:none;stroke-opacity:1"
         inkscape:connector-curvature="0" />
      <g
         id="flowRoot4173"
         style="font-style:normal;font-weight:normal;font-size:40px;line-height:125%;font-family:sans-serif;letter-spacing:0px;word-spacing:0px;fill:#000000;fill-opacity:1;stroke:none;stroke-width:1px;stroke-linecap:butt;stroke-linejoin:miter;stroke-opacity:1"
         transform="translate(1186.0139,-145.71429)">
        <path
           inkscape:connector-curvature="0"
           id="path4357"
           style="font-style:normal;font-variant:normal;font-weight:normal;font-stretch:normal;font-size:90px;font-family:'Ubuntu Condensed';-inkscape-font-specification:'Ubuntu Condensed, '"
           d="m -832.37,850.67944 q -10.98,0 -16.83,-8.19 -5.85,-8.19 -5.85,-25.29 0,-8.73 1.62,-14.76 1.71,-6.03 4.68,-9.81 2.97,-3.78 7.02,-5.4 4.05,-1.71 8.82,-1.71 3.96,0 7.38,1.08 3.42,0.99 5.58,2.52 l -2.43,6.75 q -2.16,-1.44 -4.68,-2.34 -2.43,-0.9 -5.67,-0.9 -7.2,0 -10.44,6.03 -3.24,5.94 -3.24,18.54 0,12.69 3.42,19.53 3.42,6.84 11.16,6.84 3.69,0 5.94,-0.9 2.34,-0.9 4.5,-2.34 l 2.25,6.39 q -2.07,1.62 -5.49,2.79 -3.33,1.17 -7.74,1.17 z" />
        <path
           inkscape:connector-curvature="0"
           id="path4359"
           style="font-style:normal;font-variant:normal;font-weight:normal;font-stretch:normal;font-size:90px;font-family:'Ubuntu Condensed';-inkscape-font-specification:'Ubuntu Condensed, '"
           d="m -811.5125,799.37944 q 1.71,-0.99 3.51,-2.43 1.89,-1.44 3.6,-3.06 1.71,-1.71 3.15,-3.42 1.53,-1.8 2.52,-3.51 l 5.94,0 0,62.37 -7.74,0 0,-50.13 q -1.53,1.62 -3.6,3.06 -1.98,1.44 -4.23,2.7 l -3.15,-5.58 z" />
        <path
           inkscape:connector-curvature="0"
           id="path4361"
           style="font-style:normal;font-variant:normal;font-weight:normal;font-stretch:normal;font-size:90px;font-family:'Ubuntu Condensed';-inkscape-font-specification:'Ubuntu Condensed, '"
           d="m -772.84063,799.37944 q 1.71001,-0.99 3.51,-2.43 1.89001,-1.44 3.6,-3.06 1.71001,-1.71 3.15,-3.42 1.53001,-1.8 2.52001,-3.51 l 5.93999,0 0,62.37 -7.74,0 0,-50.13 q -1.52999,1.62 -3.6,3.06 -1.97999,1.44 -4.22999,2.7 l -3.15001,-5.58 z" />
      </g>
    </g>
    <g
       id="g4266"
       transform="translate(871.42857,-197.14286)">
      <path
         id="path4156"
         d="M -313.27602,639.50507 A 171.00978,171.00978 0 0 1 -484.2858,810.51485 171.00978,171.00978 0 0 1 -655.29558,639.50507 171.00978,171.00978 0 0 1 -484.2858,468.49529 171.00978,171.00978 0 0 1 -313.27602,639.50507 Z"
         style="opacity:1;fill:#ffbcbe;fill-opacity:1;stroke:#000000;stroke-width:7.98045588;stroke-miterlimit:4;stroke-dasharray:none;stroke-opacity:1"
         inkscape:connector-curvature="0" />
      <g
         id="flowRoot4158"
         style="font-style:normal;font-weight:normal;font-size:31.9218235px;line-height:125%;font-family:sans-serif;letter-spacing:0px;word-spacing:0px;fill:#000000;fill-opacity:1;stroke:none;stroke-width:1px;stroke-linecap:butt;stroke-linejoin:miter;stroke-opacity:1"
         transform="translate(286.78203,254.18272)">
        <path
           id="path4235"
           style="font-style:normal;font-variant:normal;font-weight:normal;font-stretch:normal;font-size:70px;font-family:'Ubuntu Condensed';-inkscape-font-specification:'Ubuntu Condensed, '"
           d="m -879.28016,317.80734 q 4.9,-1.19 9.59,-1.19 3.64,0 6.58,0.91 3.01,0.84 5.11,2.73 2.17,1.82 3.29,4.76 1.19,2.94 1.19,7.07 0,4.2 -1.19,7.21 -1.19,2.94 -3.36,4.83 -2.17,1.82 -5.25,2.66 -3.01,0.84 -6.72,0.84 l -2.94,0 0,17.99 -6.3,0 0,-47.81 z m 6.3,24.29 2.52,0 q 2.38,0 4.27,-0.49 1.96,-0.56 3.29,-1.75 1.33,-1.19 2.03,-3.08 0.7,-1.89 0.7,-4.69 0,-2.8 -0.7,-4.69 -0.7,-1.96 -1.96,-3.08 -1.19,-1.19 -2.94,-1.68 -1.75,-0.49 -3.85,-0.49 -1.82,0 -3.36,0.21 l 0,19.74 z"
           inkscape:connector-curvature="0" />
        <path
           id="path4237"
           style="font-style:normal;font-variant:normal;font-weight:normal;font-stretch:normal;font-size:70px;font-family:'Ubuntu Condensed';-inkscape-font-specification:'Ubuntu Condensed, '"
           d="m -829.90391,334.32734 q -2.24,-0.98 -5.04,-0.98 -2.59,0 -4.83,0.91 l 0,31.36 -6.02,0 0,-35.14 q 2.03,-0.98 4.62,-1.61 2.66,-0.7 5.81,-0.7 1.68,0 3.36,0.21 1.68,0.21 3.15,0.77 l -1.05,5.18 z"
           inkscape:connector-curvature="0" />
        <path
           id="path4239"
           style="font-style:normal;font-variant:normal;font-weight:normal;font-stretch:normal;font-size:70px;font-family:'Ubuntu Condensed';-inkscape-font-specification:'Ubuntu Condensed, '"
           d="m -799.91875,347.27734 q 0,4.34 -0.77,7.91 -0.77,3.5 -2.38,6.02 -1.54,2.52 -3.99,3.92 -2.38,1.4 -5.67,1.4 -3.29,0 -5.74,-1.4 -2.45,-1.4 -4.06,-3.92 -1.54,-2.52 -2.31,-6.02 -0.77,-3.57 -0.77,-7.91 0,-4.27 0.77,-7.84 0.77,-3.57 2.31,-6.09 1.61,-2.59 4.06,-3.99 2.45,-1.4 5.74,-1.4 3.29,0 5.67,1.4 2.45,1.4 3.99,3.99 1.61,2.52 2.38,6.09 0.77,3.57 0.77,7.84 z m -6.3,0 q 0,-3.08 -0.35,-5.6 -0.35,-2.59 -1.12,-4.41 -0.77,-1.89 -2.03,-2.87 -1.26,-1.05 -3.01,-1.05 -1.82,0 -3.08,1.05 -1.19,0.98 -2.03,2.87 -0.77,1.82 -1.12,4.41 -0.35,2.52 -0.35,5.6 0,3.08 0.35,5.67 0.35,2.52 1.12,4.34 0.84,1.82 2.03,2.87 1.26,0.98 3.08,0.98 1.75,0 3.01,-0.98 1.26,-1.05 2.03,-2.87 0.77,-1.82 1.12,-4.34 0.35,-2.59 0.35,-5.67 z"
           inkscape:connector-curvature="0" />
        <path
           id="path4241"
           style="font-style:normal;font-variant:normal;font-weight:normal;font-stretch:normal;font-size:70px;font-family:'Ubuntu Condensed';-inkscape-font-specification:'Ubuntu Condensed, '"
           d="m -769.26641,364.56734 q 0,3.92 -1.05,6.58 -0.98,2.73 -2.73,4.41 -1.75,1.68 -4.13,2.45 -2.31,0.77 -4.97,0.77 -2.24,0 -4.48,-0.49 -2.24,-0.49 -4.13,-1.47 l 1.26,-5.04 q 1.26,0.7 3.08,1.26 1.82,0.56 3.78,0.56 3.43,0 5.39,-1.96 1.96,-1.96 1.96,-6.72 l 0,-1.75 q -1.12,0.49 -2.38,0.84 -1.26,0.28 -2.87,0.28 -6.58,0 -9.66,-4.48 -3.01,-4.55 -3.01,-12.81 0,-4.41 0.77,-7.91 0.84,-3.57 2.52,-6.02 1.75,-2.52 4.48,-3.78 2.73,-1.33 6.65,-1.33 2.59,0 5.04,0.56 2.52,0.49 4.48,1.33 l 0,34.72 z m -6.02,-30.8 q -0.98,-0.28 -1.89,-0.35 -0.91,-0.14 -1.68,-0.14 -4.2,0 -6.16,3.22 -1.89,3.22 -1.89,10.5 0,6.58 1.89,9.31 1.89,2.66 5.39,2.66 1.19,0 2.24,-0.28 1.12,-0.28 2.1,-0.77 l 0,-24.15 z"
           inkscape:connector-curvature="0" />
        <path
           id="path4243"
           style="font-style:normal;font-variant:normal;font-weight:normal;font-stretch:normal;font-size:70px;font-family:'Ubuntu Condensed';-inkscape-font-specification:'Ubuntu Condensed, '"
           d="m -742.54062,334.32734 q -2.24,-0.98 -5.04001,-0.98 -2.58999,0 -4.82999,0.91 l 0,31.36 -6.02,0 0,-35.14 q 2.03,-0.98 4.62,-1.61 2.66,-0.7 5.80999,-0.7 1.68001,0 3.36001,0.21 1.67999,0.21 3.14999,0.77 l -1.04999,5.18 z"
           inkscape:connector-curvature="0" />
        <path
           id="path4245"
           style="font-style:normal;font-variant:normal;font-weight:normal;font-stretch:normal;font-size:70px;font-family:'Ubuntu Condensed';-inkscape-font-specification:'Ubuntu Condensed, '"
           d="m -735.99563,329.63734 q 1.82001,-0.77 3.85001,-1.19 2.02999,-0.49 4.40999,-0.49 4.9,0 7.98001,3.08 3.08,3.01 3.08,9.45 l 0,24.36 q -2.52,0.7 -5.18001,1.12 -2.58999,0.42 -5.11,0.42 -2.52,0 -4.76,-0.63 -2.16999,-0.63 -3.84999,-2.03 -1.61,-1.4 -2.59,-3.5 -0.98,-2.17 -0.98,-5.25 0,-2.87 0.84,-4.97 0.91,-2.17 2.44999,-3.57 1.54001,-1.47 3.64,-2.17 2.1,-0.77 4.55001,-0.77 2.30999,0 5.11,0.56 l 0,-3.36 q 0,-4.06 -1.61,-5.67 -1.54001,-1.61 -4.48,-1.61 -1.61,0 -3.08001,0.35 -1.4,0.28 -3.01,0.98 l -1.26,-5.11 z m 2.87,25.27 q 0,3.22 1.68001,4.76 1.68,1.54 4.76,1.54 1.89,0 4.13,-0.49 l 0,-11.69 q -2.1,-0.56 -4.13,-0.56 -1.33,0 -2.52001,0.35 -1.18999,0.28 -2.09999,1.05 -0.84,0.7 -1.33,1.96 -0.49001,1.19 -0.49001,3.08 z"
           inkscape:connector-curvature="0" />
        <path
           id="path4247"
           style="font-style:normal;font-variant:normal;font-weight:normal;font-stretch:normal;font-size:70px;font-family:'Ubuntu Condensed';-inkscape-font-specification:'Ubuntu Condensed, '"
           d="m -706.20406,329.91734 q 2.45,-0.77 5.32,-1.26 2.87,-0.56 5.25,-0.56 2.45,0 4.41,0.63 2.03,0.63 3.57,2.1 1.82,-1.19 3.92,-1.96 2.1,-0.77 4.62,-0.77 2.52,0 4.55,0.77 2.1,0.7 3.57,2.45 1.47,1.75 2.31,4.76 0.84,2.94 0.84,7.35 l 0,22.19 -6.02,0 0,-21.7 q 0,-5.46 -1.26,-7.98 -1.26,-2.52 -4.76,-2.52 -1.33,0 -2.73,0.49 -1.33,0.49 -2.52,1.33 0.56,1.61 0.84,3.64 0.28,2.03 0.28,4.55 l 0,22.19 -6.02,0 0,-21.7 q 0,-5.46 -1.26,-7.98 -1.26,-2.52 -4.76,-2.52 -1.82,0 -4.13,0.7 l 0,31.5 -6.02,0 0,-35.7 z"
           inkscape:connector-curvature="0" />
        <path
           id="path4249"
           style="font-style:normal;font-variant:normal;font-weight:normal;font-stretch:normal;font-size:70px;font-family:'Ubuntu Condensed';-inkscape-font-specification:'Ubuntu Condensed, '"
           d="m -879.28016,453.11734 0,-48.51 21.77,0 0,5.39 -15.47,0 0,15.26 13.72,0 0,5.25 -13.72,0 0,22.61 -6.3,0 z"
           inkscape:connector-curvature="0" />
        <path
           id="path4251"
           style="font-style:normal;font-variant:normal;font-weight:normal;font-stretch:normal;font-size:70px;font-family:'Ubuntu Condensed';-inkscape-font-specification:'Ubuntu Condensed, '"
           d="m -847.13266,436.52734 q 0.07,2.66 0.49,4.9 0.42,2.17 1.33,3.85 0.98,1.61 2.52,2.52 1.61,0.91 4.06,0.91 2.03,0 3.71,-0.56 1.75,-0.63 2.52,-1.05 l 1.12,4.83 q -0.91,0.63 -3.08,1.33 -2.1,0.77 -5.04,0.77 -3.85,0 -6.51,-1.4 -2.59,-1.4 -4.27,-3.92 -1.61,-2.52 -2.31,-6.02 -0.7,-3.5 -0.7,-7.7 0,-10.15 3.36,-14.84 3.36,-4.69 8.89,-4.69 6.23,0 8.82,4.69 2.59,4.69 2.59,13.16 0,0.77 0,1.61 0,0.77 -0.07,1.61 l -17.43,0 z m 6.09,-15.96 q -3.01,0 -4.41,3.01 -1.33,3.01 -1.61,8.05 l 11.13,0 q 0,-5.11 -1.05,-8.05 -1.05,-3.01 -4.06,-3.01 z"
           inkscape:connector-curvature="0" />
        <path
           id="path4253"
           style="font-style:normal;font-variant:normal;font-weight:normal;font-stretch:normal;font-size:70px;font-family:'Ubuntu Condensed';-inkscape-font-specification:'Ubuntu Condensed, '"
           d="m -820.21438,417.13734 q 1.82001,-0.77 3.85001,-1.19 2.02999,-0.49 4.40999,-0.49 4.9,0 7.98001,3.08 3.08,3.01 3.08,9.45 l 0,24.36 q -2.52,0.7 -5.18001,1.12 -2.58999,0.42 -5.11,0.42 -2.52,0 -4.76,-0.63 -2.16999,-0.63 -3.84999,-2.03 -1.61,-1.4 -2.59,-3.5 -0.98,-2.17 -0.98,-5.25 0,-2.87 0.84,-4.97 0.91,-2.17 2.44999,-3.57 1.54001,-1.47 3.64,-2.17 2.1,-0.77 4.55001,-0.77 2.30999,0 5.11,0.56 l 0,-3.36 q 0,-4.06 -1.61,-5.67 -1.54001,-1.61 -4.48,-1.61 -1.61,0 -3.08001,0.35 -1.4,0.28 -3.01,0.98 l -1.26,-5.11 z m 2.87,25.27 q 0,3.22 1.68001,4.76 1.68,1.54 4.76,1.54 1.89,0 4.13,-0.49 l 0,-11.69 q -2.1,-0.56 -4.13,-0.56 -1.33,0 -2.52001,0.35 -1.18999,0.28 -2.09999,1.05 -0.84,0.7 -1.33,1.96 -0.49001,1.19 -0.49001,3.08 z"
           inkscape:connector-curvature="0" />
        <path
           id="path4255"
           style="font-style:normal;font-variant:normal;font-weight:normal;font-stretch:normal;font-size:70px;font-family:'Ubuntu Condensed';-inkscape-font-specification:'Ubuntu Condensed, '"
           d="m -784.82281,416.36734 9.24,0 0,5.18 -9.24,0 0,20.23 q 0,3.78 1.33,5.32 1.4,1.47 3.71,1.47 1.19,0 2.24,-0.35 1.12,-0.35 1.89,-0.84 l 1.19,4.83 q -2.87,1.68 -6.09,1.68 -5.18,0 -7.77,-2.87 -2.52,-2.94 -2.52,-9.66 l 0,-34.86 6.02,-1.05 0,10.92 z"
           inkscape:connector-curvature="0" />
        <path
           id="path4257"
           style="font-style:normal;font-variant:normal;font-weight:normal;font-stretch:normal;font-size:70px;font-family:'Ubuntu Condensed';-inkscape-font-specification:'Ubuntu Condensed, '"
           d="m -745.25094,452.06734 q -0.91,0.35 -2.24,0.7 -1.26,0.28 -2.73,0.49 -1.4,0.28 -2.87,0.42 -1.4,0.21 -2.59,0.21 -2.87,0 -5.25,-0.7 -2.38,-0.63 -4.06,-2.31 -1.68,-1.68 -2.59,-4.55 -0.91,-2.94 -0.91,-7.35 l 0,-22.61 6.02,0 0,22.4 q 0,5.39 1.61,7.63 1.68,2.17 5.04,2.17 1.12,0 2.24,-0.07 1.12,-0.14 2.31,-0.49 l 0,-31.64 6.02,0 0,35.7 z"
           inkscape:connector-curvature="0" />
        <path
           id="path4259"
           style="font-style:normal;font-variant:normal;font-weight:normal;font-stretch:normal;font-size:70px;font-family:'Ubuntu Condensed';-inkscape-font-specification:'Ubuntu Condensed, '"
           d="m -718.47812,421.82734 q -2.24,-0.98 -5.04001,-0.98 -2.58999,0 -4.82999,0.91 l 0,31.36 -6.02,0 0,-35.14 q 2.03,-0.98 4.62,-1.61 2.66,-0.7 5.80999,-0.7 1.68001,0 3.36001,0.21 1.67999,0.21 3.14999,0.77 l -1.04999,5.18 z"
           inkscape:connector-curvature="0" />
        <path
           id="path4261"
           style="font-style:normal;font-variant:normal;font-weight:normal;font-stretch:normal;font-size:70px;font-family:'Ubuntu Condensed';-inkscape-font-specification:'Ubuntu Condensed, '"
           d="m -707.95297,436.52734 q 0.07,2.66 0.49,4.9 0.42,2.17 1.33,3.85 0.98,1.61 2.52,2.52 1.61,0.91 4.06,0.91 2.03,0 3.71,-0.56 1.75,-0.63 2.52,-1.05 l 1.12,4.83 q -0.91,0.63 -3.08,1.33 -2.1,0.77 -5.04,0.77 -3.85,0 -6.51,-1.4 -2.59,-1.4 -4.27,-3.92 -1.61,-2.52 -2.31,-6.02 -0.7,-3.5 -0.7,-7.7 0,-10.15 3.36,-14.84 3.36,-4.69 8.89,-4.69 6.23,0 8.82,4.69 2.59,4.69 2.59,13.16 0,0.77 0,1.61 0,0.77 -0.07,1.61 l -17.43,0 z m 6.09,-15.96 q -3.01,0 -4.41,3.01 -1.33,3.01 -1.61,8.05 l 11.13,0 q 0,-5.11 -1.05,-8.05 -1.05,-3.01 -4.06,-3.01 z"
           inkscape:connector-curvature="0" />
        <path
           id="path4263"
           style="font-style:normal;font-variant:normal;font-weight:normal;font-stretch:normal;font-size:70px;font-family:'Ubuntu Condensed';-inkscape-font-specification:'Ubuntu Condensed, '"
           d="m -676.48469,448.84734 q 2.66,0 3.99,-1.47 1.4,-1.54 1.4,-3.99 0,-1.54 -0.56,-2.59 -0.56,-1.12 -1.47,-1.96 -0.91,-0.84 -2.1,-1.47 -1.19,-0.7 -2.38,-1.47 -1.19,-0.7 -2.31,-1.61 -1.12,-0.98 -2.03,-2.17 -0.84,-1.26 -1.4,-2.8 -0.49,-1.61 -0.49,-3.71 0,-4.55 2.8,-7.35 2.87,-2.8 7.7,-2.8 2.03,0 3.85,0.56 1.82,0.49 3.01,1.12 l -1.33,4.83 q -1.26,-0.7 -2.52,-1.05 -1.26,-0.35 -2.73,-0.35 -2.24,0 -3.57,1.33 -1.33,1.26 -1.33,3.71 0,1.4 0.49,2.45 0.49,0.98 1.26,1.82 0.84,0.77 1.82,1.47 1.05,0.7 2.17,1.33 1.33,0.77 2.59,1.68 1.33,0.91 2.31,2.17 1.05,1.19 1.68,2.87 0.63,1.61 0.63,3.92 0,4.83 -2.87,7.77 -2.8,2.94 -8.26,2.94 -2.8,0 -5.04,-0.77 -2.24,-0.77 -3.36,-1.4 l 1.26,-4.97 q 1.05,0.56 2.8,1.26 1.82,0.7 3.99,0.7 z"
           inkscape:connector-curvature="0" />
      </g>
    </g>
  </g>
</svg>
