<?xml version="1.0" encoding="UTF-8"?>
<svg xmlns="http://www.w3.org/2000/svg" xmlns:xlink="http://www.w3.org/1999/xlink" width="743.819" height="587.858"><g transform="scale(1.333) translate(539.5,283)" style="fill:none;"><g transform="translate(-512.5,-256)"><path d="M87,14Q87,104 193,70" stroke="#707070" stroke-width="1"/></g><g transform="translate(-512.5,-256)"><path d="M87,14Q87,210 193,176" stroke="#707070" stroke-width="1"/></g><g transform="translate(-512.5,-256)"><path d="M87,14Q87,258 193,224" stroke="#707070" stroke-width="1"/></g><g transform="translate(-319.5,-46)"><path d="M46,14Q46,98 110,64" stroke="#707070" stroke-width="1"/></g><g transform="translate(-319.5,-46)"><path d="M46,14Q46,196 110,162" stroke="#707070" stroke-width="1"/></g><g transform="translate(-209.5,4)"><path d="M46,14Q46,98 110,64" stroke="#707070" stroke-width="1"/></g><g transform="translate(-319.5,-200)"><path d="M46,14Q46,106 110,72" stroke="#707070" stroke-width="1"/></g><g transform="translate(-512.5 -256)"><rect x="0" y="0" width="173" height="28" rx="10" ry="10" style="fill:#22AAE0;stroke:#707070;stroke-width:1px;"/><g transform="translate (5 5) scale(0.005859375)" style="fill:#4F4F4F;"><g transform="translate(20.33333333333394 2048) scale (1 -1)"><path d="M805 1225Q630 1225 534 1093.5Q438 962 438 727Q438 238 805 238Q959 238 1178 315L1178 55Q998 -20 776 -20Q457 -20 288 173.5Q119 367 119 729Q119 957 202 1128.5Q285 1300 440.5 1391.5Q596 1483 805 1483Q1018 1483 1233 1380L1133 1128Q1051 1167 968 1196Q885 1225 805 1225Z"/></g><g transform="translate(1325.333333333334 2048) scale (1 -1)"><path d="M403 561Q403 395 457.5 310Q512 225 635 225Q757 225 810.5 309.5Q864 394 864 561Q864 727 810 810Q756 893 633 893Q511 893 457 810.5Q403 728 403 561ZM1176 561Q1176 288 1032 134Q888 -20 631 -20Q470 -20 347 50.5Q224 121 158 253Q92 385 92 561Q92 835 235 987Q378 1139 637 1139Q798 1139 921 1069Q1044 999 1110 868Q1176 737 1176 561Z"/></g><g transform="translate(2593.333333333334 2048) scale (1 -1)"><path d="M1161 0L856 0L856 653Q856 774 815.5 834.5Q775 895 688 895Q571 895 518 809Q465 723 465 526L465 0L160 0L160 1118L393 1118L434 975L451 975Q496 1052 581 1095.5Q666 1139 776 1139Q1027 1139 1116 975L1143 975Q1188 1053 1275.5 1096Q1363 1139 1473 1139Q1663 1139 1760.5 1041.5Q1858 944 1858 729L1858 0L1552 0L1552 653Q1552 774 1511.5 834.5Q1471 895 1384 895Q1272 895 1216.5 815Q1161 735 1161 561Z"/></g><g transform="translate(4604.333333333334 2048) scale (1 -1)"><path d="M1161 0L856 0L856 653Q856 774 815.5 834.5Q775 895 688 895Q571 895 518 809Q465 723 465 526L465 0L160 0L160 1118L393 1118L434 975L451 975Q496 1052 581 1095.5Q666 1139 776 1139Q1027 1139 1116 975L1143 975Q1188 1053 1275.5 1096Q1363 1139 1473 1139Q1663 1139 1760.5 1041.5Q1858 944 1858 729L1858 0L1552 0L1552 653Q1552 774 1511.5 834.5Q1471 895 1384 895Q1272 895 1216.5 815Q1161 735 1161 561Z"/></g><g transform="translate(6615.333333333334 2048) scale (1 -1)"><path d="M623 922Q526 922 471 860.5Q416 799 408 686L836 686Q834 799 777 860.5Q720 922 623 922ZM666 -20Q396 -20 244 129Q92 278 92 551Q92 832 232.5 985.5Q373 1139 621 1139Q858 1139 990 1004Q1122 869 1122 631L1122 483L401 483Q406 353 478 280Q550 207 680 207Q781 207 871 228Q961 249 1059 295L1059 59Q979 19 888 -0.5Q797 -20 666 -20Z"/></g><g transform="translate(7825.333333333334 2048) scale (1 -1)"><path d="M1192 0L887 0L887 653Q887 774 844 834.5Q801 895 707 895Q579 895 522 809.5Q465 724 465 526L465 0L160 0L160 1118L393 1118L434 975L451 975Q502 1056 591.5 1097.5Q681 1139 795 1139Q990 1139 1091 1033.5Q1192 928 1192 729Z"/></g><g transform="translate(9171.333333333334 2048) scale (1 -1)"><path d="M631 223Q711 223 823 258L823 31Q709 -20 543 -20Q360 -20 276.5 72.5Q193 165 193 350L193 889L47 889L47 1018L215 1120L303 1356L498 1356L498 1118L811 1118L811 889L498 889L498 350Q498 285 534.5 254Q571 223 631 223Z"/></g><g transform="translate(10060.333333333334 2048) scale (1 -1)"><path d="M940 332Q940 160 820.5 70Q701 -20 463 -20Q341 -20 255 -3.5Q169 13 94 45L94 297Q179 257 285.5 230Q392 203 473 203Q639 203 639 299Q639 335 617 357.5Q595 380 541 408.5Q487 437 397 475Q268 529 207.5 575Q147 621 119.5 680.5Q92 740 92 827Q92 976 207.5 1057.5Q323 1139 535 1139Q737 1139 928 1051L836 831Q752 867 679 890Q606 913 530 913Q395 913 395 840Q395 799 438.5 769Q482 739 629 680Q760 627 821 581Q882 535 911 475Q940 415 940 332Z"/></g><g transform="translate(11610.333333333334 2048) scale (1 -1)"><path d="M1397 745Q1397 384 1191.5 192Q986 0 598 0L184 0L184 1462L643 1462Q1001 1462 1199 1273Q1397 1084 1397 745ZM1075 737Q1075 1208 659 1208L494 1208L494 256L627 256Q1075 256 1075 737Z"/></g><g transform="translate(13126.333333333334 2048) scale (1 -1)"><path d="M0 1118L334 1118L545 489Q572 407 582 295L588 295Q599 398 631 489L838 1118L1165 1118L692 -143Q627 -318 506.5 -405Q386 -492 225 -492Q146 -492 70 -475L70 -233Q125 -246 190 -246Q271 -246 331.5 -196.5Q392 -147 426 -47L444 8Z"/></g><g transform="translate(14291.333333333334 2048) scale (1 -1)"><path d="M1192 0L887 0L887 653Q887 774 844 834.5Q801 895 707 895Q579 895 522 809.5Q465 724 465 526L465 0L160 0L160 1118L393 1118L434 975L451 975Q502 1056 591.5 1097.5Q681 1139 795 1139Q990 1139 1091 1033.5Q1192 928 1192 729Z"/></g><g transform="translate(15637.333333333334 2048) scale (1 -1)"><path d="M870 0L811 152L803 152Q726 55 644.5 17.5Q563 -20 432 -20Q271 -20 178.5 72Q86 164 86 334Q86 512 210.5 596.5Q335 681 586 690L780 696L780 745Q780 915 606 915Q472 915 291 834L190 1040Q383 1141 618 1141Q843 1141 963 1043Q1083 945 1083 745L1083 0ZM780 518L662 514Q529 510 464 466Q399 422 399 332Q399 203 547 203Q653 203 716.5 264Q780 325 780 426Z"/></g><g transform="translate(16874.333333333336 2048) scale (1 -1)"><path d="M1161 0L856 0L856 653Q856 774 815.5 834.5Q775 895 688 895Q571 895 518 809Q465 723 465 526L465 0L160 0L160 1118L393 1118L434 975L451 975Q496 1052 581 1095.5Q666 1139 776 1139Q1027 1139 1116 975L1143 975Q1188 1053 1275.5 1096Q1363 1139 1473 1139Q1663 1139 1760.5 1041.5Q1858 944 1858 729L1858 0L1552 0L1552 653Q1552 774 1511.5 834.5Q1471 895 1384 895Q1272 895 1216.5 815Q1161 735 1161 561Z"/></g><g transform="translate(18885.333333333336 2048) scale (1 -1)"><path d="M147 1407Q147 1556 313 1556Q479 1556 479 1407Q479 1336 437.5 1296.5Q396 1257 313 1257Q147 1257 147 1407ZM465 0L160 0L160 1118L465 1118Z"/></g><g transform="translate(19510.333333333336 2048) scale (1 -1)"><path d="M614 -20Q92 -20 92 553Q92 838 234 988.5Q376 1139 641 1139Q835 1139 989 1063L899 827Q827 856 765 874.5Q703 893 641 893Q403 893 403 555Q403 227 641 227Q729 227 804 250.5Q879 274 954 324L954 63Q880 16 804.5 -2Q729 -20 614 -20Z"/></g><g transform="translate(21095.333333333336 2048) scale (1 -1)"><path d="M1511 733Q1511 370 1331 175Q1151 -20 815 -20Q479 -20 299 175Q119 370 119 735Q119 1100 299.5 1292.5Q480 1485 817 1485Q1154 1485 1332.5 1291Q1511 1097 1511 733ZM444 733Q444 488 537 364Q630 240 815 240Q1186 240 1186 733Q1186 1227 817 1227Q632 1227 538 1102.5Q444 978 444 733Z"/></g><g transform="translate(22725.333333333336 2048) scale (1 -1)"><path d="M782 1139Q980 1139 1092 984.5Q1204 830 1204 561Q1204 284 1088.5 132Q973 -20 774 -20Q577 -20 465 123L444 123L393 0L160 0L160 1556L465 1556L465 1194Q465 1125 453 973L465 973Q572 1139 782 1139ZM684 895Q571 895 519 825.5Q467 756 465 596L465 563Q465 383 518.5 305Q572 227 688 227Q782 227 837.5 313.5Q893 400 893 565Q893 730 837 812.5Q781 895 684 895Z"/></g><g transform="translate(24021.333333333336 2048) scale (1 -1)"><path d="M70 -492Q-47 -492 -131 -467L-131 -227Q-61 -246 12 -246Q89 -246 124.5 -203Q160 -160 160 -76L160 1118L465 1118L465 -121Q465 -299 362 -395.5Q259 -492 70 -492ZM147 1407Q147 1556 313 1556Q479 1556 479 1407Q479 1336 437.5 1296.5Q396 1257 313 1257Q147 1257 147 1407Z"/></g><g transform="translate(24646.333333333336 2048) scale (1 -1)"><path d="M623 922Q526 922 471 860.5Q416 799 408 686L836 686Q834 799 777 860.5Q720 922 623 922ZM666 -20Q396 -20 244 129Q92 278 92 551Q92 832 232.5 985.5Q373 1139 621 1139Q858 1139 990 1004Q1122 869 1122 631L1122 483L401 483Q406 353 478 280Q550 207 680 207Q781 207 871 228Q961 249 1059 295L1059 59Q979 19 888 -0.5Q797 -20 666 -20Z"/></g><g transform="translate(25856.333333333336 2048) scale (1 -1)"><path d="M614 -20Q92 -20 92 553Q92 838 234 988.5Q376 1139 641 1139Q835 1139 989 1063L899 827Q827 856 765 874.5Q703 893 641 893Q403 893 403 555Q403 227 641 227Q729 227 804 250.5Q879 274 954 324L954 63Q880 16 804.5 -2Q729 -20 614 -20Z"/></g><g transform="translate(26909.333333333336 2048) scale (1 -1)"><path d="M631 223Q711 223 823 258L823 31Q709 -20 543 -20Q360 -20 276.5 72.5Q193 165 193 350L193 889L47 889L47 1018L215 1120L303 1356L498 1356L498 1118L811 1118L811 889L498 889L498 350Q498 285 534.5 254Q571 223 631 223Z"/></g></g></g><g transform="translate(-319.5 -200)"><rect x="0" y="0" width="90" height="28" rx="10" ry="10" style="fill:#E0E0E0;stroke:#707070;stroke-width:1px;"/><g transform="translate (5 5) scale(0.005859375)" style="fill:#4F4F4F;"><g transform="translate(31.16666666666697 2048) scale (1 -1)"><path d="M805 1225Q630 1225 534 1093.5Q438 962 438 727Q438 238 805 238Q959 238 1178 315L1178 55Q998 -20 776 -20Q457 -20 288 173.5Q119 367 119 729Q119 957 202 1128.5Q285 1300 440.5 1391.5Q596 1483 805 1483Q1018 1483 1233 1380L1133 1128Q1051 1167 968 1196Q885 1225 805 1225Z"/></g><g transform="translate(1336.166666666667 2048) scale (1 -1)"><path d="M403 561Q403 395 457.5 310Q512 225 635 225Q757 225 810.5 309.5Q864 394 864 561Q864 727 810 810Q756 893 633 893Q511 893 457 810.5Q403 728 403 561ZM1176 561Q1176 288 1032 134Q888 -20 631 -20Q470 -20 347 50.5Q224 121 158 253Q92 385 92 561Q92 835 235 987Q378 1139 637 1139Q798 1139 921 1069Q1044 999 1110 868Q1176 737 1176 561Z"/></g><g transform="translate(2604.166666666667 2048) scale (1 -1)"><path d="M1161 0L856 0L856 653Q856 774 815.5 834.5Q775 895 688 895Q571 895 518 809Q465 723 465 526L465 0L160 0L160 1118L393 1118L434 975L451 975Q496 1052 581 1095.5Q666 1139 776 1139Q1027 1139 1116 975L1143 975Q1188 1053 1275.5 1096Q1363 1139 1473 1139Q1663 1139 1760.5 1041.5Q1858 944 1858 729L1858 0L1552 0L1552 653Q1552 774 1511.5 834.5Q1471 895 1384 895Q1272 895 1216.5 815Q1161 735 1161 561Z"/></g><g transform="translate(4615.166666666667 2048) scale (1 -1)"><path d="M1161 0L856 0L856 653Q856 774 815.5 834.5Q775 895 688 895Q571 895 518 809Q465 723 465 526L465 0L160 0L160 1118L393 1118L434 975L451 975Q496 1052 581 1095.5Q666 1139 776 1139Q1027 1139 1116 975L1143 975Q1188 1053 1275.5 1096Q1363 1139 1473 1139Q1663 1139 1760.5 1041.5Q1858 944 1858 729L1858 0L1552 0L1552 653Q1552 774 1511.5 834.5Q1471 895 1384 895Q1272 895 1216.5 815Q1161 735 1161 561Z"/></g><g transform="translate(6626.166666666667 2048) scale (1 -1)"><path d="M623 922Q526 922 471 860.5Q416 799 408 686L836 686Q834 799 777 860.5Q720 922 623 922ZM666 -20Q396 -20 244 129Q92 278 92 551Q92 832 232.5 985.5Q373 1139 621 1139Q858 1139 990 1004Q1122 869 1122 631L1122 483L401 483Q406 353 478 280Q550 207 680 207Q781 207 871 228Q961 249 1059 295L1059 59Q979 19 888 -0.5Q797 -20 666 -20Z"/></g><g transform="translate(7836.166666666667 2048) scale (1 -1)"><path d="M1192 0L887 0L887 653Q887 774 844 834.5Q801 895 707 895Q579 895 522 809.5Q465 724 465 526L465 0L160 0L160 1118L393 1118L434 975L451 975Q502 1056 591.5 1097.5Q681 1139 795 1139Q990 1139 1091 1033.5Q1192 928 1192 729Z"/></g><g transform="translate(9182.166666666668 2048) scale (1 -1)"><path d="M631 223Q711 223 823 258L823 31Q709 -20 543 -20Q360 -20 276.5 72.5Q193 165 193 350L193 889L47 889L47 1018L215 1120L303 1356L498 1356L498 1118L811 1118L811 889L498 889L498 350Q498 285 534.5 254Q571 223 631 223Z"/></g><g transform="translate(10071.166666666668 2048) scale (1 -1)"><path d="M1511 733Q1511 370 1331 175Q1151 -20 815 -20Q479 -20 299 175Q119 370 119 735Q119 1100 299.5 1292.5Q480 1485 817 1485Q1154 1485 1332.5 1291Q1511 1097 1511 733ZM444 733Q444 488 537 364Q630 240 815 240Q1186 240 1186 733Q1186 1227 817 1227Q632 1227 538 1102.5Q444 978 444 733Z"/></g><g transform="translate(11701.166666666668 2048) scale (1 -1)"><path d="M782 1139Q980 1139 1092 984.5Q1204 830 1204 561Q1204 284 1088.5 132Q973 -20 774 -20Q577 -20 465 123L444 123L393 0L160 0L160 1556L465 1556L465 1194Q465 1125 453 973L465 973Q572 1139 782 1139ZM684 895Q571 895 519 825.5Q467 756 465 596L465 563Q465 383 518.5 305Q572 227 688 227Q782 227 837.5 313.5Q893 400 893 565Q893 730 837 812.5Q781 895 684 895Z"/></g><g transform="translate(12997.166666666668 2048) scale (1 -1)"><path d="M70 -492Q-47 -492 -131 -467L-131 -227Q-61 -246 12 -246Q89 -246 124.5 -203Q160 -160 160 -76L160 1118L465 1118L465 -121Q465 -299 362 -395.5Q259 -492 70 -492ZM147 1407Q147 1556 313 1556Q479 1556 479 1407Q479 1336 437.5 1296.5Q396 1257 313 1257Q147 1257 147 1407Z"/></g></g></g><g transform="translate(-319.5 -94)"><rect x="0" y="0" width="90" height="28" rx="10" ry="10" style="fill:#E0E0E0;stroke:#707070;stroke-width:1px;"/><g transform="translate (5 5) scale(0.005859375)" style="fill:#4F4F4F;"><g transform="translate(31.16666666666697 2048) scale (1 -1)"><path d="M805 1225Q630 1225 534 1093.5Q438 962 438 727Q438 238 805 238Q959 238 1178 315L1178 55Q998 -20 776 -20Q457 -20 288 173.5Q119 367 119 729Q119 957 202 1128.5Q285 1300 440.5 1391.5Q596 1483 805 1483Q1018 1483 1233 1380L1133 1128Q1051 1167 968 1196Q885 1225 805 1225Z"/></g><g transform="translate(1336.166666666667 2048) scale (1 -1)"><path d="M403 561Q403 395 457.5 310Q512 225 635 225Q757 225 810.5 309.5Q864 394 864 561Q864 727 810 810Q756 893 633 893Q511 893 457 810.5Q403 728 403 561ZM1176 561Q1176 288 1032 134Q888 -20 631 -20Q470 -20 347 50.5Q224 121 158 253Q92 385 92 561Q92 835 235 987Q378 1139 637 1139Q798 1139 921 1069Q1044 999 1110 868Q1176 737 1176 561Z"/></g><g transform="translate(2604.166666666667 2048) scale (1 -1)"><path d="M1161 0L856 0L856 653Q856 774 815.5 834.5Q775 895 688 895Q571 895 518 809Q465 723 465 526L465 0L160 0L160 1118L393 1118L434 975L451 975Q496 1052 581 1095.5Q666 1139 776 1139Q1027 1139 1116 975L1143 975Q1188 1053 1275.5 1096Q1363 1139 1473 1139Q1663 1139 1760.5 1041.5Q1858 944 1858 729L1858 0L1552 0L1552 653Q1552 774 1511.5 834.5Q1471 895 1384 895Q1272 895 1216.5 815Q1161 735 1161 561Z"/></g><g transform="translate(4615.166666666667 2048) scale (1 -1)"><path d="M1161 0L856 0L856 653Q856 774 815.5 834.5Q775 895 688 895Q571 895 518 809Q465 723 465 526L465 0L160 0L160 1118L393 1118L434 975L451 975Q496 1052 581 1095.5Q666 1139 776 1139Q1027 1139 1116 975L1143 975Q1188 1053 1275.5 1096Q1363 1139 1473 1139Q1663 1139 1760.5 1041.5Q1858 944 1858 729L1858 0L1552 0L1552 653Q1552 774 1511.5 834.5Q1471 895 1384 895Q1272 895 1216.5 815Q1161 735 1161 561Z"/></g><g transform="translate(6626.166666666667 2048) scale (1 -1)"><path d="M623 922Q526 922 471 860.5Q416 799 408 686L836 686Q834 799 777 860.5Q720 922 623 922ZM666 -20Q396 -20 244 129Q92 278 92 551Q92 832 232.5 985.5Q373 1139 621 1139Q858 1139 990 1004Q1122 869 1122 631L1122 483L401 483Q406 353 478 280Q550 207 680 207Q781 207 871 228Q961 249 1059 295L1059 59Q979 19 888 -0.5Q797 -20 666 -20Z"/></g><g transform="translate(7836.166666666667 2048) scale (1 -1)"><path d="M1192 0L887 0L887 653Q887 774 844 834.5Q801 895 707 895Q579 895 522 809.5Q465 724 465 526L465 0L160 0L160 1118L393 1118L434 975L451 975Q502 1056 591.5 1097.5Q681 1139 795 1139Q990 1139 1091 1033.5Q1192 928 1192 729Z"/></g><g transform="translate(9182.166666666668 2048) scale (1 -1)"><path d="M631 223Q711 223 823 258L823 31Q709 -20 543 -20Q360 -20 276.5 72.5Q193 165 193 350L193 889L47 889L47 1018L215 1120L303 1356L498 1356L498 1118L811 1118L811 889L498 889L498 350Q498 285 534.5 254Q571 223 631 223Z"/></g><g transform="translate(10071.166666666668 2048) scale (1 -1)"><path d="M1511 733Q1511 370 1331 175Q1151 -20 815 -20Q479 -20 299 175Q119 370 119 735Q119 1100 299.5 1292.5Q480 1485 817 1485Q1154 1485 1332.5 1291Q1511 1097 1511 733ZM444 733Q444 488 537 364Q630 240 815 240Q1186 240 1186 733Q1186 1227 817 1227Q632 1227 538 1102.5Q444 978 444 733Z"/></g><g transform="translate(11701.166666666668 2048) scale (1 -1)"><path d="M782 1139Q980 1139 1092 984.5Q1204 830 1204 561Q1204 284 1088.5 132Q973 -20 774 -20Q577 -20 465 123L444 123L393 0L160 0L160 1556L465 1556L465 1194Q465 1125 453 973L465 973Q572 1139 782 1139ZM684 895Q571 895 519 825.5Q467 756 465 596L465 563Q465 383 518.5 305Q572 227 688 227Q782 227 837.5 313.5Q893 400 893 565Q893 730 837 812.5Q781 895 684 895Z"/></g><g transform="translate(12997.166666666668 2048) scale (1 -1)"><path d="M70 -492Q-47 -492 -131 -467L-131 -227Q-61 -246 12 -246Q89 -246 124.5 -203Q160 -160 160 -76L160 1118L465 1118L465 -121Q465 -299 362 -395.5Q259 -492 70 -492ZM147 1407Q147 1556 313 1556Q479 1556 479 1407Q479 1336 437.5 1296.5Q396 1257 313 1257Q147 1257 147 1407Z"/></g></g></g><g transform="translate(-319.5 -46)"><rect x="0" y="0" width="90" height="28" rx="10" ry="10" style="fill:#E0E0E0;stroke:#707070;stroke-width:1px;"/><g transform="translate (5 5) scale(0.005859375)" style="fill:#4F4F4F;"><g transform="translate(31.16666666666697 2048) scale (1 -1)"><path d="M805 1225Q630 1225 534 1093.5Q438 962 438 727Q438 238 805 238Q959 238 1178 315L1178 55Q998 -20 776 -20Q457 -20 288 173.5Q119 367 119 729Q119 957 202 1128.5Q285 1300 440.5 1391.5Q596 1483 805 1483Q1018 1483 1233 1380L1133 1128Q1051 1167 968 1196Q885 1225 805 1225Z"/></g><g transform="translate(1336.166666666667 2048) scale (1 -1)"><path d="M403 561Q403 395 457.5 310Q512 225 635 225Q757 225 810.5 309.5Q864 394 864 561Q864 727 810 810Q756 893 633 893Q511 893 457 810.5Q403 728 403 561ZM1176 561Q1176 288 1032 134Q888 -20 631 -20Q470 -20 347 50.5Q224 121 158 253Q92 385 92 561Q92 835 235 987Q378 1139 637 1139Q798 1139 921 1069Q1044 999 1110 868Q1176 737 1176 561Z"/></g><g transform="translate(2604.166666666667 2048) scale (1 -1)"><path d="M1161 0L856 0L856 653Q856 774 815.5 834.5Q775 895 688 895Q571 895 518 809Q465 723 465 526L465 0L160 0L160 1118L393 1118L434 975L451 975Q496 1052 581 1095.5Q666 1139 776 1139Q1027 1139 1116 975L1143 975Q1188 1053 1275.5 1096Q1363 1139 1473 1139Q1663 1139 1760.5 1041.5Q1858 944 1858 729L1858 0L1552 0L1552 653Q1552 774 1511.5 834.5Q1471 895 1384 895Q1272 895 1216.5 815Q1161 735 1161 561Z"/></g><g transform="translate(4615.166666666667 2048) scale (1 -1)"><path d="M1161 0L856 0L856 653Q856 774 815.5 834.5Q775 895 688 895Q571 895 518 809Q465 723 465 526L465 0L160 0L160 1118L393 1118L434 975L451 975Q496 1052 581 1095.5Q666 1139 776 1139Q1027 1139 1116 975L1143 975Q1188 1053 1275.5 1096Q1363 1139 1473 1139Q1663 1139 1760.5 1041.5Q1858 944 1858 729L1858 0L1552 0L1552 653Q1552 774 1511.5 834.5Q1471 895 1384 895Q1272 895 1216.5 815Q1161 735 1161 561Z"/></g><g transform="translate(6626.166666666667 2048) scale (1 -1)"><path d="M623 922Q526 922 471 860.5Q416 799 408 686L836 686Q834 799 777 860.5Q720 922 623 922ZM666 -20Q396 -20 244 129Q92 278 92 551Q92 832 232.5 985.5Q373 1139 621 1139Q858 1139 990 1004Q1122 869 1122 631L1122 483L401 483Q406 353 478 280Q550 207 680 207Q781 207 871 228Q961 249 1059 295L1059 59Q979 19 888 -0.5Q797 -20 666 -20Z"/></g><g transform="translate(7836.166666666667 2048) scale (1 -1)"><path d="M1192 0L887 0L887 653Q887 774 844 834.5Q801 895 707 895Q579 895 522 809.5Q465 724 465 526L465 0L160 0L160 1118L393 1118L434 975L451 975Q502 1056 591.5 1097.5Q681 1139 795 1139Q990 1139 1091 1033.5Q1192 928 1192 729Z"/></g><g transform="translate(9182.166666666668 2048) scale (1 -1)"><path d="M631 223Q711 223 823 258L823 31Q709 -20 543 -20Q360 -20 276.5 72.5Q193 165 193 350L193 889L47 889L47 1018L215 1120L303 1356L498 1356L498 1118L811 1118L811 889L498 889L498 350Q498 285 534.5 254Q571 223 631 223Z"/></g><g transform="translate(10071.166666666668 2048) scale (1 -1)"><path d="M1511 733Q1511 370 1331 175Q1151 -20 815 -20Q479 -20 299 175Q119 370 119 735Q119 1100 299.5 1292.5Q480 1485 817 1485Q1154 1485 1332.5 1291Q1511 1097 1511 733ZM444 733Q444 488 537 364Q630 240 815 240Q1186 240 1186 733Q1186 1227 817 1227Q632 1227 538 1102.5Q444 978 444 733Z"/></g><g transform="translate(11701.166666666668 2048) scale (1 -1)"><path d="M782 1139Q980 1139 1092 984.5Q1204 830 1204 561Q1204 284 1088.5 132Q973 -20 774 -20Q577 -20 465 123L444 123L393 0L160 0L160 1556L465 1556L465 1194Q465 1125 453 973L465 973Q572 1139 782 1139ZM684 895Q571 895 519 825.5Q467 756 465 596L465 563Q465 383 518.5 305Q572 227 688 227Q782 227 837.5 313.5Q893 400 893 565Q893 730 837 812.5Q781 895 684 895Z"/></g><g transform="translate(12997.166666666668 2048) scale (1 -1)"><path d="M70 -492Q-47 -492 -131 -467L-131 -227Q-61 -246 12 -246Q89 -246 124.5 -203Q160 -160 160 -76L160 1118L465 1118L465 -121Q465 -299 362 -395.5Q259 -492 70 -492ZM147 1407Q147 1556 313 1556Q479 1556 479 1407Q479 1336 437.5 1296.5Q396 1257 313 1257Q147 1257 147 1407Z"/></g></g></g><g transform="translate(-209.5 4)"><rect x="0" y="0" width="90" height="28" rx="10" ry="10" style="fill:#E0E0E0;stroke:#707070;stroke-width:1px;"/><g transform="translate (5 5) scale(0.005859375)" style="fill:#4F4F4F;"><g transform="translate(31.16666666666697 2048) scale (1 -1)"><path d="M805 1225Q630 1225 534 1093.5Q438 962 438 727Q438 238 805 238Q959 238 1178 315L1178 55Q998 -20 776 -20Q457 -20 288 173.5Q119 367 119 729Q119 957 202 1128.5Q285 1300 440.5 1391.5Q596 1483 805 1483Q1018 1483 1233 1380L1133 1128Q1051 1167 968 1196Q885 1225 805 1225Z"/></g><g transform="translate(1336.166666666667 2048) scale (1 -1)"><path d="M403 561Q403 395 457.5 310Q512 225 635 225Q757 225 810.5 309.5Q864 394 864 561Q864 727 810 810Q756 893 633 893Q511 893 457 810.5Q403 728 403 561ZM1176 561Q1176 288 1032 134Q888 -20 631 -20Q470 -20 347 50.5Q224 121 158 253Q92 385 92 561Q92 835 235 987Q378 1139 637 1139Q798 1139 921 1069Q1044 999 1110 868Q1176 737 1176 561Z"/></g><g transform="translate(2604.166666666667 2048) scale (1 -1)"><path d="M1161 0L856 0L856 653Q856 774 815.5 834.5Q775 895 688 895Q571 895 518 809Q465 723 465 526L465 0L160 0L160 1118L393 1118L434 975L451 975Q496 1052 581 1095.5Q666 1139 776 1139Q1027 1139 1116 975L1143 975Q1188 1053 1275.5 1096Q1363 1139 1473 1139Q1663 1139 1760.5 1041.5Q1858 944 1858 729L1858 0L1552 0L1552 653Q1552 774 1511.5 834.5Q1471 895 1384 895Q1272 895 1216.5 815Q1161 735 1161 561Z"/></g><g transform="translate(4615.166666666667 2048) scale (1 -1)"><path d="M1161 0L856 0L856 653Q856 774 815.5 834.5Q775 895 688 895Q571 895 518 809Q465 723 465 526L465 0L160 0L160 1118L393 1118L434 975L451 975Q496 1052 581 1095.5Q666 1139 776 1139Q1027 1139 1116 975L1143 975Q1188 1053 1275.5 1096Q1363 1139 1473 1139Q1663 1139 1760.5 1041.5Q1858 944 1858 729L1858 0L1552 0L1552 653Q1552 774 1511.5 834.5Q1471 895 1384 895Q1272 895 1216.5 815Q1161 735 1161 561Z"/></g><g transform="translate(6626.166666666667 2048) scale (1 -1)"><path d="M623 922Q526 922 471 860.5Q416 799 408 686L836 686Q834 799 777 860.5Q720 922 623 922ZM666 -20Q396 -20 244 129Q92 278 92 551Q92 832 232.5 985.5Q373 1139 621 1139Q858 1139 990 1004Q1122 869 1122 631L1122 483L401 483Q406 353 478 280Q550 207 680 207Q781 207 871 228Q961 249 1059 295L1059 59Q979 19 888 -0.5Q797 -20 666 -20Z"/></g><g transform="translate(7836.166666666667 2048) scale (1 -1)"><path d="M1192 0L887 0L887 653Q887 774 844 834.5Q801 895 707 895Q579 895 522 809.5Q465 724 465 526L465 0L160 0L160 1118L393 1118L434 975L451 975Q502 1056 591.5 1097.5Q681 1139 795 1139Q990 1139 1091 1033.5Q1192 928 1192 729Z"/></g><g transform="translate(9182.166666666668 2048) scale (1 -1)"><path d="M631 223Q711 223 823 258L823 31Q709 -20 543 -20Q360 -20 276.5 72.5Q193 165 193 350L193 889L47 889L47 1018L215 1120L303 1356L498 1356L498 1118L811 1118L811 889L498 889L498 350Q498 285 534.5 254Q571 223 631 223Z"/></g><g transform="translate(10071.166666666668 2048) scale (1 -1)"><path d="M1511 733Q1511 370 1331 175Q1151 -20 815 -20Q479 -20 299 175Q119 370 119 735Q119 1100 299.5 1292.5Q480 1485 817 1485Q1154 1485 1332.5 1291Q1511 1097 1511 733ZM444 733Q444 488 537 364Q630 240 815 240Q1186 240 1186 733Q1186 1227 817 1227Q632 1227 538 1102.5Q444 978 444 733Z"/></g><g transform="translate(11701.166666666668 2048) scale (1 -1)"><path d="M782 1139Q980 1139 1092 984.5Q1204 830 1204 561Q1204 284 1088.5 132Q973 -20 774 -20Q577 -20 465 123L444 123L393 0L160 0L160 1556L465 1556L465 1194Q465 1125 453 973L465 973Q572 1139 782 1139ZM684 895Q571 895 519 825.5Q467 756 465 596L465 563Q465 383 518.5 305Q572 227 688 227Q782 227 837.5 313.5Q893 400 893 565Q893 730 837 812.5Q781 895 684 895Z"/></g><g transform="translate(12997.166666666668 2048) scale (1 -1)"><path d="M70 -492Q-47 -492 -131 -467L-131 -227Q-61 -246 12 -246Q89 -246 124.5 -203Q160 -160 160 -76L160 1118L465 1118L465 -121Q465 -299 362 -395.5Q259 -492 70 -492ZM147 1407Q147 1556 313 1556Q479 1556 479 1407Q479 1336 437.5 1296.5Q396 1257 313 1257Q147 1257 147 1407Z"/></g></g></g><g transform="translate(-209.5 102)"><rect x="0" y="0" width="90" height="28" rx="10" ry="10" style="fill:#E0E0E0;stroke:#707070;stroke-width:1px;"/><g transform="translate (5 5) scale(0.005859375)" style="fill:#4F4F4F;"><g transform="translate(31.16666666666697 2048) scale (1 -1)"><path d="M805 1225Q630 1225 534 1093.5Q438 962 438 727Q438 238 805 238Q959 238 1178 315L1178 55Q998 -20 776 -20Q457 -20 288 173.5Q119 367 119 729Q119 957 202 1128.5Q285 1300 440.5 1391.5Q596 1483 805 1483Q1018 1483 1233 1380L1133 1128Q1051 1167 968 1196Q885 1225 805 1225Z"/></g><g transform="translate(1336.166666666667 2048) scale (1 -1)"><path d="M403 561Q403 395 457.5 310Q512 225 635 225Q757 225 810.5 309.5Q864 394 864 561Q864 727 810 810Q756 893 633 893Q511 893 457 810.5Q403 728 403 561ZM1176 561Q1176 288 1032 134Q888 -20 631 -20Q470 -20 347 50.5Q224 121 158 253Q92 385 92 561Q92 835 235 987Q378 1139 637 1139Q798 1139 921 1069Q1044 999 1110 868Q1176 737 1176 561Z"/></g><g transform="translate(2604.166666666667 2048) scale (1 -1)"><path d="M1161 0L856 0L856 653Q856 774 815.5 834.5Q775 895 688 895Q571 895 518 809Q465 723 465 526L465 0L160 0L160 1118L393 1118L434 975L451 975Q496 1052 581 1095.5Q666 1139 776 1139Q1027 1139 1116 975L1143 975Q1188 1053 1275.5 1096Q1363 1139 1473 1139Q1663 1139 1760.5 1041.5Q1858 944 1858 729L1858 0L1552 0L1552 653Q1552 774 1511.5 834.5Q1471 895 1384 895Q1272 895 1216.5 815Q1161 735 1161 561Z"/></g><g transform="translate(4615.166666666667 2048) scale (1 -1)"><path d="M1161 0L856 0L856 653Q856 774 815.5 834.5Q775 895 688 895Q571 895 518 809Q465 723 465 526L465 0L160 0L160 1118L393 1118L434 975L451 975Q496 1052 581 1095.5Q666 1139 776 1139Q1027 1139 1116 975L1143 975Q1188 1053 1275.5 1096Q1363 1139 1473 1139Q1663 1139 1760.5 1041.5Q1858 944 1858 729L1858 0L1552 0L1552 653Q1552 774 1511.5 834.5Q1471 895 1384 895Q1272 895 1216.5 815Q1161 735 1161 561Z"/></g><g transform="translate(6626.166666666667 2048) scale (1 -1)"><path d="M623 922Q526 922 471 860.5Q416 799 408 686L836 686Q834 799 777 860.5Q720 922 623 922ZM666 -20Q396 -20 244 129Q92 278 92 551Q92 832 232.5 985.5Q373 1139 621 1139Q858 1139 990 1004Q1122 869 1122 631L1122 483L401 483Q406 353 478 280Q550 207 680 207Q781 207 871 228Q961 249 1059 295L1059 59Q979 19 888 -0.5Q797 -20 666 -20Z"/></g><g transform="translate(7836.166666666667 2048) scale (1 -1)"><path d="M1192 0L887 0L887 653Q887 774 844 834.5Q801 895 707 895Q579 895 522 809.5Q465 724 465 526L465 0L160 0L160 1118L393 1118L434 975L451 975Q502 1056 591.5 1097.5Q681 1139 795 1139Q990 1139 1091 1033.5Q1192 928 1192 729Z"/></g><g transform="translate(9182.166666666668 2048) scale (1 -1)"><path d="M631 223Q711 223 823 258L823 31Q709 -20 543 -20Q360 -20 276.5 72.5Q193 165 193 350L193 889L47 889L47 1018L215 1120L303 1356L498 1356L498 1118L811 1118L811 889L498 889L498 350Q498 285 534.5 254Q571 223 631 223Z"/></g><g transform="translate(10071.166666666668 2048) scale (1 -1)"><path d="M1511 733Q1511 370 1331 175Q1151 -20 815 -20Q479 -20 299 175Q119 370 119 735Q119 1100 299.5 1292.5Q480 1485 817 1485Q1154 1485 1332.5 1291Q1511 1097 1511 733ZM444 733Q444 488 537 364Q630 240 815 240Q1186 240 1186 733Q1186 1227 817 1227Q632 1227 538 1102.5Q444 978 444 733Z"/></g><g transform="translate(11701.166666666668 2048) scale (1 -1)"><path d="M782 1139Q980 1139 1092 984.5Q1204 830 1204 561Q1204 284 1088.5 132Q973 -20 774 -20Q577 -20 465 123L444 123L393 0L160 0L160 1556L465 1556L465 1194Q465 1125 453 973L465 973Q572 1139 782 1139ZM684 895Q571 895 519 825.5Q467 756 465 596L465 563Q465 383 518.5 305Q572 227 688 227Q782 227 837.5 313.5Q893 400 893 565Q893 730 837 812.5Q781 895 684 895Z"/></g><g transform="translate(12997.166666666668 2048) scale (1 -1)"><path d="M70 -492Q-47 -492 -131 -467L-131 -227Q-61 -246 12 -246Q89 -246 124.5 -203Q160 -160 160 -76L160 1118L465 1118L465 -121Q465 -299 362 -395.5Q259 -492 70 -492ZM147 1407Q147 1556 313 1556Q479 1556 479 1407Q479 1336 437.5 1296.5Q396 1257 313 1257Q147 1257 147 1407Z"/></g></g></g><g transform="translate(-99.5 54)"><rect x="0" y="0" width="90" height="28" rx="10" ry="10" style="fill:#E0E0E0;stroke:#707070;stroke-width:1px;"/><g transform="translate (5 5) scale(0.005859375)" style="fill:#4F4F4F;"><g transform="translate(31.16666666666697 2048) scale (1 -1)"><path d="M805 1225Q630 1225 534 1093.5Q438 962 438 727Q438 238 805 238Q959 238 1178 315L1178 55Q998 -20 776 -20Q457 -20 288 173.5Q119 367 119 729Q119 957 202 1128.5Q285 1300 440.5 1391.5Q596 1483 805 1483Q1018 1483 1233 1380L1133 1128Q1051 1167 968 1196Q885 1225 805 1225Z"/></g><g transform="translate(1336.166666666667 2048) scale (1 -1)"><path d="M403 561Q403 395 457.5 310Q512 225 635 225Q757 225 810.5 309.5Q864 394 864 561Q864 727 810 810Q756 893 633 893Q511 893 457 810.5Q403 728 403 561ZM1176 561Q1176 288 1032 134Q888 -20 631 -20Q470 -20 347 50.5Q224 121 158 253Q92 385 92 561Q92 835 235 987Q378 1139 637 1139Q798 1139 921 1069Q1044 999 1110 868Q1176 737 1176 561Z"/></g><g transform="translate(2604.166666666667 2048) scale (1 -1)"><path d="M1161 0L856 0L856 653Q856 774 815.5 834.5Q775 895 688 895Q571 895 518 809Q465 723 465 526L465 0L160 0L160 1118L393 1118L434 975L451 975Q496 1052 581 1095.5Q666 1139 776 1139Q1027 1139 1116 975L1143 975Q1188 1053 1275.5 1096Q1363 1139 1473 1139Q1663 1139 1760.5 1041.5Q1858 944 1858 729L1858 0L1552 0L1552 653Q1552 774 1511.5 834.5Q1471 895 1384 895Q1272 895 1216.5 815Q1161 735 1161 561Z"/></g><g transform="translate(4615.166666666667 2048) scale (1 -1)"><path d="M1161 0L856 0L856 653Q856 774 815.5 834.5Q775 895 688 895Q571 895 518 809Q465 723 465 526L465 0L160 0L160 1118L393 1118L434 975L451 975Q496 1052 581 1095.5Q666 1139 776 1139Q1027 1139 1116 975L1143 975Q1188 1053 1275.5 1096Q1363 1139 1473 1139Q1663 1139 1760.5 1041.5Q1858 944 1858 729L1858 0L1552 0L1552 653Q1552 774 1511.5 834.5Q1471 895 1384 895Q1272 895 1216.5 815Q1161 735 1161 561Z"/></g><g transform="translate(6626.166666666667 2048) scale (1 -1)"><path d="M623 922Q526 922 471 860.5Q416 799 408 686L836 686Q834 799 777 860.5Q720 922 623 922ZM666 -20Q396 -20 244 129Q92 278 92 551Q92 832 232.5 985.5Q373 1139 621 1139Q858 1139 990 1004Q1122 869 1122 631L1122 483L401 483Q406 353 478 280Q550 207 680 207Q781 207 871 228Q961 249 1059 295L1059 59Q979 19 888 -0.5Q797 -20 666 -20Z"/></g><g transform="translate(7836.166666666667 2048) scale (1 -1)"><path d="M1192 0L887 0L887 653Q887 774 844 834.5Q801 895 707 895Q579 895 522 809.5Q465 724 465 526L465 0L160 0L160 1118L393 1118L434 975L451 975Q502 1056 591.5 1097.5Q681 1139 795 1139Q990 1139 1091 1033.5Q1192 928 1192 729Z"/></g><g transform="translate(9182.166666666668 2048) scale (1 -1)"><path d="M631 223Q711 223 823 258L823 31Q709 -20 543 -20Q360 -20 276.5 72.5Q193 165 193 350L193 889L47 889L47 1018L215 1120L303 1356L498 1356L498 1118L811 1118L811 889L498 889L498 350Q498 285 534.5 254Q571 223 631 223Z"/></g><g transform="translate(10071.166666666668 2048) scale (1 -1)"><path d="M1511 733Q1511 370 1331 175Q1151 -20 815 -20Q479 -20 299 175Q119 370 119 735Q119 1100 299.5 1292.5Q480 1485 817 1485Q1154 1485 1332.5 1291Q1511 1097 1511 733ZM444 733Q444 488 537 364Q630 240 815 240Q1186 240 1186 733Q1186 1227 817 1227Q632 1227 538 1102.5Q444 978 444 733Z"/></g><g transform="translate(11701.166666666668 2048) scale (1 -1)"><path d="M782 1139Q980 1139 1092 984.5Q1204 830 1204 561Q1204 284 1088.5 132Q973 -20 774 -20Q577 -20 465 123L444 123L393 0L160 0L160 1556L465 1556L465 1194Q465 1125 453 973L465 973Q572 1139 782 1139ZM684 895Q571 895 519 825.5Q467 756 465 596L465 563Q465 383 518.5 305Q572 227 688 227Q782 227 837.5 313.5Q893 400 893 565Q893 730 837 812.5Q781 895 684 895Z"/></g><g transform="translate(12997.166666666668 2048) scale (1 -1)"><path d="M70 -492Q-47 -492 -131 -467L-131 -227Q-61 -246 12 -246Q89 -246 124.5 -203Q160 -160 160 -76L160 1118L465 1118L465 -121Q465 -299 362 -395.5Q259 -492 70 -492ZM147 1407Q147 1556 313 1556Q479 1556 479 1407Q479 1336 437.5 1296.5Q396 1257 313 1257Q147 1257 147 1407Z"/></g></g></g><g transform="translate(-209.5 -142)"><rect x="0" y="0" width="90" height="28" rx="10" ry="10" style="fill:#E0E0E0;stroke:#707070;stroke-width:1px;"/><g transform="translate (5 5) scale(0.005859375)" style="fill:#4F4F4F;"><g transform="translate(31.16666666666697 2048) scale (1 -1)"><path d="M805 1225Q630 1225 534 1093.5Q438 962 438 727Q438 238 805 238Q959 238 1178 315L1178 55Q998 -20 776 -20Q457 -20 288 173.5Q119 367 119 729Q119 957 202 1128.5Q285 1300 440.5 1391.5Q596 1483 805 1483Q1018 1483 1233 1380L1133 1128Q1051 1167 968 1196Q885 1225 805 1225Z"/></g><g transform="translate(1336.166666666667 2048) scale (1 -1)"><path d="M403 561Q403 395 457.5 310Q512 225 635 225Q757 225 810.5 309.5Q864 394 864 561Q864 727 810 810Q756 893 633 893Q511 893 457 810.5Q403 728 403 561ZM1176 561Q1176 288 1032 134Q888 -20 631 -20Q470 -20 347 50.5Q224 121 158 253Q92 385 92 561Q92 835 235 987Q378 1139 637 1139Q798 1139 921 1069Q1044 999 1110 868Q1176 737 1176 561Z"/></g><g transform="translate(2604.166666666667 2048) scale (1 -1)"><path d="M1161 0L856 0L856 653Q856 774 815.5 834.5Q775 895 688 895Q571 895 518 809Q465 723 465 526L465 0L160 0L160 1118L393 1118L434 975L451 975Q496 1052 581 1095.5Q666 1139 776 1139Q1027 1139 1116 975L1143 975Q1188 1053 1275.5 1096Q1363 1139 1473 1139Q1663 1139 1760.5 1041.5Q1858 944 1858 729L1858 0L1552 0L1552 653Q1552 774 1511.5 834.5Q1471 895 1384 895Q1272 895 1216.5 815Q1161 735 1161 561Z"/></g><g transform="translate(4615.166666666667 2048) scale (1 -1)"><path d="M1161 0L856 0L856 653Q856 774 815.5 834.5Q775 895 688 895Q571 895 518 809Q465 723 465 526L465 0L160 0L160 1118L393 1118L434 975L451 975Q496 1052 581 1095.5Q666 1139 776 1139Q1027 1139 1116 975L1143 975Q1188 1053 1275.5 1096Q1363 1139 1473 1139Q1663 1139 1760.5 1041.5Q1858 944 1858 729L1858 0L1552 0L1552 653Q1552 774 1511.5 834.5Q1471 895 1384 895Q1272 895 1216.5 815Q1161 735 1161 561Z"/></g><g transform="translate(6626.166666666667 2048) scale (1 -1)"><path d="M623 922Q526 922 471 860.5Q416 799 408 686L836 686Q834 799 777 860.5Q720 922 623 922ZM666 -20Q396 -20 244 129Q92 278 92 551Q92 832 232.5 985.5Q373 1139 621 1139Q858 1139 990 1004Q1122 869 1122 631L1122 483L401 483Q406 353 478 280Q550 207 680 207Q781 207 871 228Q961 249 1059 295L1059 59Q979 19 888 -0.5Q797 -20 666 -20Z"/></g><g transform="translate(7836.166666666667 2048) scale (1 -1)"><path d="M1192 0L887 0L887 653Q887 774 844 834.5Q801 895 707 895Q579 895 522 809.5Q465 724 465 526L465 0L160 0L160 1118L393 1118L434 975L451 975Q502 1056 591.5 1097.5Q681 1139 795 1139Q990 1139 1091 1033.5Q1192 928 1192 729Z"/></g><g transform="translate(9182.166666666668 2048) scale (1 -1)"><path d="M631 223Q711 223 823 258L823 31Q709 -20 543 -20Q360 -20 276.5 72.5Q193 165 193 350L193 889L47 889L47 1018L215 1120L303 1356L498 1356L498 1118L811 1118L811 889L498 889L498 350Q498 285 534.5 254Q571 223 631 223Z"/></g><g transform="translate(10071.166666666668 2048) scale (1 -1)"><path d="M1511 733Q1511 370 1331 175Q1151 -20 815 -20Q479 -20 299 175Q119 370 119 735Q119 1100 299.5 1292.5Q480 1485 817 1485Q1154 1485 1332.5 1291Q1511 1097 1511 733ZM444 733Q444 488 537 364Q630 240 815 240Q1186 240 1186 733Q1186 1227 817 1227Q632 1227 538 1102.5Q444 978 444 733Z"/></g><g transform="translate(11701.166666666668 2048) scale (1 -1)"><path d="M782 1139Q980 1139 1092 984.5Q1204 830 1204 561Q1204 284 1088.5 132Q973 -20 774 -20Q577 -20 465 123L444 123L393 0L160 0L160 1556L465 1556L465 1194Q465 1125 453 973L465 973Q572 1139 782 1139ZM684 895Q571 895 519 825.5Q467 756 465 596L465 563Q465 383 518.5 305Q572 227 688 227Q782 227 837.5 313.5Q893 400 893 565Q893 730 837 812.5Q781 895 684 895Z"/></g><g transform="translate(12997.166666666668 2048) scale (1 -1)"><path d="M70 -492Q-47 -492 -131 -467L-131 -227Q-61 -246 12 -246Q89 -246 124.5 -203Q160 -160 160 -76L160 1118L465 1118L465 -121Q465 -299 362 -395.5Q259 -492 70 -492ZM147 1407Q147 1556 313 1556Q479 1556 479 1407Q479 1336 437.5 1296.5Q396 1257 313 1257Q147 1257 147 1407Z"/></g></g></g></g></svg>