<?xml version="1.0" encoding="UTF-8" standalone="no"?>
<!-- Created with Inkscape (http://www.inkscape.org/) -->

<svg
   xmlns:dc="http://purl.org/dc/elements/1.1/"
   xmlns:cc="http://creativecommons.org/ns#"
   xmlns:rdf="http://www.w3.org/1999/02/22-rdf-syntax-ns#"
   xmlns:svg="http://www.w3.org/2000/svg"
   xmlns="http://www.w3.org/2000/svg"
   xmlns:sodipodi="http://sodipodi.sourceforge.net/DTD/sodipodi-0.dtd"
   xmlns:inkscape="http://www.inkscape.org/namespaces/inkscape"
   width="172.35715mm"
   height="153.0132mm"
   viewBox="0 0 610.7143 542.17275"
   id="svg2"
   version="1.1"
   inkscape:version="0.91 r13725"
   sodipodi:docname="bitfield2.svg">
  <defs
     id="defs4" />
  <sodipodi:namedview
     id="base"
     pagecolor="#ffffff"
     bordercolor="#666666"
     borderopacity="1.0"
     inkscape:pageopacity="0.0"
     inkscape:pageshadow="2"
     inkscape:zoom="0.35"
     inkscape:cx="756.64297"
     inkscape:cy="652.21976"
     inkscape:document-units="px"
     inkscape:current-layer="layer1"
     showgrid="false"
     fit-margin-top="0"
     fit-margin-left="0"
     fit-margin-right="0"
     fit-margin-bottom="0"
     inkscape:window-width="1301"
     inkscape:window-height="744"
     inkscape:window-x="65"
     inkscape:window-y="24"
     inkscape:window-maximized="1" />
  <metadata
     id="metadata7">
    <rdf:RDF>
      <cc:Work
         rdf:about="">
        <dc:format>image/svg+xml</dc:format>
        <dc:type
           rdf:resource="http://purl.org/dc/dcmitype/StillImage" />
        <dc:title></dc:title>
      </cc:Work>
    </rdf:RDF>
  </metadata>
  <g
     inkscape:label="Layer 1"
     inkscape:groupmode="layer"
     id="layer1"
     transform="translate(-51.785711,-128.74119)">
    <path
       inkscape:connector-curvature="0"
       id="path4370"
       style="font-style:normal;font-variant:normal;font-weight:normal;font-stretch:normal;font-size:60px;line-height:125%;font-family:Ubuntu;-inkscape-font-specification:Ubuntu;letter-spacing:0px;word-spacing:0px;fill:#000000;fill-opacity:1;stroke:none;stroke-width:1px;stroke-linecap:butt;stroke-linejoin:miter;stroke-opacity:1"
       d="m 125.11979,452.03538 q 1.98,0 3.48,-0.06 1.56,-0.12 2.58,-0.36 l 0,-9.3 q -0.6,-0.3 -1.98,-0.48 -1.32,-0.24 -3.24,-0.24 -1.26,0 -2.7,0.18 -1.38,0.18 -2.58,0.78 -1.14,0.54 -1.92,1.56 -0.78,0.96 -0.78,2.58 0,3 1.92,4.2 1.92,1.14 5.22,1.14 z m -0.48,-27.96 q 3.36,0 5.64,0.9 2.34,0.84 3.72,2.46 1.44,1.56 2.04001,3.78 0.6,2.16 0.6,4.8 l 0,19.5 q -0.72,0.12 -2.04001,0.36 -1.26,0.18 -2.88,0.36 -1.62,0.18 -3.54,0.3 -1.86,0.18 -3.72,0.18 -2.64,0 -4.86,-0.54 -2.22,-0.54 -3.84,-1.68 -1.62,-1.2 -2.52,-3.12 -0.9,-1.92 -0.9,-4.62 0,-2.58 1.02,-4.44 1.08,-1.86 2.88,-3 1.8,-1.14 4.2,-1.68 2.4,-0.54 5.04,-0.54 0.84,0 1.74,0.12 0.9,0.06 1.68,0.24 0.84,0.12 1.44,0.24 0.6,0.12 0.84,0.18 l 0,-1.56 q 0,-1.38 -0.3,-2.7 -0.3,-1.38 -1.08,-2.4 -0.78,-1.08 -2.16,-1.68 -1.32,-0.66 -3.48,-0.66 -2.76,0 -4.86,0.42 -2.04,0.36 -3.06,0.78 l -0.66,-4.62 q 1.08,-0.48 3.6,-0.9 2.52,-0.48 5.46,-0.48 z" />
    <path
       inkscape:connector-curvature="0"
       id="path4372"
       style="font-style:normal;font-variant:normal;font-weight:normal;font-stretch:normal;font-size:60px;line-height:125%;font-family:Ubuntu;-inkscape-font-specification:Ubuntu;letter-spacing:0px;word-spacing:0px;fill:#000000;fill-opacity:1;stroke:none;stroke-width:1px;stroke-linecap:butt;stroke-linejoin:miter;stroke-opacity:1"
       d="m 155.1053,640.37395 q 1.02,-0.66 3.06,-1.38 2.1,-0.72 4.8,-0.72 3.36,0 5.94,1.2 2.64,1.2 4.44,3.36 1.8,2.16 2.7,5.16 0.96,3 0.96,6.6 0,3.78 -1.14,6.84 -1.08,3 -3.12,5.1 -2.04,2.1 -4.92,3.24 -2.88,1.14 -6.48,1.14 -3.9,0 -6.9,-0.54 -3,-0.54 -4.92,-1.08 l 0,-44.7 5.58,-0.96 0,16.74 z m 0,24.96 q 0.84,0.24 2.34,0.48 1.56,0.18 3.84,0.18 4.5,0 7.2,-2.94 2.7,-3 2.7,-8.46 0,-2.4 -0.48,-4.5 -0.48,-2.1 -1.56,-3.6 -1.08,-1.56 -2.82,-2.4 -1.68,-0.9 -4.08,-0.9 -2.28,0 -4.2,0.78 -1.92,0.78 -2.94,1.62 l 0,19.74 z" />
    <path
       inkscape:connector-curvature="0"
       id="path4374"
       style="font-style:normal;font-variant:normal;font-weight:normal;font-stretch:normal;font-size:60px;line-height:125%;font-family:Ubuntu;-inkscape-font-specification:Ubuntu;letter-spacing:0px;word-spacing:0px;fill:#000000;fill-opacity:1;stroke:none;stroke-width:1px;stroke-linecap:butt;stroke-linejoin:miter;stroke-opacity:1"
       d="m 399.39838,670.91395 q -3.78,0 -6.66,-1.2 -2.82,-1.2 -4.8,-3.36 -1.92,-2.16 -2.88,-5.1 -0.96,-3 -0.96,-6.6 0,-3.6 1.02,-6.6 1.08,-3 3,-5.16 1.92,-2.22 4.68,-3.42 2.82,-1.26 6.24,-1.26 2.1,0 4.2,0.36 2.1,0.36 4.02,1.14 l -1.26,4.74 q -1.26,-0.6 -2.94,-0.96 -1.62,-0.36 -3.48,-0.36 -4.68,0 -7.2,2.94 -2.46,2.94 -2.46,8.58 0,2.52 0.54,4.62 0.6,2.1 1.8,3.6 1.26,1.5 3.18,2.34 1.92,0.78 4.68,0.78 2.22,0 4.02,-0.42 1.8,-0.42 2.82,-0.9 l 0.78,4.68 q -0.48,0.3 -1.38,0.6 -0.9,0.24 -2.04,0.42 -1.14,0.24 -2.46,0.36 -1.26,0.18 -2.46,0.18 z" />
    <g
       id="g4209">
      <rect
         y="303.79077"
         x="54.285713"
         height="80"
         width="62.857143"
         id="rect4136"
         style="opacity:1;fill:#ffffff;fill-opacity:1;stroke:#800000;stroke-width:5;stroke-miterlimit:4;stroke-dasharray:none;stroke-opacity:1" />
      <path
         d="m 85.714289,325.78784 q -4.57032,0 -6.88477,4.51172 -2.28515,4.48242 -2.28515,13.50586 0,8.99414 2.28515,13.50586 2.31445,4.48242 6.88477,4.48242 4.59961,0 6.88476,-4.48242 2.31446,-4.51172 2.31446,-13.50586 0,-9.02344 -2.31446,-13.50586 -2.28515,-4.51172 -6.88476,-4.51172 z m 0,-4.6875 q 7.35351,0 11.2207,5.83008 3.896481,5.80078 3.896481,16.875 0,11.04492 -3.896481,16.875 -3.86719,5.80078 -11.2207,5.80078 -7.35352,0 -11.25,-5.80078 -3.86719,-5.83008 -3.86719,-16.875 0,-11.07422 3.86719,-16.875 3.89648,-5.83008 11.25,-5.83008 z"
         style="font-style:normal;font-weight:normal;font-size:60px;line-height:125%;font-family:sans-serif;letter-spacing:0px;word-spacing:0px;fill:#000000;fill-opacity:1;stroke:none;stroke-width:1px;stroke-linecap:butt;stroke-linejoin:miter;stroke-opacity:1"
         id="path4147"
         inkscape:connector-curvature="0" />
      <rect
         style="opacity:1;fill:#ffffff;fill-opacity:1;stroke:#800000;stroke-width:5;stroke-miterlimit:4;stroke-dasharray:none;stroke-opacity:1"
         id="rect4159"
         width="62.857143"
         height="80"
         x="131.83673"
         y="303.79077" />
      <path
         d="m 151.09245,360.68043 9.66796,0 0,-33.36915 -10.51757,2.10938 0,-5.39063 10.45898,-2.10937 5.91797,0 0,38.75977 9.66797,0 0,4.98046 -25.19531,0 0,-4.98046 z"
         style="font-style:normal;font-weight:normal;font-size:60px;line-height:125%;font-family:sans-serif;letter-spacing:0px;word-spacing:0px;fill:#000000;fill-opacity:1;stroke:none;stroke-width:1px;stroke-linecap:butt;stroke-linejoin:miter;stroke-opacity:1"
         id="path4149"
         inkscape:connector-curvature="0" />
    </g>
    <rect
       style="opacity:1;fill:#ffffff;fill-opacity:1;stroke:#4d4d4d;stroke-width:5;stroke-miterlimit:4;stroke-dasharray:none;stroke-opacity:1"
       id="rect4171"
       width="62.857143"
       height="80"
       x="209.38774"
       y="303.79077" />
    <rect
       y="303.79077"
       x="286.93875"
       height="80"
       width="62.857143"
       id="rect4177"
       style="opacity:1;fill:#ffffff;fill-opacity:1;stroke:#4d4d4d;stroke-width:5;stroke-miterlimit:4;stroke-dasharray:none;stroke-opacity:1" />
    <path
       d="m 318.36734,325.78784 q -4.57032,0 -6.88477,4.51172 -2.28515,4.48242 -2.28515,13.50586 0,8.99414 2.28515,13.50586 2.31445,4.48242 6.88477,4.48242 4.59961,0 6.88476,-4.48242 2.31446,-4.51172 2.31446,-13.50586 0,-9.02344 -2.31446,-13.50586 -2.28515,-4.51172 -6.88476,-4.51172 z m 0,-4.6875 q 7.35351,0 11.2207,5.83008 3.89648,5.80078 3.89648,16.875 0,11.04492 -3.89648,16.875 -3.86719,5.80078 -11.2207,5.80078 -7.35352,0 -11.25,-5.80078 -3.86719,-5.83008 -3.86719,-16.875 0,-11.07422 3.86719,-16.875 3.89648,-5.83008 11.25,-5.83008 z"
       style="font-style:normal;font-weight:normal;font-size:60px;line-height:125%;font-family:sans-serif;letter-spacing:0px;word-spacing:0px;fill:#000000;fill-opacity:1;stroke:none;stroke-width:1px;stroke-linecap:butt;stroke-linejoin:miter;stroke-opacity:1"
       id="path4179"
       inkscape:connector-curvature="0" />
    <rect
       y="303.79077"
       x="364.48978"
       height="80"
       width="62.857143"
       id="rect4183"
       style="opacity:1;fill:#ffffff;fill-opacity:1;stroke:#4d4d4d;stroke-width:5;stroke-miterlimit:4;stroke-dasharray:none;stroke-opacity:1" />
    <rect
       style="opacity:1;fill:#ffffff;fill-opacity:1;stroke:#4d4d4d;stroke-width:5;stroke-miterlimit:4;stroke-dasharray:none;stroke-opacity:1"
       id="rect4189"
       width="62.857143"
       height="80"
       x="442.04083"
       y="303.79077" />
    <rect
       style="opacity:1;fill:#ffffff;fill-opacity:1;stroke:#4d4d4d;stroke-width:5;stroke-miterlimit:4;stroke-dasharray:none;stroke-opacity:1"
       id="rect4195"
       width="62.857143"
       height="80"
       x="519.5918"
       y="303.79077" />
    <path
       inkscape:connector-curvature="0"
       id="path4197"
       style="font-style:normal;font-weight:normal;font-size:60px;line-height:125%;font-family:sans-serif;letter-spacing:0px;word-spacing:0px;fill:#000000;fill-opacity:1;stroke:none;stroke-width:1px;stroke-linecap:butt;stroke-linejoin:miter;stroke-opacity:1"
       d="m 551.0204,325.78784 q -4.57032,0 -6.88477,4.51172 -2.28515,4.48242 -2.28515,13.50586 0,8.99414 2.28515,13.50586 2.31445,4.48242 6.88477,4.48242 4.59961,0 6.88476,-4.48242 2.31446,-4.51172 2.31446,-13.50586 0,-9.02344 -2.31446,-13.50586 -2.28515,-4.51172 -6.88476,-4.51172 z m 0,-4.6875 q 7.35351,0 11.2207,5.83008 3.89648,5.80078 3.89648,16.875 0,11.04492 -3.89648,16.875 -3.86719,5.80078 -11.2207,5.80078 -7.35352,0 -11.25,-5.80078 -3.86719,-5.83008 -3.86719,-16.875 0,-11.07422 3.86719,-16.875 3.89648,-5.83008 11.25,-5.83008 z" />
    <rect
       style="opacity:1;fill:#ffffff;fill-opacity:1;stroke:#4d4d4d;stroke-width:5;stroke-miterlimit:4;stroke-dasharray:none;stroke-opacity:1"
       id="rect4201"
       width="62.857143"
       height="80"
       x="597.14288"
       y="303.79077" />
    <path
       inkscape:connector-curvature="0"
       id="path4203"
       style="font-style:normal;font-weight:normal;font-size:60px;line-height:125%;font-family:sans-serif;letter-spacing:0px;word-spacing:0px;fill:#000000;fill-opacity:1;stroke:none;stroke-width:1px;stroke-linecap:butt;stroke-linejoin:miter;stroke-opacity:1"
       d="m 628.57143,325.78784 q -4.57032,0 -6.88477,4.51172 -2.28515,4.48242 -2.28515,13.50586 0,8.99414 2.28515,13.50586 2.31445,4.48242 6.88477,4.48242 4.59961,0 6.88476,-4.48242 2.31446,-4.51172 2.31446,-13.50586 0,-9.02344 -2.31446,-13.50586 -2.28515,-4.51172 -6.88476,-4.51172 z m 0,-4.6875 q 7.35351,0 11.2207,5.83008 3.89648,5.80078 3.89648,16.875 0,11.04492 -3.89648,16.875 -3.86719,5.80078 -11.2207,5.80078 -7.35352,0 -11.25,-5.80078 -3.86719,-5.83008 -3.86719,-16.875 0,-11.07422 3.86719,-16.875 3.89648,-5.83008 11.25,-5.83008 z" />
    <rect
       y="512.43188"
       x="519.59186"
       height="80"
       width="62.857143"
       id="rect4400"
       style="opacity:1;fill:#ffffff;fill-opacity:1;stroke:#4d4d4d;stroke-width:5;stroke-miterlimit:4;stroke-dasharray:none;stroke-opacity:1" />
    <path
       d="m 551.02043,534.42894 q -4.57032,0 -6.88477,4.51172 -2.28515,4.48242 -2.28515,13.50586 0,8.99414 2.28515,13.50586 2.31445,4.48242 6.88477,4.48242 4.59961,0 6.88476,-4.48242 2.31446,-4.51172 2.31446,-13.50586 0,-9.02344 -2.31446,-13.50586 -2.28515,-4.51172 -6.88476,-4.51172 z m 0,-4.6875 q 7.35351,0 11.2207,5.83008 3.89648,5.80078 3.89648,16.875 0,11.04492 -3.89648,16.875 -3.86719,5.80078 -11.2207,5.80078 -7.35352,0 -11.25,-5.80078 -3.86719,-5.83008 -3.86719,-16.875 0,-11.07422 3.86719,-16.875 3.89648,-5.83008 11.25,-5.83008 z"
       style="font-style:normal;font-weight:normal;font-size:60px;line-height:125%;font-family:sans-serif;letter-spacing:0px;word-spacing:0px;fill:#000000;fill-opacity:1;stroke:none;stroke-width:1px;stroke-linecap:butt;stroke-linejoin:miter;stroke-opacity:1"
       id="path4402"
       inkscape:connector-curvature="0" />
    <rect
       style="opacity:1;fill:#ffffff;fill-opacity:1;stroke:#4d4d4d;stroke-width:5;stroke-miterlimit:4;stroke-dasharray:none;stroke-opacity:1"
       id="rect4404"
       width="62.857143"
       height="80"
       x="597.14288"
       y="512.43188" />
    <g
       id="g4408"
       transform="translate(-155.10203,208.6411)">
      <rect
         style="opacity:1;fill:#ffffff;fill-opacity:1;stroke:#000080;stroke-width:5;stroke-miterlimit:4;stroke-dasharray:none;stroke-opacity:1"
         id="rect4410"
         width="62.857143"
         height="80"
         x="209.38774"
         y="303.79077" />
      <path
         d="m 228.64346,360.68043 9.66796,0 0,-33.36915 -10.51757,2.10938 0,-5.39063 10.45898,-2.10937 5.91797,0 0,38.75977 9.66797,0 0,4.98046 -25.19531,0 0,-4.98046 z"
         style="font-style:normal;font-weight:normal;font-size:60px;line-height:125%;font-family:sans-serif;letter-spacing:0px;word-spacing:0px;fill:#000000;fill-opacity:1;stroke:none;stroke-width:1px;stroke-linecap:butt;stroke-linejoin:miter;stroke-opacity:1"
         id="path4412"
         inkscape:connector-curvature="0" />
      <rect
         y="303.79077"
         x="286.93875"
         height="80"
         width="62.857143"
         id="rect4414"
         style="opacity:1;fill:#ffffff;fill-opacity:1;stroke:#000080;stroke-width:5;stroke-miterlimit:4;stroke-dasharray:none;stroke-opacity:1" />
      <path
         d="m 318.36734,325.78784 q -4.57032,0 -6.88477,4.51172 -2.28515,4.48242 -2.28515,13.50586 0,8.99414 2.28515,13.50586 2.31445,4.48242 6.88477,4.48242 4.59961,0 6.88476,-4.48242 2.31446,-4.51172 2.31446,-13.50586 0,-9.02344 -2.31446,-13.50586 -2.28515,-4.51172 -6.88476,-4.51172 z m 0,-4.6875 q 7.35351,0 11.2207,5.83008 3.89648,5.80078 3.89648,16.875 0,11.04492 -3.89648,16.875 -3.86719,5.80078 -11.2207,5.80078 -7.35352,0 -11.25,-5.80078 -3.86719,-5.83008 -3.86719,-16.875 0,-11.07422 3.86719,-16.875 3.89648,-5.83008 11.25,-5.83008 z"
         style="font-style:normal;font-weight:normal;font-size:60px;line-height:125%;font-family:sans-serif;letter-spacing:0px;word-spacing:0px;fill:#000000;fill-opacity:1;stroke:none;stroke-width:1px;stroke-linecap:butt;stroke-linejoin:miter;stroke-opacity:1"
         id="path4416"
         inkscape:connector-curvature="0" />
      <rect
         y="303.79077"
         x="364.48978"
         height="80"
         width="62.857143"
         id="rect4418"
         style="opacity:1;fill:#ffffff;fill-opacity:1;stroke:#000080;stroke-width:5;stroke-miterlimit:4;stroke-dasharray:none;stroke-opacity:1" />
      <path
         inkscape:connector-curvature="0"
         id="path4420"
         style="font-style:normal;font-weight:normal;font-size:60px;line-height:125%;font-family:sans-serif;letter-spacing:0px;word-spacing:0px;fill:#000000;fill-opacity:1;stroke:none;stroke-width:1px;stroke-linecap:butt;stroke-linejoin:miter;stroke-opacity:1"
         d="m 383.7455,360.68043 9.66796,0 0,-33.36915 -10.51757,2.10938 0,-5.39063 10.45898,-2.10937 5.91797,0 0,38.75977 9.66797,0 0,4.98046 -25.19531,0 0,-4.98046 z" />
    </g>
    <g
       id="g4422"
       transform="translate(-155.10203,208.6411)">
      <g
         transform="translate(283.7094,0)"
         id="g4424">
        <rect
           y="303.79077"
           x="158.33142"
           height="80"
           width="62.857143"
           id="rect4426"
           style="opacity:1;fill:#ffffff;fill-opacity:1;stroke:#008000;stroke-width:5;stroke-miterlimit:4;stroke-dasharray:none;stroke-opacity:1" />
        <path
           inkscape:connector-curvature="0"
           id="path4428"
           style="font-style:normal;font-weight:normal;font-size:60px;line-height:125%;font-family:sans-serif;letter-spacing:0px;word-spacing:0px;fill:#000000;fill-opacity:1;stroke:none;stroke-width:1px;stroke-linecap:butt;stroke-linejoin:miter;stroke-opacity:1"
           d="m 177.58714,360.68043 9.66796,0 0,-33.36915 -10.51757,2.10938 0,-5.39063 10.45898,-2.10937 5.91797,0 0,38.75977 9.66797,0 0,4.98046 -25.19531,0 0,-4.98046 z" />
      </g>
      <g
         transform="translate(465.30611,0)"
         id="g4430">
        <rect
           y="303.79077"
           x="54.285713"
           height="80"
           width="62.857143"
           id="rect4432"
           style="opacity:1;fill:#ffffff;fill-opacity:1;stroke:#008000;stroke-width:5;stroke-miterlimit:4;stroke-dasharray:none;stroke-opacity:1" />
        <path
           d="m 85.714289,325.78784 q -4.57032,0 -6.88477,4.51172 -2.28515,4.48242 -2.28515,13.50586 0,8.99414 2.28515,13.50586 2.31445,4.48242 6.88477,4.48242 4.59961,0 6.88476,-4.48242 2.31446,-4.51172 2.31446,-13.50586 0,-9.02344 -2.31446,-13.50586 -2.28515,-4.51172 -6.88476,-4.51172 z m 0,-4.6875 q 7.35351,0 11.2207,5.83008 3.896481,5.80078 3.896481,16.875 0,11.04492 -3.896481,16.875 -3.86719,5.80078 -11.2207,5.80078 -7.35352,0 -11.25,-5.80078 -3.86719,-5.83008 -3.86719,-16.875 0,-11.07422 3.86719,-16.875 3.89648,-5.83008 11.25,-5.83008 z"
           style="font-style:normal;font-weight:normal;font-size:60px;line-height:125%;font-family:sans-serif;letter-spacing:0px;word-spacing:0px;fill:#000000;fill-opacity:1;stroke:none;stroke-width:1px;stroke-linecap:butt;stroke-linejoin:miter;stroke-opacity:1"
           id="path4434"
           inkscape:connector-curvature="0" />
      </g>
      <g
         transform="translate(542.85714,0)"
         id="g4436">
        <rect
           y="303.79077"
           x="54.285713"
           height="80"
           width="62.857143"
           id="rect4438"
           style="opacity:1;fill:#ffffff;fill-opacity:1;stroke:#008000;stroke-width:5;stroke-miterlimit:4;stroke-dasharray:none;stroke-opacity:1" />
        <path
           d="m 85.714289,325.78784 q -4.57032,0 -6.88477,4.51172 -2.28515,4.48242 -2.28515,13.50586 0,8.99414 2.28515,13.50586 2.31445,4.48242 6.88477,4.48242 4.59961,0 6.88476,-4.48242 2.31446,-4.51172 2.31446,-13.50586 0,-9.02344 -2.31446,-13.50586 -2.28515,-4.51172 -6.88476,-4.51172 z m 0,-4.6875 q 7.35351,0 11.2207,5.83008 3.896481,5.80078 3.896481,16.875 0,11.04492 -3.896481,16.875 -3.86719,5.80078 -11.2207,5.80078 -7.35352,0 -11.25,-5.80078 -3.86719,-5.83008 -3.86719,-16.875 0,-11.07422 3.86719,-16.875 3.89648,-5.83008 11.25,-5.83008 z"
           style="font-style:normal;font-weight:normal;font-size:60px;line-height:125%;font-family:sans-serif;letter-spacing:0px;word-spacing:0px;fill:#000000;fill-opacity:1;stroke:none;stroke-width:1px;stroke-linecap:butt;stroke-linejoin:miter;stroke-opacity:1"
           id="path4440"
           inkscape:connector-curvature="0" />
      </g>
    </g>
    <path
       inkscape:connector-curvature="0"
       id="path4484"
       style="font-style:normal;font-weight:normal;font-size:60px;line-height:125%;font-family:sans-serif;letter-spacing:0px;word-spacing:0px;fill:#000000;fill-opacity:1;stroke:none;stroke-width:1px;stroke-linecap:butt;stroke-linejoin:miter;stroke-opacity:1"
       d="m 240.81632,325.78784 q -4.57032,0 -6.88477,4.51172 -2.28515,4.48242 -2.28515,13.50586 0,8.99414 2.28515,13.50586 2.31445,4.48242 6.88477,4.48242 4.59961,0 6.88476,-4.48242 2.31446,-4.51172 2.31446,-13.50586 0,-9.02344 -2.31446,-13.50586 -2.28515,-4.51172 -6.88476,-4.51172 z m 0,-4.6875 q 7.35351,0 11.2207,5.83008 3.89648,5.80078 3.89648,16.875 0,11.04492 -3.89648,16.875 -3.86719,5.80078 -11.2207,5.80078 -7.35352,0 -11.25,-5.80078 -3.86719,-5.83008 -3.86719,-16.875 0,-11.07422 3.86719,-16.875 3.89648,-5.83008 11.25,-5.83008 z" />
    <path
       d="m 395.91835,325.78784 q -4.57032,0 -6.88477,4.51172 -2.28515,4.48242 -2.28515,13.50586 0,8.99414 2.28515,13.50586 2.31445,4.48242 6.88477,4.48242 4.59961,0 6.88476,-4.48242 2.31446,-4.51172 2.31446,-13.50586 0,-9.02344 -2.31446,-13.50586 -2.28515,-4.51172 -6.88476,-4.51172 z m 0,-4.6875 q 7.35351,0 11.2207,5.83008 3.89648,5.80078 3.89648,16.875 0,11.04492 -3.89648,16.875 -3.86719,5.80078 -11.2207,5.80078 -7.35352,0 -11.25,-5.80078 -3.86719,-5.83008 -3.86719,-16.875 0,-11.07422 3.86719,-16.875 3.89648,-5.83008 11.25,-5.83008 z"
       style="font-style:normal;font-weight:normal;font-size:60px;line-height:125%;font-family:sans-serif;letter-spacing:0px;word-spacing:0px;fill:#000000;fill-opacity:1;stroke:none;stroke-width:1px;stroke-linecap:butt;stroke-linejoin:miter;stroke-opacity:1"
       id="path4486"
       inkscape:connector-curvature="0" />
    <path
       inkscape:connector-curvature="0"
       id="path4488"
       style="font-style:normal;font-weight:normal;font-size:60px;line-height:125%;font-family:sans-serif;letter-spacing:0px;word-spacing:0px;fill:#000000;fill-opacity:1;stroke:none;stroke-width:1px;stroke-linecap:butt;stroke-linejoin:miter;stroke-opacity:1"
       d="m 473.46941,325.78784 q -4.57032,0 -6.88477,4.51172 -2.28515,4.48242 -2.28515,13.50586 0,8.99414 2.28515,13.50586 2.31445,4.48242 6.88477,4.48242 4.59961,0 6.88476,-4.48242 2.31446,-4.51172 2.31446,-13.50586 0,-9.02344 -2.31446,-13.50586 -2.28515,-4.51172 -6.88476,-4.51172 z m 0,-4.6875 q 7.35351,0 11.2207,5.83008 3.89648,5.80078 3.89648,16.875 0,11.04492 -3.89648,16.875 -3.86719,5.80078 -11.2207,5.80078 -7.35352,0 -11.25,-5.80078 -3.86719,-5.83008 -3.86719,-16.875 0,-11.07422 3.86719,-16.875 3.89648,-5.83008 11.25,-5.83008 z" />
    <path
       inkscape:connector-curvature="0"
       id="path4588"
       style="font-style:normal;font-weight:normal;font-size:60px;line-height:125%;font-family:sans-serif;letter-spacing:0px;word-spacing:0px;fill:#000000;fill-opacity:1;stroke:none;stroke-width:1px;stroke-linecap:butt;stroke-linejoin:miter;stroke-opacity:1"
       d="m 628.57146,534.42894 q -4.57032,0 -6.88477,4.51172 -2.28515,4.48242 -2.28515,13.50586 0,8.99414 2.28515,13.50586 2.31445,4.48242 6.88477,4.48242 4.59961,0 6.88476,-4.48242 2.31446,-4.51172 2.31446,-13.50586 0,-9.02344 -2.31446,-13.50586 -2.28515,-4.51172 -6.88476,-4.51172 z m 0,-4.6875 q 7.35351,0 11.2207,5.83008 3.89648,5.80078 3.89648,16.875 0,11.04492 -3.89648,16.875 -3.86719,5.80078 -11.2207,5.80078 -7.35352,0 -11.25,-5.80078 -3.86719,-5.83008 -3.86719,-16.875 0,-11.07422 3.86719,-16.875 3.89648,-5.83008 11.25,-5.83008 z" />
    <g
       id="g4634">
      <path
         d="m 199.46884,157.38119 q 2.28,0 3.36,-0.6 1.12,-0.6 1.12,-1.92 0,-1.36 -1.08,-2.16 -1.08,-0.8 -3.56,-1.8 -1.2,-0.48 -2.32,-0.96 -1.08,-0.52 -1.88,-1.2 -0.8,-0.68 -1.28,-1.64 -0.48,-0.96 -0.48,-2.36 0,-2.76 2.04,-4.36 2.04,-1.64 5.56,-1.64 0.88,0 1.76,0.12 0.88,0.08 1.64,0.24 0.76,0.12 1.32,0.28 0.6,0.16 0.92,0.28 l -0.68,3.2 q -0.6,-0.32 -1.88,-0.64 -1.28,-0.36 -3.08,-0.36 -1.56,0 -2.72,0.64 -1.16,0.6 -1.16,1.92 0,0.68 0.24,1.2 0.28,0.52 0.8,0.96 0.56,0.4 1.36,0.76 0.8,0.36 1.92,0.76 1.48,0.56 2.64,1.12 1.16,0.52 1.96,1.24 0.84,0.72 1.28,1.76 0.44,1 0.44,2.48 0,2.88 -2.16,4.36 -2.12,1.48 -6.08,1.48 -2.76,0 -4.32,-0.48 -1.56,-0.44 -2.12,-0.68 l 0.68,-3.2 q 0.64,0.24 2.04,0.72 1.4,0.48 3.72,0.48 z"
         style="font-style:normal;font-variant:normal;font-weight:normal;font-stretch:normal;font-size:medium;line-height:125%;font-family:Ubuntu;-inkscape-font-specification:Ubuntu;letter-spacing:0px;word-spacing:0px;fill:#000000;fill-opacity:1;stroke:none;stroke-width:1px;stroke-linecap:butt;stroke-linejoin:miter;stroke-opacity:1"
         id="path4259"
         inkscape:connector-curvature="0" />
      <path
         d="m 215.92134,139.26119 7.88,0 0,3.12 -7.88,0 0,9.6 q 0,1.56 0.24,2.6 0.24,1 0.72,1.6 0.48,0.56 1.2,0.8 0.72,0.24 1.68,0.24 1.68,0 2.68,-0.36 1.04,-0.4 1.44,-0.56 l 0.72,3.08 q -0.56,0.28 -1.96,0.68 -1.4,0.44 -3.2,0.44 -2.12,0 -3.52,-0.52 -1.36,-0.56 -2.2,-1.64 -0.84,-1.08 -1.2,-2.64 -0.32,-1.6 -0.32,-3.68 l 0,-18.56 3.72,-0.64 0,6.44 z"
         style="font-style:normal;font-variant:normal;font-weight:normal;font-stretch:normal;font-size:medium;line-height:125%;font-family:Ubuntu;-inkscape-font-specification:Ubuntu;letter-spacing:0px;word-spacing:0px;fill:#000000;fill-opacity:1;stroke:none;stroke-width:1px;stroke-linecap:butt;stroke-linejoin:miter;stroke-opacity:1"
         id="path4261"
         inkscape:connector-curvature="0" />
      <path
         d="m 236.21509,138.82119 q 0.48,0 1.08,0.08 0.64,0.04 1.24,0.16 0.6,0.08 1.08,0.2 0.52,0.08 0.76,0.16 l -0.64,3.24 q -0.44,-0.16 -1.48,-0.36 -1,-0.24 -2.6,-0.24 -1.04,0 -2.08,0.24 -1,0.2 -1.32,0.28 l 0,17.48 -3.72,0 0,-19.92 q 1.32,-0.48 3.28,-0.88 1.96,-0.44 4.4,-0.44 z"
         style="font-style:normal;font-variant:normal;font-weight:normal;font-stretch:normal;font-size:medium;line-height:125%;font-family:Ubuntu;-inkscape-font-specification:Ubuntu;letter-spacing:0px;word-spacing:0px;fill:#000000;fill-opacity:1;stroke:none;stroke-width:1px;stroke-linecap:butt;stroke-linejoin:miter;stroke-opacity:1"
         id="path4263"
         inkscape:connector-curvature="0" />
      <path
         d="m 260.56384,159.46119 q -1.28,0.32 -3.4,0.68 -2.08,0.36 -4.84,0.36 -2.4,0 -4.04,-0.68 -1.64,-0.72 -2.64,-2 -1,-1.28 -1.44,-3 -0.44,-1.76 -0.44,-3.88 l 0,-11.68 3.72,0 0,10.88 q 0,3.8 1.2,5.44 1.2,1.64 4.04,1.64 0.6,0 1.24,-0.04 0.64,-0.04 1.2,-0.08 0.56,-0.08 1,-0.12 0.48,-0.08 0.68,-0.16 l 0,-17.56 3.72,0 0,20.2 z"
         style="font-style:normal;font-variant:normal;font-weight:normal;font-stretch:normal;font-size:medium;line-height:125%;font-family:Ubuntu;-inkscape-font-specification:Ubuntu;letter-spacing:0px;word-spacing:0px;fill:#000000;fill-opacity:1;stroke:none;stroke-width:1px;stroke-linecap:butt;stroke-linejoin:miter;stroke-opacity:1"
         id="path4265"
         inkscape:connector-curvature="0" />
      <path
         d="m 276.01259,160.54119 q -2.52,0 -4.44,-0.8 -1.88,-0.8 -3.2,-2.24 -1.28,-1.44 -1.92,-3.4 -0.64,-2 -0.64,-4.4 0,-2.4 0.68,-4.4 0.72,-2 2,-3.44 1.28,-1.48 3.12,-2.28 1.88,-0.84 4.16,-0.84 1.4,0 2.8,0.24 1.4,0.24 2.68,0.76 l -0.84,3.16 q -0.84,-0.4 -1.96,-0.64 -1.08,-0.24 -2.32,-0.24 -3.12,0 -4.8,1.96 -1.64,1.96 -1.64,5.72 0,1.68 0.36,3.08 0.4,1.4 1.2,2.4 0.84,1 2.12,1.56 1.28,0.52 3.12,0.52 1.48,0 2.68,-0.28 1.2,-0.28 1.88,-0.6 l 0.52,3.12 q -0.32,0.2 -0.92,0.4 -0.6,0.16 -1.36,0.28 -0.76,0.16 -1.64,0.24 -0.84,0.12 -1.64,0.12 z"
         style="font-style:normal;font-variant:normal;font-weight:normal;font-stretch:normal;font-size:medium;line-height:125%;font-family:Ubuntu;-inkscape-font-specification:Ubuntu;letter-spacing:0px;word-spacing:0px;fill:#000000;fill-opacity:1;stroke:none;stroke-width:1px;stroke-linecap:butt;stroke-linejoin:miter;stroke-opacity:1"
         id="path4267"
         inkscape:connector-curvature="0" />
      <path
         d="m 289.04634,139.26119 7.88,0 0,3.12 -7.88,0 0,9.6 q 0,1.56 0.24,2.6 0.24,1 0.72,1.6 0.48,0.56 1.2,0.8 0.72,0.24 1.68,0.24 1.68,0 2.68,-0.36 1.04,-0.4 1.44,-0.56 l 0.72,3.08 q -0.56,0.28 -1.96,0.68 -1.4,0.44 -3.2,0.44 -2.12,0 -3.52,-0.52 -1.36,-0.56 -2.2,-1.64 -0.84,-1.08 -1.2,-2.64 -0.32,-1.6 -0.32,-3.68 l 0,-18.56 3.72,-0.64 0,6.44 z"
         style="font-style:normal;font-variant:normal;font-weight:normal;font-stretch:normal;font-size:medium;line-height:125%;font-family:Ubuntu;-inkscape-font-specification:Ubuntu;letter-spacing:0px;word-spacing:0px;fill:#000000;fill-opacity:1;stroke:none;stroke-width:1px;stroke-linecap:butt;stroke-linejoin:miter;stroke-opacity:1"
         id="path4269"
         inkscape:connector-curvature="0" />
      <path
         d="m 309.27884,146.66119 q 0.96,0 1.64,-0.32 0.68,-0.36 1.12,-0.88 0.48,-0.56 0.68,-1.24 0.24,-0.72 0.24,-1.44 l 0,-7.2 q 0,-1.64 0.36,-2.92 0.36,-1.28 1.24,-2.12 0.88,-0.88 2.32,-1.32 1.48,-0.48 3.64,-0.48 l 0.16,0 0,2.92 q -2.28,0 -3.28,0.84 -0.96,0.8 -0.96,3.12 l 0,6.16 q 0,2.64 -0.72,4.08 -0.68,1.44 -1.96,2.24 1.28,0.8 1.96,2.24 0.72,1.44 0.72,4.08 l 0,6.16 q 0,2.32 0.96,3.12 1,0.84 3.28,0.84 l 0,2.92 -0.16,0 q -2.16,0 -3.64,-0.44 -1.44,-0.44 -2.32,-1.32 -0.88,-0.88 -1.24,-2.16 -0.36,-1.28 -0.36,-2.92 l 0,-7.2 q 0,-0.72 -0.24,-1.4 -0.2,-0.72 -0.68,-1.24 -0.44,-0.56 -1.12,-0.88 -0.68,-0.36 -1.64,-0.36 l 0,-2.88 z"
         style="font-style:normal;font-variant:normal;font-weight:normal;font-stretch:normal;font-size:medium;line-height:125%;font-family:Ubuntu;-inkscape-font-specification:Ubuntu;letter-spacing:0px;word-spacing:0px;fill:#000000;fill-opacity:1;stroke:none;stroke-width:1px;stroke-linecap:butt;stroke-linejoin:miter;stroke-opacity:1"
         id="path4271"
         inkscape:connector-curvature="0" />
      <path
         d="m 240.54384,210.54119 q -2.52,0 -4.44,-0.8 -1.88,-0.8 -3.2,-2.24 -1.28,-1.44 -1.92,-3.4 -0.64,-2 -0.64,-4.4 0,-2.4 0.68,-4.4 0.72,-2 2,-3.44 1.28,-1.48 3.12,-2.28 1.88,-0.84 4.16,-0.84 1.4,0 2.8,0.24 1.4,0.24 2.68,0.76 l -0.84,3.16 q -0.84,-0.4 -1.96,-0.64 -1.08,-0.24 -2.32,-0.24 -3.12,0 -4.8,1.96 -1.64,1.96 -1.64,5.72 0,1.68 0.36,3.08 0.4,1.4 1.2,2.4 0.84,1 2.12,1.56 1.28,0.52 3.12,0.52 1.48,0 2.68,-0.28 1.2,-0.28 1.88,-0.6 l 0.52,3.12 q -0.32,0.2 -0.92,0.4 -0.6,0.16 -1.36,0.28 -0.76,0.16 -1.64,0.24 -0.84,0.12 -1.64,0.12 z"
         style="font-style:normal;font-variant:normal;font-weight:normal;font-stretch:normal;font-size:medium;line-height:125%;font-family:Ubuntu;-inkscape-font-specification:Ubuntu;letter-spacing:0px;word-spacing:0px;fill:#000080;fill-opacity:1;stroke:none;stroke-width:1px;stroke-linecap:butt;stroke-linejoin:miter;stroke-opacity:1"
         id="path4273"
         inkscape:connector-curvature="0" />
      <path
         d="m 250.09759,210.06119 0,-30.4 3.72,-0.64 0,10.64 q 1.04,-0.4 2.2,-0.6 1.2,-0.24 2.36,-0.24 2.48,0 4.12,0.72 1.64,0.68 2.6,1.96 1,1.24 1.4,3 0.4,1.76 0.4,3.88 l 0,11.68 -3.72,0 0,-10.88 q 0,-1.92 -0.28,-3.28 -0.24,-1.36 -0.84,-2.2 -0.6,-0.84 -1.6,-1.2 -1,-0.4 -2.48,-0.4 -0.6,0 -1.24,0.08 -0.64,0.08 -1.24,0.2 -0.56,0.08 -1.04,0.2 -0.44,0.12 -0.64,0.2 l 0,17.28 -3.72,0 z"
         style="font-style:normal;font-variant:normal;font-weight:normal;font-stretch:normal;font-size:medium;line-height:125%;font-family:Ubuntu;-inkscape-font-specification:Ubuntu;letter-spacing:0px;word-spacing:0px;fill:#000080;fill-opacity:1;stroke:none;stroke-width:1px;stroke-linecap:butt;stroke-linejoin:miter;stroke-opacity:1"
         id="path4275"
         inkscape:connector-curvature="0" />
      <path
         d="m 279.95009,207.38119 q 1.32,0 2.32,-0.04 1.04,-0.08 1.72,-0.24 l 0,-6.2 q -0.4,-0.2 -1.32,-0.32 -0.88,-0.16 -2.16,-0.16 -0.84,0 -1.8,0.12 -0.92,0.12 -1.72,0.52 -0.76,0.36 -1.28,1.04 -0.52,0.64 -0.52,1.72 0,2 1.28,2.8 1.28,0.76 3.48,0.76 z m -0.32,-18.64 q 2.24,0 3.76,0.6 1.56,0.56 2.48,1.64 0.96,1.04 1.36,2.52 0.4,1.44 0.4,3.2 l 0,13 q -0.48,0.08 -1.36,0.24 -0.84,0.12 -1.92,0.24 -1.08,0.12 -2.36,0.2 -1.24,0.12 -2.48,0.12 -1.76,0 -3.24,-0.36 -1.48,-0.36 -2.56,-1.12 -1.08,-0.8 -1.68,-2.08 -0.6,-1.28 -0.6,-3.08 0,-1.72 0.68,-2.96 0.72,-1.24 1.92,-2 1.2,-0.76 2.8,-1.12 1.6,-0.36 3.36,-0.36 0.56,0 1.16,0.08 0.6,0.04 1.12,0.16 0.56,0.08 0.96,0.16 0.4,0.08 0.56,0.12 l 0,-1.04 q 0,-0.92 -0.2,-1.8 -0.2,-0.92 -0.72,-1.6 -0.52,-0.72 -1.44,-1.12 -0.88,-0.44 -2.32,-0.44 -1.84,0 -3.24,0.28 -1.36,0.24 -2.04,0.52 l -0.44,-3.08 q 0.72,-0.32 2.4,-0.6 1.68,-0.32 3.64,-0.32 z"
         style="font-style:normal;font-variant:normal;font-weight:normal;font-stretch:normal;font-size:medium;line-height:125%;font-family:Ubuntu;-inkscape-font-specification:Ubuntu;letter-spacing:0px;word-spacing:0px;fill:#000080;fill-opacity:1;stroke:none;stroke-width:1px;stroke-linecap:butt;stroke-linejoin:miter;stroke-opacity:1"
         id="path4277"
         inkscape:connector-curvature="0" />
      <path
         d="m 301.44947,188.82119 q 0.48,0 1.08,0.08 0.64,0.04 1.24,0.16 0.6,0.08 1.08,0.2 0.52,0.08 0.76,0.16 l -0.64,3.24 q -0.44,-0.16 -1.48,-0.36 -1,-0.24 -2.6,-0.24 -1.04,0 -2.08,0.24 -1,0.2 -1.32,0.28 l 0,17.48 -3.72,0 0,-19.92 q 1.32,-0.48 3.28,-0.88 1.96,-0.44 4.4,-0.44 z"
         style="font-style:normal;font-variant:normal;font-weight:normal;font-stretch:normal;font-size:medium;line-height:125%;font-family:Ubuntu;-inkscape-font-specification:Ubuntu;letter-spacing:0px;word-spacing:0px;fill:#000080;fill-opacity:1;stroke:none;stroke-width:1px;stroke-linecap:butt;stroke-linejoin:miter;stroke-opacity:1"
         id="path4279"
         inkscape:connector-curvature="0" />
      <path
         d="m 325.49697,207.38119 q 1.32,0 2.32,-0.04 1.04,-0.08 1.72,-0.24 l 0,-6.2 q -0.4,-0.2 -1.32,-0.32 -0.88,-0.16 -2.16,-0.16 -0.84,0 -1.8,0.12 -0.92,0.12 -1.72,0.52 -0.76,0.36 -1.28,1.04 -0.52,0.64 -0.52,1.72 0,2 1.28,2.8 1.28,0.76 3.48,0.76 z m -0.32,-18.64 q 2.24,0 3.76,0.6 1.56,0.56 2.48,1.64 0.96,1.04 1.36,2.52 0.4,1.44 0.4,3.2 l 0,13 q -0.48,0.08 -1.36,0.24 -0.84,0.12 -1.92,0.24 -1.08,0.12 -2.36,0.2 -1.24,0.12 -2.48,0.12 -1.76,0 -3.24,-0.36 -1.48,-0.36 -2.56,-1.12 -1.08,-0.8 -1.68,-2.08 -0.6,-1.28 -0.6,-3.08 0,-1.72 0.68,-2.96 0.72,-1.24 1.92,-2 1.2,-0.76 2.8,-1.12 1.6,-0.36 3.36,-0.36 0.56,0 1.16,0.08 0.6,0.04 1.12,0.16 0.56,0.08 0.96,0.16 0.4,0.08 0.56,0.12 l 0,-1.04 q 0,-0.92 -0.2,-1.8 -0.2,-0.92 -0.72,-1.6 -0.52,-0.72 -1.44,-1.12 -0.88,-0.44 -2.32,-0.44 -1.84,0 -3.24,0.28 -1.36,0.24 -2.04,0.52 l -0.44,-3.08 q 0.72,-0.32 2.4,-0.6 1.68,-0.32 3.64,-0.32 z"
         style="font-style:normal;font-variant:normal;font-weight:normal;font-stretch:normal;font-size:medium;line-height:125%;font-family:Ubuntu;-inkscape-font-specification:Ubuntu;letter-spacing:0px;word-spacing:0px;fill:#000000;fill-opacity:1;stroke:none;stroke-width:1px;stroke-linecap:butt;stroke-linejoin:miter;stroke-opacity:1"
         id="path4281"
         inkscape:connector-curvature="0" />
      <path
         d="m 343.71634,207.90119 q 0,1.08 -0.72,1.88 -0.72,0.8 -1.96,0.8 -1.24,0 -1.96,-0.8 -0.72,-0.8 -0.72,-1.88 0,-1.08 0.72,-1.88 0.72,-0.8 1.96,-0.8 1.24,0 1.96,0.8 0.72,0.8 0.72,1.88 z m 0,-15.96 q 0,1.08 -0.72,1.88 -0.72,0.8 -1.96,0.8 -1.24,0 -1.96,-0.8 -0.72,-0.8 -0.72,-1.88 0,-1.08 0.72,-1.88 0.72,-0.8 1.96,-0.8 1.24,0 1.96,0.8 0.72,0.8 0.72,1.88 z"
         style="font-style:normal;font-variant:normal;font-weight:normal;font-stretch:normal;font-size:medium;line-height:125%;font-family:Ubuntu;-inkscape-font-specification:Ubuntu;letter-spacing:0px;word-spacing:0px;fill:#000000;fill-opacity:1;stroke:none;stroke-width:1px;stroke-linecap:butt;stroke-linejoin:miter;stroke-opacity:1"
         id="path4283"
         inkscape:connector-curvature="0" />
      <path
         d="m 364.64009,189.42119 q 0,1.44 -0.6,2.8 -0.56,1.32 -1.52,2.64 -0.96,1.28 -2.16,2.56 -1.2,1.24 -2.4,2.44 -0.68,0.68 -1.6,1.6 -0.88,0.92 -1.68,1.92 -0.8,1 -1.36,1.92 -0.52,0.92 -0.52,1.6 l 12.76,0 0,3.16 -16.8,0 q -0.04,-0.24 -0.04,-0.48 0,-0.24 0,-0.44 0,-1.88 0.6,-3.48 0.64,-1.64 1.64,-3.08 1,-1.44 2.24,-2.72 1.24,-1.28 2.44,-2.48 1,-0.96 1.88,-1.88 0.92,-0.96 1.6,-1.88 0.72,-0.96 1.12,-1.96 0.44,-1 0.44,-2.12 0,-1.2 -0.4,-2.04 -0.36,-0.84 -1,-1.4 -0.64,-0.56 -1.52,-0.8 -0.84,-0.28 -1.8,-0.28 -1.16,0 -2.12,0.32 -0.96,0.32 -1.72,0.76 -0.76,0.4 -1.28,0.88 -0.52,0.44 -0.8,0.68 l -1.84,-2.64 q 0.36,-0.4 1.08,-0.96 0.72,-0.6 1.72,-1.12 1,-0.52 2.24,-0.88 1.24,-0.36 2.68,-0.36 4.36,0 6.52,2.04 2.2,2 2.2,5.68 z"
         style="font-style:normal;font-variant:normal;font-weight:normal;font-stretch:normal;font-size:medium;line-height:125%;font-family:Ubuntu;-inkscape-font-specification:Ubuntu;letter-spacing:0px;word-spacing:0px;fill:#ff00ff;fill-opacity:1;stroke:none;stroke-width:1px;stroke-linecap:butt;stroke-linejoin:miter;stroke-opacity:1"
         id="path4285"
         inkscape:connector-curvature="0" />
      <path
         d="m 375.65822,205.50119 q 0.04,0.32 0.04,0.64 0,0.28 0,0.6 0,2.52 -0.76,4.96 -0.72,2.48 -2,4.72 l -2.88,-0.92 q 1,-2.04 1.32,-4.16 0.32,-2.08 0.32,-3.92 0,-0.52 -0.04,-1 0,-0.48 -0.04,-0.92 l 4.04,0 z"
         style="font-style:normal;font-variant:normal;font-weight:normal;font-stretch:normal;font-size:medium;line-height:125%;font-family:Ubuntu;-inkscape-font-specification:Ubuntu;letter-spacing:0px;word-spacing:0px;fill:#000000;fill-opacity:1;stroke:none;stroke-width:1px;stroke-linecap:butt;stroke-linejoin:miter;stroke-opacity:1"
         id="path4287"
         inkscape:connector-curvature="0" />
      <path
         d="m 449.57403,190.18119 q 0.68,-0.44 2.04,-0.92 1.4,-0.48 3.2,-0.48 2.24,0 3.96,0.8 1.76,0.8 2.96,2.24 1.2,1.44 1.8,3.44 0.64,2 0.64,4.4 0,2.52 -0.76,4.56 -0.72,2 -2.08,3.4 -1.36,1.4 -3.28,2.16 -1.92,0.76 -4.32,0.76 -2.6,0 -4.6,-0.36 -2,-0.36 -3.28,-0.72 l 0,-29.8 3.72,-0.64 0,11.16 z m 0,16.64 q 0.56,0.16 1.56,0.32 1.04,0.12 2.56,0.12 3,0 4.8,-1.96 1.8,-2 1.8,-5.64 0,-1.6 -0.32,-3 -0.32,-1.4 -1.04,-2.4 -0.72,-1.04 -1.88,-1.6 -1.12,-0.6 -2.72,-0.6 -1.52,0 -2.8,0.52 -1.28,0.52 -1.96,1.08 l 0,13.16 z"
         style="font-style:normal;font-variant:normal;font-weight:normal;font-stretch:normal;font-size:medium;line-height:125%;font-family:Ubuntu;-inkscape-font-specification:Ubuntu;letter-spacing:0px;word-spacing:0px;fill:#000000;fill-opacity:1;stroke:none;stroke-width:1px;stroke-linecap:butt;stroke-linejoin:miter;stroke-opacity:1"
         id="path4289"
         inkscape:connector-curvature="0" />
      <path
         d="m 473.84778,207.90119 q 0,1.08 -0.72,1.88 -0.72,0.8 -1.96,0.8 -1.24,0 -1.96,-0.8 -0.72,-0.8 -0.72,-1.88 0,-1.08 0.72,-1.88 0.72,-0.8 1.96,-0.8 1.24,0 1.96,0.8 0.72,0.8 0.72,1.88 z m 0,-15.96 q 0,1.08 -0.72,1.88 -0.72,0.8 -1.96,0.8 -1.24,0 -1.96,-0.8 -0.72,-0.8 -0.72,-1.88 0,-1.08 0.72,-1.88 0.72,-0.8 1.96,-0.8 1.24,0 1.96,0.8 0.72,0.8 0.72,1.88 z"
         style="font-style:normal;font-variant:normal;font-weight:normal;font-stretch:normal;font-size:medium;line-height:125%;font-family:Ubuntu;-inkscape-font-specification:Ubuntu;letter-spacing:0px;word-spacing:0px;fill:#000000;fill-opacity:1;stroke:none;stroke-width:1px;stroke-linecap:butt;stroke-linejoin:miter;stroke-opacity:1"
         id="path4291"
         inkscape:connector-curvature="0" />
      <path
         d="m 485.13153,207.34119 q 3.56,0 5.08,-1.4 1.56,-1.4 1.56,-3.76 0,-1.52 -0.64,-2.56 -0.64,-1.04 -1.68,-1.64 -1.04,-0.64 -2.44,-0.88 -1.36,-0.28 -2.8,-0.28 l -0.96,0 0,-3.04 1.32,0 q 1,0 2.04,-0.2 1.08,-0.2 1.96,-0.72 0.88,-0.52 1.44,-1.4 0.56,-0.92 0.56,-2.28 0,-1.12 -0.4,-1.92 -0.4,-0.8 -1.08,-1.32 -0.64,-0.52 -1.52,-0.72 -0.84,-0.24 -1.8,-0.24 -1.92,0 -3.28,0.56 -1.32,0.56 -2.24,1.16 l -1.44,-2.84 q 0.48,-0.32 1.2,-0.68 0.76,-0.4 1.68,-0.72 0.92,-0.32 1.96,-0.52 1.08,-0.24 2.24,-0.24 2.2,0 3.8,0.56 1.6,0.52 2.64,1.52 1.04,0.96 1.56,2.32 0.52,1.32 0.52,2.88 0,2.16 -1.24,3.72 -1.24,1.52 -3,2.32 1.08,0.32 2.08,0.92 1,0.6 1.72,1.52 0.76,0.92 1.2,2.12 0.48,1.2 0.48,2.68 0,1.8 -0.64,3.36 -0.6,1.52 -1.92,2.64 -1.28,1.12 -3.24,1.76 -1.96,0.64 -4.64,0.64 -1.04,0 -2.16,-0.16 -1.08,-0.16 -2.04,-0.4 -0.96,-0.24 -1.68,-0.48 -0.72,-0.24 -1.04,-0.4 l 0.72,-3.24 q 0.68,0.32 2.24,0.84 1.6,0.52 3.88,0.52 z"
         style="font-style:normal;font-variant:normal;font-weight:normal;font-stretch:normal;font-size:medium;line-height:125%;font-family:Ubuntu;-inkscape-font-specification:Ubuntu;letter-spacing:0px;word-spacing:0px;fill:#ff00ff;fill-opacity:1;stroke:none;stroke-width:1px;stroke-linecap:butt;stroke-linejoin:miter;stroke-opacity:1"
         id="path4293"
         inkscape:connector-curvature="0" />
      <path
         d="m 505.78965,205.50119 q 0.04,0.32 0.04,0.64 0,0.28 0,0.6 0,2.52 -0.76,4.96 -0.72,2.48 -2,4.72 l -2.88,-0.92 q 1,-2.04 1.32,-4.16 0.32,-2.08 0.32,-3.92 0,-0.52 -0.04,-1 0,-0.48 -0.04,-0.92 l 4.04,0 z"
         style="font-style:normal;font-variant:normal;font-weight:normal;font-stretch:normal;font-size:medium;line-height:125%;font-family:Ubuntu;-inkscape-font-specification:Ubuntu;letter-spacing:0px;word-spacing:0px;fill:#000000;fill-opacity:1;stroke:none;stroke-width:1px;stroke-linecap:butt;stroke-linejoin:miter;stroke-opacity:1"
         id="path4295"
         inkscape:connector-curvature="0" />
      <path
         d="m 529.97215,210.54119 q -2.52,0 -4.44,-0.8 -1.88,-0.8 -3.2,-2.24 -1.28,-1.44 -1.92,-3.4 -0.64,-2 -0.64,-4.4 0,-2.4 0.68,-4.4 0.72,-2 2,-3.44 1.28,-1.48 3.12,-2.28 1.88,-0.84 4.16,-0.84 1.4,0 2.8,0.24 1.4,0.24 2.68,0.76 l -0.84,3.16 q -0.84,-0.4 -1.96,-0.64 -1.08,-0.24 -2.32,-0.24 -3.12,0 -4.8,1.96 -1.64,1.96 -1.64,5.72 0,1.68 0.36,3.08 0.4,1.4 1.2,2.4 0.84,1 2.12,1.56 1.28,0.52 3.12,0.52 1.48,0 2.68,-0.28 1.2,-0.28 1.88,-0.6 l 0.52,3.12 q -0.32,0.2 -0.92,0.4 -0.6,0.16 -1.36,0.28 -0.76,0.16 -1.64,0.24 -0.84,0.12 -1.64,0.12 z"
         style="font-style:normal;font-variant:normal;font-weight:normal;font-stretch:normal;font-size:medium;line-height:125%;font-family:Ubuntu;-inkscape-font-specification:Ubuntu;letter-spacing:0px;word-spacing:0px;fill:#000000;fill-opacity:1;stroke:none;stroke-width:1px;stroke-linecap:butt;stroke-linejoin:miter;stroke-opacity:1"
         id="path4297"
         inkscape:connector-curvature="0" />
      <path
         d="m 543.9259,207.90119 q 0,1.08 -0.72,1.88 -0.72,0.8 -1.96,0.8 -1.24,0 -1.96,-0.8 -0.72,-0.8 -0.72,-1.88 0,-1.08 0.72,-1.88 0.72,-0.8 1.96,-0.8 1.24,0 1.96,0.8 0.72,0.8 0.72,1.88 z m 0,-15.96 q 0,1.08 -0.72,1.88 -0.72,0.8 -1.96,0.8 -1.24,0 -1.96,-0.8 -0.72,-0.8 -0.72,-1.88 0,-1.08 0.72,-1.88 0.72,-0.8 1.96,-0.8 1.24,0 1.96,0.8 0.72,0.8 0.72,1.88 z"
         style="font-style:normal;font-variant:normal;font-weight:normal;font-stretch:normal;font-size:medium;line-height:125%;font-family:Ubuntu;-inkscape-font-specification:Ubuntu;letter-spacing:0px;word-spacing:0px;fill:#000000;fill-opacity:1;stroke:none;stroke-width:1px;stroke-linecap:butt;stroke-linejoin:miter;stroke-opacity:1"
         id="path4299"
         inkscape:connector-curvature="0" />
      <path
         d="m 555.20965,207.34119 q 3.56,0 5.08,-1.4 1.56,-1.4 1.56,-3.76 0,-1.52 -0.64,-2.56 -0.64,-1.04 -1.68,-1.64 -1.04,-0.64 -2.44,-0.88 -1.36,-0.28 -2.8,-0.28 l -0.96,0 0,-3.04 1.32,0 q 1,0 2.04,-0.2 1.08,-0.2 1.96,-0.72 0.88,-0.52 1.44,-1.4 0.56,-0.92 0.56,-2.28 0,-1.12 -0.4,-1.92 -0.4,-0.8 -1.08,-1.32 -0.64,-0.52 -1.52,-0.72 -0.84,-0.24 -1.8,-0.24 -1.92,0 -3.28,0.56 -1.32,0.56 -2.24,1.16 l -1.44,-2.84 q 0.48,-0.32 1.2,-0.68 0.76,-0.4 1.68,-0.72 0.92,-0.32 1.96,-0.52 1.08,-0.24 2.24,-0.24 2.2,0 3.8,0.56 1.6,0.52 2.64,1.52 1.04,0.96 1.56,2.32 0.52,1.32 0.52,2.88 0,2.16 -1.24,3.72 -1.24,1.52 -3,2.32 1.08,0.32 2.08,0.92 1,0.6 1.72,1.52 0.76,0.92 1.2,2.12 0.48,1.2 0.48,2.68 0,1.8 -0.64,3.36 -0.6,1.52 -1.92,2.64 -1.28,1.12 -3.24,1.76 -1.96,0.64 -4.64,0.64 -1.04,0 -2.16,-0.16 -1.08,-0.16 -2.04,-0.4 -0.96,-0.24 -1.68,-0.48 -0.72,-0.24 -1.04,-0.4 l 0.72,-3.24 q 0.68,0.32 2.24,0.84 1.6,0.52 3.88,0.52 z"
         style="font-style:normal;font-variant:normal;font-weight:normal;font-stretch:normal;font-size:medium;line-height:125%;font-family:Ubuntu;-inkscape-font-specification:Ubuntu;letter-spacing:0px;word-spacing:0px;fill:#ff00ff;fill-opacity:1;stroke:none;stroke-width:1px;stroke-linecap:butt;stroke-linejoin:miter;stroke-opacity:1"
         id="path4301"
         inkscape:connector-curvature="0" />
      <path
         d="m 575.86778,205.50119 q 0.04,0.32 0.04,0.64 0,0.28 0,0.6 0,2.52 -0.76,4.96 -0.72,2.48 -2,4.72 l -2.88,-0.92 q 1,-2.04 1.32,-4.16 0.32,-2.08 0.32,-3.92 0,-0.52 -0.04,-1 0,-0.48 -0.04,-0.92 l 4.04,0 z m 0.48,-13.56 q 0,1.08 -0.72,1.88 -0.72,0.8 -1.96,0.8 -1.24,0 -1.96,-0.8 -0.72,-0.8 -0.72,-1.88 0,-1.08 0.72,-1.88 0.72,-0.8 1.96,-0.8 1.24,0 1.96,0.8 0.72,0.8 0.72,1.88 z"
         style="font-style:normal;font-variant:normal;font-weight:normal;font-stretch:normal;font-size:medium;line-height:125%;font-family:Ubuntu;-inkscape-font-specification:Ubuntu;letter-spacing:0px;word-spacing:0px;fill:#000000;fill-opacity:1;stroke:none;stroke-width:1px;stroke-linecap:butt;stroke-linejoin:miter;stroke-opacity:1"
         id="path4303"
         inkscape:connector-curvature="0" />
      <path
         d="m 203.14884,249.54119 q -0.96,0 -1.64,0.36 -0.68,0.32 -1.16,0.88 -0.44,0.52 -0.68,1.24 -0.2,0.68 -0.2,1.4 l 0,7.2 q 0,1.64 -0.36,2.92 -0.36,1.28 -1.24,2.16 -0.88,0.88 -2.36,1.32 -1.44,0.44 -3.6,0.44 l -0.16,0 0,-2.92 q 2.28,0 3.24,-0.84 1,-0.8 1,-3.12 l 0,-6.16 q 0,-2.64 0.68,-4.08 0.72,-1.44 2,-2.24 -1.28,-0.8 -2,-2.24 -0.68,-1.44 -0.68,-4.08 l 0,-6.16 q 0,-2.32 -1,-3.12 -0.96,-0.84 -3.24,-0.84 l 0,-2.92 0.16,0 q 2.16,0 3.6,0.48 1.48,0.44 2.36,1.32 0.88,0.84 1.24,2.12 0.36,1.28 0.36,2.92 l 0,7.2 q 0,0.72 0.2,1.44 0.24,0.68 0.68,1.24 0.48,0.52 1.16,0.88 0.68,0.32 1.64,0.32 l 0,2.88 z"
         style="font-style:normal;font-variant:normal;font-weight:normal;font-stretch:normal;font-size:medium;line-height:125%;font-family:Ubuntu;-inkscape-font-specification:Ubuntu;letter-spacing:0px;word-spacing:0px;fill:#000000;fill-opacity:1;stroke:none;stroke-width:1px;stroke-linecap:butt;stroke-linejoin:miter;stroke-opacity:1"
         id="path4305"
         inkscape:connector-curvature="0" />
      <path
         d="m 211.90822,255.50119 q 0.04,0.32 0.04,0.64 0,0.28 0,0.6 0,2.52 -0.76,4.96 -0.72,2.48 -2,4.72 l -2.88,-0.92 q 1,-2.04 1.32,-4.16 0.32,-2.08 0.32,-3.92 0,-0.52 -0.04,-1 0,-0.48 -0.04,-0.92 l 4.04,0 z m 0.48,-13.56 q 0,1.08 -0.72,1.88 -0.72,0.8 -1.96,0.8 -1.24,0 -1.96,-0.8 -0.72,-0.8 -0.72,-1.88 0,-1.08 0.72,-1.88 0.72,-0.8 1.96,-0.8 1.24,0 1.96,0.8 0.72,0.8 0.72,1.88 z"
         style="font-style:normal;font-variant:normal;font-weight:normal;font-stretch:normal;font-size:medium;line-height:125%;font-family:Ubuntu;-inkscape-font-specification:Ubuntu;letter-spacing:0px;word-spacing:0px;fill:#000000;fill-opacity:1;stroke:none;stroke-width:1px;stroke-linecap:butt;stroke-linejoin:miter;stroke-opacity:1"
         id="path4307"
         inkscape:connector-curvature="0" />
      <g
         transform="translate(37.88072,104.19089)"
         id="g4457">
        <path
           inkscape:connector-curvature="0"
           id="path4451"
           style="font-style:normal;font-variant:normal;font-weight:normal;font-stretch:normal;font-size:medium;line-height:125%;font-family:Ubuntu;-inkscape-font-specification:Ubuntu;letter-spacing:0px;word-spacing:0px;fill:#000000;fill-opacity:1;stroke:none;stroke-width:1px;stroke-linecap:butt;stroke-linejoin:miter;stroke-opacity:1"
           d="m 359.40134,103.5503 q 0,1.08 -0.72001,1.88 -0.71999,0.8 -1.95999,0.8 -1.24001,0 -1.96001,-0.8 -0.72,-0.8 -0.72,-1.88 0,-1.08 0.72,-1.88 0.72,-0.8 1.96001,-0.8 1.24,0 1.95999,0.8 0.72001,0.8 0.72001,1.88 z m 0,-15.959995 q 0,1.08 -0.72001,1.88 -0.71999,0.8 -1.95999,0.8 -1.24001,0 -1.96001,-0.8 -0.72,-0.8 -0.72,-1.88 0,-1.08 0.72,-1.88 0.72,-0.8 1.96001,-0.8 1.24,0 1.95999,0.8 0.72001,0.8 0.72001,1.88 z" />
        <path
           inkscape:connector-curvature="0"
           id="path4453"
           style="font-style:normal;font-variant:normal;font-weight:normal;font-stretch:normal;font-size:medium;line-height:125%;font-family:Ubuntu;-inkscape-font-specification:Ubuntu;letter-spacing:0px;word-spacing:0px;fill:#ff00ff;fill-opacity:1;stroke:none;stroke-width:1px;stroke-linecap:butt;stroke-linejoin:miter;stroke-opacity:1"
           d="m 363.64508,91.830305 q 0,-6.96 2.44,-10.72 2.48001,-3.76 6.84,-3.76 4.36,0 6.8,3.76 2.48,3.76 2.48,10.72 0,6.96 -2.48,10.719995 -2.44,3.76 -6.8,3.76 -4.35999,0 -6.84,-3.76 -2.44,-3.759995 -2.44,-10.719995 z m 14.64,0 q 0,-2.28 -0.27999,-4.32 -0.24001,-2.04 -0.88,-3.56 -0.60001,-1.52 -1.64001,-2.4 -1.04,-0.92 -2.56,-0.92 -1.52,0 -2.55999,0.92 -1.04001,0.88 -1.68,2.4 -0.60001,1.52 -0.88,3.56 -0.24,2.04 -0.24,4.32 0,2.28 0.24,4.32 0.27999,2.04 0.88,3.56 0.63999,1.519995 1.68,2.439995 1.03999,0.88 2.55999,0.88 1.52,0 2.56,-0.88 1.04,-0.92 1.64001,-2.439995 0.63999,-1.52 0.88,-3.56 0.27999,-2.04 0.27999,-4.32 z" />
      </g>
      <path
         inkscape:connector-curvature="0"
         id="path4632"
         style="font-style:normal;font-variant:normal;font-weight:normal;font-stretch:normal;font-size:medium;line-height:125%;font-family:Ubuntu;-inkscape-font-specification:Ubuntu;letter-spacing:0px;word-spacing:0px;fill:#000000;fill-opacity:1;stroke:none;stroke-width:1px;stroke-linecap:butt;stroke-linejoin:miter;stroke-opacity:1"
         d="m 429.70138,205.50119 q 0.04,0.32 0.04,0.64 0,0.28 0,0.6 0,2.52 -0.76,4.96 -0.72,2.48 -2,4.72 l -2.88,-0.92 q 1,-2.04 1.32,-4.16 0.32,-2.08 0.32,-3.92 0,-0.52 -0.04,-1 0,-0.48 -0.04,-0.92 l 4.04,0 z" />
    </g>
  </g>
</svg>
