<?xml version="1.0" encoding="UTF-8" standalone="no"?>
<!-- Created with Inkscape (http://www.inkscape.org/) -->

<svg
   xmlns:dc="http://purl.org/dc/elements/1.1/"
   xmlns:cc="http://creativecommons.org/ns#"
   xmlns:rdf="http://www.w3.org/1999/02/22-rdf-syntax-ns#"
   xmlns:svg="http://www.w3.org/2000/svg"
   xmlns="http://www.w3.org/2000/svg"
   xmlns:sodipodi="http://sodipodi.sourceforge.net/DTD/sodipodi-0.dtd"
   xmlns:inkscape="http://www.inkscape.org/namespaces/inkscape"
   width="359.21027mm"
   height="339.82428mm"
   viewBox="0 0 1272.7923 1204.1018"
   id="svg2"
   version="1.1"
   inkscape:version="0.91 r13725"
   sodipodi:docname="memoryoperation.svg">
  <defs
     id="defs4" />
  <sodipodi:namedview
     id="base"
     pagecolor="#ffffff"
     bordercolor="#666666"
     borderopacity="1.0"
     inkscape:pageopacity="0.0"
     inkscape:pageshadow="2"
     inkscape:zoom="0.49497475"
     inkscape:cx="480.63108"
     inkscape:cy="813.57931"
     inkscape:document-units="px"
     inkscape:current-layer="layer1"
     showgrid="false"
     inkscape:window-width="1301"
     inkscape:window-height="744"
     inkscape:window-x="65"
     inkscape:window-y="24"
     inkscape:window-maximized="1"
     fit-margin-top="0"
     fit-margin-left="0"
     fit-margin-right="0"
     fit-margin-bottom="0" />
  <metadata
     id="metadata7">
    <rdf:RDF>
      <cc:Work
         rdf:about="">
        <dc:format>image/svg+xml</dc:format>
        <dc:type
           rdf:resource="http://purl.org/dc/dcmitype/StillImage" />
        <dc:title></dc:title>
      </cc:Work>
    </rdf:RDF>
  </metadata>
  <g
     inkscape:label="Layer 1"
     inkscape:groupmode="layer"
     id="layer1"
     transform="translate(511.13718,-74.534546)">
    <g
       id="g4590">
      <rect
         style="opacity:1;fill:#b3b3b3;fill-opacity:1;stroke:none;stroke-width:5;stroke-miterlimit:4;stroke-dasharray:none;stroke-opacity:1"
         id="rect4326"
         width="1272.7922"
         height="1204.1018"
         x="-511.13718"
         y="74.534546" />
      <rect
         y="460.41281"
         x="-511.13718"
         height="387.89859"
         width="1272.7922"
         id="rect4324"
         style="opacity:1;fill:#e6e6e6;fill-opacity:1;stroke:none;stroke-width:5;stroke-miterlimit:4;stroke-dasharray:none;stroke-opacity:1" />
      <rect
         ry="13.088394"
         rx="6.1746407"
         y="337.82391"
         x="69.859192"
         height="74.790825"
         width="280.5051"
         id="rect4136"
         style="opacity:1;fill:#008000;fill-opacity:1;stroke:#004f00;stroke-width:4.49488974;stroke-miterlimit:4;stroke-dasharray:none;stroke-opacity:1" />
      <rect
         style="opacity:1;fill:#008000;fill-opacity:1;stroke:#004f00;stroke-width:4.49488974;stroke-miterlimit:4;stroke-dasharray:none;stroke-opacity:1"
         id="rect4138"
         width="280.5051"
         height="74.790825"
         x="-236.74719"
         y="337.82391"
         rx="6.1746407"
         ry="13.088394" />
      <rect
         ry="13.088394"
         rx="6.1746407"
         y="337.82391"
         x="373.38495"
         height="74.790825"
         width="280.5051"
         id="rect4140"
         style="opacity:1;fill:#008000;fill-opacity:1;stroke:#004f00;stroke-width:4.49488974;stroke-miterlimit:4;stroke-dasharray:none;stroke-opacity:1" />
      <g
         id="flowRoot4142"
         style="font-style:normal;font-variant:normal;font-weight:normal;font-stretch:normal;font-size:40px;line-height:125%;font-family:Umpush;-inkscape-font-specification:Umpush;letter-spacing:0px;word-spacing:0px;fill:#000000;fill-opacity:1;stroke:none;stroke-width:1px;stroke-linecap:butt;stroke-linejoin:miter;stroke-opacity:1"
         transform="translate(84.852813,-14.142136)">
        <path
           id="path4526"
           style="font-style:normal;font-variant:normal;font-weight:normal;font-stretch:normal;font-size:70px;font-family:'Ubuntu Condensed';-inkscape-font-specification:'Ubuntu Condensed, '"
           d="m -557.07812,403.45007 q -1.4,-5.04 -2.87,-9.66 -1.47001,-4.62 -2.87,-8.68 -1.33001,-4.13 -2.59001,-7.49 -1.26,-3.36 -2.30999,-5.88 -0.28,3.99 -0.49,8.82 -0.14,4.76 -0.35001,9.8 -0.13999,5.04 -0.27999,10.15 -0.07,5.04 -0.14,9.66 l -6.02,0 q 0.20999,-6.3 0.42,-12.67 0.21,-6.44 0.49,-12.6 0.35,-6.23 0.7,-12.11 0.42,-5.88 0.91,-11.13 l 6.23,0 q 1.26,3.01 2.87,7.21 1.60999,4.13 3.21999,8.68 1.68001,4.55 3.22,9.1 1.54,4.55 2.66,8.33 1.12,-3.78 2.59,-8.33 1.47001,-4.55 3.08001,-9.1 1.61,-4.55 3.15,-8.68 1.61,-4.2 2.87,-7.21 l 6.23,0 q 0.49,5.25 0.83999,11.13 0.42001,5.88 0.70001,12.11 0.35,6.16 0.56,12.6 0.20999,6.37 0.42,12.67 l -6.02,0 q -0.14,-4.62 -0.28,-9.73 -0.07,-5.11 -0.28001,-10.22 -0.14,-5.18 -0.35,-10.01 -0.20999,-4.9 -0.48999,-8.96 -0.63,1.75 -1.61,4.41 -0.91001,2.59 -1.96,5.67 -0.98001,3.08 -2.10001,6.37 -1.04999,3.22 -2.02999,6.23 -0.91,3.01 -1.68,5.53 -0.7,2.45 -1.12,3.99 l -5.32,0 z"
           inkscape:connector-curvature="0" />
        <path
           id="path4528"
           style="font-style:normal;font-variant:normal;font-weight:normal;font-stretch:normal;font-size:70px;font-family:'Ubuntu Condensed';-inkscape-font-specification:'Ubuntu Condensed, '"
           d="m -519.37875,393.58007 q 0.07,2.66 0.49,4.9 0.42,2.17 1.33,3.85 0.98,1.61 2.52,2.52 1.61,0.91 4.06,0.91 2.03,0 3.71,-0.56 1.75,-0.63 2.52,-1.05 l 1.12,4.83 q -0.91,0.63 -3.08,1.33 -2.1,0.77 -5.04,0.77 -3.85,0 -6.51,-1.4 -2.59,-1.4 -4.27,-3.92 -1.61,-2.52 -2.31,-6.02 -0.7,-3.5 -0.7,-7.7 0,-10.15 3.36,-14.84 3.36,-4.69 8.89,-4.69 6.23,0 8.82,4.69 2.59,4.69 2.59,13.16 0,0.77 0,1.61 0,0.77 -0.07,1.61 l -17.43,0 z m 6.09,-15.96 q -3.01,0 -4.41,3.01 -1.33,3.01 -1.61,8.05 l 11.13,0 q 0,-5.11 -1.05,-8.05 -1.05,-3.01 -4.06,-3.01 z"
           inkscape:connector-curvature="0" />
        <path
           id="path4530"
           style="font-style:normal;font-variant:normal;font-weight:normal;font-stretch:normal;font-size:70px;font-family:'Ubuntu Condensed';-inkscape-font-specification:'Ubuntu Condensed, '"
           d="m -493.02047,374.47007 q 2.45,-0.77 5.32,-1.26 2.87,-0.56 5.25,-0.56 2.45,0 4.41,0.63 2.03,0.63 3.57,2.1 1.82,-1.19 3.92,-1.96 2.1,-0.77 4.62,-0.77 2.52,0 4.55,0.77 2.1,0.7 3.57,2.45 1.47,1.75 2.31,4.76 0.84,2.94 0.84,7.35 l 0,22.19 -6.02,0 0,-21.7 q 0,-5.46 -1.26,-7.98 -1.26,-2.52 -4.76,-2.52 -1.33,0 -2.73,0.49 -1.33,0.49 -2.52,1.33 0.56,1.61 0.84,3.64 0.28,2.03 0.28,4.55 l 0,22.19 -6.02,0 0,-21.7 q 0,-5.46 -1.26,-7.98 -1.26,-2.52 -4.76,-2.52 -1.82,0 -4.13,0.7 l 0,31.5 -6.02,0 0,-35.7 z"
           inkscape:connector-curvature="0" />
        <path
           id="path4532"
           style="font-style:normal;font-variant:normal;font-weight:normal;font-stretch:normal;font-size:70px;font-family:'Ubuntu Condensed';-inkscape-font-specification:'Ubuntu Condensed, '"
           d="m -420.62187,391.83007 q 0,4.34 -0.77001,7.91 -0.76999,3.5 -2.38,6.02 -1.53999,2.52 -3.98999,3.92 -2.38001,1.4 -5.67,1.4 -3.29,0 -5.74,-1.4 -2.45,-1.4 -4.06,-3.92 -1.54001,-2.52 -2.31,-6.02 -0.77,-3.57 -0.77,-7.91 0,-4.27 0.77,-7.84 0.76999,-3.57 2.31,-6.09 1.61,-2.59 4.06,-3.99 2.45,-1.4 5.74,-1.4 3.28999,0 5.67,1.4 2.45,1.4 3.98999,3.99 1.61001,2.52 2.38,6.09 0.77001,3.57 0.77001,7.84 z m -6.3,0 q 0,-3.08 -0.35001,-5.6 -0.34999,-2.59 -1.12,-4.41 -0.76999,-1.89 -2.02999,-2.87 -1.26,-1.05 -3.01,-1.05 -1.82,0 -3.08,1.05 -1.19,0.98 -2.03,2.87 -0.77,1.82 -1.12,4.41 -0.35,2.52 -0.35,5.6 0,3.08 0.35,5.67 0.35,2.52 1.12,4.34 0.84,1.82 2.03,2.87 1.26,0.98 3.08,0.98 1.75,0 3.01,-0.98 1.26,-1.05 2.02999,-2.87 0.77001,-1.82 1.12,-4.34 0.35001,-2.59 0.35001,-5.67 z"
           inkscape:connector-curvature="0" />
        <path
           id="path4534"
           style="font-style:normal;font-variant:normal;font-weight:normal;font-stretch:normal;font-size:70px;font-family:'Ubuntu Condensed';-inkscape-font-specification:'Ubuntu Condensed, '"
           d="m -395.91953,378.88007 q -2.24,-0.98 -5.04,-0.98 -2.59,0 -4.83,0.91 l 0,31.36 -6.02,0 0,-35.14 q 2.03,-0.98 4.62,-1.61 2.66,-0.7 5.81,-0.7 1.68,0 3.36,0.21 1.68,0.21 3.15,0.77 l -1.05,5.18 z"
           inkscape:connector-curvature="0" />
        <path
           id="path4536"
           style="font-style:normal;font-variant:normal;font-weight:normal;font-stretch:normal;font-size:70px;font-family:'Ubuntu Condensed';-inkscape-font-specification:'Ubuntu Condensed, '"
           d="m -377.90984,402.54007 q 2.03,-7 3.71,-14.07 1.68,-7.07 3.22,-15.05 l 5.95,0 q -1.05,5.11 -2.31,10.08 -1.19,4.97 -2.52,9.59 -1.26,4.62 -2.59,8.75 -1.26,4.06 -2.38,7.42 -1.33,3.92 -2.59,6.58 -1.19,2.73 -2.66,4.34 -1.4,1.68 -3.08,2.38 -1.68,0.77 -3.99,0.77 -1.26,0 -2.52,-0.35 -1.26,-0.28 -2.1,-0.63 l 1.12,-4.9 q 1.82,0.77 3.43,0.77 2.03,0 3.29,-1.47 1.26,-1.47 2.45,-4.41 l 0.7,-1.75 q -1.33,-3.64 -2.73,-8.05 -1.33,-4.48 -2.66,-9.31 -1.26,-4.83 -2.45,-9.87 -1.19,-5.11 -2.17,-9.94 l 6.37,0 q 0.56,3.29 1.33,7.21 0.77,3.92 1.61,7.84 0.91,3.92 1.82,7.63 0.91,3.64 1.75,6.44 z"
           inkscape:connector-curvature="0" />
        <path
           id="path4538"
           style="font-style:normal;font-variant:normal;font-weight:normal;font-stretch:normal;font-size:70px;font-family:'Ubuntu Condensed';-inkscape-font-specification:'Ubuntu Condensed, '"
           d="m -351.76594,406.88007 q 0,1.61 -1.19,2.87 -1.12,1.26 -3.01,1.26 -1.89,0 -3.01,-1.26 -1.12,-1.26 -1.12,-2.87 0,-1.68 1.12,-2.94 1.12,-1.26 3.01,-1.26 1.89,0 3.01,1.26 1.19,1.26 1.19,2.94 z m 0,-30.17 q 0,1.61 -1.19,2.87 -1.12,1.26 -3.01,1.26 -1.89,0 -3.01,-1.26 -1.12,-1.26 -1.12,-2.87 0,-1.68 1.12,-2.94 1.12,-1.26 3.01,-1.26 1.89,0 3.01,1.26 1.19,1.26 1.19,2.94 z"
           inkscape:connector-curvature="0" />
      </g>
      <rect
         ry="13.0884"
         rx="6.1746402"
         y="98.778191"
         x="80.81221"
         height="76.771591"
         width="258.59906"
         id="rect4150"
         style="opacity:1;fill:#000080;fill-opacity:1;stroke:#000043;stroke-width:5;stroke-miterlimit:4;stroke-dasharray:none;stroke-opacity:1" />
      <g
         id="flowRoot4152"
         style="font-style:normal;font-variant:normal;font-weight:normal;font-stretch:normal;font-size:40px;line-height:125%;font-family:Umpush;-inkscape-font-specification:Umpush;letter-spacing:0px;word-spacing:0px;fill:#000000;fill-opacity:1;stroke:none;stroke-width:1px;stroke-linecap:butt;stroke-linejoin:miter;stroke-opacity:1"
         transform="translate(385.87827,-250.51783)">
        <path
           id="path4563"
           style="font-style:normal;font-variant:normal;font-weight:normal;font-stretch:normal;font-size:70px;font-family:'Ubuntu Condensed';-inkscape-font-specification:'Ubuntu Condensed, '"
           d="m -573.94812,362.36007 q 4.89999,-1.19 9.45,-1.19 3.64,0 6.57999,0.84 2.94001,0.84 5.04001,2.66 2.09999,1.82 3.21999,4.69 1.19001,2.87 1.19001,6.93 0,5.04 -1.96001,8.19 -1.88999,3.08 -5.17999,4.69 0.83999,1.4 2.1,3.85 1.32999,2.38 2.66,5.32 1.4,2.87 2.65999,5.95 1.33001,3.08 2.24001,5.88 l -6.3,0 q -0.77001,-2.1 -1.96,-4.76 -1.12,-2.66 -2.38,-5.25 -1.26,-2.66 -2.52,-5.04 -1.26,-2.45 -2.24,-4.13 -1.12,0.14 -2.31001,0.21 -1.18999,0.07 -2.38,0.07 l -1.75,0 0,18.9 -6.15999,0 0,-47.81 z m 6.15999,23.73 2.66001,0 q 4.82999,0 7.42,-2.17 2.59,-2.24 2.59,-7.63 0,-2.73 -0.7,-4.55 -0.63,-1.89 -1.89,-2.94 -1.19001,-1.12 -2.94001,-1.61 -1.67999,-0.49 -3.78,-0.49 -1.81999,0 -3.36,0.21 l 0,19.18 z"
           inkscape:connector-curvature="0" />
        <path
           id="path4565"
           style="font-style:normal;font-variant:normal;font-weight:normal;font-stretch:normal;font-size:70px;font-family:'Ubuntu Condensed';-inkscape-font-specification:'Ubuntu Condensed, '"
           d="m -535.64828,393.58007 q 0.07,2.66 0.49,4.9 0.42,2.17 1.33,3.85 0.98,1.61 2.52,2.52 1.61,0.91 4.06,0.91 2.03,0 3.71,-0.56 1.75,-0.63 2.52,-1.05 l 1.12,4.83 q -0.91,0.63 -3.08,1.33 -2.1,0.77 -5.04,0.77 -3.85,0 -6.51,-1.4 -2.59,-1.4 -4.27,-3.92 -1.61,-2.52 -2.31,-6.02 -0.7,-3.5 -0.7,-7.7 0,-10.15 3.36,-14.84 3.36,-4.69 8.89,-4.69 6.23,0 8.82,4.69 2.59,4.69 2.59,13.16 0,0.77 0,1.61 0,0.77 -0.07,1.61 l -17.43,0 z m 6.09,-15.96 q -3.01,0 -4.41,3.01 -1.33,3.01 -1.61,8.05 l 11.13,0 q 0,-5.11 -1.05,-8.05 -1.05,-3.01 -4.06,-3.01 z"
           inkscape:connector-curvature="0" />
        <path
           id="path4567"
           style="font-style:normal;font-variant:normal;font-weight:normal;font-stretch:normal;font-size:70px;font-family:'Ubuntu Condensed';-inkscape-font-specification:'Ubuntu Condensed, '"
           d="m -487.45,409.12007 q 0,3.92 -1.05,6.58 -0.98,2.73 -2.73,4.41 -1.75,1.68 -4.13,2.45 -2.31,0.77 -4.97,0.77 -2.24,0 -4.48,-0.49 -2.24,-0.49 -4.13,-1.47 l 1.26,-5.04 q 1.26,0.7 3.08,1.26 1.82,0.56 3.78,0.56 3.43,0 5.39,-1.96 1.96,-1.96 1.96,-6.72 l 0,-1.75 q -1.12,0.49 -2.38,0.84 -1.26,0.28 -2.87,0.28 -6.58,0 -9.66,-4.48 -3.01,-4.55 -3.01,-12.81 0,-4.41 0.77,-7.91 0.84,-3.57 2.52,-6.02 1.75,-2.52 4.48,-3.78 2.73,-1.33 6.65,-1.33 2.59,0 5.04,0.56 2.52,0.49 4.48,1.33 l 0,34.72 z m -6.02,-30.8 q -0.98,-0.28 -1.89,-0.35 -0.91,-0.14 -1.68,-0.14 -4.2,0 -6.16,3.22 -1.89,3.22 -1.89,10.5 0,6.58 1.89,9.31 1.89,2.66 5.39,2.66 1.19,0 2.24,-0.28 1.12,-0.28 2.1,-0.77 l 0,-24.15 z"
           inkscape:connector-curvature="0" />
        <path
           id="path4569"
           style="font-style:normal;font-variant:normal;font-weight:normal;font-stretch:normal;font-size:70px;font-family:'Ubuntu Condensed';-inkscape-font-specification:'Ubuntu Condensed, '"
           d="m -470.59422,410.17007 -6.02,0 0,-36.75 6.02,0 0,36.75 z m -3.01,-43.26 q -1.61,0 -2.8,-1.05 -1.12,-1.12 -1.12,-2.94 0,-1.82 1.12,-2.87 1.19,-1.12 2.8,-1.12 1.61,0 2.73,1.12 1.19,1.05 1.19,2.87 0,1.82 -1.19,2.94 -1.12,1.05 -2.73,1.05 z"
           inkscape:connector-curvature="0" />
        <path
           id="path4571"
           style="font-style:normal;font-variant:normal;font-weight:normal;font-stretch:normal;font-size:70px;font-family:'Ubuntu Condensed';-inkscape-font-specification:'Ubuntu Condensed, '"
           d="m -454.55109,405.90007 q 2.66,0 3.99,-1.47 1.4,-1.54 1.4,-3.99 0,-1.54 -0.56,-2.59 -0.56,-1.12 -1.47,-1.96 -0.91,-0.84 -2.1,-1.47 -1.19,-0.7 -2.38,-1.47 -1.19,-0.7 -2.31,-1.61 -1.12,-0.98 -2.03,-2.17 -0.84,-1.26 -1.4,-2.8 -0.49,-1.61 -0.49,-3.71 0,-4.55 2.8,-7.35 2.87,-2.8 7.7,-2.8 2.03,0 3.85,0.56 1.82,0.49 3.01,1.12 l -1.33,4.83 q -1.26,-0.7 -2.52,-1.05 -1.26,-0.35 -2.73,-0.35 -2.24,0 -3.57,1.33 -1.33,1.26 -1.33,3.71 0,1.4 0.49,2.45 0.49,0.98 1.26,1.82 0.84,0.77 1.82,1.47 1.05,0.7 2.17,1.33 1.33,0.77 2.59,1.68 1.33,0.91 2.31,2.17 1.05,1.19 1.68,2.87 0.63,1.61 0.63,3.92 0,4.83 -2.87,7.77 -2.8,2.94 -8.26,2.94 -2.8,0 -5.04,-0.77 -2.24,-0.77 -3.36,-1.4 l 1.26,-4.97 q 1.05,0.56 2.8,1.26 1.82,0.7 3.99,0.7 z"
           inkscape:connector-curvature="0" />
        <path
           id="path4573"
           style="font-style:normal;font-variant:normal;font-weight:normal;font-stretch:normal;font-size:70px;font-family:'Ubuntu Condensed';-inkscape-font-specification:'Ubuntu Condensed, '"
           d="m -430.13531,373.42007 9.24,0 0,5.18 -9.24,0 0,20.23 q 0,3.78 1.33,5.32 1.4,1.47 3.71,1.47 1.19,0 2.24,-0.35 1.12,-0.35 1.89,-0.84 l 1.19,4.83 q -2.87,1.68 -6.09,1.68 -5.18,0 -7.77,-2.87 -2.52,-2.94 -2.52,-9.66 l 0,-34.86 6.02,-1.05 0,10.92 z"
           inkscape:connector-curvature="0" />
        <path
           id="path4575"
           style="font-style:normal;font-variant:normal;font-weight:normal;font-stretch:normal;font-size:70px;font-family:'Ubuntu Condensed';-inkscape-font-specification:'Ubuntu Condensed, '"
           d="m -409.59359,393.58007 q 0.07,2.66 0.49,4.9 0.42,2.17 1.33,3.85 0.98,1.61 2.52,2.52 1.61,0.91 4.06,0.91 2.03,0 3.71,-0.56 1.75,-0.63 2.52,-1.05 l 1.12,4.83 q -0.91,0.63 -3.08,1.33 -2.1,0.77 -5.04,0.77 -3.85,0 -6.51,-1.4 -2.59,-1.4 -4.27,-3.92 -1.61,-2.52 -2.31,-6.02 -0.7,-3.5 -0.7,-7.7 0,-10.15 3.36,-14.84 3.36,-4.69 8.89,-4.69 6.23,0 8.82,4.69 2.59,4.69 2.59,13.16 0,0.77 0,1.61 0,0.77 -0.07,1.61 l -17.43,0 z m 6.09,-15.96 q -3.01,0 -4.41,3.01 -1.33,3.01 -1.61,8.05 l 11.13,0 q 0,-5.11 -1.05,-8.05 -1.05,-3.01 -4.06,-3.01 z"
           inkscape:connector-curvature="0" />
        <path
           id="path4577"
           style="font-style:normal;font-variant:normal;font-weight:normal;font-stretch:normal;font-size:70px;font-family:'Ubuntu Condensed';-inkscape-font-specification:'Ubuntu Condensed, '"
           d="m -367.34531,378.88007 q -2.24,-0.98 -5.04,-0.98 -2.59,0 -4.83,0.91 l 0,31.36 -6.02,0 0,-35.14 q 2.03,-0.98 4.62,-1.61 2.66,-0.7 5.81,-0.7 1.68,0 3.36,0.21 1.68,0.21 3.15,0.77 l -1.05,5.18 z"
           inkscape:connector-curvature="0" />
        <path
           id="path4579"
           style="font-style:normal;font-variant:normal;font-weight:normal;font-stretch:normal;font-size:70px;font-family:'Ubuntu Condensed';-inkscape-font-specification:'Ubuntu Condensed, '"
           d="m -353.40656,406.88007 q 0,1.61 -1.19,2.87 -1.12,1.26 -3.01,1.26 -1.89,0 -3.01,-1.26 -1.12,-1.26 -1.12,-2.87 0,-1.68 1.12,-2.94 1.12,-1.26 3.01,-1.26 1.89,0 3.01,1.26 1.19,1.26 1.19,2.94 z m 0,-30.17 q 0,1.61 -1.19,2.87 -1.12,1.26 -3.01,1.26 -1.89,0 -3.01,-1.26 -1.12,-1.26 -1.12,-2.87 0,-1.68 1.12,-2.94 1.12,-1.26 3.01,-1.26 1.89,0 3.01,1.26 1.19,1.26 1.19,2.94 z"
           inkscape:connector-curvature="0" />
      </g>
      <path
         inkscape:connector-curvature="0"
         id="rect4160"
         d="m 205.93142,199.58042 -40.81861,40.81973 26.38795,0 0,79.66275 28.86244,0 0,-79.66275 26.38794,0 -40.81972,-40.81973 z"
         style="opacity:1;fill:#bb0000;fill-opacity:1;stroke:#800000;stroke-width:2.85733604;stroke-miterlimit:4;stroke-dasharray:none;stroke-opacity:1" />
      <g
         id="flowRoot4168"
         style="font-style:normal;font-weight:normal;font-size:40px;line-height:125%;font-family:sans-serif;letter-spacing:0px;word-spacing:0px;fill:#000000;fill-opacity:1;stroke:none;stroke-width:1px;stroke-linecap:butt;stroke-linejoin:miter;stroke-opacity:1"
         transform="translate(70.950178,-167.58556)">
        <path
           id="path4541"
           style="font-style:normal;font-variant:normal;font-weight:normal;font-stretch:normal;font-size:60px;font-family:'Ubuntu Condensed';-inkscape-font-specification:'Ubuntu Condensed, '"
           d="m 92.8125,559.63488 q 0.72,-2.4 1.5,-5.64 0.84,-3.24 1.62,-6.66 0.78,-3.48 1.44,-6.9 0.72,-3.42 1.2,-6.24 l 5.16,0 q -0.78,3.96 -1.86,8.34 -1.02,4.38 -2.16,8.64 -1.08,4.2 -2.22,7.98 -1.14,3.78 -2.1,6.54 l -5.34,0 q -0.96,-2.76 -2.1,-6.54 -1.14,-3.78 -2.28,-7.98 -1.08,-4.26 -2.16,-8.64 -1.02,-4.38 -1.8,-8.34 l 5.46,0 q 0.48,2.82 1.14,6.24 0.72,3.42 1.44,6.9 0.78,3.42 1.56,6.66 0.78,3.24 1.5,5.64 z"
           inkscape:connector-curvature="0" />
        <path
           id="path4543"
           style="font-style:normal;font-variant:normal;font-weight:normal;font-stretch:normal;font-size:60px;font-family:'Ubuntu Condensed';-inkscape-font-specification:'Ubuntu Condensed, '"
           d="m 109.17562,534.85488 q 1.56001,-0.66 3.30001,-1.02 1.74,-0.42 3.77999,-0.42 4.2,0 6.84,2.64 2.64001,2.58 2.64001,8.1 l 0,20.88 q -2.16,0.6 -4.44,0.96 -2.22,0.36 -4.38,0.36 -2.16001,0 -4.08001,-0.54 -1.86,-0.54 -3.3,-1.74 -1.37999,-1.2 -2.22,-3 -0.84,-1.86 -0.84,-4.5 0,-2.46 0.72001,-4.26 0.77999,-1.86 2.1,-3.06 1.31999,-1.26 3.12,-1.86 1.8,-0.66 3.89999,-0.66 1.98001,0 4.38001,0.48 l 0,-2.88 q 0,-3.48 -1.38001,-4.86 -1.31999,-1.38 -3.83999,-1.38 -1.38001,0 -2.64001,0.3 -1.19999,0.24 -2.58,0.84 l -1.08,-4.38 z m 2.46001,21.66 q 0,2.76 1.44,4.08 1.44,1.32 4.08,1.32 1.62,0 3.54,-0.42 l 0,-10.02 q -1.80001,-0.48 -3.54,-0.48 -1.14,0 -2.16,0.3 -1.02,0.24 -1.8,0.9 -0.72,0.6 -1.14,1.68 -0.42,1.02 -0.42,2.64 z"
           inkscape:connector-curvature="0" />
        <path
           id="path4545"
           style="font-style:normal;font-variant:normal;font-weight:normal;font-stretch:normal;font-size:60px;font-family:'Ubuntu Condensed';-inkscape-font-specification:'Ubuntu Condensed, '"
           d="m 142.87125,566.29488 q -4.44,-0.12 -6.36,-2.16 -1.92,-2.1 -1.92,-6.6 l 0,-37.5 5.16,-0.9 0,38.52 q 0,2.1 0.84,3.06 0.84,0.9 2.94,1.26 l -0.66,4.32 z"
           inkscape:connector-curvature="0" />
        <path
           id="path4547"
           style="font-style:normal;font-variant:normal;font-weight:normal;font-stretch:normal;font-size:60px;font-family:'Ubuntu Condensed';-inkscape-font-specification:'Ubuntu Condensed, '"
           d="m 168.7425,564.79488 q -0.78,0.3 -1.92,0.6 -1.08,0.24 -2.34,0.42 -1.2,0.24 -2.46,0.36 -1.2,0.18 -2.22,0.18 -2.46,0 -4.5,-0.6 -2.04,-0.54 -3.48,-1.98 -1.44,-1.44 -2.22,-3.9 -0.78,-2.52 -0.78,-6.3 l 0,-19.38 5.16,0 0,19.2 q 0,4.62 1.38,6.54 1.44,1.86 4.32,1.86 0.96,0 1.92,-0.06 0.96,-0.12 1.98,-0.42 l 0,-27.12 5.16,0 0,30.6 z"
           inkscape:connector-curvature="0" />
        <path
           id="path4549"
           style="font-style:normal;font-variant:normal;font-weight:normal;font-stretch:normal;font-size:60px;font-family:'Ubuntu Condensed';-inkscape-font-specification:'Ubuntu Condensed, '"
           d="m 181.61062,551.47488 q 0.06,2.28 0.42,4.2 0.36,1.86 1.14,3.3 0.84,1.38 2.16,2.16 1.38,0.78 3.48,0.78 1.74,0 3.18,-0.48 1.5,-0.54 2.16,-0.9 l 0.96,4.14 q -0.78,0.54 -2.64,1.14 -1.8,0.66 -4.32,0.66 -3.3,0 -5.58,-1.2 -2.22,-1.2 -3.66,-3.36 -1.38,-2.16 -1.98,-5.16 -0.6,-3 -0.6,-6.6 0,-8.7 2.88,-12.72 2.88,-4.02 7.62,-4.02 5.34,0 7.56,4.02 2.22,4.02 2.22,11.28 0,0.66 0,1.38 0,0.66 -0.06,1.38 l -14.94,0 z m 5.22,-13.68 q -2.57999,0 -3.78,2.58 -1.14,2.58 -1.38,6.9 l 9.54,0 q 0,-4.38 -0.89999,-6.9 -0.90001,-2.58 -3.48001,-2.58 z"
           inkscape:connector-curvature="0" />
      </g>
      <g
         id="flowRoot4176"
         style="font-style:normal;font-variant:normal;font-weight:bold;font-stretch:normal;font-size:50px;line-height:125%;font-family:sans-serif;-inkscape-font-specification:'sans-serif Bold';letter-spacing:0px;word-spacing:0px;fill:#000000;fill-opacity:1;stroke:none;stroke-width:1px;stroke-linecap:butt;stroke-linejoin:miter;stroke-opacity:1"
         transform="translate(-570.62604,-426.28438)">
        <path
           id="path4582"
           style="font-style:normal;font-variant:normal;font-weight:bold;font-stretch:normal;font-size:50px;font-family:sans-serif;-inkscape-font-specification:'sans-serif Bold'"
           d="m 98.756836,534.40875 q 2.954104,0 4.223634,-1.09864 1.29394,-1.09863 1.29394,-3.61328 0,-2.49023 -1.29394,-3.56445 -1.26953,-1.07422 -4.223634,-1.07422 l -3.955078,0 0,9.35059 3.955078,0 z m -3.955078,6.49414 0,13.79394 -9.399414,0 0,-36.45019 14.355468,0 q 7.202148,0 10.546878,2.41699 3.36914,2.41699 3.36914,7.6416 0,3.61328 -1.75781,5.93262 -1.7334,2.31933 -5.24903,3.41797 1.92871,0.43945 3.44239,2.00195 1.53808,1.53809 3.10058,4.6875 l 5.10254,10.35156 -10.00977,0 -4.44335,-9.05761 q -1.34278,-2.73438 -2.73438,-3.73536 -1.367188,-1.00097 -3.662109,-1.00097 l -2.661133,0 z"
           inkscape:connector-curvature="0" />
        <path
           id="path4584"
           style="font-style:normal;font-variant:normal;font-weight:bold;font-stretch:normal;font-size:50px;font-family:sans-serif;-inkscape-font-specification:'sans-serif Bold'"
           d="m 150.7832,540.95172 0,2.49023 -20.43457,0 q 0.31739,3.07617 2.22168,4.61426 1.9043,1.53808 5.32227,1.53808 2.75879,0 5.63965,-0.80566 2.90527,-0.83008 5.95703,-2.49023 l 0,6.73828 q -3.10059,1.17187 -6.20117,1.75781 -3.10059,0.61035 -6.20118,0.61035 -7.42187,0 -11.54785,-3.75976 -4.10156,-3.78418 -4.10156,-10.59571 0,-6.68945 4.02832,-10.52246 4.05273,-3.83301 11.13281,-3.83301 6.44532,0 10.30274,3.88184 3.88183,3.88184 3.88183,10.37598 z m -8.98437,-2.90528 q 0,-2.49023 -1.46485,-4.0039 -1.44043,-1.53809 -3.78418,-1.53809 -2.53906,0 -4.12597,1.44043 -1.58692,1.41602 -1.97754,4.10156 l 11.35254,0 z"
           inkscape:connector-curvature="0" />
        <path
           id="path4586"
           style="font-style:normal;font-variant:normal;font-weight:bold;font-stretch:normal;font-size:50px;font-family:sans-serif;-inkscape-font-specification:'sans-serif Bold'"
           d="m 169.63086,542.39215 q -2.73438,0 -4.12598,0.92773 -1.36718,0.92773 -1.36718,2.73437 0,1.66016 1.09863,2.61231 1.12304,0.92773 3.10058,0.92773 2.46582,0 4.15039,-1.75781 1.68457,-1.78223 1.68457,-4.44336 l 0,-1.00097 -4.54101,0 z m 13.35449,-3.2959 0,15.60058 -8.81348,0 0,-4.05273 q -1.75781,2.49023 -3.95507,3.63769 -2.19727,1.12305 -5.34668,1.12305 -4.24805,0 -6.90918,-2.46582 -2.63672,-2.49023 -2.63672,-6.44531 0,-4.80957 3.2959,-7.05567 3.32031,-2.24609 10.40039,-2.24609 l 5.15136,0 0,-0.68359 q 0,-2.0752 -1.63574,-3.02735 -1.63574,-0.97656 -5.10254,-0.97656 -2.80761,0 -5.22461,0.56152 -2.41699,0.56153 -4.49218,1.68457 l 0,-6.66504 q 2.80761,-0.68359 5.63965,-1.02539 2.83203,-0.36621 5.66406,-0.36621 7.39746,0 10.66894,2.92969 3.2959,2.90527 3.2959,9.47266 z"
           inkscape:connector-curvature="0" />
        <path
           id="path4588"
           style="font-style:normal;font-variant:normal;font-weight:bold;font-stretch:normal;font-size:50px;font-family:sans-serif;-inkscape-font-specification:'sans-serif Bold'"
           d="m 209.76758,531.35699 0,-14.64844 8.78906,0 0,37.98828 -8.78906,0 0,-3.95508 q -1.80664,2.417 -3.97949,3.54004 -2.17286,1.12305 -5.0293,1.12305 -5.05371,0 -8.30078,-4.00391 -3.24707,-4.02832 -3.24707,-10.35156 0,-6.32324 3.24707,-10.32715 3.24707,-4.02832 8.30078,-4.02832 2.83203,0 5.00488,1.14746 2.19727,1.12305 4.00391,3.51563 z m -5.76172,17.70019 q 2.80762,0 4.27246,-2.05078 1.48926,-2.05078 1.48926,-5.95703 0,-3.90625 -1.48926,-5.95703 -1.46484,-2.05078 -4.27246,-2.05078 -2.7832,0 -4.27246,2.05078 -1.46485,2.05078 -1.46485,5.95703 0,3.90625 1.46485,5.95703 1.48926,2.05078 4.27246,2.05078 z"
           inkscape:connector-curvature="0" />
      </g>
      <rect
         style="opacity:1;fill:#008000;fill-opacity:1;stroke:#004f00;stroke-width:4.49488974;stroke-miterlimit:4;stroke-dasharray:none;stroke-opacity:1"
         id="rect4184"
         width="280.5051"
         height="74.790825"
         x="69.859192"
         y="739.86462"
         rx="6.1746407"
         ry="13.088394" />
      <rect
         ry="13.088394"
         rx="6.1746407"
         y="739.86462"
         x="-236.74719"
         height="74.790825"
         width="280.5051"
         id="rect4186"
         style="opacity:1;fill:#008000;fill-opacity:1;stroke:#004f00;stroke-width:4.49488974;stroke-miterlimit:4;stroke-dasharray:none;stroke-opacity:1" />
      <rect
         style="opacity:1;fill:#008000;fill-opacity:1;stroke:#004f00;stroke-width:4.49488974;stroke-miterlimit:4;stroke-dasharray:none;stroke-opacity:1"
         id="rect4188"
         width="280.5051"
         height="74.790825"
         x="373.38495"
         y="739.86462"
         rx="6.1746407"
         ry="13.088394" />
      <g
         id="flowRoot4190"
         style="font-style:normal;font-variant:normal;font-weight:normal;font-stretch:normal;font-size:40px;line-height:125%;font-family:Umpush;-inkscape-font-specification:Umpush;letter-spacing:0px;word-spacing:0px;fill:#000000;fill-opacity:1;stroke:none;stroke-width:1px;stroke-linecap:butt;stroke-linejoin:miter;stroke-opacity:1"
         transform="translate(84.852813,387.89858)">
        <path
           id="path4451"
           style="font-style:normal;font-variant:normal;font-weight:normal;font-stretch:normal;font-size:70px;font-family:'Ubuntu Condensed';-inkscape-font-specification:'Ubuntu Condensed, '"
           d="m -557.07812,403.45007 q -1.4,-5.04 -2.87,-9.66 -1.47001,-4.62 -2.87,-8.68 -1.33001,-4.13 -2.59001,-7.49 -1.26,-3.36 -2.30999,-5.88 -0.28,3.99 -0.49,8.82 -0.14,4.76 -0.35001,9.8 -0.13999,5.04 -0.27999,10.15 -0.07,5.04 -0.14,9.66 l -6.02,0 q 0.20999,-6.3 0.42,-12.67 0.21,-6.44 0.49,-12.6 0.35,-6.23 0.7,-12.11 0.42,-5.88 0.91,-11.13 l 6.23,0 q 1.26,3.01 2.87,7.21 1.60999,4.13 3.21999,8.68 1.68001,4.55 3.22,9.1 1.54,4.55 2.66,8.33 1.12,-3.78 2.59,-8.33 1.47001,-4.55 3.08001,-9.1 1.61,-4.55 3.15,-8.68 1.61,-4.2 2.87,-7.21 l 6.23,0 q 0.49,5.25 0.83999,11.13 0.42001,5.88 0.70001,12.11 0.35,6.16 0.56,12.6 0.20999,6.37 0.42,12.67 l -6.02,0 q -0.14,-4.62 -0.28,-9.73 -0.07,-5.11 -0.28001,-10.22 -0.14,-5.18 -0.35,-10.01 -0.20999,-4.9 -0.48999,-8.96 -0.63,1.75 -1.61,4.41 -0.91001,2.59 -1.96,5.67 -0.98001,3.08 -2.10001,6.37 -1.04999,3.22 -2.02999,6.23 -0.91,3.01 -1.68,5.53 -0.7,2.45 -1.12,3.99 l -5.32,0 z"
           inkscape:connector-curvature="0" />
        <path
           id="path4453"
           style="font-style:normal;font-variant:normal;font-weight:normal;font-stretch:normal;font-size:70px;font-family:'Ubuntu Condensed';-inkscape-font-specification:'Ubuntu Condensed, '"
           d="m -519.37875,393.58007 q 0.07,2.66 0.49,4.9 0.42,2.17 1.33,3.85 0.98,1.61 2.52,2.52 1.61,0.91 4.06,0.91 2.03,0 3.71,-0.56 1.75,-0.63 2.52,-1.05 l 1.12,4.83 q -0.91,0.63 -3.08,1.33 -2.1,0.77 -5.04,0.77 -3.85,0 -6.51,-1.4 -2.59,-1.4 -4.27,-3.92 -1.61,-2.52 -2.31,-6.02 -0.7,-3.5 -0.7,-7.7 0,-10.15 3.36,-14.84 3.36,-4.69 8.89,-4.69 6.23,0 8.82,4.69 2.59,4.69 2.59,13.16 0,0.77 0,1.61 0,0.77 -0.07,1.61 l -17.43,0 z m 6.09,-15.96 q -3.01,0 -4.41,3.01 -1.33,3.01 -1.61,8.05 l 11.13,0 q 0,-5.11 -1.05,-8.05 -1.05,-3.01 -4.06,-3.01 z"
           inkscape:connector-curvature="0" />
        <path
           id="path4455"
           style="font-style:normal;font-variant:normal;font-weight:normal;font-stretch:normal;font-size:70px;font-family:'Ubuntu Condensed';-inkscape-font-specification:'Ubuntu Condensed, '"
           d="m -493.02047,374.47007 q 2.45,-0.77 5.32,-1.26 2.87,-0.56 5.25,-0.56 2.45,0 4.41,0.63 2.03,0.63 3.57,2.1 1.82,-1.19 3.92,-1.96 2.1,-0.77 4.62,-0.77 2.52,0 4.55,0.77 2.1,0.7 3.57,2.45 1.47,1.75 2.31,4.76 0.84,2.94 0.84,7.35 l 0,22.19 -6.02,0 0,-21.7 q 0,-5.46 -1.26,-7.98 -1.26,-2.52 -4.76,-2.52 -1.33,0 -2.73,0.49 -1.33,0.49 -2.52,1.33 0.56,1.61 0.84,3.64 0.28,2.03 0.28,4.55 l 0,22.19 -6.02,0 0,-21.7 q 0,-5.46 -1.26,-7.98 -1.26,-2.52 -4.76,-2.52 -1.82,0 -4.13,0.7 l 0,31.5 -6.02,0 0,-35.7 z"
           inkscape:connector-curvature="0" />
        <path
           id="path4457"
           style="font-style:normal;font-variant:normal;font-weight:normal;font-stretch:normal;font-size:70px;font-family:'Ubuntu Condensed';-inkscape-font-specification:'Ubuntu Condensed, '"
           d="m -420.62187,391.83007 q 0,4.34 -0.77001,7.91 -0.76999,3.5 -2.38,6.02 -1.53999,2.52 -3.98999,3.92 -2.38001,1.4 -5.67,1.4 -3.29,0 -5.74,-1.4 -2.45,-1.4 -4.06,-3.92 -1.54001,-2.52 -2.31,-6.02 -0.77,-3.57 -0.77,-7.91 0,-4.27 0.77,-7.84 0.76999,-3.57 2.31,-6.09 1.61,-2.59 4.06,-3.99 2.45,-1.4 5.74,-1.4 3.28999,0 5.67,1.4 2.45,1.4 3.98999,3.99 1.61001,2.52 2.38,6.09 0.77001,3.57 0.77001,7.84 z m -6.3,0 q 0,-3.08 -0.35001,-5.6 -0.34999,-2.59 -1.12,-4.41 -0.76999,-1.89 -2.02999,-2.87 -1.26,-1.05 -3.01,-1.05 -1.82,0 -3.08,1.05 -1.19,0.98 -2.03,2.87 -0.77,1.82 -1.12,4.41 -0.35,2.52 -0.35,5.6 0,3.08 0.35,5.67 0.35,2.52 1.12,4.34 0.84,1.82 2.03,2.87 1.26,0.98 3.08,0.98 1.75,0 3.01,-0.98 1.26,-1.05 2.02999,-2.87 0.77001,-1.82 1.12,-4.34 0.35001,-2.59 0.35001,-5.67 z"
           inkscape:connector-curvature="0" />
        <path
           id="path4459"
           style="font-style:normal;font-variant:normal;font-weight:normal;font-stretch:normal;font-size:70px;font-family:'Ubuntu Condensed';-inkscape-font-specification:'Ubuntu Condensed, '"
           d="m -395.91953,378.88007 q -2.24,-0.98 -5.04,-0.98 -2.59,0 -4.83,0.91 l 0,31.36 -6.02,0 0,-35.14 q 2.03,-0.98 4.62,-1.61 2.66,-0.7 5.81,-0.7 1.68,0 3.36,0.21 1.68,0.21 3.15,0.77 l -1.05,5.18 z"
           inkscape:connector-curvature="0" />
        <path
           id="path4461"
           style="font-style:normal;font-variant:normal;font-weight:normal;font-stretch:normal;font-size:70px;font-family:'Ubuntu Condensed';-inkscape-font-specification:'Ubuntu Condensed, '"
           d="m -377.90984,402.54007 q 2.03,-7 3.71,-14.07 1.68,-7.07 3.22,-15.05 l 5.95,0 q -1.05,5.11 -2.31,10.08 -1.19,4.97 -2.52,9.59 -1.26,4.62 -2.59,8.75 -1.26,4.06 -2.38,7.42 -1.33,3.92 -2.59,6.58 -1.19,2.73 -2.66,4.34 -1.4,1.68 -3.08,2.38 -1.68,0.77 -3.99,0.77 -1.26,0 -2.52,-0.35 -1.26,-0.28 -2.1,-0.63 l 1.12,-4.9 q 1.82,0.77 3.43,0.77 2.03,0 3.29,-1.47 1.26,-1.47 2.45,-4.41 l 0.7,-1.75 q -1.33,-3.64 -2.73,-8.05 -1.33,-4.48 -2.66,-9.31 -1.26,-4.83 -2.45,-9.87 -1.19,-5.11 -2.17,-9.94 l 6.37,0 q 0.56,3.29 1.33,7.21 0.77,3.92 1.61,7.84 0.91,3.92 1.82,7.63 0.91,3.64 1.75,6.44 z"
           inkscape:connector-curvature="0" />
        <path
           id="path4463"
           style="font-style:normal;font-variant:normal;font-weight:normal;font-stretch:normal;font-size:70px;font-family:'Ubuntu Condensed';-inkscape-font-specification:'Ubuntu Condensed, '"
           d="m -351.76594,406.88007 q 0,1.61 -1.19,2.87 -1.12,1.26 -3.01,1.26 -1.89,0 -3.01,-1.26 -1.12,-1.26 -1.12,-2.87 0,-1.68 1.12,-2.94 1.12,-1.26 3.01,-1.26 1.89,0 3.01,1.26 1.19,1.26 1.19,2.94 z m 0,-30.17 q 0,1.61 -1.19,2.87 -1.12,1.26 -3.01,1.26 -1.89,0 -3.01,-1.26 -1.12,-1.26 -1.12,-2.87 0,-1.68 1.12,-2.94 1.12,-1.26 3.01,-1.26 1.89,0 3.01,1.26 1.19,1.26 1.19,2.94 z"
           inkscape:connector-curvature="0" />
      </g>
      <rect
         style="opacity:1;fill:#000080;fill-opacity:1;stroke:#000043;stroke-width:5;stroke-miterlimit:4;stroke-dasharray:none;stroke-opacity:1"
         id="rect4198"
         width="258.59906"
         height="76.771591"
         x="80.81221"
         y="500.81891"
         rx="6.1746402"
         ry="13.0884" />
      <g
         id="flowRoot4200"
         style="font-style:normal;font-variant:normal;font-weight:normal;font-stretch:normal;font-size:40px;line-height:125%;font-family:Umpush;-inkscape-font-specification:Umpush;letter-spacing:0px;word-spacing:0px;fill:#000000;fill-opacity:1;stroke:none;stroke-width:1px;stroke-linecap:butt;stroke-linejoin:miter;stroke-opacity:1"
         transform="translate(385.87827,151.52288)">
        <path
           id="path4494"
           style="font-style:normal;font-variant:normal;font-weight:normal;font-stretch:normal;font-size:70px;font-family:'Ubuntu Condensed';-inkscape-font-specification:'Ubuntu Condensed, '"
           d="m -573.94812,362.36007 q 4.89999,-1.19 9.45,-1.19 3.64,0 6.57999,0.84 2.94001,0.84 5.04001,2.66 2.09999,1.82 3.21999,4.69 1.19001,2.87 1.19001,6.93 0,5.04 -1.96001,8.19 -1.88999,3.08 -5.17999,4.69 0.83999,1.4 2.1,3.85 1.32999,2.38 2.66,5.32 1.4,2.87 2.65999,5.95 1.33001,3.08 2.24001,5.88 l -6.3,0 q -0.77001,-2.1 -1.96,-4.76 -1.12,-2.66 -2.38,-5.25 -1.26,-2.66 -2.52,-5.04 -1.26,-2.45 -2.24,-4.13 -1.12,0.14 -2.31001,0.21 -1.18999,0.07 -2.38,0.07 l -1.75,0 0,18.9 -6.15999,0 0,-47.81 z m 6.15999,23.73 2.66001,0 q 4.82999,0 7.42,-2.17 2.59,-2.24 2.59,-7.63 0,-2.73 -0.7,-4.55 -0.63,-1.89 -1.89,-2.94 -1.19001,-1.12 -2.94001,-1.61 -1.67999,-0.49 -3.78,-0.49 -1.81999,0 -3.36,0.21 l 0,19.18 z"
           inkscape:connector-curvature="0" />
        <path
           id="path4496"
           style="font-style:normal;font-variant:normal;font-weight:normal;font-stretch:normal;font-size:70px;font-family:'Ubuntu Condensed';-inkscape-font-specification:'Ubuntu Condensed, '"
           d="m -535.64828,393.58007 q 0.07,2.66 0.49,4.9 0.42,2.17 1.33,3.85 0.98,1.61 2.52,2.52 1.61,0.91 4.06,0.91 2.03,0 3.71,-0.56 1.75,-0.63 2.52,-1.05 l 1.12,4.83 q -0.91,0.63 -3.08,1.33 -2.1,0.77 -5.04,0.77 -3.85,0 -6.51,-1.4 -2.59,-1.4 -4.27,-3.92 -1.61,-2.52 -2.31,-6.02 -0.7,-3.5 -0.7,-7.7 0,-10.15 3.36,-14.84 3.36,-4.69 8.89,-4.69 6.23,0 8.82,4.69 2.59,4.69 2.59,13.16 0,0.77 0,1.61 0,0.77 -0.07,1.61 l -17.43,0 z m 6.09,-15.96 q -3.01,0 -4.41,3.01 -1.33,3.01 -1.61,8.05 l 11.13,0 q 0,-5.11 -1.05,-8.05 -1.05,-3.01 -4.06,-3.01 z"
           inkscape:connector-curvature="0" />
        <path
           id="path4498"
           style="font-style:normal;font-variant:normal;font-weight:normal;font-stretch:normal;font-size:70px;font-family:'Ubuntu Condensed';-inkscape-font-specification:'Ubuntu Condensed, '"
           d="m -487.45,409.12007 q 0,3.92 -1.05,6.58 -0.98,2.73 -2.73,4.41 -1.75,1.68 -4.13,2.45 -2.31,0.77 -4.97,0.77 -2.24,0 -4.48,-0.49 -2.24,-0.49 -4.13,-1.47 l 1.26,-5.04 q 1.26,0.7 3.08,1.26 1.82,0.56 3.78,0.56 3.43,0 5.39,-1.96 1.96,-1.96 1.96,-6.72 l 0,-1.75 q -1.12,0.49 -2.38,0.84 -1.26,0.28 -2.87,0.28 -6.58,0 -9.66,-4.48 -3.01,-4.55 -3.01,-12.81 0,-4.41 0.77,-7.91 0.84,-3.57 2.52,-6.02 1.75,-2.52 4.48,-3.78 2.73,-1.33 6.65,-1.33 2.59,0 5.04,0.56 2.52,0.49 4.48,1.33 l 0,34.72 z m -6.02,-30.8 q -0.98,-0.28 -1.89,-0.35 -0.91,-0.14 -1.68,-0.14 -4.2,0 -6.16,3.22 -1.89,3.22 -1.89,10.5 0,6.58 1.89,9.31 1.89,2.66 5.39,2.66 1.19,0 2.24,-0.28 1.12,-0.28 2.1,-0.77 l 0,-24.15 z"
           inkscape:connector-curvature="0" />
        <path
           id="path4500"
           style="font-style:normal;font-variant:normal;font-weight:normal;font-stretch:normal;font-size:70px;font-family:'Ubuntu Condensed';-inkscape-font-specification:'Ubuntu Condensed, '"
           d="m -470.59422,410.17007 -6.02,0 0,-36.75 6.02,0 0,36.75 z m -3.01,-43.26 q -1.61,0 -2.8,-1.05 -1.12,-1.12 -1.12,-2.94 0,-1.82 1.12,-2.87 1.19,-1.12 2.8,-1.12 1.61,0 2.73,1.12 1.19,1.05 1.19,2.87 0,1.82 -1.19,2.94 -1.12,1.05 -2.73,1.05 z"
           inkscape:connector-curvature="0" />
        <path
           id="path4502"
           style="font-style:normal;font-variant:normal;font-weight:normal;font-stretch:normal;font-size:70px;font-family:'Ubuntu Condensed';-inkscape-font-specification:'Ubuntu Condensed, '"
           d="m -454.55109,405.90007 q 2.66,0 3.99,-1.47 1.4,-1.54 1.4,-3.99 0,-1.54 -0.56,-2.59 -0.56,-1.12 -1.47,-1.96 -0.91,-0.84 -2.1,-1.47 -1.19,-0.7 -2.38,-1.47 -1.19,-0.7 -2.31,-1.61 -1.12,-0.98 -2.03,-2.17 -0.84,-1.26 -1.4,-2.8 -0.49,-1.61 -0.49,-3.71 0,-4.55 2.8,-7.35 2.87,-2.8 7.7,-2.8 2.03,0 3.85,0.56 1.82,0.49 3.01,1.12 l -1.33,4.83 q -1.26,-0.7 -2.52,-1.05 -1.26,-0.35 -2.73,-0.35 -2.24,0 -3.57,1.33 -1.33,1.26 -1.33,3.71 0,1.4 0.49,2.45 0.49,0.98 1.26,1.82 0.84,0.77 1.82,1.47 1.05,0.7 2.17,1.33 1.33,0.77 2.59,1.68 1.33,0.91 2.31,2.17 1.05,1.19 1.68,2.87 0.63,1.61 0.63,3.92 0,4.83 -2.87,7.77 -2.8,2.94 -8.26,2.94 -2.8,0 -5.04,-0.77 -2.24,-0.77 -3.36,-1.4 l 1.26,-4.97 q 1.05,0.56 2.8,1.26 1.82,0.7 3.99,0.7 z"
           inkscape:connector-curvature="0" />
        <path
           id="path4504"
           style="font-style:normal;font-variant:normal;font-weight:normal;font-stretch:normal;font-size:70px;font-family:'Ubuntu Condensed';-inkscape-font-specification:'Ubuntu Condensed, '"
           d="m -430.13531,373.42007 9.24,0 0,5.18 -9.24,0 0,20.23 q 0,3.78 1.33,5.32 1.4,1.47 3.71,1.47 1.19,0 2.24,-0.35 1.12,-0.35 1.89,-0.84 l 1.19,4.83 q -2.87,1.68 -6.09,1.68 -5.18,0 -7.77,-2.87 -2.52,-2.94 -2.52,-9.66 l 0,-34.86 6.02,-1.05 0,10.92 z"
           inkscape:connector-curvature="0" />
        <path
           id="path4506"
           style="font-style:normal;font-variant:normal;font-weight:normal;font-stretch:normal;font-size:70px;font-family:'Ubuntu Condensed';-inkscape-font-specification:'Ubuntu Condensed, '"
           d="m -409.59359,393.58007 q 0.07,2.66 0.49,4.9 0.42,2.17 1.33,3.85 0.98,1.61 2.52,2.52 1.61,0.91 4.06,0.91 2.03,0 3.71,-0.56 1.75,-0.63 2.52,-1.05 l 1.12,4.83 q -0.91,0.63 -3.08,1.33 -2.1,0.77 -5.04,0.77 -3.85,0 -6.51,-1.4 -2.59,-1.4 -4.27,-3.92 -1.61,-2.52 -2.31,-6.02 -0.7,-3.5 -0.7,-7.7 0,-10.15 3.36,-14.84 3.36,-4.69 8.89,-4.69 6.23,0 8.82,4.69 2.59,4.69 2.59,13.16 0,0.77 0,1.61 0,0.77 -0.07,1.61 l -17.43,0 z m 6.09,-15.96 q -3.01,0 -4.41,3.01 -1.33,3.01 -1.61,8.05 l 11.13,0 q 0,-5.11 -1.05,-8.05 -1.05,-3.01 -4.06,-3.01 z"
           inkscape:connector-curvature="0" />
        <path
           id="path4508"
           style="font-style:normal;font-variant:normal;font-weight:normal;font-stretch:normal;font-size:70px;font-family:'Ubuntu Condensed';-inkscape-font-specification:'Ubuntu Condensed, '"
           d="m -367.34531,378.88007 q -2.24,-0.98 -5.04,-0.98 -2.59,0 -4.83,0.91 l 0,31.36 -6.02,0 0,-35.14 q 2.03,-0.98 4.62,-1.61 2.66,-0.7 5.81,-0.7 1.68,0 3.36,0.21 1.68,0.21 3.15,0.77 l -1.05,5.18 z"
           inkscape:connector-curvature="0" />
        <path
           id="path4510"
           style="font-style:normal;font-variant:normal;font-weight:normal;font-stretch:normal;font-size:70px;font-family:'Ubuntu Condensed';-inkscape-font-specification:'Ubuntu Condensed, '"
           d="m -353.40656,406.88007 q 0,1.61 -1.19,2.87 -1.12,1.26 -3.01,1.26 -1.89,0 -3.01,-1.26 -1.12,-1.26 -1.12,-2.87 0,-1.68 1.12,-2.94 1.12,-1.26 3.01,-1.26 1.89,0 3.01,1.26 1.19,1.26 1.19,2.94 z m 0,-30.17 q 0,1.61 -1.19,2.87 -1.12,1.26 -3.01,1.26 -1.89,0 -3.01,-1.26 -1.12,-1.26 -1.12,-2.87 0,-1.68 1.12,-2.94 1.12,-1.26 3.01,-1.26 1.89,0 3.01,1.26 1.19,1.26 1.19,2.94 z"
           inkscape:connector-curvature="0" />
      </g>
      <g
         id="flowRoot4218"
         style="font-style:normal;font-variant:normal;font-weight:bold;font-stretch:normal;font-size:50px;line-height:125%;font-family:sans-serif;-inkscape-font-specification:'sans-serif Bold';letter-spacing:0px;word-spacing:0px;fill:#000000;fill-opacity:1;stroke:none;stroke-width:1px;stroke-linecap:butt;stroke-linejoin:miter;stroke-opacity:1"
         transform="translate(-569.72604,-38.385807)">
        <path
           id="path4513"
           style="font-style:normal;font-variant:normal;font-weight:bold;font-stretch:normal;font-size:50px;font-family:sans-serif;-inkscape-font-specification:'sans-serif Bold'"
           d="m 85.402344,518.24664 11.96289,0 8.300786,19.50683 8.34961,-19.50683 11.93847,0 0,36.45019 -8.88672,0 0,-26.66015 -8.39843,19.65332 -5.95704,0 -8.398433,-19.65332 0,26.66015 -8.911133,0 0,-36.45019 z"
           inkscape:connector-curvature="0" />
        <path
           id="path4515"
           style="font-style:normal;font-variant:normal;font-weight:bold;font-stretch:normal;font-size:50px;font-family:sans-serif;-inkscape-font-specification:'sans-serif Bold'"
           d="m 147.8291,532.9439 q -2.90527,0 -4.44336,2.09961 -1.51367,2.0752 -1.51367,6.00586 0,3.93067 1.51367,6.03028 1.53809,2.07519 4.44336,2.07519 2.85645,0 4.37012,-2.07519 1.51367,-2.09961 1.51367,-6.03028 0,-3.93066 -1.51367,-6.00586 -1.51367,-2.09961 -4.37012,-2.09961 z m 0,-6.25 q 7.05567,0 11.01074,3.8086 3.9795,3.80859 3.9795,10.54687 0,6.73828 -3.9795,10.54688 -3.95507,3.80859 -11.01074,3.80859 -7.08008,0 -11.08398,-3.80859 -3.9795,-3.8086 -3.9795,-10.54688 0,-6.73828 3.9795,-10.54687 4.0039,-3.8086 11.08398,-3.8086 z"
           inkscape:connector-curvature="0" />
        <path
           id="path4517"
           style="font-style:normal;font-variant:normal;font-weight:bold;font-stretch:normal;font-size:50px;font-family:sans-serif;-inkscape-font-specification:'sans-serif Bold'"
           d="m 187.79492,531.35699 0,-14.64844 8.78906,0 0,37.98828 -8.78906,0 0,-3.95508 q -1.80664,2.417 -3.97949,3.54004 -2.17285,1.12305 -5.0293,1.12305 -5.05371,0 -8.30078,-4.00391 -3.24707,-4.02832 -3.24707,-10.35156 0,-6.32324 3.24707,-10.32715 3.24707,-4.02832 8.30078,-4.02832 2.83203,0 5.00489,1.14746 2.19726,1.12305 4.0039,3.51563 z m -5.76172,17.70019 q 2.80762,0 4.27246,-2.05078 1.48926,-2.05078 1.48926,-5.95703 0,-3.90625 -1.48926,-5.95703 -1.46484,-2.05078 -4.27246,-2.05078 -2.7832,0 -4.27246,2.05078 -1.46484,2.05078 -1.46484,5.95703 0,3.90625 1.46484,5.95703 1.48926,2.05078 4.27246,2.05078 z"
           inkscape:connector-curvature="0" />
        <path
           id="path4519"
           style="font-style:normal;font-variant:normal;font-weight:bold;font-stretch:normal;font-size:50px;font-family:sans-serif;-inkscape-font-specification:'sans-serif Bold'"
           d="m 205.03125,527.35308 8.74023,0 0,27.34375 -8.74023,0 0,-27.34375 z m 0,-10.64453 8.74023,0 0,7.12891 -8.74023,0 0,-7.12891 z"
           inkscape:connector-curvature="0" />
        <path
           id="path4521"
           style="font-style:normal;font-variant:normal;font-weight:bold;font-stretch:normal;font-size:50px;font-family:sans-serif;-inkscape-font-specification:'sans-serif Bold'"
           d="m 240.21191,516.70855 0,5.73731 -4.83398,0 q -1.85547,0 -2.58789,0.68359 -0.73242,0.65918 -0.73242,2.31934 l 0,1.90429 7.4707,0 0,6.25 -7.4707,0 0,21.09375 -8.74024,0 0,-21.09375 -4.3457,0 0,-6.25 4.3457,0 0,-1.90429 q 0,-4.46778 2.49024,-6.5918 2.49023,-2.14844 7.71484,-2.14844 l 6.68945,0 z"
           inkscape:connector-curvature="0" />
        <path
           id="path4523"
           style="font-style:normal;font-variant:normal;font-weight:bold;font-stretch:normal;font-size:50px;font-family:sans-serif;-inkscape-font-specification:'sans-serif Bold'"
           d="m 240.40723,527.35308 8.74023,0 7.34863,18.55469 6.25,-18.55469 8.74024,0 -11.49903,29.93164 q -1.73339,4.56543 -4.05273,6.37207 -2.29492,1.83106 -6.0791,1.83106 l -5.05371,0 0,-5.73731 2.73437,0 q 2.22168,0 3.22266,-0.708 1.02539,-0.70801 1.58691,-2.53907 l 0.24414,-0.75683 -12.18261,-28.39356 z"
           inkscape:connector-curvature="0" />
      </g>
      <rect
         style="opacity:1;fill:#008000;fill-opacity:1;stroke:#004f00;stroke-width:4.49488974;stroke-miterlimit:4;stroke-dasharray:none;stroke-opacity:1"
         id="rect4266"
         width="280.5051"
         height="74.790825"
         x="69.859192"
         y="1158.0677"
         rx="6.1746407"
         ry="13.088394" />
      <rect
         ry="13.088394"
         rx="6.1746407"
         y="1158.0677"
         x="-236.74719"
         height="74.790825"
         width="280.5051"
         id="rect4268"
         style="opacity:1;fill:#008000;fill-opacity:1;stroke:#004f00;stroke-width:4.49488974;stroke-miterlimit:4;stroke-dasharray:none;stroke-opacity:1" />
      <rect
         style="opacity:1;fill:#008000;fill-opacity:1;stroke:#004f00;stroke-width:4.49488974;stroke-miterlimit:4;stroke-dasharray:none;stroke-opacity:1"
         id="rect4270"
         width="280.5051"
         height="74.790825"
         x="373.38495"
         y="1158.0677"
         rx="6.1746407"
         ry="13.088394" />
      <g
         id="flowRoot4272"
         style="font-style:normal;font-variant:normal;font-weight:normal;font-stretch:normal;font-size:40px;line-height:125%;font-family:Umpush;-inkscape-font-specification:Umpush;letter-spacing:0px;word-spacing:0px;fill:#000000;fill-opacity:1;stroke:none;stroke-width:1px;stroke-linecap:butt;stroke-linejoin:miter;stroke-opacity:1"
         transform="translate(84.852813,802.96809)">
        <path
           id="path4372"
           style="font-style:normal;font-variant:normal;font-weight:normal;font-stretch:normal;font-size:70px;font-family:'Ubuntu Condensed';-inkscape-font-specification:'Ubuntu Condensed, '"
           d="m -557.07812,403.45007 q -1.4,-5.04 -2.87,-9.66 -1.47001,-4.62 -2.87,-8.68 -1.33001,-4.13 -2.59001,-7.49 -1.26,-3.36 -2.30999,-5.88 -0.28,3.99 -0.49,8.82 -0.14,4.76 -0.35001,9.8 -0.13999,5.04 -0.27999,10.15 -0.07,5.04 -0.14,9.66 l -6.02,0 q 0.20999,-6.3 0.42,-12.67 0.21,-6.44 0.49,-12.6 0.35,-6.23 0.7,-12.11 0.42,-5.88 0.91,-11.13 l 6.23,0 q 1.26,3.01 2.87,7.21 1.60999,4.13 3.21999,8.68 1.68001,4.55 3.22,9.1 1.54,4.55 2.66,8.33 1.12,-3.78 2.59,-8.33 1.47001,-4.55 3.08001,-9.1 1.61,-4.55 3.15,-8.68 1.61,-4.2 2.87,-7.21 l 6.23,0 q 0.49,5.25 0.83999,11.13 0.42001,5.88 0.70001,12.11 0.35,6.16 0.56,12.6 0.20999,6.37 0.42,12.67 l -6.02,0 q -0.14,-4.62 -0.28,-9.73 -0.07,-5.11 -0.28001,-10.22 -0.14,-5.18 -0.35,-10.01 -0.20999,-4.9 -0.48999,-8.96 -0.63,1.75 -1.61,4.41 -0.91001,2.59 -1.96,5.67 -0.98001,3.08 -2.10001,6.37 -1.04999,3.22 -2.02999,6.23 -0.91,3.01 -1.68,5.53 -0.7,2.45 -1.12,3.99 l -5.32,0 z"
           inkscape:connector-curvature="0" />
        <path
           id="path4374"
           style="font-style:normal;font-variant:normal;font-weight:normal;font-stretch:normal;font-size:70px;font-family:'Ubuntu Condensed';-inkscape-font-specification:'Ubuntu Condensed, '"
           d="m -519.37875,393.58007 q 0.07,2.66 0.49,4.9 0.42,2.17 1.33,3.85 0.98,1.61 2.52,2.52 1.61,0.91 4.06,0.91 2.03,0 3.71,-0.56 1.75,-0.63 2.52,-1.05 l 1.12,4.83 q -0.91,0.63 -3.08,1.33 -2.1,0.77 -5.04,0.77 -3.85,0 -6.51,-1.4 -2.59,-1.4 -4.27,-3.92 -1.61,-2.52 -2.31,-6.02 -0.7,-3.5 -0.7,-7.7 0,-10.15 3.36,-14.84 3.36,-4.69 8.89,-4.69 6.23,0 8.82,4.69 2.59,4.69 2.59,13.16 0,0.77 0,1.61 0,0.77 -0.07,1.61 l -17.43,0 z m 6.09,-15.96 q -3.01,0 -4.41,3.01 -1.33,3.01 -1.61,8.05 l 11.13,0 q 0,-5.11 -1.05,-8.05 -1.05,-3.01 -4.06,-3.01 z"
           inkscape:connector-curvature="0" />
        <path
           id="path4376"
           style="font-style:normal;font-variant:normal;font-weight:normal;font-stretch:normal;font-size:70px;font-family:'Ubuntu Condensed';-inkscape-font-specification:'Ubuntu Condensed, '"
           d="m -493.02047,374.47007 q 2.45,-0.77 5.32,-1.26 2.87,-0.56 5.25,-0.56 2.45,0 4.41,0.63 2.03,0.63 3.57,2.1 1.82,-1.19 3.92,-1.96 2.1,-0.77 4.62,-0.77 2.52,0 4.55,0.77 2.1,0.7 3.57,2.45 1.47,1.75 2.31,4.76 0.84,2.94 0.84,7.35 l 0,22.19 -6.02,0 0,-21.7 q 0,-5.46 -1.26,-7.98 -1.26,-2.52 -4.76,-2.52 -1.33,0 -2.73,0.49 -1.33,0.49 -2.52,1.33 0.56,1.61 0.84,3.64 0.28,2.03 0.28,4.55 l 0,22.19 -6.02,0 0,-21.7 q 0,-5.46 -1.26,-7.98 -1.26,-2.52 -4.76,-2.52 -1.82,0 -4.13,0.7 l 0,31.5 -6.02,0 0,-35.7 z"
           inkscape:connector-curvature="0" />
        <path
           id="path4378"
           style="font-style:normal;font-variant:normal;font-weight:normal;font-stretch:normal;font-size:70px;font-family:'Ubuntu Condensed';-inkscape-font-specification:'Ubuntu Condensed, '"
           d="m -420.62187,391.83007 q 0,4.34 -0.77001,7.91 -0.76999,3.5 -2.38,6.02 -1.53999,2.52 -3.98999,3.92 -2.38001,1.4 -5.67,1.4 -3.29,0 -5.74,-1.4 -2.45,-1.4 -4.06,-3.92 -1.54001,-2.52 -2.31,-6.02 -0.77,-3.57 -0.77,-7.91 0,-4.27 0.77,-7.84 0.76999,-3.57 2.31,-6.09 1.61,-2.59 4.06,-3.99 2.45,-1.4 5.74,-1.4 3.28999,0 5.67,1.4 2.45,1.4 3.98999,3.99 1.61001,2.52 2.38,6.09 0.77001,3.57 0.77001,7.84 z m -6.3,0 q 0,-3.08 -0.35001,-5.6 -0.34999,-2.59 -1.12,-4.41 -0.76999,-1.89 -2.02999,-2.87 -1.26,-1.05 -3.01,-1.05 -1.82,0 -3.08,1.05 -1.19,0.98 -2.03,2.87 -0.77,1.82 -1.12,4.41 -0.35,2.52 -0.35,5.6 0,3.08 0.35,5.67 0.35,2.52 1.12,4.34 0.84,1.82 2.03,2.87 1.26,0.98 3.08,0.98 1.75,0 3.01,-0.98 1.26,-1.05 2.02999,-2.87 0.77001,-1.82 1.12,-4.34 0.35001,-2.59 0.35001,-5.67 z"
           inkscape:connector-curvature="0" />
        <path
           id="path4380"
           style="font-style:normal;font-variant:normal;font-weight:normal;font-stretch:normal;font-size:70px;font-family:'Ubuntu Condensed';-inkscape-font-specification:'Ubuntu Condensed, '"
           d="m -395.91953,378.88007 q -2.24,-0.98 -5.04,-0.98 -2.59,0 -4.83,0.91 l 0,31.36 -6.02,0 0,-35.14 q 2.03,-0.98 4.62,-1.61 2.66,-0.7 5.81,-0.7 1.68,0 3.36,0.21 1.68,0.21 3.15,0.77 l -1.05,5.18 z"
           inkscape:connector-curvature="0" />
        <path
           id="path4382"
           style="font-style:normal;font-variant:normal;font-weight:normal;font-stretch:normal;font-size:70px;font-family:'Ubuntu Condensed';-inkscape-font-specification:'Ubuntu Condensed, '"
           d="m -377.90984,402.54007 q 2.03,-7 3.71,-14.07 1.68,-7.07 3.22,-15.05 l 5.95,0 q -1.05,5.11 -2.31,10.08 -1.19,4.97 -2.52,9.59 -1.26,4.62 -2.59,8.75 -1.26,4.06 -2.38,7.42 -1.33,3.92 -2.59,6.58 -1.19,2.73 -2.66,4.34 -1.4,1.68 -3.08,2.38 -1.68,0.77 -3.99,0.77 -1.26,0 -2.52,-0.35 -1.26,-0.28 -2.1,-0.63 l 1.12,-4.9 q 1.82,0.77 3.43,0.77 2.03,0 3.29,-1.47 1.26,-1.47 2.45,-4.41 l 0.7,-1.75 q -1.33,-3.64 -2.73,-8.05 -1.33,-4.48 -2.66,-9.31 -1.26,-4.83 -2.45,-9.87 -1.19,-5.11 -2.17,-9.94 l 6.37,0 q 0.56,3.29 1.33,7.21 0.77,3.92 1.61,7.84 0.91,3.92 1.82,7.63 0.91,3.64 1.75,6.44 z"
           inkscape:connector-curvature="0" />
        <path
           id="path4384"
           style="font-style:normal;font-variant:normal;font-weight:normal;font-stretch:normal;font-size:70px;font-family:'Ubuntu Condensed';-inkscape-font-specification:'Ubuntu Condensed, '"
           d="m -351.76594,406.88007 q 0,1.61 -1.19,2.87 -1.12,1.26 -3.01,1.26 -1.89,0 -3.01,-1.26 -1.12,-1.26 -1.12,-2.87 0,-1.68 1.12,-2.94 1.12,-1.26 3.01,-1.26 1.89,0 3.01,1.26 1.19,1.26 1.19,2.94 z m 0,-30.17 q 0,1.61 -1.19,2.87 -1.12,1.26 -3.01,1.26 -1.89,0 -3.01,-1.26 -1.12,-1.26 -1.12,-2.87 0,-1.68 1.12,-2.94 1.12,-1.26 3.01,-1.26 1.89,0 3.01,1.26 1.19,1.26 1.19,2.94 z"
           inkscape:connector-curvature="0" />
      </g>
      <rect
         style="opacity:1;fill:#000080;fill-opacity:1;stroke:#000043;stroke-width:5;stroke-miterlimit:4;stroke-dasharray:none;stroke-opacity:1"
         id="rect4280"
         width="258.59906"
         height="76.771591"
         x="80.81221"
         y="919.02203"
         rx="6.1746402"
         ry="13.0884" />
      <g
         id="flowRoot4282"
         style="font-style:normal;font-variant:normal;font-weight:normal;font-stretch:normal;font-size:40px;line-height:125%;font-family:Umpush;-inkscape-font-specification:Umpush;letter-spacing:0px;word-spacing:0px;fill:#000000;fill-opacity:1;stroke:none;stroke-width:1px;stroke-linecap:butt;stroke-linejoin:miter;stroke-opacity:1"
         transform="translate(385.87827,569.72604)">
        <path
           id="path4421"
           style="font-style:normal;font-variant:normal;font-weight:normal;font-stretch:normal;font-size:70px;font-family:'Ubuntu Condensed';-inkscape-font-specification:'Ubuntu Condensed, '"
           d="m -573.94812,362.36007 q 4.89999,-1.19 9.45,-1.19 3.64,0 6.57999,0.84 2.94001,0.84 5.04001,2.66 2.09999,1.82 3.21999,4.69 1.19001,2.87 1.19001,6.93 0,5.04 -1.96001,8.19 -1.88999,3.08 -5.17999,4.69 0.83999,1.4 2.1,3.85 1.32999,2.38 2.66,5.32 1.4,2.87 2.65999,5.95 1.33001,3.08 2.24001,5.88 l -6.3,0 q -0.77001,-2.1 -1.96,-4.76 -1.12,-2.66 -2.38,-5.25 -1.26,-2.66 -2.52,-5.04 -1.26,-2.45 -2.24,-4.13 -1.12,0.14 -2.31001,0.21 -1.18999,0.07 -2.38,0.07 l -1.75,0 0,18.9 -6.15999,0 0,-47.81 z m 6.15999,23.73 2.66001,0 q 4.82999,0 7.42,-2.17 2.59,-2.24 2.59,-7.63 0,-2.73 -0.7,-4.55 -0.63,-1.89 -1.89,-2.94 -1.19001,-1.12 -2.94001,-1.61 -1.67999,-0.49 -3.78,-0.49 -1.81999,0 -3.36,0.21 l 0,19.18 z"
           inkscape:connector-curvature="0" />
        <path
           id="path4423"
           style="font-style:normal;font-variant:normal;font-weight:normal;font-stretch:normal;font-size:70px;font-family:'Ubuntu Condensed';-inkscape-font-specification:'Ubuntu Condensed, '"
           d="m -535.64828,393.58007 q 0.07,2.66 0.49,4.9 0.42,2.17 1.33,3.85 0.98,1.61 2.52,2.52 1.61,0.91 4.06,0.91 2.03,0 3.71,-0.56 1.75,-0.63 2.52,-1.05 l 1.12,4.83 q -0.91,0.63 -3.08,1.33 -2.1,0.77 -5.04,0.77 -3.85,0 -6.51,-1.4 -2.59,-1.4 -4.27,-3.92 -1.61,-2.52 -2.31,-6.02 -0.7,-3.5 -0.7,-7.7 0,-10.15 3.36,-14.84 3.36,-4.69 8.89,-4.69 6.23,0 8.82,4.69 2.59,4.69 2.59,13.16 0,0.77 0,1.61 0,0.77 -0.07,1.61 l -17.43,0 z m 6.09,-15.96 q -3.01,0 -4.41,3.01 -1.33,3.01 -1.61,8.05 l 11.13,0 q 0,-5.11 -1.05,-8.05 -1.05,-3.01 -4.06,-3.01 z"
           inkscape:connector-curvature="0" />
        <path
           id="path4425"
           style="font-style:normal;font-variant:normal;font-weight:normal;font-stretch:normal;font-size:70px;font-family:'Ubuntu Condensed';-inkscape-font-specification:'Ubuntu Condensed, '"
           d="m -487.45,409.12007 q 0,3.92 -1.05,6.58 -0.98,2.73 -2.73,4.41 -1.75,1.68 -4.13,2.45 -2.31,0.77 -4.97,0.77 -2.24,0 -4.48,-0.49 -2.24,-0.49 -4.13,-1.47 l 1.26,-5.04 q 1.26,0.7 3.08,1.26 1.82,0.56 3.78,0.56 3.43,0 5.39,-1.96 1.96,-1.96 1.96,-6.72 l 0,-1.75 q -1.12,0.49 -2.38,0.84 -1.26,0.28 -2.87,0.28 -6.58,0 -9.66,-4.48 -3.01,-4.55 -3.01,-12.81 0,-4.41 0.77,-7.91 0.84,-3.57 2.52,-6.02 1.75,-2.52 4.48,-3.78 2.73,-1.33 6.65,-1.33 2.59,0 5.04,0.56 2.52,0.49 4.48,1.33 l 0,34.72 z m -6.02,-30.8 q -0.98,-0.28 -1.89,-0.35 -0.91,-0.14 -1.68,-0.14 -4.2,0 -6.16,3.22 -1.89,3.22 -1.89,10.5 0,6.58 1.89,9.31 1.89,2.66 5.39,2.66 1.19,0 2.24,-0.28 1.12,-0.28 2.1,-0.77 l 0,-24.15 z"
           inkscape:connector-curvature="0" />
        <path
           id="path4427"
           style="font-style:normal;font-variant:normal;font-weight:normal;font-stretch:normal;font-size:70px;font-family:'Ubuntu Condensed';-inkscape-font-specification:'Ubuntu Condensed, '"
           d="m -470.59422,410.17007 -6.02,0 0,-36.75 6.02,0 0,36.75 z m -3.01,-43.26 q -1.61,0 -2.8,-1.05 -1.12,-1.12 -1.12,-2.94 0,-1.82 1.12,-2.87 1.19,-1.12 2.8,-1.12 1.61,0 2.73,1.12 1.19,1.05 1.19,2.87 0,1.82 -1.19,2.94 -1.12,1.05 -2.73,1.05 z"
           inkscape:connector-curvature="0" />
        <path
           id="path4429"
           style="font-style:normal;font-variant:normal;font-weight:normal;font-stretch:normal;font-size:70px;font-family:'Ubuntu Condensed';-inkscape-font-specification:'Ubuntu Condensed, '"
           d="m -454.55109,405.90007 q 2.66,0 3.99,-1.47 1.4,-1.54 1.4,-3.99 0,-1.54 -0.56,-2.59 -0.56,-1.12 -1.47,-1.96 -0.91,-0.84 -2.1,-1.47 -1.19,-0.7 -2.38,-1.47 -1.19,-0.7 -2.31,-1.61 -1.12,-0.98 -2.03,-2.17 -0.84,-1.26 -1.4,-2.8 -0.49,-1.61 -0.49,-3.71 0,-4.55 2.8,-7.35 2.87,-2.8 7.7,-2.8 2.03,0 3.85,0.56 1.82,0.49 3.01,1.12 l -1.33,4.83 q -1.26,-0.7 -2.52,-1.05 -1.26,-0.35 -2.73,-0.35 -2.24,0 -3.57,1.33 -1.33,1.26 -1.33,3.71 0,1.4 0.49,2.45 0.49,0.98 1.26,1.82 0.84,0.77 1.82,1.47 1.05,0.7 2.17,1.33 1.33,0.77 2.59,1.68 1.33,0.91 2.31,2.17 1.05,1.19 1.68,2.87 0.63,1.61 0.63,3.92 0,4.83 -2.87,7.77 -2.8,2.94 -8.26,2.94 -2.8,0 -5.04,-0.77 -2.24,-0.77 -3.36,-1.4 l 1.26,-4.97 q 1.05,0.56 2.8,1.26 1.82,0.7 3.99,0.7 z"
           inkscape:connector-curvature="0" />
        <path
           id="path4431"
           style="font-style:normal;font-variant:normal;font-weight:normal;font-stretch:normal;font-size:70px;font-family:'Ubuntu Condensed';-inkscape-font-specification:'Ubuntu Condensed, '"
           d="m -430.13531,373.42007 9.24,0 0,5.18 -9.24,0 0,20.23 q 0,3.78 1.33,5.32 1.4,1.47 3.71,1.47 1.19,0 2.24,-0.35 1.12,-0.35 1.89,-0.84 l 1.19,4.83 q -2.87,1.68 -6.09,1.68 -5.18,0 -7.77,-2.87 -2.52,-2.94 -2.52,-9.66 l 0,-34.86 6.02,-1.05 0,10.92 z"
           inkscape:connector-curvature="0" />
        <path
           id="path4433"
           style="font-style:normal;font-variant:normal;font-weight:normal;font-stretch:normal;font-size:70px;font-family:'Ubuntu Condensed';-inkscape-font-specification:'Ubuntu Condensed, '"
           d="m -409.59359,393.58007 q 0.07,2.66 0.49,4.9 0.42,2.17 1.33,3.85 0.98,1.61 2.52,2.52 1.61,0.91 4.06,0.91 2.03,0 3.71,-0.56 1.75,-0.63 2.52,-1.05 l 1.12,4.83 q -0.91,0.63 -3.08,1.33 -2.1,0.77 -5.04,0.77 -3.85,0 -6.51,-1.4 -2.59,-1.4 -4.27,-3.92 -1.61,-2.52 -2.31,-6.02 -0.7,-3.5 -0.7,-7.7 0,-10.15 3.36,-14.84 3.36,-4.69 8.89,-4.69 6.23,0 8.82,4.69 2.59,4.69 2.59,13.16 0,0.77 0,1.61 0,0.77 -0.07,1.61 l -17.43,0 z m 6.09,-15.96 q -3.01,0 -4.41,3.01 -1.33,3.01 -1.61,8.05 l 11.13,0 q 0,-5.11 -1.05,-8.05 -1.05,-3.01 -4.06,-3.01 z"
           inkscape:connector-curvature="0" />
        <path
           id="path4435"
           style="font-style:normal;font-variant:normal;font-weight:normal;font-stretch:normal;font-size:70px;font-family:'Ubuntu Condensed';-inkscape-font-specification:'Ubuntu Condensed, '"
           d="m -367.34531,378.88007 q -2.24,-0.98 -5.04,-0.98 -2.59,0 -4.83,0.91 l 0,31.36 -6.02,0 0,-35.14 q 2.03,-0.98 4.62,-1.61 2.66,-0.7 5.81,-0.7 1.68,0 3.36,0.21 1.68,0.21 3.15,0.77 l -1.05,5.18 z"
           inkscape:connector-curvature="0" />
        <path
           id="path4437"
           style="font-style:normal;font-variant:normal;font-weight:normal;font-stretch:normal;font-size:70px;font-family:'Ubuntu Condensed';-inkscape-font-specification:'Ubuntu Condensed, '"
           d="m -353.40656,406.88007 q 0,1.61 -1.19,2.87 -1.12,1.26 -3.01,1.26 -1.89,0 -3.01,-1.26 -1.12,-1.26 -1.12,-2.87 0,-1.68 1.12,-2.94 1.12,-1.26 3.01,-1.26 1.89,0 3.01,1.26 1.19,1.26 1.19,2.94 z m 0,-30.17 q 0,1.61 -1.19,2.87 -1.12,1.26 -3.01,1.26 -1.89,0 -3.01,-1.26 -1.12,-1.26 -1.12,-2.87 0,-1.68 1.12,-2.94 1.12,-1.26 3.01,-1.26 1.89,0 3.01,1.26 1.19,1.26 1.19,2.94 z"
           inkscape:connector-curvature="0" />
      </g>
      <path
         style="opacity:1;fill:#bb0000;fill-opacity:1;stroke:#800000;stroke-width:2.85733604;stroke-miterlimit:4;stroke-dasharray:none;stroke-opacity:1"
         d="m 205.93142,1139.715 -40.81861,-40.8197 26.38795,0 0,-79.6628 28.86244,0 0,79.6628 26.38794,0 -40.81972,40.8197 z"
         id="path4290"
         inkscape:connector-curvature="0" />
      <g
         id="flowRoot4292"
         style="font-style:normal;font-weight:normal;font-size:40px;line-height:125%;font-family:sans-serif;letter-spacing:0px;word-spacing:0px;fill:#000000;fill-opacity:1;stroke:none;stroke-width:1px;stroke-linecap:butt;stroke-linejoin:miter;stroke-opacity:1"
         transform="translate(18.493771,414.60295)">
        <path
           id="path4404"
           style="font-style:normal;font-variant:normal;font-weight:normal;font-stretch:normal;font-size:60px;font-family:'Ubuntu Condensed';-inkscape-font-specification:'Ubuntu Condensed, '"
           d="m 85.4925,535.09488 q 2.22,-0.66 4.8,-1.08 2.58,-0.48 4.74,-0.48 2.34,0 4.26,0.66 1.92,0.6 3.24,2.1 1.38,1.5 2.1,4.08 0.78,2.52 0.78,6.3 l 0,19.02 -5.16,0 0,-18.6 q 0,-4.68 -1.2,-6.84 -1.2,-2.16 -4.5,-2.16 -1.74,0 -3.9,0.6 l 0,27 -5.16,0 0,-30.6 z"
           inkscape:connector-curvature="0" />
        <path
           id="path4406"
           style="font-style:normal;font-variant:normal;font-weight:normal;font-stretch:normal;font-size:60px;font-family:'Ubuntu Condensed';-inkscape-font-specification:'Ubuntu Condensed, '"
           d="m 117.97781,551.47488 q 0.06,2.28 0.42,4.2 0.36,1.86 1.14,3.3 0.84,1.38 2.16,2.16 1.38,0.78 3.48,0.78 1.74,0 3.18,-0.48 1.5,-0.54 2.16,-0.9 l 0.96,4.14 q -0.78,0.54 -2.64,1.14 -1.8,0.66 -4.32,0.66 -3.3,0 -5.58,-1.2 -2.22,-1.2 -3.66,-3.36 -1.38,-2.16 -1.98,-5.16 -0.6,-3 -0.6,-6.6 0,-8.7 2.88,-12.72 2.88,-4.02 7.62,-4.02 5.34,0 7.56,4.02 2.22,4.02 2.22,11.28 0,0.66 0,1.38 0,0.66 -0.06,1.38 l -14.94,0 z m 5.22,-13.68 q -2.58,0 -3.78,2.58 -1.14,2.58 -1.38,6.9 l 9.54,0 q 0,-4.38 -0.9,-6.9 -0.9,-2.58 -3.48,-2.58 z"
           inkscape:connector-curvature="0" />
        <path
           id="path4408"
           style="font-style:normal;font-variant:normal;font-weight:normal;font-stretch:normal;font-size:60px;font-family:'Ubuntu Condensed';-inkscape-font-specification:'Ubuntu Condensed, '"
           d="m 148.85062,565.69488 -5.22,0 q -1.86,-6.18 -3.54,-14.22 -1.62,-8.04 -3,-17.28 l 5.1,0 q 0.24,2.58 0.72,6.06 0.48,3.42 1.02,7.08 0.6,3.6 1.2,7.02 0.6,3.36 1.14,5.76 0.54,-2.4 1.2,-5.88 0.72,-3.48 1.38,-7.14 0.72,-3.66 1.32,-7.08 0.6,-3.48 0.96,-5.82 l 4.86,0 q 0.24,2.34 0.72,5.76 0.54001,3.42 1.08,7.14 0.6,3.66 1.2,7.14 0.6,3.48 1.08,5.88 0.54,-2.4 1.14,-5.82 0.6,-3.42 1.14,-7.02 0.6,-3.6 1.08,-7.02 0.48,-3.48 0.72,-6.06 l 4.92,0 q -1.38,9.24 -3.06,17.28 -1.62,8.04 -3.48,14.22 l -5.04,0 q -0.48,-1.86 -1.08,-4.74 -0.54,-2.94 -1.14,-6.24 -0.54,-3.3 -1.01999,-6.6 -0.48001,-3.36 -0.84001,-6.12 -0.36,2.76 -0.96,6.12 -0.6,3.3 -1.26,6.6 -0.66,3.3 -1.32,6.24 -0.6,2.88 -1.02,4.74 z"
           inkscape:connector-curvature="0" />
        <path
           id="path4410"
           style="font-style:normal;font-variant:normal;font-weight:normal;font-stretch:normal;font-size:60px;font-family:'Ubuntu Condensed';-inkscape-font-specification:'Ubuntu Condensed, '"
           d="m 193.94531,559.63488 q 0.72,-2.4 1.5,-5.64 0.84,-3.24 1.62,-6.66 0.78,-3.48 1.44,-6.9 0.72,-3.42 1.2,-6.24 l 5.16,0 q -0.78,3.96 -1.86,8.34 -1.02,4.38 -2.16,8.64 -1.08,4.2 -2.22,7.98 -1.14,3.78 -2.1,6.54 l -5.34,0 q -0.96,-2.76 -2.1,-6.54 -1.14,-3.78 -2.28,-7.98 -1.08,-4.26 -2.16,-8.64 -1.02,-4.38 -1.8,-8.34 l 5.46,0 q 0.48,2.82 1.14,6.24 0.72,3.42 1.44,6.9 0.78,3.42 1.56,6.66 0.78,3.24 1.5,5.64 z"
           inkscape:connector-curvature="0" />
        <path
           id="path4412"
           style="font-style:normal;font-variant:normal;font-weight:normal;font-stretch:normal;font-size:60px;font-family:'Ubuntu Condensed';-inkscape-font-specification:'Ubuntu Condensed, '"
           d="m 210.30844,534.85488 q 1.56,-0.66 3.3,-1.02 1.74,-0.42 3.78,-0.42 4.2,0 6.84,2.64 2.64,2.58 2.64,8.1 l 0,20.88 q -2.16,0.6 -4.44,0.96 -2.22,0.36 -4.38,0.36 -2.16,0 -4.08,-0.54 -1.86,-0.54 -3.3,-1.74 -1.38,-1.2 -2.22,-3 -0.84,-1.86 -0.84,-4.5 0,-2.46 0.72,-4.26 0.78,-1.86 2.1,-3.06 1.32,-1.26 3.12,-1.86 1.8,-0.66 3.9,-0.66 1.98,0 4.38,0.48 l 0,-2.88 q 0,-3.48 -1.38,-4.86 -1.32,-1.38 -3.84,-1.38 -1.38,0 -2.64,0.3 -1.2,0.24 -2.58,0.84 l -1.08,-4.38 z m 2.46,21.66 q 0,2.76 1.44,4.08 1.44,1.32 4.08,1.32 1.62,0 3.54,-0.42 l 0,-10.02 q -1.8,-0.48 -3.54,-0.48 -1.14,0 -2.16,0.3 -1.02,0.24 -1.8,0.9 -0.72,0.6 -1.14,1.68 -0.42,1.02 -0.42,2.64 z"
           inkscape:connector-curvature="0" />
        <path
           id="path4414"
           style="font-style:normal;font-variant:normal;font-weight:normal;font-stretch:normal;font-size:60px;font-family:'Ubuntu Condensed';-inkscape-font-specification:'Ubuntu Condensed, '"
           d="m 244.00406,566.29488 q -4.44,-0.12 -6.36,-2.16 -1.92,-2.1 -1.92,-6.6 l 0,-37.5 5.16,-0.9 0,38.52 q 0,2.1 0.84,3.06 0.84,0.9 2.94,1.26 l -0.66,4.32 z"
           inkscape:connector-curvature="0" />
        <path
           id="path4416"
           style="font-style:normal;font-variant:normal;font-weight:normal;font-stretch:normal;font-size:60px;font-family:'Ubuntu Condensed';-inkscape-font-specification:'Ubuntu Condensed, '"
           d="m 269.87531,564.79488 q -0.78,0.3 -1.92,0.6 -1.08,0.24 -2.34,0.42 -1.2,0.24 -2.46,0.36 -1.2,0.18 -2.22,0.18 -2.46,0 -4.5,-0.6 -2.04,-0.54 -3.48,-1.98 -1.44,-1.44 -2.22,-3.9 -0.78,-2.52 -0.78,-6.3 l 0,-19.38 5.16,0 0,19.2 q 0,4.62 1.38,6.54 1.44,1.86 4.32,1.86 0.96,0 1.92,-0.06 0.96,-0.12 1.98,-0.42 l 0,-27.12 5.16,0 0,30.6 z"
           inkscape:connector-curvature="0" />
        <path
           id="path4418"
           style="font-style:normal;font-variant:normal;font-weight:normal;font-stretch:normal;font-size:60px;font-family:'Ubuntu Condensed';-inkscape-font-specification:'Ubuntu Condensed, '"
           d="m 282.74344,551.47488 q 0.06,2.28 0.42,4.2 0.36,1.86 1.14,3.3 0.84,1.38 2.16,2.16 1.38,0.78 3.48,0.78 1.74,0 3.18,-0.48 1.5,-0.54 2.16,-0.9 l 0.96,4.14 q -0.78,0.54 -2.64,1.14 -1.8,0.66 -4.32,0.66 -3.3,0 -5.58,-1.2 -2.22,-1.2 -3.66,-3.36 -1.38,-2.16 -1.98,-5.16 -0.6,-3 -0.6,-6.6 0,-8.7 2.88,-12.72 2.88,-4.02 7.62,-4.02 5.34,0 7.56,4.02 2.22,4.02 2.22,11.28 0,0.66 0,1.38 0,0.66 -0.06,1.38 l -14.94,0 z m 5.22,-13.68 q -2.58,0 -3.78,2.58 -1.14,2.58 -1.38,6.9 l 9.54,0 q 0,-4.38 -0.9,-6.9 -0.9,-2.58 -3.48,-2.58 z"
           inkscape:connector-curvature="0" />
      </g>
      <g
         id="flowRoot4300"
         style="font-style:normal;font-variant:normal;font-weight:bold;font-stretch:normal;font-size:50px;line-height:125%;font-family:sans-serif;-inkscape-font-specification:'sans-serif Bold';letter-spacing:0px;word-spacing:0px;fill:#000000;fill-opacity:1;stroke:none;stroke-width:1px;stroke-linecap:butt;stroke-linejoin:miter;stroke-opacity:1"
         transform="translate(-567.98604,349.51278)">
        <path
           id="path4440"
           style="font-style:normal;font-variant:normal;font-weight:bold;font-stretch:normal;font-size:50px;font-family:sans-serif;-inkscape-font-specification:'sans-serif Bold'"
           d="m 82.301758,518.24664 9.008789,0 6.298828,26.48926 6.250005,-26.48926 9.05761,0 6.25,26.48926 6.29883,-26.48926 8.93555,0 -8.59375,36.45019 -10.83985,0 -6.61621,-27.70996 -6.54297,27.70996 -10.83984,0 -8.666992,-36.45019 z"
           inkscape:connector-curvature="0" />
        <path
           id="path4442"
           style="font-style:normal;font-variant:normal;font-weight:bold;font-stretch:normal;font-size:50px;font-family:sans-serif;-inkscape-font-specification:'sans-serif Bold'"
           d="m 159.62109,534.79937 q -1.14746,-0.53711 -2.29492,-0.78125 -1.12305,-0.26855 -2.27051,-0.26855 -3.36914,0 -5.20019,2.17285 -1.80664,2.14844 -1.80664,6.17676 l 0,12.59765 -8.74024,0 0,-27.34375 8.74024,0 0,4.49219 q 1.68457,-2.68555 3.85742,-3.90625 2.19727,-1.24512 5.24902,-1.24512 0.43946,0 0.95215,0.0488 0.5127,0.0244 1.48926,0.14649 l 0.0244,7.91015 z"
           inkscape:connector-curvature="0" />
        <path
           id="path4444"
           style="font-style:normal;font-variant:normal;font-weight:bold;font-stretch:normal;font-size:50px;font-family:sans-serif;-inkscape-font-specification:'sans-serif Bold'"
           d="m 164.01562,527.35308 8.74024,0 0,27.34375 -8.74024,0 0,-27.34375 z m 0,-10.64453 8.74024,0 0,7.12891 -8.74024,0 0,-7.12891 z"
           inkscape:connector-curvature="0" />
        <path
           id="path4446"
           style="font-style:normal;font-variant:normal;font-weight:bold;font-stretch:normal;font-size:50px;font-family:sans-serif;-inkscape-font-specification:'sans-serif Bold'"
           d="m 190.74902,519.58941 0,7.76367 9.00879,0 0,6.25 -9.00879,0 0,11.59668 q 0,1.9043 0.75684,2.58789 0.75684,0.65918 3.00293,0.65918 l 4.49219,0 0,6.25 -7.49512,0 q -5.17578,0 -7.34863,-2.14843 -2.14844,-2.17286 -2.14844,-7.34864 l 0,-11.59668 -4.3457,0 0,-6.25 4.3457,0 0,-7.76367 8.74023,0 z"
           inkscape:connector-curvature="0" />
        <path
           id="path4448"
           style="font-style:normal;font-variant:normal;font-weight:bold;font-stretch:normal;font-size:50px;font-family:sans-serif;-inkscape-font-specification:'sans-serif Bold'"
           d="m 232.42383,540.95172 0,2.49023 -20.43457,0 q 0.31738,3.07617 2.22168,4.61426 1.90429,1.53808 5.32226,1.53808 2.75879,0 5.63965,-0.80566 2.90527,-0.83008 5.95703,-2.49023 l 0,6.73828 q -3.10058,1.17187 -6.20117,1.75781 -3.10059,0.61035 -6.20117,0.61035 -7.42188,0 -11.54785,-3.75976 -4.10157,-3.78418 -4.10157,-10.59571 0,-6.68945 4.02833,-10.52246 4.05273,-3.83301 11.13281,-3.83301 6.44531,0 10.30273,3.88184 3.88184,3.88184 3.88184,10.37598 z m -8.98438,-2.90528 q 0,-2.49023 -1.46484,-4.0039 -1.44043,-1.53809 -3.78418,-1.53809 -2.53906,0 -4.12598,1.44043 -1.58691,1.41602 -1.97754,4.10156 l 11.35254,0 z"
           inkscape:connector-curvature="0" />
      </g>
      <g
         id="flowRoot4308"
         style="font-style:normal;font-weight:normal;font-size:40px;line-height:125%;font-family:sans-serif;letter-spacing:0px;word-spacing:0px;fill:#000000;fill-opacity:1;stroke:none;stroke-width:1px;stroke-linecap:butt;stroke-linejoin:miter;stroke-opacity:1"
         transform="translate(70.950178,234.45515)">
        <path
           id="path4466"
           style="font-style:normal;font-variant:normal;font-weight:normal;font-stretch:normal;font-size:60px;font-family:'Ubuntu Condensed';-inkscape-font-specification:'Ubuntu Condensed, '"
           d="m 92.8125,559.63488 q 0.72,-2.4 1.5,-5.64 0.84,-3.24 1.62,-6.66 0.78,-3.48 1.44,-6.9 0.72,-3.42 1.2,-6.24 l 5.16,0 q -0.78,3.96 -1.86,8.34 -1.02,4.38 -2.16,8.64 -1.08,4.2 -2.22,7.98 -1.14,3.78 -2.1,6.54 l -5.34,0 q -0.96,-2.76 -2.1,-6.54 -1.14,-3.78 -2.28,-7.98 -1.08,-4.26 -2.16,-8.64 -1.02,-4.38 -1.8,-8.34 l 5.46,0 q 0.48,2.82 1.14,6.24 0.72,3.42 1.44,6.9 0.78,3.42 1.56,6.66 0.78,3.24 1.5,5.64 z"
           inkscape:connector-curvature="0" />
        <path
           id="path4468"
           style="font-style:normal;font-variant:normal;font-weight:normal;font-stretch:normal;font-size:60px;font-family:'Ubuntu Condensed';-inkscape-font-specification:'Ubuntu Condensed, '"
           d="m 109.17562,534.85488 q 1.56001,-0.66 3.30001,-1.02 1.74,-0.42 3.77999,-0.42 4.2,0 6.84,2.64 2.64001,2.58 2.64001,8.1 l 0,20.88 q -2.16,0.6 -4.44,0.96 -2.22,0.36 -4.38,0.36 -2.16001,0 -4.08001,-0.54 -1.86,-0.54 -3.3,-1.74 -1.37999,-1.2 -2.22,-3 -0.84,-1.86 -0.84,-4.5 0,-2.46 0.72001,-4.26 0.77999,-1.86 2.1,-3.06 1.31999,-1.26 3.12,-1.86 1.8,-0.66 3.89999,-0.66 1.98001,0 4.38001,0.48 l 0,-2.88 q 0,-3.48 -1.38001,-4.86 -1.31999,-1.38 -3.83999,-1.38 -1.38001,0 -2.64001,0.3 -1.19999,0.24 -2.58,0.84 l -1.08,-4.38 z m 2.46001,21.66 q 0,2.76 1.44,4.08 1.44,1.32 4.08,1.32 1.62,0 3.54,-0.42 l 0,-10.02 q -1.80001,-0.48 -3.54,-0.48 -1.14,0 -2.16,0.3 -1.02,0.24 -1.8,0.9 -0.72,0.6 -1.14,1.68 -0.42,1.02 -0.42,2.64 z"
           inkscape:connector-curvature="0" />
        <path
           id="path4470"
           style="font-style:normal;font-variant:normal;font-weight:normal;font-stretch:normal;font-size:60px;font-family:'Ubuntu Condensed';-inkscape-font-specification:'Ubuntu Condensed, '"
           d="m 142.87125,566.29488 q -4.44,-0.12 -6.36,-2.16 -1.92,-2.1 -1.92,-6.6 l 0,-37.5 5.16,-0.9 0,38.52 q 0,2.1 0.84,3.06 0.84,0.9 2.94,1.26 l -0.66,4.32 z"
           inkscape:connector-curvature="0" />
        <path
           id="path4472"
           style="font-style:normal;font-variant:normal;font-weight:normal;font-stretch:normal;font-size:60px;font-family:'Ubuntu Condensed';-inkscape-font-specification:'Ubuntu Condensed, '"
           d="m 168.7425,564.79488 q -0.78,0.3 -1.92,0.6 -1.08,0.24 -2.34,0.42 -1.2,0.24 -2.46,0.36 -1.2,0.18 -2.22,0.18 -2.46,0 -4.5,-0.6 -2.04,-0.54 -3.48,-1.98 -1.44,-1.44 -2.22,-3.9 -0.78,-2.52 -0.78,-6.3 l 0,-19.38 5.16,0 0,19.2 q 0,4.62 1.38,6.54 1.44,1.86 4.32,1.86 0.96,0 1.92,-0.06 0.96,-0.12 1.98,-0.42 l 0,-27.12 5.16,0 0,30.6 z"
           inkscape:connector-curvature="0" />
        <path
           id="path4474"
           style="font-style:normal;font-variant:normal;font-weight:normal;font-stretch:normal;font-size:60px;font-family:'Ubuntu Condensed';-inkscape-font-specification:'Ubuntu Condensed, '"
           d="m 181.61062,551.47488 q 0.06,2.28 0.42,4.2 0.36,1.86 1.14,3.3 0.84,1.38 2.16,2.16 1.38,0.78 3.48,0.78 1.74,0 3.18,-0.48 1.5,-0.54 2.16,-0.9 l 0.96,4.14 q -0.78,0.54 -2.64,1.14 -1.8,0.66 -4.32,0.66 -3.3,0 -5.58,-1.2 -2.22,-1.2 -3.66,-3.36 -1.38,-2.16 -1.98,-5.16 -0.6,-3 -0.6,-6.6 0,-8.7 2.88,-12.72 2.88,-4.02 7.62,-4.02 5.34,0 7.56,4.02 2.22,4.02 2.22,11.28 0,0.66 0,1.38 0,0.66 -0.06,1.38 l -14.94,0 z m 5.22,-13.68 q -2.57999,0 -3.78,2.58 -1.14,2.58 -1.38,6.9 l 9.54,0 q 0,-4.38 -0.89999,-6.9 -0.90001,-2.58 -3.48001,-2.58 z"
           inkscape:connector-curvature="0" />
      </g>
      <g
         id="flowRoot4328"
         style="font-style:normal;font-weight:normal;font-size:40px;line-height:125%;font-family:sans-serif;letter-spacing:0px;word-spacing:0px;fill:#000000;fill-opacity:1;stroke:none;stroke-width:1px;stroke-linecap:butt;stroke-linejoin:miter;stroke-opacity:1"
         transform="translate(70.950178,-405.6409)">
        <path
           id="path4552"
           style="font-style:normal;font-variant:normal;font-weight:normal;font-stretch:normal;font-size:60px;font-family:'Ubuntu Condensed';-inkscape-font-specification:'Ubuntu Condensed, '"
           d="m 92.8125,559.63488 q 0.72,-2.4 1.5,-5.64 0.84,-3.24 1.62,-6.66 0.78,-3.48 1.44,-6.9 0.72,-3.42 1.2,-6.24 l 5.16,0 q -0.78,3.96 -1.86,8.34 -1.02,4.38 -2.16,8.64 -1.08,4.2 -2.22,7.98 -1.14,3.78 -2.1,6.54 l -5.34,0 q -0.96,-2.76 -2.1,-6.54 -1.14,-3.78 -2.28,-7.98 -1.08,-4.26 -2.16,-8.64 -1.02,-4.38 -1.8,-8.34 l 5.46,0 q 0.48,2.82 1.14,6.24 0.72,3.42 1.44,6.9 0.78,3.42 1.56,6.66 0.78,3.24 1.5,5.64 z"
           inkscape:connector-curvature="0" />
        <path
           id="path4554"
           style="font-style:normal;font-variant:normal;font-weight:normal;font-stretch:normal;font-size:60px;font-family:'Ubuntu Condensed';-inkscape-font-specification:'Ubuntu Condensed, '"
           d="m 109.17562,534.85488 q 1.56001,-0.66 3.30001,-1.02 1.74,-0.42 3.77999,-0.42 4.2,0 6.84,2.64 2.64001,2.58 2.64001,8.1 l 0,20.88 q -2.16,0.6 -4.44,0.96 -2.22,0.36 -4.38,0.36 -2.16001,0 -4.08001,-0.54 -1.86,-0.54 -3.3,-1.74 -1.37999,-1.2 -2.22,-3 -0.84,-1.86 -0.84,-4.5 0,-2.46 0.72001,-4.26 0.77999,-1.86 2.1,-3.06 1.31999,-1.26 3.12,-1.86 1.8,-0.66 3.89999,-0.66 1.98001,0 4.38001,0.48 l 0,-2.88 q 0,-3.48 -1.38001,-4.86 -1.31999,-1.38 -3.83999,-1.38 -1.38001,0 -2.64001,0.3 -1.19999,0.24 -2.58,0.84 l -1.08,-4.38 z m 2.46001,21.66 q 0,2.76 1.44,4.08 1.44,1.32 4.08,1.32 1.62,0 3.54,-0.42 l 0,-10.02 q -1.80001,-0.48 -3.54,-0.48 -1.14,0 -2.16,0.3 -1.02,0.24 -1.8,0.9 -0.72,0.6 -1.14,1.68 -0.42,1.02 -0.42,2.64 z"
           inkscape:connector-curvature="0" />
        <path
           id="path4556"
           style="font-style:normal;font-variant:normal;font-weight:normal;font-stretch:normal;font-size:60px;font-family:'Ubuntu Condensed';-inkscape-font-specification:'Ubuntu Condensed, '"
           d="m 142.87125,566.29488 q -4.44,-0.12 -6.36,-2.16 -1.92,-2.1 -1.92,-6.6 l 0,-37.5 5.16,-0.9 0,38.52 q 0,2.1 0.84,3.06 0.84,0.9 2.94,1.26 l -0.66,4.32 z"
           inkscape:connector-curvature="0" />
        <path
           id="path4558"
           style="font-style:normal;font-variant:normal;font-weight:normal;font-stretch:normal;font-size:60px;font-family:'Ubuntu Condensed';-inkscape-font-specification:'Ubuntu Condensed, '"
           d="m 168.7425,564.79488 q -0.78,0.3 -1.92,0.6 -1.08,0.24 -2.34,0.42 -1.2,0.24 -2.46,0.36 -1.2,0.18 -2.22,0.18 -2.46,0 -4.5,-0.6 -2.04,-0.54 -3.48,-1.98 -1.44,-1.44 -2.22,-3.9 -0.78,-2.52 -0.78,-6.3 l 0,-19.38 5.16,0 0,19.2 q 0,4.62 1.38,6.54 1.44,1.86 4.32,1.86 0.96,0 1.92,-0.06 0.96,-0.12 1.98,-0.42 l 0,-27.12 5.16,0 0,30.6 z"
           inkscape:connector-curvature="0" />
        <path
           id="path4560"
           style="font-style:normal;font-variant:normal;font-weight:normal;font-stretch:normal;font-size:60px;font-family:'Ubuntu Condensed';-inkscape-font-specification:'Ubuntu Condensed, '"
           d="m 181.61062,551.47488 q 0.06,2.28 0.42,4.2 0.36,1.86 1.14,3.3 0.84,1.38 2.16,2.16 1.38,0.78 3.48,0.78 1.74,0 3.18,-0.48 1.5,-0.54 2.16,-0.9 l 0.96,4.14 q -0.78,0.54 -2.64,1.14 -1.8,0.66 -4.32,0.66 -3.3,0 -5.58,-1.2 -2.22,-1.2 -3.66,-3.36 -1.38,-2.16 -1.98,-5.16 -0.6,-3 -0.6,-6.6 0,-8.7 2.88,-12.72 2.88,-4.02 7.62,-4.02 5.34,0 7.56,4.02 2.22,4.02 2.22,11.28 0,0.66 0,1.38 0,0.66 -0.06,1.38 l -14.94,0 z m 5.22,-13.68 q -2.57999,0 -3.78,2.58 -1.14,2.58 -1.38,6.9 l 9.54,0 q 0,-4.38 -0.89999,-6.9 -0.90001,-2.58 -3.48001,-2.58 z"
           inkscape:connector-curvature="0" />
      </g>
      <g
         id="flowRoot4336"
         style="font-style:normal;font-weight:normal;font-size:40px;line-height:125%;font-family:sans-serif;letter-spacing:0px;word-spacing:0px;fill:#000000;fill-opacity:1;stroke:none;stroke-width:1px;stroke-linecap:butt;stroke-linejoin:miter;stroke-opacity:1"
         transform="translate(18.493771,-3.6001799)">
        <path
           id="path4477"
           style="font-style:normal;font-variant:normal;font-weight:normal;font-stretch:normal;font-size:60px;font-family:'Ubuntu Condensed';-inkscape-font-specification:'Ubuntu Condensed, '"
           d="m 85.4925,535.09488 q 2.22,-0.66 4.8,-1.08 2.58,-0.48 4.74,-0.48 2.34,0 4.26,0.66 1.92,0.6 3.24,2.1 1.38,1.5 2.1,4.08 0.78,2.52 0.78,6.3 l 0,19.02 -5.16,0 0,-18.6 q 0,-4.68 -1.2,-6.84 -1.2,-2.16 -4.5,-2.16 -1.74,0 -3.9,0.6 l 0,27 -5.16,0 0,-30.6 z"
           inkscape:connector-curvature="0" />
        <path
           id="path4479"
           style="font-style:normal;font-variant:normal;font-weight:normal;font-stretch:normal;font-size:60px;font-family:'Ubuntu Condensed';-inkscape-font-specification:'Ubuntu Condensed, '"
           d="m 117.97781,551.47488 q 0.06,2.28 0.42,4.2 0.36,1.86 1.14,3.3 0.84,1.38 2.16,2.16 1.38,0.78 3.48,0.78 1.74,0 3.18,-0.48 1.5,-0.54 2.16,-0.9 l 0.96,4.14 q -0.78,0.54 -2.64,1.14 -1.8,0.66 -4.32,0.66 -3.3,0 -5.58,-1.2 -2.22,-1.2 -3.66,-3.36 -1.38,-2.16 -1.98,-5.16 -0.6,-3 -0.6,-6.6 0,-8.7 2.88,-12.72 2.88,-4.02 7.62,-4.02 5.34,0 7.56,4.02 2.22,4.02 2.22,11.28 0,0.66 0,1.38 0,0.66 -0.06,1.38 l -14.94,0 z m 5.22,-13.68 q -2.58,0 -3.78,2.58 -1.14,2.58 -1.38,6.9 l 9.54,0 q 0,-4.38 -0.9,-6.9 -0.9,-2.58 -3.48,-2.58 z"
           inkscape:connector-curvature="0" />
        <path
           id="path4481"
           style="font-style:normal;font-variant:normal;font-weight:normal;font-stretch:normal;font-size:60px;font-family:'Ubuntu Condensed';-inkscape-font-specification:'Ubuntu Condensed, '"
           d="m 148.85062,565.69488 -5.22,0 q -1.86,-6.18 -3.54,-14.22 -1.62,-8.04 -3,-17.28 l 5.1,0 q 0.24,2.58 0.72,6.06 0.48,3.42 1.02,7.08 0.6,3.6 1.2,7.02 0.6,3.36 1.14,5.76 0.54,-2.4 1.2,-5.88 0.72,-3.48 1.38,-7.14 0.72,-3.66 1.32,-7.08 0.6,-3.48 0.96,-5.82 l 4.86,0 q 0.24,2.34 0.72,5.76 0.54001,3.42 1.08,7.14 0.6,3.66 1.2,7.14 0.6,3.48 1.08,5.88 0.54,-2.4 1.14,-5.82 0.6,-3.42 1.14,-7.02 0.6,-3.6 1.08,-7.02 0.48,-3.48 0.72,-6.06 l 4.92,0 q -1.38,9.24 -3.06,17.28 -1.62,8.04 -3.48,14.22 l -5.04,0 q -0.48,-1.86 -1.08,-4.74 -0.54,-2.94 -1.14,-6.24 -0.54,-3.3 -1.01999,-6.6 -0.48001,-3.36 -0.84001,-6.12 -0.36,2.76 -0.96,6.12 -0.6,3.3 -1.26,6.6 -0.66,3.3 -1.32,6.24 -0.6,2.88 -1.02,4.74 z"
           inkscape:connector-curvature="0" />
        <path
           id="path4483"
           style="font-style:normal;font-variant:normal;font-weight:normal;font-stretch:normal;font-size:60px;font-family:'Ubuntu Condensed';-inkscape-font-specification:'Ubuntu Condensed, '"
           d="m 193.94531,559.63488 q 0.72,-2.4 1.5,-5.64 0.84,-3.24 1.62,-6.66 0.78,-3.48 1.44,-6.9 0.72,-3.42 1.2,-6.24 l 5.16,0 q -0.78,3.96 -1.86,8.34 -1.02,4.38 -2.16,8.64 -1.08,4.2 -2.22,7.98 -1.14,3.78 -2.1,6.54 l -5.34,0 q -0.96,-2.76 -2.1,-6.54 -1.14,-3.78 -2.28,-7.98 -1.08,-4.26 -2.16,-8.64 -1.02,-4.38 -1.8,-8.34 l 5.46,0 q 0.48,2.82 1.14,6.24 0.72,3.42 1.44,6.9 0.78,3.42 1.56,6.66 0.78,3.24 1.5,5.64 z"
           inkscape:connector-curvature="0" />
        <path
           id="path4485"
           style="font-style:normal;font-variant:normal;font-weight:normal;font-stretch:normal;font-size:60px;font-family:'Ubuntu Condensed';-inkscape-font-specification:'Ubuntu Condensed, '"
           d="m 210.30844,534.85488 q 1.56,-0.66 3.3,-1.02 1.74,-0.42 3.78,-0.42 4.2,0 6.84,2.64 2.64,2.58 2.64,8.1 l 0,20.88 q -2.16,0.6 -4.44,0.96 -2.22,0.36 -4.38,0.36 -2.16,0 -4.08,-0.54 -1.86,-0.54 -3.3,-1.74 -1.38,-1.2 -2.22,-3 -0.84,-1.86 -0.84,-4.5 0,-2.46 0.72,-4.26 0.78,-1.86 2.1,-3.06 1.32,-1.26 3.12,-1.86 1.8,-0.66 3.9,-0.66 1.98,0 4.38,0.48 l 0,-2.88 q 0,-3.48 -1.38,-4.86 -1.32,-1.38 -3.84,-1.38 -1.38,0 -2.64,0.3 -1.2,0.24 -2.58,0.84 l -1.08,-4.38 z m 2.46,21.66 q 0,2.76 1.44,4.08 1.44,1.32 4.08,1.32 1.62,0 3.54,-0.42 l 0,-10.02 q -1.8,-0.48 -3.54,-0.48 -1.14,0 -2.16,0.3 -1.02,0.24 -1.8,0.9 -0.72,0.6 -1.14,1.68 -0.42,1.02 -0.42,2.64 z"
           inkscape:connector-curvature="0" />
        <path
           id="path4487"
           style="font-style:normal;font-variant:normal;font-weight:normal;font-stretch:normal;font-size:60px;font-family:'Ubuntu Condensed';-inkscape-font-specification:'Ubuntu Condensed, '"
           d="m 244.00406,566.29488 q -4.44,-0.12 -6.36,-2.16 -1.92,-2.1 -1.92,-6.6 l 0,-37.5 5.16,-0.9 0,38.52 q 0,2.1 0.84,3.06 0.84,0.9 2.94,1.26 l -0.66,4.32 z"
           inkscape:connector-curvature="0" />
        <path
           id="path4489"
           style="font-style:normal;font-variant:normal;font-weight:normal;font-stretch:normal;font-size:60px;font-family:'Ubuntu Condensed';-inkscape-font-specification:'Ubuntu Condensed, '"
           d="m 269.87531,564.79488 q -0.78,0.3 -1.92,0.6 -1.08,0.24 -2.34,0.42 -1.2,0.24 -2.46,0.36 -1.2,0.18 -2.22,0.18 -2.46,0 -4.5,-0.6 -2.04,-0.54 -3.48,-1.98 -1.44,-1.44 -2.22,-3.9 -0.78,-2.52 -0.78,-6.3 l 0,-19.38 5.16,0 0,19.2 q 0,4.62 1.38,6.54 1.44,1.86 4.32,1.86 0.96,0 1.92,-0.06 0.96,-0.12 1.98,-0.42 l 0,-27.12 5.16,0 0,30.6 z"
           inkscape:connector-curvature="0" />
        <path
           id="path4491"
           style="font-style:normal;font-variant:normal;font-weight:normal;font-stretch:normal;font-size:60px;font-family:'Ubuntu Condensed';-inkscape-font-specification:'Ubuntu Condensed, '"
           d="m 282.74344,551.47488 q 0.06,2.28 0.42,4.2 0.36,1.86 1.14,3.3 0.84,1.38 2.16,2.16 1.38,0.78 3.48,0.78 1.74,0 3.18,-0.48 1.5,-0.54 2.16,-0.9 l 0.96,4.14 q -0.78,0.54 -2.64,1.14 -1.8,0.66 -4.32,0.66 -3.3,0 -5.58,-1.2 -2.22,-1.2 -3.66,-3.36 -1.38,-2.16 -1.98,-5.16 -0.6,-3 -0.6,-6.6 0,-8.7 2.88,-12.72 2.88,-4.02 7.62,-4.02 5.34,0 7.56,4.02 2.22,4.02 2.22,11.28 0,0.66 0,1.38 0,0.66 -0.06,1.38 l -14.94,0 z m 5.22,-13.68 q -2.58,0 -3.78,2.58 -1.14,2.58 -1.38,6.9 l 9.54,0 q 0,-4.38 -0.9,-6.9 -0.9,-2.58 -3.48,-2.58 z"
           inkscape:connector-curvature="0" />
      </g>
      <g
         id="flowRoot4344"
         style="font-style:normal;font-weight:normal;font-size:40px;line-height:125%;font-family:sans-serif;letter-spacing:0px;word-spacing:0px;fill:#000000;fill-opacity:1;stroke:none;stroke-width:1px;stroke-linecap:butt;stroke-linejoin:miter;stroke-opacity:1"
         transform="translate(18.493771,652.65828)">
        <path
           id="path4387"
           style="font-style:normal;font-variant:normal;font-weight:normal;font-stretch:normal;font-size:60px;font-family:'Ubuntu Condensed';-inkscape-font-specification:'Ubuntu Condensed, '"
           d="m 85.4925,535.09488 q 2.22,-0.66 4.8,-1.08 2.58,-0.48 4.74,-0.48 2.34,0 4.26,0.66 1.92,0.6 3.24,2.1 1.38,1.5 2.1,4.08 0.78,2.52 0.78,6.3 l 0,19.02 -5.16,0 0,-18.6 q 0,-4.68 -1.2,-6.84 -1.2,-2.16 -4.5,-2.16 -1.74,0 -3.9,0.6 l 0,27 -5.16,0 0,-30.6 z"
           inkscape:connector-curvature="0" />
        <path
           id="path4389"
           style="font-style:normal;font-variant:normal;font-weight:normal;font-stretch:normal;font-size:60px;font-family:'Ubuntu Condensed';-inkscape-font-specification:'Ubuntu Condensed, '"
           d="m 117.97781,551.47488 q 0.06,2.28 0.42,4.2 0.36,1.86 1.14,3.3 0.84,1.38 2.16,2.16 1.38,0.78 3.48,0.78 1.74,0 3.18,-0.48 1.5,-0.54 2.16,-0.9 l 0.96,4.14 q -0.78,0.54 -2.64,1.14 -1.8,0.66 -4.32,0.66 -3.3,0 -5.58,-1.2 -2.22,-1.2 -3.66,-3.36 -1.38,-2.16 -1.98,-5.16 -0.6,-3 -0.6,-6.6 0,-8.7 2.88,-12.72 2.88,-4.02 7.62,-4.02 5.34,0 7.56,4.02 2.22,4.02 2.22,11.28 0,0.66 0,1.38 0,0.66 -0.06,1.38 l -14.94,0 z m 5.22,-13.68 q -2.58,0 -3.78,2.58 -1.14,2.58 -1.38,6.9 l 9.54,0 q 0,-4.38 -0.9,-6.9 -0.9,-2.58 -3.48,-2.58 z"
           inkscape:connector-curvature="0" />
        <path
           id="path4391"
           style="font-style:normal;font-variant:normal;font-weight:normal;font-stretch:normal;font-size:60px;font-family:'Ubuntu Condensed';-inkscape-font-specification:'Ubuntu Condensed, '"
           d="m 148.85062,565.69488 -5.22,0 q -1.86,-6.18 -3.54,-14.22 -1.62,-8.04 -3,-17.28 l 5.1,0 q 0.24,2.58 0.72,6.06 0.48,3.42 1.02,7.08 0.6,3.6 1.2,7.02 0.6,3.36 1.14,5.76 0.54,-2.4 1.2,-5.88 0.72,-3.48 1.38,-7.14 0.72,-3.66 1.32,-7.08 0.6,-3.48 0.96,-5.82 l 4.86,0 q 0.24,2.34 0.72,5.76 0.54001,3.42 1.08,7.14 0.6,3.66 1.2,7.14 0.6,3.48 1.08,5.88 0.54,-2.4 1.14,-5.82 0.6,-3.42 1.14,-7.02 0.6,-3.6 1.08,-7.02 0.48,-3.48 0.72,-6.06 l 4.92,0 q -1.38,9.24 -3.06,17.28 -1.62,8.04 -3.48,14.22 l -5.04,0 q -0.48,-1.86 -1.08,-4.74 -0.54,-2.94 -1.14,-6.24 -0.54,-3.3 -1.01999,-6.6 -0.48001,-3.36 -0.84001,-6.12 -0.36,2.76 -0.96,6.12 -0.6,3.3 -1.26,6.6 -0.66,3.3 -1.32,6.24 -0.6,2.88 -1.02,4.74 z"
           inkscape:connector-curvature="0" />
        <path
           id="path4393"
           style="font-style:normal;font-variant:normal;font-weight:normal;font-stretch:normal;font-size:60px;font-family:'Ubuntu Condensed';-inkscape-font-specification:'Ubuntu Condensed, '"
           d="m 193.94531,559.63488 q 0.72,-2.4 1.5,-5.64 0.84,-3.24 1.62,-6.66 0.78,-3.48 1.44,-6.9 0.72,-3.42 1.2,-6.24 l 5.16,0 q -0.78,3.96 -1.86,8.34 -1.02,4.38 -2.16,8.64 -1.08,4.2 -2.22,7.98 -1.14,3.78 -2.1,6.54 l -5.34,0 q -0.96,-2.76 -2.1,-6.54 -1.14,-3.78 -2.28,-7.98 -1.08,-4.26 -2.16,-8.64 -1.02,-4.38 -1.8,-8.34 l 5.46,0 q 0.48,2.82 1.14,6.24 0.72,3.42 1.44,6.9 0.78,3.42 1.56,6.66 0.78,3.24 1.5,5.64 z"
           inkscape:connector-curvature="0" />
        <path
           id="path4395"
           style="font-style:normal;font-variant:normal;font-weight:normal;font-stretch:normal;font-size:60px;font-family:'Ubuntu Condensed';-inkscape-font-specification:'Ubuntu Condensed, '"
           d="m 210.30844,534.85488 q 1.56,-0.66 3.3,-1.02 1.74,-0.42 3.78,-0.42 4.2,0 6.84,2.64 2.64,2.58 2.64,8.1 l 0,20.88 q -2.16,0.6 -4.44,0.96 -2.22,0.36 -4.38,0.36 -2.16,0 -4.08,-0.54 -1.86,-0.54 -3.3,-1.74 -1.38,-1.2 -2.22,-3 -0.84,-1.86 -0.84,-4.5 0,-2.46 0.72,-4.26 0.78,-1.86 2.1,-3.06 1.32,-1.26 3.12,-1.86 1.8,-0.66 3.9,-0.66 1.98,0 4.38,0.48 l 0,-2.88 q 0,-3.48 -1.38,-4.86 -1.32,-1.38 -3.84,-1.38 -1.38,0 -2.64,0.3 -1.2,0.24 -2.58,0.84 l -1.08,-4.38 z m 2.46,21.66 q 0,2.76 1.44,4.08 1.44,1.32 4.08,1.32 1.62,0 3.54,-0.42 l 0,-10.02 q -1.8,-0.48 -3.54,-0.48 -1.14,0 -2.16,0.3 -1.02,0.24 -1.8,0.9 -0.72,0.6 -1.14,1.68 -0.42,1.02 -0.42,2.64 z"
           inkscape:connector-curvature="0" />
        <path
           id="path4397"
           style="font-style:normal;font-variant:normal;font-weight:normal;font-stretch:normal;font-size:60px;font-family:'Ubuntu Condensed';-inkscape-font-specification:'Ubuntu Condensed, '"
           d="m 244.00406,566.29488 q -4.44,-0.12 -6.36,-2.16 -1.92,-2.1 -1.92,-6.6 l 0,-37.5 5.16,-0.9 0,38.52 q 0,2.1 0.84,3.06 0.84,0.9 2.94,1.26 l -0.66,4.32 z"
           inkscape:connector-curvature="0" />
        <path
           id="path4399"
           style="font-style:normal;font-variant:normal;font-weight:normal;font-stretch:normal;font-size:60px;font-family:'Ubuntu Condensed';-inkscape-font-specification:'Ubuntu Condensed, '"
           d="m 269.87531,564.79488 q -0.78,0.3 -1.92,0.6 -1.08,0.24 -2.34,0.42 -1.2,0.24 -2.46,0.36 -1.2,0.18 -2.22,0.18 -2.46,0 -4.5,-0.6 -2.04,-0.54 -3.48,-1.98 -1.44,-1.44 -2.22,-3.9 -0.78,-2.52 -0.78,-6.3 l 0,-19.38 5.16,0 0,19.2 q 0,4.62 1.38,6.54 1.44,1.86 4.32,1.86 0.96,0 1.92,-0.06 0.96,-0.12 1.98,-0.42 l 0,-27.12 5.16,0 0,30.6 z"
           inkscape:connector-curvature="0" />
        <path
           id="path4401"
           style="font-style:normal;font-variant:normal;font-weight:normal;font-stretch:normal;font-size:60px;font-family:'Ubuntu Condensed';-inkscape-font-specification:'Ubuntu Condensed, '"
           d="m 282.74344,551.47488 q 0.06,2.28 0.42,4.2 0.36,1.86 1.14,3.3 0.84,1.38 2.16,2.16 1.38,0.78 3.48,0.78 1.74,0 3.18,-0.48 1.5,-0.54 2.16,-0.9 l 0.96,4.14 q -0.78,0.54 -2.64,1.14 -1.8,0.66 -4.32,0.66 -3.3,0 -5.58,-1.2 -2.22,-1.2 -3.66,-3.36 -1.38,-2.16 -1.98,-5.16 -0.6,-3 -0.6,-6.6 0,-8.7 2.88,-12.72 2.88,-4.02 7.62,-4.02 5.34,0 7.56,4.02 2.22,4.02 2.22,11.28 0,0.66 0,1.38 0,0.66 -0.06,1.38 l -14.94,0 z m 5.22,-13.68 q -2.58,0 -3.78,2.58 -1.14,2.58 -1.38,6.9 l 9.54,0 q 0,-4.38 -0.9,-6.9 -0.9,-2.58 -3.48,-2.58 z"
           inkscape:connector-curvature="0" />
      </g>
    </g>
  </g>
</svg>
