<?xml version="1.0" encoding="UTF-8" standalone="no"?>
<!-- Created with Inkscape (http://www.inkscape.org/) -->

<svg
   xmlns:dc="http://purl.org/dc/elements/1.1/"
   xmlns:cc="http://creativecommons.org/ns#"
   xmlns:rdf="http://www.w3.org/1999/02/22-rdf-syntax-ns#"
   xmlns:svg="http://www.w3.org/2000/svg"
   xmlns="http://www.w3.org/2000/svg"
   xmlns:sodipodi="http://sodipodi.sourceforge.net/DTD/sodipodi-0.dtd"
   xmlns:inkscape="http://www.inkscape.org/namespaces/inkscape"
   width="168.24025mm"
   height="50.171326mm"
   viewBox="0 0 596.12688 177.77242"
   id="svg2"
   version="1.1"
   inkscape:version="0.91 r13725"
   sodipodi:docname="memoryoperation (copy).svg">
  <defs
     id="defs4" />
  <sodipodi:namedview
     id="base"
     pagecolor="#ffffff"
     bordercolor="#666666"
     borderopacity="1.0"
     inkscape:pageopacity="0.0"
     inkscape:pageshadow="2"
     inkscape:zoom="0.35"
     inkscape:cx="381.40314"
     inkscape:cy="-261.0339"
     inkscape:document-units="px"
     inkscape:current-layer="layer1"
     showgrid="false"
     inkscape:window-width="1301"
     inkscape:window-height="744"
     inkscape:window-x="65"
     inkscape:window-y="24"
     inkscape:window-maximized="1"
     fit-margin-top="0"
     fit-margin-left="0"
     fit-margin-right="0"
     fit-margin-bottom="0" />
  <metadata
     id="metadata7">
    <rdf:RDF>
      <cc:Work
         rdf:about="">
        <dc:format>image/svg+xml</dc:format>
        <dc:type
           rdf:resource="http://purl.org/dc/dcmitype/StillImage" />
        <dc:title></dc:title>
      </cc:Work>
    </rdf:RDF>
  </metadata>
  <g
     inkscape:label="Layer 1"
     inkscape:groupmode="layer"
     id="layer1"
     transform="translate(226.87288,-251.23195)">
    <g
       id="g4492">
      <path
         id="rect4140"
         d="m -210.08217,321.23108 562.5455,0 c 7.17616,0 12.95336,8.11219 12.95336,18.18878 l 0,67.55833 c 0,10.07658 -5.7772,18.18877 -12.95336,18.18877 l -562.5455,0 c -7.17616,0 -12.95335,-8.11219 -12.95335,-18.18877 l 0,-67.55833 c 0,-10.07659 5.77719,-18.18878 12.95335,-18.18878 z"
         style="opacity:1;fill:#666666;fill-opacity:1;stroke:#4d4d4d;stroke-width:7.67472601;stroke-miterlimit:4;stroke-dasharray:none;stroke-opacity:1"
         inkscape:connector-curvature="0" />
      <g
         transform="translate(1.1905972,-2.0203018)"
         id="g4400">
        <path
           id="rect4136"
           d="m 71.993221,337.82391 268.155819,0 c 3.42075,0 6.17464,5.83743 6.17464,13.0884 l 0,48.61403 c 0,7.25097 -2.75389,13.0884 -6.17464,13.0884 l -268.155819,0 c -3.420751,0 -6.17464,-5.83743 -6.17464,-13.0884 l 0,-48.61403 c 0,-7.25097 2.753889,-13.0884 6.17464,-13.0884 z"
           style="opacity:1;fill:#008000;fill-opacity:1;stroke:#004f00;stroke-width:4.49488974;stroke-miterlimit:4;stroke-dasharray:none;stroke-opacity:1"
           inkscape:connector-curvature="0" />
        <path
           id="rect4150"
           d="m -199.89651,336.83353 246.249778,0 c 3.420751,0 6.17464,5.83742 6.17464,13.0884 l 0,50.59479 c 0,7.25097 -2.753889,13.0884 -6.17464,13.0884 l -246.249778,0 c -3.42075,0 -6.17464,-5.83743 -6.17464,-13.0884 l 0,-50.59479 c 0,-7.25098 2.75389,-13.0884 6.17464,-13.0884 z"
           style="opacity:1;fill:#000080;fill-opacity:1;stroke:#000043;stroke-width:5;stroke-miterlimit:4;stroke-dasharray:none;stroke-opacity:1"
           inkscape:connector-curvature="0" />
      </g>
      <g
         id="flowRoot4404"
         style="font-style:normal;font-weight:normal;font-size:40px;line-height:125%;font-family:sans-serif;letter-spacing:0px;word-spacing:0px;fill:#000000;fill-opacity:1;stroke:none;stroke-width:1px;stroke-linecap:butt;stroke-linejoin:miter;stroke-opacity:1"
         transform="translate(-389.91886,-143.65849)">
        <path
           id="path4446"
           style="font-style:normal;font-variant:normal;font-weight:normal;font-stretch:normal;font-size:52.50000763px;font-family:'Ubuntu Condensed';-inkscape-font-specification:'Ubuntu Condensed, '"
           d="m 265.1975,515.89811 q 0,4.2525 -0.7875,7.77 -0.735,3.465 -2.3625,5.985 -1.575,2.4675 -4.0425,3.8325 -2.415,1.365 -5.7225,1.365 -3.3075,0 -5.775,-1.365 -2.415,-1.365 -4.0425,-3.8325 -1.575,-2.52 -2.3625,-5.985 -0.7875,-3.5175 -0.7875,-7.77 0,-4.2525 0.7875,-7.77 0.7875,-3.5175 2.3625,-5.98501 1.6275,-2.52 4.0425,-3.885 2.4675,-1.4175 5.775,-1.4175 3.3075,0 5.7225,1.4175 2.4675,1.365 4.0425,3.885 1.6275,2.46751 2.3625,5.98501 0.7875,3.5175 0.7875,7.77 z m -5.04,0 q 0,-3.3075 -0.42,-6.0375 -0.42,-2.73 -1.365,-4.6725 -0.945,-1.99501 -2.4675,-3.09751 -1.47,-1.1025 -3.6225,-1.1025 -2.1525,0 -3.675,1.1025 -1.47,1.1025 -2.415,3.09751 -0.945,1.9425 -1.4175,4.6725 -0.42,2.73 -0.42,6.0375 0,3.3075 0.42,6.0375 0.4725,2.73 1.4175,4.6725 0.945,1.9425 2.415,3.045 1.5225,1.05 3.675,1.05 2.1525,0 3.6225,-1.05 1.5225,-1.1025 2.4675,-3.045 0.945,-1.9425 1.365,-4.6725 0.42,-2.73 0.42,-6.0375 z"
           inkscape:connector-curvature="0" />
        <path
           id="path4448"
           style="font-style:normal;font-variant:normal;font-weight:normal;font-stretch:normal;font-size:52.50000763px;font-family:'Ubuntu Condensed';-inkscape-font-specification:'Ubuntu Condensed, '"
           d="m 276.71961,530.38811 q 0.735,0.21 1.4175,0.315 0.6825,0.0525 1.26,0.0525 3.04501,0 4.51501,-2.415 1.5225,-2.4675 1.5225,-8.1375 0,-2.94 -0.3675,-4.935 -0.3675,-1.995 -1.1025,-3.2025 -0.6825,-1.2075 -1.68,-1.7325 -0.9975,-0.525 -2.31001,-0.525 -1.7325,0 -3.255,0.84 l 0,19.74 z m 0,-23.6775 q 0.84,-0.42 1.68,-0.63 0.8925,-0.2625 2.1,-0.2625 2.57251,0 4.41001,1.05 1.8375,0.9975 2.9925,2.8875 1.155,1.8375 1.68,4.515 0.5775,2.625 0.5775,5.9325 0,7.2975 -2.625,10.92 -2.5725,3.6225 -8.13751,3.6225 -1.9425,0 -3.8325,-0.42 -1.89,-0.3675 -3.36,-0.9975 l 0,-39.21751 4.515,-0.7875 0,13.38751 z"
           inkscape:connector-curvature="0" />
        <path
           id="path4450"
           style="font-style:normal;font-variant:normal;font-weight:normal;font-stretch:normal;font-size:52.50000763px;font-family:'Ubuntu Condensed';-inkscape-font-specification:'Ubuntu Condensed, '"
           d="m 301.27895,535.53311 q 0,4.515 -1.995,6.4575 -1.995,1.9425 -5.3025,1.9425 -1.7325,0 -3.0975,-0.525 l 0.63,-3.8325 q 0.4725,0.105 0.945,0.1575 0.4725,0.105 1.05,0.105 0.735,0 1.3125,-0.21 0.63,-0.1575 1.05,-0.6825 0.42,-0.525 0.63,-1.4175 0.2625,-0.8925 0.2625,-2.2575 l 0,-28.77 4.515,0 0,29.0325 z m -2.2575,-33.91501 q -1.2075,0 -2.1,-0.7875 -0.84,-0.84 -0.84,-2.205 0,-1.365 0.84,-2.1525 0.8925,-0.84 2.1,-0.84 1.2075,0 2.0475,0.84 0.8925,0.7875 0.8925,2.1525 0,1.365 -0.8925,2.205 -0.84,0.7875 -2.0475,0.7875 z"
           inkscape:connector-curvature="0" />
        <path
           id="path4452"
           style="font-style:normal;font-variant:normal;font-weight:normal;font-stretch:normal;font-size:52.50000763px;font-family:'Ubuntu Condensed';-inkscape-font-specification:'Ubuntu Condensed, '"
           d="m 312.5763,521.62061 q 0.0525,1.995 0.3675,3.675 0.315,1.6275 0.9975,2.8875 0.735,1.2075 1.89,1.89 1.2075,0.6825 3.045,0.6825 1.5225,0 2.7825,-0.42 1.3125,-0.4725 1.89,-0.7875 l 0.84,3.6225 q -0.6825,0.4725 -2.31,0.9975 -1.575,0.5775 -3.78,0.5775 -2.8875,0 -4.8825,-1.05 -1.9425,-1.05 -3.2025,-2.94 -1.2075,-1.89 -1.7325,-4.515 -0.525,-2.625 -0.525,-5.775 0,-7.6125 2.52,-11.13 2.52,-3.5175 6.6675,-3.5175 4.6725,0 6.615,3.5175 1.9425,3.5175 1.9425,9.87 0,0.5775 0,1.2075 0,0.5775 -0.0525,1.2075 l -13.0725,0 z m 4.5675,-11.97 q -2.2575,0 -3.3075,2.2575 -0.9975,2.2575 -1.2075,6.0375 l 8.3475,0 q 0,-3.8325 -0.7875,-6.0375 -0.7875,-2.2575 -3.045,-2.2575 z"
           inkscape:connector-curvature="0" />
        <path
           id="path4454"
           style="font-style:normal;font-variant:normal;font-weight:normal;font-stretch:normal;font-size:52.50000763px;font-family:'Ubuntu Condensed';-inkscape-font-specification:'Ubuntu Condensed, '"
           d="m 340.74502,534.74561 q -2.835,0 -4.725,-1.1025 -1.89,-1.1025 -3.0975,-2.9925 -1.155,-1.9425 -1.68,-4.5675 -0.4725,-2.625 -0.4725,-5.7225 0,-6.825 2.4675,-10.6575 2.52,-3.885 7.56,-3.885 1.5225,0 2.73,0.3675 1.2075,0.3675 2.2575,0.945 l -1.155,3.7275 q -1.6275,-1.05 -3.6225,-1.05 -2.835,0 -4.2,2.5725 -1.3125,2.5725 -1.3125,7.98 0,2.2575 0.2625,4.2 0.2625,1.89 0.8925,3.255 0.6825,1.365 1.7325,2.1525 1.1025,0.7875 2.7825,0.7875 1.155,0 2.0475,-0.2625 0.945,-0.315 1.785,-0.7875 l 0.9975,3.5175 q -0.84,0.5775 -2.2575,1.05 -1.365,0.4725 -2.9925,0.4725 z"
           inkscape:connector-curvature="0" />
        <path
           id="path4456"
           style="font-style:normal;font-variant:normal;font-weight:normal;font-stretch:normal;font-size:52.50000763px;font-family:'Ubuntu Condensed';-inkscape-font-specification:'Ubuntu Condensed, '"
           d="m 355.10459,506.50061 6.93,0 0,3.885 -6.93,0 0,15.1725 q 0,2.835 0.9975,3.99 1.05,1.1025 2.7825,1.1025 0.8925,0 1.68,-0.2625 0.84,-0.2625 1.4175,-0.63 l 0.8925,3.6225 q -2.1525,1.26 -4.5675,1.26 -3.885,0 -5.8275,-2.1525 -1.89,-2.205 -1.89,-7.245 l 0,-26.14501 4.515,-0.7875 0,8.19001 z"
           inkscape:connector-curvature="0" />
        <path
           id="path4458"
           style="font-style:normal;font-variant:normal;font-weight:normal;font-stretch:normal;font-size:52.50000763px;font-family:'Ubuntu Condensed';-inkscape-font-specification:'Ubuntu Condensed, '"
           d="m 367.30099,504.92561 q 0.9975,-0.5775 2.0475,-1.4175 1.1025,-0.84001 2.1,-1.78501 0.9975,-0.9975 1.8375,-1.995 0.8925,-1.05 1.47,-2.0475 l 3.465,0 0,36.38251 -4.515,0 0,-29.2425 q -0.8925,0.945 -2.1,1.785 -1.155,0.84 -2.4675,1.575 l -1.8375,-3.255 z"
           inkscape:connector-curvature="0" />
      </g>
      <g
         id="flowRoot4412"
         style="font-style:normal;font-weight:normal;font-size:40px;line-height:125%;font-family:sans-serif;letter-spacing:0px;word-spacing:0px;fill:#000000;fill-opacity:1;stroke:none;stroke-width:1px;stroke-linecap:butt;stroke-linejoin:miter;stroke-opacity:1"
         transform="translate(-101.0152,-143.65849)">
        <path
           id="path4431"
           style="font-style:normal;font-variant:normal;font-weight:normal;font-stretch:normal;font-size:52.50000763px;font-family:'Ubuntu Condensed';-inkscape-font-specification:'Ubuntu Condensed, '"
           d="m 265.1975,515.89811 q 0,4.2525 -0.7875,7.77 -0.735,3.465 -2.3625,5.985 -1.575,2.4675 -4.0425,3.8325 -2.415,1.365 -5.7225,1.365 -3.3075,0 -5.775,-1.365 -2.415,-1.365 -4.0425,-3.8325 -1.575,-2.52 -2.3625,-5.985 -0.7875,-3.5175 -0.7875,-7.77 0,-4.2525 0.7875,-7.77 0.7875,-3.5175 2.3625,-5.98501 1.6275,-2.52 4.0425,-3.885 2.4675,-1.4175 5.775,-1.4175 3.3075,0 5.7225,1.4175 2.4675,1.365 4.0425,3.885 1.6275,2.46751 2.3625,5.98501 0.7875,3.5175 0.7875,7.77 z m -5.04,0 q 0,-3.3075 -0.42,-6.0375 -0.42,-2.73 -1.365,-4.6725 -0.945,-1.99501 -2.4675,-3.09751 -1.47,-1.1025 -3.6225,-1.1025 -2.1525,0 -3.675,1.1025 -1.47,1.1025 -2.415,3.09751 -0.945,1.9425 -1.4175,4.6725 -0.42,2.73 -0.42,6.0375 0,3.3075 0.42,6.0375 0.4725,2.73 1.4175,4.6725 0.945,1.9425 2.415,3.045 1.5225,1.05 3.675,1.05 2.1525,0 3.6225,-1.05 1.5225,-1.1025 2.4675,-3.045 0.945,-1.9425 1.365,-4.6725 0.42,-2.73 0.42,-6.0375 z"
           inkscape:connector-curvature="0" />
        <path
           id="path4433"
           style="font-style:normal;font-variant:normal;font-weight:normal;font-stretch:normal;font-size:52.50000763px;font-family:'Ubuntu Condensed';-inkscape-font-specification:'Ubuntu Condensed, '"
           d="m 276.71961,530.38811 q 0.735,0.21 1.4175,0.315 0.6825,0.0525 1.26,0.0525 3.04501,0 4.51501,-2.415 1.5225,-2.4675 1.5225,-8.1375 0,-2.94 -0.3675,-4.935 -0.3675,-1.995 -1.1025,-3.2025 -0.6825,-1.2075 -1.68,-1.7325 -0.9975,-0.525 -2.31001,-0.525 -1.7325,0 -3.255,0.84 l 0,19.74 z m 0,-23.6775 q 0.84,-0.42 1.68,-0.63 0.8925,-0.2625 2.1,-0.2625 2.57251,0 4.41001,1.05 1.8375,0.9975 2.9925,2.8875 1.155,1.8375 1.68,4.515 0.5775,2.625 0.5775,5.9325 0,7.2975 -2.625,10.92 -2.5725,3.6225 -8.13751,3.6225 -1.9425,0 -3.8325,-0.42 -1.89,-0.3675 -3.36,-0.9975 l 0,-39.21751 4.515,-0.7875 0,13.38751 z"
           inkscape:connector-curvature="0" />
        <path
           id="path4435"
           style="font-style:normal;font-variant:normal;font-weight:normal;font-stretch:normal;font-size:52.50000763px;font-family:'Ubuntu Condensed';-inkscape-font-specification:'Ubuntu Condensed, '"
           d="m 301.27895,535.53311 q 0,4.515 -1.995,6.4575 -1.995,1.9425 -5.3025,1.9425 -1.7325,0 -3.0975,-0.525 l 0.63,-3.8325 q 0.4725,0.105 0.945,0.1575 0.4725,0.105 1.05,0.105 0.735,0 1.3125,-0.21 0.63,-0.1575 1.05,-0.6825 0.42,-0.525 0.63,-1.4175 0.2625,-0.8925 0.2625,-2.2575 l 0,-28.77 4.515,0 0,29.0325 z m -2.2575,-33.91501 q -1.2075,0 -2.1,-0.7875 -0.84,-0.84 -0.84,-2.205 0,-1.365 0.84,-2.1525 0.8925,-0.84 2.1,-0.84 1.2075,0 2.0475,0.84 0.8925,0.7875 0.8925,2.1525 0,1.365 -0.8925,2.205 -0.84,0.7875 -2.0475,0.7875 z"
           inkscape:connector-curvature="0" />
        <path
           id="path4437"
           style="font-style:normal;font-variant:normal;font-weight:normal;font-stretch:normal;font-size:52.50000763px;font-family:'Ubuntu Condensed';-inkscape-font-specification:'Ubuntu Condensed, '"
           d="m 312.5763,521.62061 q 0.0525,1.995 0.3675,3.675 0.315,1.6275 0.9975,2.8875 0.735,1.2075 1.89,1.89 1.2075,0.6825 3.045,0.6825 1.5225,0 2.7825,-0.42 1.3125,-0.4725 1.89,-0.7875 l 0.84,3.6225 q -0.6825,0.4725 -2.31,0.9975 -1.575,0.5775 -3.78,0.5775 -2.8875,0 -4.8825,-1.05 -1.9425,-1.05 -3.2025,-2.94 -1.2075,-1.89 -1.7325,-4.515 -0.525,-2.625 -0.525,-5.775 0,-7.6125 2.52,-11.13 2.52,-3.5175 6.6675,-3.5175 4.6725,0 6.615,3.5175 1.9425,3.5175 1.9425,9.87 0,0.5775 0,1.2075 0,0.5775 -0.0525,1.2075 l -13.0725,0 z m 4.5675,-11.97 q -2.2575,0 -3.3075,2.2575 -0.9975,2.2575 -1.2075,6.0375 l 8.3475,0 q 0,-3.8325 -0.7875,-6.0375 -0.7875,-2.2575 -3.045,-2.2575 z"
           inkscape:connector-curvature="0" />
        <path
           id="path4439"
           style="font-style:normal;font-variant:normal;font-weight:normal;font-stretch:normal;font-size:52.50000763px;font-family:'Ubuntu Condensed';-inkscape-font-specification:'Ubuntu Condensed, '"
           d="m 340.74502,534.74561 q -2.835,0 -4.725,-1.1025 -1.89,-1.1025 -3.0975,-2.9925 -1.155,-1.9425 -1.68,-4.5675 -0.4725,-2.625 -0.4725,-5.7225 0,-6.825 2.4675,-10.6575 2.52,-3.885 7.56,-3.885 1.5225,0 2.73,0.3675 1.2075,0.3675 2.2575,0.945 l -1.155,3.7275 q -1.6275,-1.05 -3.6225,-1.05 -2.835,0 -4.2,2.5725 -1.3125,2.5725 -1.3125,7.98 0,2.2575 0.2625,4.2 0.2625,1.89 0.8925,3.255 0.6825,1.365 1.7325,2.1525 1.1025,0.7875 2.7825,0.7875 1.155,0 2.0475,-0.2625 0.945,-0.315 1.785,-0.7875 l 0.9975,3.5175 q -0.84,0.5775 -2.2575,1.05 -1.365,0.4725 -2.9925,0.4725 z"
           inkscape:connector-curvature="0" />
        <path
           id="path4441"
           style="font-style:normal;font-variant:normal;font-weight:normal;font-stretch:normal;font-size:52.50000763px;font-family:'Ubuntu Condensed';-inkscape-font-specification:'Ubuntu Condensed, '"
           d="m 355.10459,506.50061 6.93,0 0,3.885 -6.93,0 0,15.1725 q 0,2.835 0.9975,3.99 1.05,1.1025 2.7825,1.1025 0.8925,0 1.68,-0.2625 0.84,-0.2625 1.4175,-0.63 l 0.8925,3.6225 q -2.1525,1.26 -4.5675,1.26 -3.885,0 -5.8275,-2.1525 -1.89,-2.205 -1.89,-7.245 l 0,-26.14501 4.515,-0.7875 0,8.19001 z"
           inkscape:connector-curvature="0" />
        <path
           id="path4443"
           style="font-style:normal;font-variant:normal;font-weight:normal;font-stretch:normal;font-size:52.50000763px;font-family:'Ubuntu Condensed';-inkscape-font-specification:'Ubuntu Condensed, '"
           d="m 365.93599,499.9381 q 3.0975,-3.0975 7.56,-3.0975 4.2525,0 6.51,2.2575 2.2575,2.205 2.2575,6.93001 0,2.205 -0.735,4.2 -0.735,1.995 -1.8375,3.885 -1.1025,1.8375 -2.415,3.675 -1.3125,1.8375 -2.52,3.78 -1.2075,1.89 -2.1,3.99 -0.8925,2.0475 -1.1025,4.41 l 11.445,0 0,4.095 -16.275,0 0,-0.9975 q 0,-3.5175 0.7875,-6.2475 0.84,-2.73 1.995,-4.935 1.2075,-2.205 2.625,-4.095 1.4175,-1.89 2.5725,-3.675 1.2075,-1.8375 1.995,-3.7275 0.84,-1.9425 0.84,-4.2525 0,-2.7825 -1.1025,-3.99001 -1.1025,-1.26 -3.3075,-1.26 -1.5225,0 -2.7825,0.63 -1.2075,0.5775 -2.205,1.5225 l -2.205,-3.0975 z"
           inkscape:connector-curvature="0" />
      </g>
    </g>
    <g
       transform="translate(-358.67553,-246.51565)"
       style="font-style:normal;font-weight:normal;font-size:40px;line-height:125%;font-family:sans-serif;letter-spacing:0px;word-spacing:0px;fill:#000000;fill-opacity:1;stroke:none;stroke-width:1px;stroke-linecap:butt;stroke-linejoin:miter;stroke-opacity:1"
       id="flowRoot4422">
      <path
         d="m 255.875,535.90755 q -1.2,-4.32 -2.46,-8.28 -1.26,-3.96 -2.46,-7.44 -1.14,-3.54001 -2.22,-6.42001 -1.08,-2.88 -1.98,-5.04 -0.24,3.42 -0.42,7.56 -0.12,4.08001 -0.3,8.40001 -0.12,4.32 -0.24,8.7 -0.06,4.32 -0.12,8.28 l -5.16,0 q 0.18,-5.4 0.36,-10.86 0.18,-5.52 0.42,-10.8 0.3,-5.34001 0.6,-10.38001 0.36,-5.04 0.78,-9.54 l 5.34,0 q 1.08,2.58 2.46,6.18 1.38,3.54 2.76,7.44 1.44,3.90001 2.76,7.80001 1.32,3.9 2.28,7.14 0.96,-3.24 2.22,-7.14 1.26,-3.9 2.64,-7.80001 1.38,-3.9 2.7,-7.44 1.38,-3.6 2.46,-6.18 l 5.34,0 q 0.42,4.5 0.72,9.54 0.36,5.04 0.6,10.38001 0.3,5.28 0.48,10.8 0.18,5.46 0.36001,10.86 l -5.16001,0 q -0.12,-3.96 -0.24,-8.34 -0.06,-4.38 -0.24,-8.76 -0.12,-4.44 -0.3,-8.58001 -0.18,-4.2 -0.42,-7.68 -0.54,1.5 -1.38,3.78 -0.78,2.22 -1.68,4.86 -0.84,2.64001 -1.8,5.46001 -0.9,2.76 -1.74,5.34 -0.78,2.58 -1.44,4.74 -0.6,2.1 -0.96,3.42 l -4.56,0 z"
         style="font-style:normal;font-variant:normal;font-weight:normal;font-stretch:normal;font-size:60.00000763px;font-family:'Ubuntu Condensed';-inkscape-font-specification:'Ubuntu Condensed, '"
         id="path4464"
         inkscape:connector-curvature="0" />
      <path
         d="m 288.18875,527.44755 q 0.06,2.28 0.42,4.2 0.36,1.86 1.14001,3.3 0.84,1.38 2.16,2.16 1.38,0.78 3.48,0.78 1.74,0 3.18,-0.48 1.5,-0.54 2.16,-0.9 l 0.96,4.14 q -0.78,0.54 -2.64,1.14 -1.8,0.66 -4.32,0.66 -3.3,0 -5.58001,-1.2 -2.22,-1.2 -3.66,-3.36 -1.38,-2.16 -1.98,-5.16 -0.6,-3 -0.6,-6.6 0,-8.7 2.88,-12.72001 2.88,-4.02 7.62001,-4.02 5.34,0 7.56,4.02 2.22,4.02001 2.22,11.28001 0,0.66 0,1.38 0,0.66 -0.06,1.38 l -14.94001,0 z m 5.22001,-13.68001 q -2.58,0 -3.78,2.58 -1.14001,2.58001 -1.38001,6.90001 l 9.54001,0 q 0,-4.38 -0.9,-6.90001 -0.9,-2.58 -3.48,-2.58 z"
         style="font-style:normal;font-variant:normal;font-weight:normal;font-stretch:normal;font-size:60.00000763px;font-family:'Ubuntu Condensed';-inkscape-font-specification:'Ubuntu Condensed, '"
         id="path4466"
         inkscape:connector-curvature="0" />
      <path
         d="m 310.78157,511.06754 q 2.1,-0.66 4.56,-1.08 2.46,-0.48 4.5,-0.48 2.1,0 3.78,0.54 1.74,0.54 3.06,1.8 1.56,-1.02 3.36,-1.68 1.8,-0.66 3.96,-0.66 2.16,0 3.9,0.66 1.8,0.6 3.06,2.1 1.26,1.5 1.98,4.08 0.72,2.52001 0.72,6.30001 l 0,19.02 -5.16,0 0,-18.6 q 0,-4.68 -1.08,-6.84001 -1.08,-2.16 -4.08,-2.16 -1.14,0 -2.34,0.42 -1.14,0.42 -2.16,1.14 0.48,1.38 0.72,3.12001 0.24,1.74 0.24,3.9 l 0,19.02 -5.16,0 0,-18.6 q 0,-4.68 -1.08,-6.84001 -1.08,-2.16 -4.08,-2.16 -1.56,0 -3.54,0.6 l 0,27.00001 -5.16,0 0,-30.60001 z"
         style="font-style:normal;font-variant:normal;font-weight:normal;font-stretch:normal;font-size:60.00000763px;font-family:'Ubuntu Condensed';-inkscape-font-specification:'Ubuntu Condensed, '"
         id="path4468"
         inkscape:connector-curvature="0" />
      <path
         d="m 372.83752,525.94755 q 0,3.72 -0.66,6.78 -0.66,3 -2.04,5.16 -1.32,2.16 -3.42,3.36 -2.04,1.2 -4.86,1.2 -2.82,0 -4.92,-1.2 -2.1,-1.2 -3.48,-3.36 -1.32,-2.16 -1.98,-5.16 -0.66,-3.06 -0.66,-6.78 0,-3.66 0.66,-6.72 0.66,-3.06001 1.98,-5.22001 1.38,-2.22 3.48,-3.42 2.1,-1.2 4.92,-1.2 2.82,0 4.86,1.2 2.1,1.2 3.42,3.42 1.38,2.16 2.04,5.22001 0.66,3.06 0.66,6.72 z m -5.4,0 q 0,-2.64 -0.3,-4.8 -0.3,-2.22 -0.96,-3.78 -0.66,-1.62001 -1.74,-2.46001 -1.08,-0.9 -2.58,-0.9 -1.56,0 -2.64,0.9 -1.02,0.84 -1.74,2.46001 -0.66,1.56 -0.96,3.78 -0.3,2.16 -0.3,4.8 0,2.64 0.3,4.86 0.3,2.16 0.96,3.72 0.72,1.56 1.74,2.46 1.08,0.84 2.64,0.84 1.5,0 2.58,-0.84 1.08,-0.9 1.74,-2.46 0.66,-1.56 0.96,-3.72 0.3,-2.22 0.3,-4.86 z"
         style="font-style:normal;font-variant:normal;font-weight:normal;font-stretch:normal;font-size:60.00000763px;font-family:'Ubuntu Condensed';-inkscape-font-specification:'Ubuntu Condensed, '"
         id="path4470"
         inkscape:connector-curvature="0" />
      <path
         d="m 394.01096,514.84754 q -1.92001,-0.84 -4.32001,-0.84 -2.22,0 -4.14,0.78 l 0,26.88001 -5.16,0 0,-30.12001 q 1.74,-0.84 3.96,-1.38 2.28,-0.6 4.98,-0.6 1.44,0 2.88,0.18 1.44001,0.18 2.70001,0.66 l -0.9,4.44 z"
         style="font-style:normal;font-variant:normal;font-weight:normal;font-stretch:normal;font-size:60.00000763px;font-family:'Ubuntu Condensed';-inkscape-font-specification:'Ubuntu Condensed, '"
         id="path4472"
         inkscape:connector-curvature="0" />
      <path
         d="m 409.44783,535.12755 q 1.74,-6 3.18,-12.06 1.44,-6.06001 2.76,-12.90001 l 5.1,0 q -0.9,4.38 -1.98,8.64001 -1.02,4.26 -2.16,8.22 -1.08,3.96 -2.22,7.5 -1.08,3.48 -2.04,6.36 -1.14,3.36 -2.22,5.64 -1.02,2.34 -2.28,3.72 -1.2,1.44 -2.64,2.04 -1.44,0.66 -3.42,0.66 -1.08,0 -2.16,-0.3 -1.08,-0.24 -1.8,-0.54 l 0.96,-4.2 q 1.56,0.66 2.94,0.66 1.74,0 2.82,-1.26 1.08,-1.26 2.1,-3.78 l 0.6,-1.5 q -1.14,-3.12 -2.34,-6.9 -1.14,-3.84 -2.28,-7.98 -1.08,-4.14 -2.1,-8.46 -1.02,-4.38001 -1.86,-8.52001 l 5.46,0 q 0.48,2.82 1.14,6.18 0.66,3.36001 1.38,6.72001 0.78,3.36 1.56,6.54 0.78,3.12 1.5,5.52 z"
         style="font-style:normal;font-variant:normal;font-weight:normal;font-stretch:normal;font-size:60.00000763px;font-family:'Ubuntu Condensed';-inkscape-font-specification:'Ubuntu Condensed, '"
         id="path4474"
         inkscape:connector-curvature="0" />
      <path
         d="m 456.59566,537.04755 0,4.62 -18.54,0 0,-41.58001 5.4,0 0,36.96001 13.14,0 z"
         style="font-style:normal;font-variant:normal;font-weight:normal;font-stretch:normal;font-size:60.00000763px;font-family:'Ubuntu Condensed';-inkscape-font-specification:'Ubuntu Condensed, '"
         id="path4476"
         inkscape:connector-curvature="0" />
      <path
         d="m 482.99378,525.94755 q 0,3.72 -0.66,6.78 -0.66,3 -2.04,5.16 -1.32,2.16 -3.42,3.36 -2.04,1.2 -4.86,1.2 -2.82,0 -4.92,-1.2 -2.1,-1.2 -3.48,-3.36 -1.32,-2.16 -1.98,-5.16 -0.66,-3.06 -0.66,-6.78 0,-3.66 0.66,-6.72 0.66,-3.06001 1.98,-5.22001 1.38,-2.22 3.48,-3.42 2.1,-1.2 4.92,-1.2 2.82,0 4.86,1.2 2.1,1.2 3.42,3.42 1.38,2.16 2.04,5.22001 0.66,3.06 0.66,6.72 z m -5.4,0 q 0,-2.64 -0.3,-4.8 -0.3,-2.22 -0.96,-3.78 -0.66,-1.62001 -1.74,-2.46001 -1.08,-0.9 -2.58,-0.9 -1.56,0 -2.64,0.9 -1.02,0.84 -1.74,2.46001 -0.66,1.56 -0.96,3.78 -0.3,2.16 -0.3,4.8 0,2.64 0.3,4.86 0.3,2.16 0.96,3.72 0.72,1.56 1.74,2.46 1.08,0.84 2.64,0.84 1.5,0 2.58,-0.84 1.08,-0.9 1.74,-2.46 0.66,-1.56 0.96,-3.72 0.3,-2.22 0.3,-4.86 z"
         style="font-style:normal;font-variant:normal;font-weight:normal;font-stretch:normal;font-size:60.00000763px;font-family:'Ubuntu Condensed';-inkscape-font-specification:'Ubuntu Condensed, '"
         id="path4478"
         inkscape:connector-curvature="0" />
      <path
         d="m 500.14722,542.44755 q -3.24,0 -5.4,-1.26 -2.16,-1.26 -3.54,-3.42 -1.32,-2.22 -1.92,-5.22 -0.54,-3 -0.54,-6.54 0,-7.8 2.82,-12.18001 2.88,-4.44 8.64,-4.44 1.74,0 3.12,0.42 1.38,0.42 2.58,1.08 l -1.32,4.26 q -1.86,-1.2 -4.14,-1.2 -3.24,0 -4.8,2.94 -1.5,2.94001 -1.5,9.12001 0,2.58 0.3,4.8 0.3,2.16 1.02,3.72 0.78,1.56 1.98,2.46 1.26,0.9 3.18,0.9 1.32,0 2.34,-0.3 1.08,-0.36 2.04,-0.9 l 1.14,4.02 q -0.96,0.66 -2.58,1.2 -1.56,0.54 -3.42,0.54 z"
         style="font-style:normal;font-variant:normal;font-weight:normal;font-stretch:normal;font-size:60.00000763px;font-family:'Ubuntu Condensed';-inkscape-font-specification:'Ubuntu Condensed, '"
         id="path4480"
         inkscape:connector-curvature="0" />
      <path
         d="m 512.23816,510.82754 q 1.56,-0.66 3.3,-1.02 1.74,-0.42 3.78,-0.42 4.2,0 6.84,2.64 2.64,2.58 2.64,8.10001 l 0,20.88 q -2.16,0.6 -4.44,0.96 -2.22,0.36 -4.38,0.36 -2.16,0 -4.08,-0.54 -1.86,-0.54 -3.3,-1.74 -1.38,-1.2 -2.22,-3 -0.84,-1.86 -0.84,-4.5 0,-2.46 0.72,-4.26 0.78,-1.86 2.1,-3.06 1.32,-1.26 3.12,-1.86 1.8,-0.66 3.9,-0.66 1.98,0 4.38,0.48 l 0,-2.88 q 0,-3.48001 -1.38,-4.86001 -1.32,-1.38 -3.84,-1.38 -1.38,0 -2.64,0.3 -1.2,0.24 -2.58,0.84 l -1.08,-4.38 z m 2.46,21.66001 q 0,2.76 1.44,4.08 1.44,1.32 4.08,1.32 1.62,0 3.54,-0.42 l 0,-10.02 q -1.8,-0.48 -3.54,-0.48 -1.14,0 -2.16,0.3 -1.02,0.24 -1.8,0.9 -0.72,0.6 -1.14,1.68 -0.42,1.02 -0.42,2.64 z"
         style="font-style:normal;font-variant:normal;font-weight:normal;font-stretch:normal;font-size:60.00000763px;font-family:'Ubuntu Condensed';-inkscape-font-specification:'Ubuntu Condensed, '"
         id="path4482"
         inkscape:connector-curvature="0" />
      <path
         d="m 542.57378,510.16754 7.92,0 0,4.44 -7.92,0 0,17.34001 q 0,3.24 1.14,4.56 1.2,1.26 3.18,1.26 1.02,0 1.92,-0.3 0.96,-0.3 1.62,-0.72 l 1.02,4.14 q -2.46,1.44 -5.22,1.44 -4.44,0 -6.66,-2.46 -2.16,-2.52 -2.16,-8.28 l 0,-29.88001 5.16,-0.9 0,9.36 z"
         style="font-style:normal;font-variant:normal;font-weight:normal;font-stretch:normal;font-size:60.00000763px;font-family:'Ubuntu Condensed';-inkscape-font-specification:'Ubuntu Condensed, '"
         id="path4484"
         inkscape:connector-curvature="0" />
      <path
         d="m 562.15253,541.66755 -5.16,0 0,-31.50001 5.16,0 0,31.50001 z m -2.58,-37.08001 q -1.38,0 -2.4,-0.9 -0.96,-0.96 -0.96,-2.52 0,-1.56 0.96,-2.46 1.02,-0.96 2.4,-0.96 1.38,0 2.34,0.96 1.02,0.9 1.02,2.46 0,1.56 -1.02,2.52 -0.96,0.9 -2.34,0.9 z"
         style="font-style:normal;font-variant:normal;font-weight:normal;font-stretch:normal;font-size:60.00000763px;font-family:'Ubuntu Condensed';-inkscape-font-specification:'Ubuntu Condensed, '"
         id="path4486"
         inkscape:connector-curvature="0" />
      <path
         d="m 591.74378,525.94755 q 0,3.72 -0.66,6.78 -0.66,3 -2.04,5.16 -1.32,2.16 -3.42,3.36 -2.04,1.2 -4.86,1.2 -2.82,0 -4.92,-1.2 -2.1,-1.2 -3.48,-3.36 -1.32,-2.16 -1.98,-5.16 -0.66,-3.06 -0.66,-6.78 0,-3.66 0.66,-6.72 0.66,-3.06001 1.98,-5.22001 1.38,-2.22 3.48,-3.42 2.1,-1.2 4.92,-1.2 2.82,0 4.86,1.2 2.1,1.2 3.42,3.42 1.38,2.16 2.04,5.22001 0.66,3.06 0.66,6.72 z m -5.4,0 q 0,-2.64 -0.3,-4.8 -0.3,-2.22 -0.96,-3.78 -0.66,-1.62001 -1.74,-2.46001 -1.08,-0.9 -2.58,-0.9 -1.56,0 -2.64,0.9 -1.02,0.84 -1.74,2.46001 -0.66,1.56 -0.96,3.78 -0.3,2.16 -0.3,4.8 0,2.64 0.3,4.86 0.3,2.16 0.96,3.72 0.72,1.56 1.74,2.46 1.08,0.84 2.64,0.84 1.5,0 2.58,-0.84 1.08,-0.9 1.74,-2.46 0.66,-1.56 0.96,-3.72 0.3,-2.22 0.3,-4.86 z"
         style="font-style:normal;font-variant:normal;font-weight:normal;font-stretch:normal;font-size:60.00000763px;font-family:'Ubuntu Condensed';-inkscape-font-specification:'Ubuntu Condensed, '"
         id="path4488"
         inkscape:connector-curvature="0" />
      <path
         d="m 599.29722,511.06754 q 2.22,-0.66 4.8,-1.08 2.58,-0.48 4.74,-0.48 2.34,0 4.26,0.66 1.92,0.6 3.24,2.1 1.38,1.5 2.1,4.08 0.78,2.52001 0.78,6.30001 l 0,19.02 -5.16,0 0,-18.6 q 0,-4.68 -1.2,-6.84001 -1.2,-2.16 -4.5,-2.16 -1.74,0 -3.9,0.6 l 0,27.00001 -5.16,0 0,-30.60001 z"
         style="font-style:normal;font-variant:normal;font-weight:normal;font-stretch:normal;font-size:60.00000763px;font-family:'Ubuntu Condensed';-inkscape-font-specification:'Ubuntu Condensed, '"
         id="path4490"
         inkscape:connector-curvature="0" />
    </g>
  </g>
</svg>
